<svg width="91" height="69" viewBox="0 0 91 69" fill="none" xmlns="http://www.w3.org/2000/svg">
<path d="M44.9932 18.3872C45.1388 18.7238 44.7681 18.5334 44.291 18.254C44.145 18.1656 43.6929 17.5989 43.568 17.5159C43.322 17.356 43.497 17.6752 43.207 17.4841C43.108 17.4187 42.371 16.5383 42.284 16.4899C41.8153 16.2286 41.8712 16.5741 41.5625 16.5301C40.0138 16.3361 38.8937 16.8884 37.7077 17.4549C37.3272 17.6302 36.1944 17.3558 36.2788 17.9698C36.289 18.0427 37.0858 18.6599 37.144 18.7199C38.034 19.6388 36.4928 18.311 36.2212 18.216C35.1418 17.8505 34.8027 18.126 34.8677 18.6737C34.8995 18.9064 36.5759 20.011 35.5933 19.4444C35.5266 19.4065 34.7069 18.7178 34.5901 18.6821C34.3266 18.6027 34.3613 18.8704 34.2464 18.8809C34.0203 18.8981 34.0133 18.925 33.9156 19.033C33.7737 19.1764 33.2074 19.0443 33.2759 19.3579C33.2931 19.4267 34.2079 20.0345 34.3154 20.2026C34.4228 20.3703 34.2364 20.4656 33.9901 20.3642C33.7437 20.2625 33.0654 19.7298 32.8995 19.6219C31.4982 18.7121 33.2267 20.2615 33.2571 20.3169C33.7493 21.2942 32.4136 20.9013 32.1369 21.3036C31.9308 21.6081 32.0568 22.1914 31.81 22.4493C31.5149 22.7507 30.8184 22.7236 30.6714 23.1329C30.6558 23.1739 31.7612 23.84 31.7446 23.8911C31.5706 24.4294 31.1402 24.8388 30.1102 24.8404C30.0053 24.841 29.0861 24.1759 28.9237 24.141C27.9541 23.9335 25.738 23.2665 29.8341 26.0175C29.549 26.114 29.232 26.2523 28.2707 25.9222C27.6515 25.7104 26.6646 24.9584 27.0267 25.3773C27.1072 25.471 28.0591 25.9842 28.1101 26.0822C28.3241 26.4938 27.8861 26.543 28.2481 27.0274C28.3237 27.1276 29.1639 27.6083 29.3072 27.7085C30.4664 28.5213 28.3601 27.5001 28.1921 27.4517C26.9403 27.0871 27.2498 27.545 27.0729 27.7904C27.0324 27.8454 28.1993 28.4241 28.2011 28.4999C28.1954 28.8837 27.9255 29.1322 27.2568 29.1443C27.1053 29.1455 26.1739 28.5423 26.052 28.5154C25.5253 28.4048 27.3329 29.4579 26.8638 29.3711C26.7671 29.3543 25.9481 28.8765 25.8542 28.8309C24.3803 28.1181 26.3657 29.3131 26.3993 29.3578C26.8687 29.9516 24.6601 28.9499 24.8195 29.3716C24.8409 29.4229 25.9307 29.9303 25.9268 30.0388C25.9032 30.7722 25.2997 31.2005 24.1477 31.3295C23.97 31.3503 23.206 30.8671 23.1047 30.8209C21.5193 30.1065 23.5467 31.2482 23.6092 31.3177C24.0458 31.8429 22.2048 31.1561 24.5849 32.584C23.2281 33.1149 24.1413 34.7632 21.4287 34.6642C21.3967 34.6643 20.3783 34.1394 20.3187 34.142C19.5945 34.1605 21.2231 34.8823 23.0887 36.0252C23.5575 36.3114 21.1174 35.32 20.937 35.2507C20.2735 34.992 18.7627 34.2019 18.6308 34.1588C17.5908 33.8301 22.6812 36.2477 22.5961 36.4297C22.5849 36.4313 21.6608 35.9595 21.5604 35.9304C21.2454 35.8386 21.5945 36.064 21.2498 35.9572C20.453 35.7087 17.9611 34.5724 19.3208 35.4245C19.4976 35.5343 22.4008 36.8725 22.1864 36.9725C22.0978 37.0127 22.0117 37.3239 21.7872 37.315C21.5624 37.3071 20.6554 36.8149 20.6124 36.8016C19.2768 36.4419 18.8042 36.1201 16.9249 35.3782C15.0516 34.6417 19.4091 36.6352 19.8731 36.9057C20.3358 37.1755 19.2416 36.8633 18.8684 36.7395C18.4952 36.6153 17.9246 36.2899 17.7073 36.2327C16.2853 35.8647 19.8177 37.3357 20.4723 37.7321C22.0239 38.6675 18.7307 37.3236 18.3353 37.3509C18.2287 37.3579 18.9819 37.657 19.032 37.7294C19.2208 38.0118 18.1674 37.6495 19.0115 38.2497C19.1487 38.3483 21.0299 39.3734 19.5586 38.822C19.3464 38.7424 18.5566 38.3398 18.3451 38.3263C18.0279 38.3056 17.7682 38.4112 17.9889 38.6428C18.1523 38.8138 19.5258 39.3167 19.0664 39.2336C18.8614 39.1965 18.1198 38.7635 17.7994 38.7233C17.4791 38.6827 17.4154 38.918 17.4051 39.014C17.3955 39.1101 18.4277 39.5128 18.4929 39.5498C18.8652 39.7638 19.2828 40.1391 19.2755 40.1526C19.0906 40.9062 17.0994 40.809 17.3662 41.7582C17.3858 41.8317 18.4753 42.2524 18.4893 42.2684C18.8596 42.6473 16.0668 41.2849 15.0555 41.0088C17.2434 41.9163 16.8164 41.8245 17.0006 42.0559C17.0911 42.168 17.9501 42.4913 18.0342 42.5337C19.2782 43.1684 17.5938 42.5322 17.2475 42.4061C15.974 41.9417 17.4198 42.6304 16.568 42.3213C15.7223 42.0155 14.5361 41.401 14.4983 41.5349C15.2651 41.8987 17.3469 42.6639 17.6381 42.898C18.7142 43.7581 16.9463 43.7837 16.591 43.9994L16.7259 43.5556C16.7182 43.5624 16.7115 43.5691 16.7057 43.5757C16.466 43.8503 16.6 43.9791 16.2642 44.097C15.6579 44.3081 17.2926 44.5143 17.9921 44.8573C18.6917 45.2004 14.7411 44.33 13.8821 44.1927C13.0235 44.0557 13.8955 44.2582 13.4196 44.2031C12.9438 44.1482 12.3786 43.9574 12.1861 44.0085C11.9935 44.0607 13.4679 44.5822 14.355 44.7836C16.2348 45.2073 18.2397 45.4831 17.5009 45.5687C17.4571 45.5735 16.4199 45.3349 16.3052 45.3633C15.4292 45.5925 15.3048 45.9908 14.5246 46.2448C14.4154 46.2812 13.2593 46.0254 13.1825 46.0445C12.3791 46.244 14.364 46.4738 16.5164 47.0293C13.6184 46.4835 11.8238 46.2724 11.7639 46.5205C11.7265 46.6722 13.0006 46.8619 13.8793 47.1099C14.1443 47.1842 13.2547 47.1431 13.8488 47.2622C15.7913 47.6505 17.993 47.9197 17.0824 48.0186C17.0393 48.0226 15.9756 47.8118 15.9048 47.8384C15.4408 48.0142 17.4796 48.379 17.6867 48.6743C17.8499 48.9014 16.5452 49.0778 16.3081 49.2779C13.0303 48.7813 13.7465 49.1285 15.9957 49.5465C15.8811 49.685 15.9862 49.8647 15.6525 49.9707C15.5388 50.0068 14.5928 49.8408 14.4892 49.8329C12.8639 49.7096 15.0575 50.0819 15.1396 50.1257C15.9313 50.5944 14.2225 50.6687 15.8148 51.2184C15.8721 51.2382 18.1555 51.5362 16.4759 51.4217C16.3601 51.414 15.3334 51.176 15.2339 51.3254C15.1348 51.4701 13.8723 51.644 14.9091 51.9824C15.1583 52.067 17.0028 52.3991 15.5393 52.353C15.3406 52.3468 14.6854 52.2624 14.3177 52.2454C13.1458 52.1944 15.4576 52.4658 13.4822 52.3489C11.507 52.2315 10.0148 52.2742 11.3514 52.6383C11.3901 52.6501 13.2219 52.8758 13.1864 52.9455C13.128 53.0587 12.7315 53.186 12.7334 53.3122C12.735 53.372 13.8797 53.4275 13.8997 53.4394C14.5091 53.8744 13.4719 54.0614 13.0046 54.4607C12.9166 54.5336 14.4645 54.8348 13.2245 54.9184C11.867 55.0178 6.25689 54.5768 7.57804 55.0661C8.10661 55.2726 15.2302 55.6853 11.5298 55.8595C12.4344 56.4104 10.5437 56.9342 11.8683 57.4649C11.927 57.489 13.9193 57.4984 13.8942 57.5518C13.8533 57.6326 12.9256 57.7151 12.867 57.7766C12.5991 58.0444 13.4076 58.2176 13.3031 58.4586C13.2656 58.5507 12.3038 58.5957 12.2606 58.7155C12.2351 58.7871 12.6882 58.7984 12.9194 58.837C13.071 58.8516 13.1287 58.8887 12.8975 58.9806C12.4512 59.1519 9.90968 59.6613 9.64281 59.8951C12.1634 59.4846 12.1292 59.6027 12.8259 59.6599C12.9609 59.6697 13.8275 59.4693 13.9363 59.4647C14.3975 59.4381 13.6857 59.6353 14.1862 59.5937C14.3064 59.5834 15.1607 59.4084 15.3068 59.3886C16.5798 59.204 14.6936 59.7543 14.3696 59.8676C13.1318 60.2692 14.2475 60.0563 13.7721 60.2588C13.2992 60.4697 12.6471 60.498 12.3742 60.6802C11.8116 61.0641 12.0339 61.326 12.0654 61.5592C12.0836 61.6523 13.1748 61.2427 13.2032 61.2481C13.5373 61.3267 12.4245 61.9012 14.6516 61.2497C9.02055 63.3055 15.236 61.1634 14.1845 61.7865C14.0993 61.8364 11.441 62.8202 11.02 62.8787C10.5982 62.934 11.3913 62.5191 10.7386 62.6153C10.5866 62.6418 8.01211 63.3199 7.84964 63.3408C6.58867 63.5332 10.6117 62.2055 10.8311 62.1282C13.1919 61.2698 10.4039 61.9398 10.1951 61.9318C9.25052 61.9375 9.76024 61.5484 9.07602 61.4855C8.63335 61.4421 5.93359 62.0837 5.9812 61.9193C6.13608 61.3487 9.91068 60.4813 6.53483 60.6896C5.81489 60.7294 2.83924 61.3306 5.13292 60.5889C5.2763 60.5356 7.39549 59.9709 6.01212 60.0491C5.83751 60.058 4.9628 60.1862 4.886 60.1744C4.57485 60.1233 4.72582 60.0273 4.79589 59.9376L4.76188 59.6543C4.80542 59.5987 4.81983 59.5434 4.68795 59.4915C4.33558 59.3501 3.81706 59.1879 4.10168 58.9688C4.272 58.8408 5.90661 58.5921 6.30619 58.5188C7.4573 58.3119 5.54733 58.2675 6.94828 58.1099C8.35699 57.964 10.5087 58.0072 11.4129 57.7805C9.11745 57.8711 6.76082 57.9518 4.45185 58.0319C4.51028 57.4992 5.24472 56.9979 5.14361 56.5134C5.12882 56.4541 3.89361 56.5115 3.84595 56.446C3.65059 56.1629 4.53397 55.9369 4.18954 55.6463C3.91807 55.4279 2.6183 55.137 2.29758 54.8957C4.92966 54.8562 4.05149 54.4972 4.30403 54.2689C4.39126 54.1895 5.09217 54.2327 5.32402 54.1873C6.18161 54.0223 3.8567 53.9883 3.4951 53.9064C1.95315 53.5454 7.20313 53.8488 7.09219 53.5611C7.08788 53.5481 4.30533 53.1557 4.13352 53.1126C3.01096 52.8561 5.10858 53.1563 5.32283 53.0678C5.71445 52.9076 6.39216 52.8287 5.59232 52.5408C5.35518 52.4581 3.62832 52.1456 4.9859 52.1386C5.16365 52.1379 6.08557 52.2313 6.1408 52.223C7.06304 52.0688 4.16483 51.794 3.19698 51.5559C2.22947 51.3169 4.25148 51.2965 4.83168 51.3174C6.33353 51.361 5.4601 51.4676 5.60585 51.4884C7.33999 51.7343 7.05493 51.5567 7.21376 51.4587C10.0546 51.7395 9.90017 51.5698 7.36706 51.356C7.0903 51.3332 7.34579 51.4497 7.21376 51.4587C4.43808 51.0701 4.10247 50.8319 6.72489 50.931C7.95402 50.9778 9.36557 51.2231 8.87595 50.897C8.65529 50.748 6.69737 50.5678 6.17819 50.3929C4.99306 49.999 6.85467 49.8824 6.59986 49.5982C6.50775 49.4917 5.42899 49.4445 5.32939 49.3662C5.06181 49.1576 5.88297 49.1058 5.49553 48.8839C5.45913 48.8632 4.3379 48.7495 4.3309 48.6941C4.25688 48.2655 5.02078 48.0169 5.10342 47.5954C5.14181 47.3979 4.58337 46.9387 4.74004 46.7464C5.00371 46.4177 6.69249 46.2382 6.35037 45.8726C6.13264 45.6311 5.0147 45.4856 4.27277 45.2693C2.83466 44.8493 5.5115 45.0117 5.92468 45.0452C5.93827 45.0466 6.17042 45.2623 6.75586 45.2712C7.95201 45.4264 5.92946 45.0482 5.92468 45.0452C6.19151 45.0663 6.50402 44.7659 6.30346 44.6645C6.19406 44.6075 5.13977 44.4393 5.10262 44.413C4.24384 43.7876 4.06243 43.2748 4.64138 42.9012C4.66413 42.897 5.83461 43.1333 5.87342 43.1208C6.44493 42.9572 5.04288 42.514 4.23541 42.1237C3.42867 41.7319 3.74801 41.614 5.78361 41.8874C5.56313 41.6728 6.4992 41.6148 7.0656 41.5888C7.07202 41.5885 7.07807 41.5882 7.08377 41.5878L7.48719 40.2594C7.98146 40.3192 5.88704 39.4367 5.84964 39.4082C4.63439 38.4963 5.94841 38.8009 6.28882 38.5226C6.4545 38.3914 6.2848 37.9244 6.12807 37.6422C6.00063 37.4175 6.53904 37.5431 6.27469 37.2743C6.2395 37.2382 5.27917 36.8516 5.24482 36.8305C4.16864 36.1966 6.46695 37.2579 6.89585 37.4041C8.45633 37.934 9.29025 38.2095 8.66142 37.7138C8.51728 37.6006 5.22463 36.0346 5.06446 35.8677C4.86196 35.6542 6.04415 36.2108 5.80139 35.9747C5.78171 35.955 5.04106 35.6379 5.1033 35.5833C5.38255 35.3255 5.96184 35.1688 6.03028 34.8116C6.0425 34.7639 4.84724 34.3076 4.84579 34.23C4.83933 33.8676 5.0368 33.5379 5.71563 33.4841C5.88655 33.4721 6.68311 33.8828 6.93283 33.9751C8.44387 34.5334 6.37293 33.4432 6.34279 33.4016C5.56422 32.3945 7.67102 32.8662 7.01378 31.8855C6.9735 31.8315 4.80797 30.5479 6.80554 31.3444C6.93872 31.3968 8.97934 32.2182 7.65812 31.4968C7.57552 31.4515 6.51984 31.0395 6.67608 30.9766C6.83185 30.9142 6.23092 30.4153 7.42753 30.7901C7.80485 30.9074 9.84116 31.7265 8.32625 30.8427C8.21899 30.7841 4.75188 28.8747 7.25509 29.9565C7.66694 30.1351 10.2676 31.3818 9.01259 30.577C8.76919 30.4212 8.15944 30.2057 7.8379 29.9462C7.34232 29.5464 8.12349 29.7026 7.04278 28.9845C6.85104 28.8583 5.14487 27.8888 6.53129 28.434C6.74835 28.5195 7.60231 28.9655 7.72402 28.961C8.30646 28.9424 7.84914 28.4088 8.56668 28.457C8.81988 28.4718 10.1973 29.1985 10.6166 29.2904C11.0359 29.382 11.485 29.377 10.893 28.9688C10.3011 28.5599 8.0237 27.5692 7.91671 27.3371C7.45526 26.323 9.05909 26.3705 9.56899 25.8386C9.64434 25.7608 8.81445 25.434 8.86912 25.2899C9.0646 24.7605 8.77721 23.5095 10.6774 23.9526C12.1945 24.3157 12.9834 25.2839 13.6639 25.3125C13.9883 25.3268 11.5141 23.837 11.4505 23.7632C10.7961 23.0304 12.0294 23.4345 11.8329 22.974C11.7918 22.8791 10.7339 22.3776 10.7105 22.3027C10.6215 22.0414 11.1734 22.119 11.1743 21.9184C11.1725 21.827 10.3824 21.4109 10.4781 21.3797C10.698 21.3003 11.1015 21.3457 11.9151 21.6037C11.9891 21.6274 12.9115 22.2545 13.0088 22.164C13.1631 22.0167 14.0082 22.1958 13.3824 21.5688C13.1934 21.3815 11.416 20.3792 12.72 20.9354C12.9925 21.0514 15.1068 22.2901 13.3499 21.0957C13.0572 20.8984 10.7224 19.2262 12.3957 20.0077C12.8362 20.2133 14.6262 21.1219 14.394 20.8932C14.356 20.8583 13.3816 20.3542 13.3236 20.2403C13.1349 19.8499 13.369 19.6777 13.2032 19.2795C13.1571 19.172 12.1237 18.6929 12.0867 18.5503C11.9838 18.1567 12.4145 17.993 12.8608 17.9357C13.0272 17.9157 13.8001 18.4546 13.8919 18.5001C15.3831 19.2457 13.4869 18.0425 13.3948 17.9413C12.8467 17.3295 13.8539 17.6997 13.7325 17.3601C13.7018 17.2673 12.7614 16.7542 12.6862 16.6942C11.9559 16.0994 13.5515 17.1755 13.7759 17.2136C14.4098 17.3243 14.4686 17.0617 14.4729 16.7928C14.4731 16.6931 13.3643 16.1274 13.3771 16.045C13.4317 15.5462 13.7983 15.1808 14.6146 15.1683C14.7705 15.1668 15.551 15.7208 15.745 15.8222C17.1005 16.5355 15.4319 15.2771 15.2866 15.1358C14.6191 14.4969 15.3744 14.8841 15.331 14.6592C15.1086 13.5482 16.1324 13.0097 16.8476 12.5695C17.781 11.9835 18.96 11.8809 19.3306 10.9584C19.3548 10.9011 18.2861 10.2099 18.294 10.1505C18.4369 9.42644 19.2576 9.14916 19.3741 8.38581C19.3873 8.32215 18.3739 7.66421 18.3634 7.53683C18.3351 7.27031 18.5373 7.11305 18.9608 7.19357C19.1653 7.23173 19.9088 7.96132 20.0973 7.98772C20.5385 8.05007 20.7421 7.92767 20.7314 7.62803C20.725 7.49866 19.6628 6.85593 19.7309 6.74595C20.1684 5.99032 20.5585 5.17277 22.3437 5.5311C22.4677 5.55413 24.4161 7.12929 24.13 6.72403C23.6058 6.26732 22.9817 5.73886 22.4177 5.25509C22.934 4.02921 24.4496 3.63871 25.4686 2.7776C25.5115 2.74101 24.4884 1.88971 24.5678 1.813C25.0284 1.36593 25.2302 0.64518 26.6475 1.11591C26.7853 1.16286 28.3726 2.87479 28.265 2.49062C28.2426 2.4228 28.2408 1.99773 27.956 1.57112C27.9121 1.50762 27.1288 0.747708 27.1809 0.656268C27.4881 0.146877 28.1308 -0.0909748 29.0191 0.0317006C29.1659 0.0513493 29.8332 1.00631 29.9429 1.02928C30.6948 1.20178 30.5746 0.167932 31.594 0.717724C32.2894 1.08205 33.3935 2.76175 34.6874 4.2602C34.8692 4.47203 35.0292 4.41049 35.7063 5.33853C37.4076 7.67267 39.2167 10.2674 41.0386 12.7492C41.431 13.2837 41.087 12.6519 41.9771 13.9853C42.0365 14.0745 42.3004 14.5399 42.6114 14.986C42.8267 15.2942 43.5279 16.2286 43.8011 16.6249C44.0759 17.0194 43.4794 16.2426 43.7958 16.7118C44.1189 17.1849 44.9275 18.2395 44.9932 18.3872ZM9.97446 40.6292C11.0531 40.9424 7.28408 39.3572 8.13547 39.858C8.1811 39.884 9.92141 40.6142 9.97446 40.6292ZM8.33056 56.9725C10.131 56.7798 7.48016 56.6711 6.08864 56.8085C4.69891 56.9548 7.78493 57.038 8.33056 56.9725ZM9.7317 58.8022C11.1319 58.4885 5.349 58.8679 6.53856 59.0454C6.60588 59.056 9.65052 58.8215 9.7317 58.8022ZM34.5102 5.09997C34.5454 5.14129 34.667 5.11373 34.6361 5.06972C33.8908 4.00481 33.6374 4.06889 34.5102 5.09997ZM11.4553 60.4982C12.205 60.2638 11.2827 60.2801 10.3472 60.5641C9.59648 60.8025 10.5249 60.8015 11.4553 60.4982ZM16.5183 36.525C16.5746 36.5486 16.6539 36.5071 16.3402 36.3649C15.3297 35.9073 15.573 36.1279 16.5183 36.525ZM12.4275 63.3028C12.4723 62.813 16.8871 60.9545 16.5219 61.5173C16.4575 61.6227 15.0371 61.9047 14.6674 62.1464C13.9994 62.6009 16.8438 61.6276 15.4103 62.3807C15.1491 62.5218 12.4162 63.3379 12.421 63.3045C12.4231 63.3039 12.4253 63.3034 12.4275 63.3028ZM14.538 42.4453C14.5889 42.4637 14.6735 42.3937 14.6248 42.371C13.4465 41.8239 13.2749 41.966 14.538 42.4453ZM20.5373 33.9418C20.6431 33.9875 20.8381 33.8349 20.746 33.7816C18.8933 32.7387 18.4903 33.051 20.5373 33.9418ZM16.2201 49.2686C17.4962 49.5641 17.6314 49.7023 15.9974 49.5462C16.098 49.4587 16.1255 49.359 16.2201 49.2686Z" fill="#FFF0E1"/>
<path d="M90.7689 24.2087C90.6407 24.8803 89.8994 25.1059 89.1927 25.0807C88.9743 25.0722 88.5097 24.512 88.3367 24.482C87.9995 24.4232 88.1215 24.804 87.7558 24.6952C87.6316 24.6571 86.8755 23.7916 86.7645 23.7696C86.1584 23.6578 86.1443 24.0806 85.7267 24.146C83.7148 24.4193 82.3176 25.1165 80.8367 25.7508C80.3438 25.9651 79.1971 25.5953 79.121 26.2727C79.1122 26.3531 79.8086 27.0808 79.8552 27.1503C80.5655 28.2185 79.2586 26.6613 78.9913 26.5377C77.9376 26.0485 77.4888 26.322 77.4181 26.9024C77.388 27.1533 78.8525 28.5275 77.9672 27.8119C77.9071 27.7638 77.2363 26.9302 77.122 26.879C76.8644 26.7643 76.8215 27.0566 76.6994 27.0512C76.458 27.0389 76.4435 27.066 76.3114 27.1658C76.1239 27.2959 75.571 27.074 75.5507 27.4137C75.5481 27.4889 76.3212 28.2684 76.3821 28.4629C76.4429 28.6571 76.2168 28.7315 75.9908 28.5859C75.7648 28.4402 75.2219 27.7709 75.0821 27.6309C73.9034 26.4483 75.2361 28.3481 75.2484 28.4131C75.4407 29.5359 74.1997 28.8732 73.7811 29.2418C73.4734 29.5166 73.4097 30.1463 73.0747 30.3577C72.6668 30.6116 71.9731 30.4265 71.692 30.8044C71.6614 30.8434 72.547 31.7808 72.5112 31.8306C72.1303 32.3579 71.5608 32.6638 70.522 32.4111C70.4167 32.3852 69.7394 31.4756 69.59 31.3985C68.6898 30.9472 66.7743 29.6499 69.8147 33.5311C69.4909 33.5562 69.121 33.6124 68.2982 33.0108C67.7678 32.6243 67.0742 31.5954 67.2776 32.1141C67.3225 32.2301 68.0675 33.0126 68.0816 33.1247C68.1402 33.5955 67.6914 33.5189 67.8604 34.1091C67.8962 34.2313 68.5377 34.9549 68.64 35.0966C69.4648 36.2473 67.7855 34.617 67.6402 34.5185C66.5509 33.7893 66.6846 34.3301 66.4194 34.5175C66.3575 34.5607 67.2719 35.4874 67.2427 35.5643C67.0791 35.9505 66.7118 36.1193 66.0588 35.9208C65.9113 35.8744 65.2467 34.9868 65.1392 34.9217C64.6743 34.6452 66.0082 36.2542 65.5882 36.02C65.5013 35.9727 64.8985 35.2419 64.8258 35.1672C63.972 34.2893 64.5659 35.0831 64.9243 35.5611C65.046 35.7206 65.141 35.8446 65.1451 35.858C65.3923 36.5667 63.6605 34.8732 63.6728 35.3216C63.677 35.3762 64.5335 36.2177 64.4975 36.3154C64.2626 36.9725 63.5823 37.1645 62.4614 36.9298C62.2882 36.8946 61.7 36.2094 61.6174 36.1351C60.3154 34.9849 61.9153 36.6714 61.9563 36.7544C62.2316 37.3718 60.6596 36.1947 62.5419 38.2308C61.1102 38.341 61.6147 40.1182 59.028 39.3709C58.9969 39.3636 58.1245 38.6227 58.0661 38.6116C57.3518 38.4731 58.7746 39.5425 60.3479 41.0585C60.7452 41.4365 58.5818 39.9392 58.4193 39.8346C57.8269 39.4405 56.5217 38.3461 56.402 38.2762C55.4521 37.7399 59.9094 41.1791 59.7948 41.3305C59.7836 41.3297 58.9785 40.6767 58.8867 40.627C58.5986 40.471 58.8938 40.7626 58.5796 40.5863C57.8542 40.1763 55.6446 38.5622 56.8022 39.6717C56.9535 39.8144 59.5258 41.7068 59.3019 41.7545C59.2097 41.7725 59.0719 42.0515 58.8541 41.9995C58.6362 41.9476 57.8386 41.2946 57.7991 41.2732C56.556 40.6693 56.1524 40.2653 54.4414 39.1936C52.7325 38.1325 56.6472 40.8882 57.0535 41.2386C57.4589 41.5876 56.4404 41.0831 56.0947 40.8963C55.7494 40.7084 55.2471 40.286 55.0429 40.1921C53.7037 39.5874 56.9223 41.6508 57.4971 42.1547C58.8653 43.3382 55.857 41.4476 55.4597 41.4135C55.3533 41.403 56.0459 41.8223 56.0835 41.9017C56.2248 42.2084 55.2434 41.683 55.9781 42.4132C56.0965 42.5341 57.7952 43.8355 56.4281 43.0646C56.2307 42.9538 55.5127 42.4351 55.3051 42.3908C54.9938 42.3237 54.7189 42.3936 54.9022 42.6566C55.0383 42.8503 56.3239 43.5451 55.8819 43.3966C55.6844 43.3306 55.0138 42.7955 54.7019 42.711C54.3899 42.6266 54.2916 42.8545 54.2681 42.9489C54.2449 43.0436 55.2126 43.5812 55.272 43.6268C55.6115 43.889 55.9771 44.3128 55.9683 44.3248C55.6959 45.0304 53.7224 44.7211 53.8948 45.6923C53.9076 45.7667 54.9504 46.29 54.9629 46.3071C55.2976 46.7142 52.6487 45.0954 51.6657 44.7316C53.7579 45.8374 53.3402 45.7088 53.501 45.9584C53.5804 46.0794 54.4068 46.477 54.4865 46.5268C55.6683 47.2682 54.0486 46.4862 53.7142 46.3318C52.4858 45.7614 53.866 46.5708 53.0438 46.1921C52.2265 45.8186 51.0987 45.1041 51.0469 45.2403C51.7802 45.6661 53.7906 46.598 54.0613 46.855C55.0891 47.8169 53.2228 47.6687 52.9201 47.8845C52.6217 48.0895 52.7195 48.2501 52.3642 48.2874C51.7214 48.358 53.2636 48.9362 53.865 49.4288C54.4676 49.9201 50.8248 48.1688 50.0208 47.8383C49.2166 47.5096 50.0176 47.9076 49.5664 47.7471C49.1151 47.5873 48.611 47.2679 48.4095 47.2792C48.2071 47.2928 49.5179 48.1484 50.3382 48.5398C52.0745 49.3721 53.9659 50.0871 53.2285 50.0031C53.1848 49.9981 52.2267 49.5366 52.1086 49.5392C51.1999 49.5786 50.9931 49.941 50.1705 50.0463C50.0558 50.0604 48.9782 49.572 48.8988 49.5758C48.0674 49.6181 49.9637 50.2443 51.9581 51.222C49.2313 50.1052 47.5146 49.5431 47.3996 49.793C47.3303 49.9413 48.5421 50.3754 49.3541 50.792C49.5991 50.9167 48.7334 50.7081 49.2928 50.94C51.1222 51.696 53.2305 52.3797 52.3174 52.3053C52.2742 52.3012 51.2711 51.8918 51.1961 51.9054C50.7059 51.9943 52.6395 52.7319 52.7891 53.0574C52.9066 53.3127 51.5954 53.2427 51.3246 53.4057C48.1864 52.3444 48.827 52.8212 50.9698 53.6177C50.8323 53.7371 50.9046 53.9339 50.558 53.9834C50.4397 54.0009 49.5351 53.6801 49.4343 53.6552C47.8518 53.2683 49.9516 53.9994 50.0252 54.0562C50.7277 54.6506 49.0254 54.4678 50.512 55.2574C50.5654 55.2862 52.7746 55.93 51.1332 55.5606C51.0198 55.5358 50.0432 55.1411 49.9209 55.2774C49.799 55.4114 48.5264 55.3997 49.494 55.8921L49.5501 55.5752C49.5512 55.5755 49.5523 55.5759 49.5533 55.5762C49.8033 55.6588 51.652 55.9533 50.1891 55.933C49.9904 55.9308 49.3341 55.8595 48.9664 55.8503C47.7942 55.8262 50.1097 56.0469 48.1334 55.9771C46.1573 55.9056 44.6652 56.0156 46.0115 56.3562C46.0506 56.3677 47.888 56.5269 47.8552 56.5986C47.8012 56.7148 47.4104 56.8718 47.4187 57.0005C47.4233 57.0619 48.5686 57.0555 48.5893 57.0666C49.2206 57.4647 48.1986 57.7117 47.7692 58.1643C47.6886 58.2547 49.2566 58.3886 48.0343 58.6068C46.6986 58.8674 41.0743 59.0524 42.4533 59.4811C43.0108 59.6928 50.1134 59.0792 46.4864 59.8186C46.8307 59.9815 46.8391 60.1756 46.7676 60.3918C46.6301 60.7802 46.2383 61.3364 47.1764 61.4822C47.2416 61.4968 49.1584 60.9576 49.1457 61.0038C49.1257 61.0817 48.2651 61.4368 48.2292 61.5162C48.0597 61.8625 48.883 61.7577 48.8695 62.0091C48.869 62.1086 47.9952 62.5121 48.0032 62.6445C48.0153 62.7811 49.1594 62.2353 48.6986 62.6619C48.3467 62.9855 46.1921 64.4276 46.0468 64.7651C48.2177 63.4214 48.2353 63.5504 48.9028 63.3384C49.0319 63.2965 49.7517 62.7742 49.8506 62.7285C50.2673 62.5283 49.6876 62.9858 50.1345 62.756C50.2416 62.7005 50.9607 62.2075 51.088 62.1331C52.192 61.4731 50.6741 62.722 50.4192 62.9521C49.4346 63.8034 50.3853 63.1819 50.0262 63.5545C49.6717 63.9328 49.0782 64.2055 48.8969 64.48C48.5291 65.0573 48.8316 65.2142 48.9536 65.4269C49.0053 65.507 49.8654 64.7204 49.8938 64.7148C50.238 64.6697 49.4188 65.6188 51.2525 64.1965C46.7784 68.1874 51.765 63.9025 51.0262 64.8813C50.9656 64.9594 48.8537 66.8505 48.4806 67.0558C48.1064 67.2592 48.6911 66.5807 48.1179 66.9082C47.9848 66.987 45.841 68.5653 45.6991 68.6463C44.6031 69.296 47.8449 66.5687 48.0202 66.4157C49.8914 64.7391 47.5517 66.3967 47.3562 66.4687C46.4853 66.8305 46.8122 66.2799 46.1579 66.4854C45.7352 66.6181 43.4882 68.2458 43.4729 68.081C43.4039 67.5045 46.5459 65.2441 43.4988 66.7172C42.8463 67.025 40.34 68.7393 42.1431 67.1254C42.2529 67.0177 43.9768 65.6556 42.7051 66.2119C42.5438 66.2805 41.7793 66.7239 41.6996 66.7345C41.1803 66.7944 41.7254 66.3268 41.321 66.2854C40.9136 66.2383 40.3239 66.1869 40.4691 65.7902C40.5516 65.5449 41.9679 64.6759 42.3104 64.4515C43.2998 63.8147 41.4494 64.3141 42.7125 63.6793C43.995 63.0744 46.065 62.483 46.8435 61.9553C44.6821 62.7302 42.4558 63.504 40.2722 64.2556C40.0427 63.374 40.5611 62.3614 40.3396 61.728C40.3094 61.6481 39.1123 61.9617 39.0481 61.8778C39.0264 61.8488 39.0121 61.8192 39.0037 61.7892C38.9098 61.4509 39.5705 61.0437 39.2057 60.7428C38.8936 60.4908 37.5571 60.3042 37.1989 60.0027C39.7968 59.5682 38.8756 59.2196 39.0995 58.8828C39.1768 58.7682 39.8783 58.7427 40.1036 58.6577C40.9383 58.3454 38.6236 58.563 38.2553 58.4942C36.6854 58.1753 41.9387 58.0246 41.8064 57.6891C41.801 57.6766 38.9999 57.4335 38.826 57.3907C37.6906 57.1579 39.8012 57.3626 40.0098 57.2321C40.3916 56.9947 41.064 56.8607 40.254 56.5603C40.0139 56.4763 38.2782 56.1956 39.6354 56.107C39.8131 56.096 40.7371 56.1559 40.7921 56.143C41.71 55.9136 38.8068 55.7336 37.8353 55.4902C36.8644 55.2429 38.8882 55.1267 39.469 55.128C40.9723 55.1186 40.0987 55.2802 40.2447 55.2995C41.9819 55.5172 41.6951 55.3196 41.8535 55.2019C44.6976 55.424 44.5416 55.2444 42.0064 55.0798C41.7294 55.0627 41.9855 55.187 41.8535 55.2019C39.8346 54.9474 39.1049 54.7363 39.8633 54.6514L40.0791 53.4327C40.3652 53.4507 40.8566 53.5204 41.5631 53.6479C42.7733 53.8674 44.1302 54.3242 43.7 53.9115C43.5066 53.7234 41.5983 53.2551 41.1142 52.9955C40.0123 52.3947 41.8739 52.5482 41.6765 52.198C41.6054 52.0689 40.5456 51.8611 40.4618 51.7611C40.2373 51.492 41.0575 51.567 40.7186 51.2634C40.6866 51.2352 39.5983 50.9451 39.6025 50.8827C39.6154 50.3985 40.423 50.2423 40.593 49.7978C40.6736 49.5852 40.2206 48.994 40.4192 48.8074C40.7562 48.4821 42.4647 48.5784 42.213 48.1213C42.0546 47.8215 40.9858 47.4652 40.3054 47.0975C38.9883 46.3792 41.5959 47.0251 41.9937 47.1414C42.0067 47.1453 42.1825 47.423 42.7581 47.5386C43.8998 47.9259 41.9976 47.1458 41.9937 47.1414C42.252 47.2116 42.6324 46.949 42.4623 46.7969C42.3691 46.7139 41.3722 46.3338 41.3425 46.2977C40.6583 45.4465 40.6237 44.8325 41.2985 44.5365C41.3221 44.5365 42.4086 45.0296 42.4502 45.0239C43.0585 44.9587 41.8057 44.1859 41.1262 43.5871C40.4462 42.9906 40.8018 42.9139 42.7205 43.6462C42.5692 43.361 43.5062 43.4992 44.068 43.5993C44.6297 43.6995 42.55 42.666 42.515 42.6329C41.3887 41.5894 42.6985 41.9409 43.0879 41.632C43.2774 41.485 43.1762 40.9492 43.0633 40.6204C42.9706 40.3584 43.5037 40.5159 43.2793 40.199C43.2495 40.1562 42.3284 39.6857 42.2968 39.6605C41.3027 38.8979 43.4799 40.1863 43.8956 40.3668C45.4064 41.0252 46.2109 41.376 45.6494 40.7955C45.5197 40.6644 42.4196 38.7499 42.288 38.5495C42.1209 38.2957 43.232 38.9813 43.0272 38.7014C43.0108 38.678 42.309 38.2837 42.3843 38.2231C42.7243 37.9366 43.3569 37.781 43.507 37.3727C43.5305 37.318 42.3956 36.7282 42.4123 36.6372C42.4915 36.2102 42.7686 35.849 43.4845 35.8327C43.664 35.8309 44.3884 36.3583 44.6242 36.4819C46.0493 37.2322 44.1728 35.8346 44.1529 35.7833C43.5991 34.5671 45.6645 35.2713 45.2411 34.1102C45.2123 34.0475 43.336 32.3622 45.1761 33.4747C45.2995 33.5472 47.1723 34.699 46.0131 33.739C45.9409 33.6785 44.9679 33.0974 45.1481 33.0419C45.3269 32.9879 44.8553 32.3495 45.9821 32.9099C46.3383 33.0847 48.1936 34.2556 46.8957 33.074C46.801 32.9969 43.8082 30.4058 46.0596 31.9416C46.43 32.1949 48.7284 33.932 47.6793 32.8686C47.4762 32.662 46.9146 32.3395 46.6633 32.006C46.2767 31.491 47.0315 31.7732 46.149 30.8157C45.9913 30.648 44.5495 29.3154 45.8042 30.1202C46.0004 30.2468 46.7348 30.8692 46.8623 30.8808C47.4703 30.9413 47.1808 30.2715 47.9089 30.4301C48.1646 30.4862 49.3343 31.5125 49.7319 31.6842C50.1298 31.8553 50.586 31.9316 50.1178 31.3833C49.6506 30.8332 47.6563 29.3549 47.6293 29.0776C47.5225 27.8624 49.1867 28.1685 49.9076 27.6971C50.0159 27.6261 49.2918 27.1032 49.4068 26.9536C49.8179 26.4062 50.0809 24.9411 51.835 25.8615C53.2276 26.6086 53.6186 27.8356 54.296 28.0313C54.6155 28.1284 52.7413 25.9325 52.7106 25.8362C52.37 24.8849 53.4577 25.6138 53.4592 25.0785C53.4602 24.9669 52.612 24.1606 52.6226 24.0742C52.6532 23.7703 53.1819 23.9939 53.2786 23.7787C53.3204 23.68 52.7118 23.0277 52.8256 23.0183C53.0907 22.9885 53.4846 23.141 54.1908 23.6343C54.2546 23.6798 54.8904 24.5976 55.0335 24.5275C55.1196 24.4842 55.2823 24.5165 55.4336 24.5306C55.6602 24.5762 55.8542 24.5707 55.6156 24.0739C55.5 23.8354 54.1726 22.2882 55.2012 23.2604C55.4161 23.4634 56.9832 25.3444 55.7321 23.6306C55.5249 23.3452 53.8778 20.9988 55.1844 22.3007C55.5282 22.6433 56.9064 24.1 56.7632 23.808C56.7388 23.7627 55.991 22.9616 55.9727 22.8364C55.9207 22.4097 56.1856 22.3359 56.1458 21.9178C56.1337 21.8045 55.3216 21.0084 55.3272 20.867C55.3442 20.4745 55.7865 20.4746 56.2148 20.574C56.3741 20.6122 56.9361 21.3669 57.008 21.4398C58.1768 22.626 56.7641 20.8831 56.7069 20.7598C56.3726 20.0144 57.1955 20.696 57.1758 20.3452C57.1722 20.2505 56.4429 19.4674 56.3896 19.3875C55.8742 18.602 57.0582 20.1165 57.2547 20.2267C57.8093 20.5401 57.9342 20.3192 58.0126 20.0714C58.0399 19.9795 57.1622 19.0992 57.196 19.0276C57.3807 18.5866 57.7907 18.3899 58.5537 18.6347C58.6984 18.6828 59.2845 19.438 59.4393 19.5925C60.5206 20.6746 59.2859 18.9915 59.1848 18.8169C58.7227 18.0202 59.3255 18.6153 59.3384 18.396C59.3896 17.3156 60.4418 17.1455 61.1996 16.9462C62.1744 16.6902 63.308 16.9089 63.7998 16.1678C63.8325 16.121 62.9561 15.2001 62.9735 15.1475C63.2335 14.5149 64.0103 14.4952 64.2219 13.8217C64.2412 13.7677 63.393 12.9101 63.3972 12.7931C63.4002 12.5469 63.5982 12.46 63.9746 12.641C64.1567 12.7275 64.7588 13.5739 64.9282 13.6451C65.323 13.8137 65.5366 13.7398 65.5528 13.4681C65.5582 13.3503 64.6508 12.5087 64.7211 12.4277C65.1843 11.8559 65.5697 11.2302 67.1717 11.9361C67.2818 11.9846 68.985 13.8189 68.7436 13.3907C68.2857 12.8684 67.7397 12.2605 67.2465 11.7056C67.7526 10.7141 69.0819 10.6783 69.9046 10.0947C69.9392 10.0697 68.9815 9.14968 69.0434 9.09695C69.3973 8.79326 69.4546 8.23354 70.6959 8.86781C70.817 8.93 72.4211 10.6242 72.2715 10.2779C72.245 10.2141 72.1748 9.84838 71.856 9.45168C71.8074 9.3924 71.0212 8.63818 71.0431 8.57238C71.1837 8.20333 71.6117 8.12699 72.3085 8.36407C72.4236 8.40254 73.2173 9.24983 73.3072 9.28348C73.9425 9.51215 73.4798 8.71716 74.3997 9.26857C75.0187 9.64001 76.4824 11.0102 78.0258 12.2432C78.2447 12.4159 78.3506 12.3613 79.2245 13.1055C81.4255 14.9735 83.7684 17.0966 86.1178 19.0837C86.6246 19.5114 86.2534 18.8469 87.3691 20.0066C87.4439 20.0843 87.7166 20.5821 88.0915 20.9784C88.3507 21.2527 89.2739 21.9704 89.5855 22.3446C89.8959 22.7193 89.103 22.139 89.4467 22.6023C89.7944 23.0714 90.8193 23.9186 90.7689 24.2087ZM46.5751 44.0628C47.6338 44.4388 43.9897 42.5928 44.7952 43.1678C44.8385 43.1977 46.523 44.0448 46.5751 44.0628ZM43.5898 61.7182C45.2935 61.0918 42.6717 61.4864 41.3482 61.9552C40.0357 62.4627 43.0784 61.928 43.5898 61.7182ZM45.6874 63.6637C46.8562 62.8229 41.5934 65.2455 42.8147 65.0761C42.8846 65.0677 45.6207 63.7147 45.6874 63.6637ZM78.1269 12.9702C78.1667 13.0072 78.2682 12.9748 78.2295 12.9373C77.3029 12.0283 77.1104 12.083 78.1269 12.9702ZM47.9747 64.6585C48.5735 64.1497 47.728 64.5192 46.9768 65.1451C46.377 65.6555 47.2351 65.2997 47.9747 64.6585ZM53.8065 40.2986C53.8581 40.3311 53.9446 40.3013 53.6593 40.1089C52.7402 39.4896 52.94 39.7522 53.8065 40.2986ZM49.9638 66.9585C49.8165 66.4738 53.2421 63.1238 53.1184 63.7942C53.0993 63.9187 51.8724 64.6912 51.6197 65.0549C51.1702 65.7297 53.4626 63.7845 52.4097 65.017C52.2197 65.2457 49.9658 66.9951 49.9583 66.9624C49.9602 66.9611 49.962 66.9598 49.9638 66.9585ZM51.001 46.182C51.0505 46.2039 51.1411 46.1372 51.0943 46.1111C49.9599 45.48 49.7742 45.6189 51.001 46.182ZM58.3237 38.4676C58.416 38.5363 58.6402 38.4341 58.5634 38.3608C57.0104 36.911 56.5367 37.1324 58.3237 38.4676ZM51.2396 53.3812C52.4436 53.8941 52.5541 54.0494 50.9715 53.6178C51.086 53.5475 51.1307 53.4535 51.2396 53.3812Z" fill="#FFF0E1"/>
</svg>
