<svg width="355" height="59" viewBox="0 0 355 59" fill="none" xmlns="http://www.w3.org/2000/svg">
<g clip-path="url(#clip0_22_657)">
<path d="M4.66 15.99C3.35 15.99 2.21 15.51 1.31 14.61C0.41 13.71 0 12.57 0 11.24C0 9.90999 0.42 8.77999 1.31 7.86999C2.21 6.96999 3.28 6.48999 4.66 6.48999C6.04 6.48999 7.17 6.96999 8.01 7.86999C8.85 8.76999 9.32 9.90999 9.32 11.24C9.32 12.57 8.9 13.7 8.01 14.61C7.17 15.51 6.04 15.99 4.66 15.99ZM0.72 57V22.37H8.6V57H0.72Z" fill="#66033C"/>
<path d="M48.8599 35.23V56.93H40.9799V36.97C40.9799 34.69 40.2599 32.76 38.7699 31.26C37.3399 29.76 35.4799 29.04 33.1499 29.04C31.6599 29.04 30.2799 29.4 29.0899 30.06C27.8999 30.72 26.9399 31.68 26.2799 32.89C25.6199 34.09 25.2599 35.42 25.2599 36.98V56.94H17.3799V22.31H25.2599V26.28C26.2199 25.14 27.3499 24.18 28.6599 23.39C30.6899 22.19 32.9599 21.59 35.5299 21.59C38.0999 21.59 40.3699 22.25 42.3999 23.57C44.4299 24.89 45.9799 26.64 47.1199 28.74C48.2499 30.78 48.8499 33.01 48.8499 35.23H48.8599Z" fill="#66033C"/>
<path d="M72.6399 57.72C69.2899 57.72 66.2499 56.94 63.5599 55.32C60.8099 53.7 58.6599 51.53 57.0499 48.77C55.4399 46 54.6599 43 54.6599 39.63C54.6599 36.26 55.4399 33.26 57.0499 30.55C58.6599 27.84 60.8099 25.68 63.5599 24.12C66.3099 22.56 69.2899 21.72 72.6399 21.72C75.9899 21.72 79.0899 22.5 81.8399 24.12C84.5899 25.68 86.7399 27.85 88.3499 30.55C89.9599 33.26 90.7399 36.32 90.7399 39.69C90.7399 43.06 89.9599 46.12 88.3499 48.83C86.7399 51.6 84.5899 53.76 81.8399 55.38C79.0899 57 76.0499 57.78 72.6399 57.78V57.72ZM72.6399 50.02C74.6099 50.02 76.3399 49.6 77.8399 48.7C79.3299 47.8 80.5299 46.6 81.3599 44.97C82.1999 43.41 82.6099 41.6 82.6099 39.56C82.6099 37.52 82.1899 35.77 81.2999 34.21C80.4599 32.65 79.2699 31.44 77.7799 30.54C76.2899 29.64 74.5499 29.22 72.6399 29.22C70.7299 29.22 68.9999 29.64 67.4999 30.54C66.0099 31.44 64.8099 32.64 63.9799 34.21C63.1399 35.77 62.7299 37.52 62.7299 39.56C62.7299 41.6 63.1499 43.41 63.9799 44.97C64.8199 46.53 66.0099 47.8 67.4999 48.7C68.9899 49.6 70.7299 50.02 72.6399 50.02Z" fill="#66033C"/>
<path d="M216.36 37.58C216.06 37.28 215.7 37.1 215.29 37.1C214.93 37.1 214.45 37.22 214.03 37.46C213.55 37.7 213.13 38.06 212.66 38.6C211.4 39.98 210.09 41.25 208.72 42.39C207.35 43.47 205.91 44.43 204.48 45.16C203.05 45.94 201.55 46.54 200.06 46.96C198.57 47.38 197.13 47.56 195.64 47.56C194.68 47.56 193.85 47.44 193.19 47.08C192.47 46.78 191.94 46.42 191.46 45.94C191.04 45.46 190.68 44.92 190.5 44.44C190.26 43.9 190.14 43.36 190.14 42.88C190.14 42.88 190.26 42.76 190.5 42.58C190.74 42.4 190.92 42.34 191.04 42.28C193.43 40.84 195.58 39.39 197.55 38.01C199.52 36.63 201.25 35.18 202.63 33.74C204.06 32.3 205.14 30.79 205.92 29.23C206.7 27.61 207.11 25.92 207.11 24.06C207.11 23.34 206.93 22.5 206.57 21.72C206.27 20.94 205.79 20.22 205.2 19.56C204.6 18.96 203.83 18.42 202.99 18C202.09 17.64 201.08 17.4 200 17.4C198.63 17.4 197.31 17.58 196.12 18C194.99 18.36 193.91 18.9 192.9 19.5C191.94 20.1 191.05 20.76 190.21 21.54C189.43 22.32 188.72 23.04 188.06 23.82C187.1 25.02 186.21 26.29 185.43 27.61C184.71 28.99 184.06 30.38 183.52 31.82C183.04 33.26 182.62 34.71 182.38 36.15C182.14 37.35 182.02 38.43 182.02 39.58C181.78 39.76 181.6 39.94 181.36 40.06C180.17 41.02 178.91 41.8 177.66 42.4C176.47 43.06 175.27 43.54 174.14 43.96C172.94 44.38 171.87 44.62 170.85 44.8C169.83 44.98 168.94 45.1 168.1 45.1C167.26 45.1 166.61 44.8 166.13 44.26C165.65 43.72 165.29 43.06 164.99 42.28C164.75 41.5 164.57 40.72 164.51 39.88C164.45 39.04 164.39 38.38 164.39 37.78C164.39 37 164.45 36.22 164.57 35.38C164.57 34.48 164.75 33.64 164.87 32.85C164.99 32.01 165.11 31.23 165.17 30.51C165.29 29.79 165.35 29.25 165.35 28.77C165.35 27.15 165.05 25.82 164.51 24.8C163.97 23.72 163.26 23.24 162.36 23.24C161.11 23.24 159.91 23.54 158.72 24.14C157.52 24.8 156.39 25.58 155.32 26.48C154.18 27.38 153.23 28.4 152.27 29.49C151.37 30.63 150.54 31.59 149.88 32.56C149.7 32.86 149.34 33.34 148.86 34C148.44 34.66 147.9 35.44 147.31 36.34C146.77 37.24 146.12 38.14 145.46 39.17C144.8 40.19 144.14 41.09 143.49 42.06C142.89 42.96 142.3 43.8 141.76 44.59C141.28 45.31 140.86 45.91 140.57 46.33C140.69 44.89 140.93 43.2 141.23 41.16C141.47 39.12 141.83 36.95 142.25 34.55C142.61 32.15 143.09 29.62 143.56 26.97C144.1 24.32 144.63 21.68 145.17 19.03C145.29 18.37 145.47 17.65 145.65 16.75C145.77 15.91 145.95 15.01 146.13 14.04C146.31 13.14 146.49 12.18 146.61 11.21C146.79 10.25 146.91 9.41 147.03 8.56C147.21 7.72 147.27 7 147.33 6.34C147.45 5.74 147.45 5.26 147.45 4.9C147.45 3.4 147.15 2.25 146.55 1.35C146.01 0.509999 145.18 0.0299988 144.1 0.0299988C143.74 0.0299988 143.26 0.0299988 142.79 0.209999C142.31 0.389999 141.89 0.509999 141.42 0.809999C140.94 1.11 140.52 1.53 140.16 2.07C139.8 2.61 139.5 3.33 139.32 4.17C138.96 7.96 138.48 11.63 137.95 15.05C137.89 15.53 137.77 16.07 137.71 16.55H137.47C136.99 16.67 136.51 16.91 135.98 17.15C135.38 17.39 134.78 17.69 134.13 18.05C133.47 18.41 132.7 18.77 131.86 19.13C131.2 19.43 130.37 19.73 129.47 19.97C128.51 20.27 127.56 20.51 126.6 20.75C125.58 20.93 124.57 21.17 123.55 21.35C122.54 21.53 121.58 21.65 120.68 21.83C119.72 21.95 118.89 22.07 118.17 22.13C117.45 22.25 116.86 22.31 116.38 22.37C116.38 22.31 116.32 22.31 116.26 22.25C116.2 22.19 116.2 22.13 116.14 22.01C116.08 21.89 116.08 21.83 116.08 21.71C116.08 21.53 116.08 21.35 116.14 21.17C116.2 20.93 116.26 20.57 116.32 20.03C116.44 19.55 116.56 18.83 116.8 17.87C116.98 16.97 117.22 15.71 117.58 14.14C117.64 13.9 117.7 13.54 117.76 13.06C117.88 12.52 118 11.98 118.12 11.32C118.24 10.66 118.36 10 118.48 9.28C118.6 8.56 118.72 7.9 118.84 7.3C118.9 6.7 119.02 6.16 119.08 5.74C119.14 5.26 119.2 5.02 119.2 4.9C119.2 4.72 119.08 4.42 118.84 4C118.6 3.64 118.36 3.28 117.94 2.86C117.58 2.5 117.16 2.2 116.69 1.9C116.21 1.66 115.67 1.48 115.14 1.48C114.9 1.48 114.6 1.6 114.12 1.84C113.7 2.08 113.22 2.38 112.81 2.74C112.39 3.1 111.97 3.46 111.62 3.94C111.32 4.36 111.14 4.78 111.08 5.14C111.08 5.44 111.02 5.92 110.96 6.58C110.84 7.24 110.72 7.96 110.6 8.8C110.48 9.64 110.3 10.54 110.18 11.51C110 12.41 109.88 13.37 109.7 14.22C109.52 15.12 109.4 15.9 109.22 16.69C109.1 17.41 108.98 18.01 108.86 18.43C108.56 19.87 108.32 20.96 108.08 21.68C107.9 22.46 107.66 22.88 107.42 22.94C107.24 23 106.88 23.12 106.35 23.18C105.81 23.24 105.16 23.3 104.44 23.36C103.66 23.36 102.89 23.42 102.05 23.48C101.27 23.54 100.44 23.6 99.6601 23.6C98.8801 23.66 98.2301 23.66 97.5701 23.72H96.1401C95.6601 23.72 95.1801 23.78 94.7101 23.96C94.2301 24.08 93.8101 24.32 93.4001 24.56C93.0401 24.86 92.6801 25.28 92.4401 25.7C92.2001 26.12 92.0801 26.66 92.0801 27.32C92.0801 27.62 92.2001 27.98 92.4401 28.46C92.6801 28.88 93.0401 29.3 93.4001 29.72C93.8201 30.14 94.3001 30.5 94.7701 30.8C95.2501 31.1 95.7901 31.22 96.3201 31.22H97.2201C97.7001 31.22 98.2401 31.16 98.8301 31.16C99.4301 31.1 100.08 31.04 100.8 30.98C101.52 30.92 102.17 30.92 102.77 30.86C103.43 30.8 103.96 30.8 104.38 30.74H105.33C105.33 30.74 105.75 30.74 105.99 30.86C106.23 30.86 106.35 31.04 106.35 31.28C106.23 32.24 106.11 33.08 105.99 33.87C105.87 34.65 105.75 35.43 105.63 36.15C105.51 36.81 105.39 37.53 105.21 38.19C105.09 38.91 104.97 39.57 104.79 40.35C104.37 42.39 104.01 44.56 103.65 46.66C103.35 48.82 103.17 50.99 103.17 53.09C103.17 53.27 103.23 53.63 103.35 54.17C103.35 54.65 103.65 55.19 103.95 55.73C104.25 56.27 104.67 56.75 105.21 57.17C105.69 57.59 106.4 57.77 107.24 57.77C107.42 57.77 107.78 57.65 108.25 57.47C108.73 57.29 109.21 57.05 109.68 56.75C110.16 56.45 110.58 56.21 110.93 55.91C111.29 55.61 111.53 55.37 111.53 55.19V53.75C111.59 53.45 111.59 52.97 111.59 52.49V50.51C111.59 49.67 111.59 48.83 111.65 47.98C111.77 47.2 111.83 46.36 111.95 45.51C112.13 44.67 112.25 43.71 112.37 42.74C112.55 41.72 112.73 40.58 112.85 39.31C112.91 39.01 112.97 38.53 113.09 37.87C113.15 37.27 113.27 36.55 113.33 35.77C113.45 34.99 113.57 34.21 113.69 33.43C113.81 32.59 113.87 31.93 113.99 31.33C114.05 30.85 114.17 30.49 114.35 30.25C114.53 30.07 114.83 29.89 115.25 29.89C117.16 29.65 119.01 29.41 120.69 29.11C122.36 28.87 123.92 28.51 125.35 28.15C126.78 27.79 128.16 27.31 129.47 26.83C130.78 26.35 132.04 25.87 133.29 25.27C134.25 24.85 135.14 24.31 135.98 23.71C136.16 23.53 136.4 23.41 136.58 23.17C136.58 23.83 136.4 24.49 136.28 25.15C135.56 29.42 134.91 33.51 134.37 37.29C133.83 41.14 133.53 44.75 133.53 48.17V49.85C133.53 50.63 133.53 51.47 133.65 52.38C133.71 53.34 133.83 54.3 133.95 55.27C134.07 56.29 134.31 57.19 134.49 58.1C134.73 58.28 134.91 58.46 135.03 58.58C135.21 58.7 135.33 58.76 135.57 58.82C135.75 58.88 135.99 58.88 136.35 58.94H137.66C138.38 58.94 139.21 58.46 140.17 57.5C141.19 56.54 142.2 55.34 143.28 53.83C144.36 52.33 145.49 50.7 146.57 48.96C147.64 47.16 148.66 45.47 149.62 43.85C151.17 41.2 152.61 38.92 153.98 37C155.29 35.08 156.43 33.63 157.33 32.67C157.51 32.67 157.63 32.79 157.69 33.03V33.69C157.69 33.69 157.69 34.23 157.63 34.77C157.57 35.31 157.51 35.97 157.45 36.63L157.27 38.79C157.21 39.51 157.21 40.11 157.21 40.65C157.21 42.15 157.33 43.6 157.63 44.98C157.93 46.36 158.47 47.63 159.24 48.71C159.96 49.79 160.97 50.63 162.23 51.3C163.49 51.96 165.04 52.32 166.89 52.32C168.2 52.32 169.52 52.08 170.95 51.72C172.38 51.3 173.88 50.76 175.31 49.98C176.8 49.26 178.3 48.36 179.79 47.27C180.69 46.61 181.58 45.95 182.48 45.17C182.48 45.71 182.66 46.25 182.78 46.73C183.32 48.53 184.15 50.04 185.23 51.24C186.24 52.44 187.56 53.34 189.11 54.01C190.6 54.61 192.33 54.91 194.31 54.91C195.92 54.91 197.54 54.67 199.21 54.25C200.88 53.77 202.55 53.17 204.17 52.33C205.78 51.55 207.4 50.59 208.89 49.44C210.38 48.3 211.76 47.1 213.01 45.83C214.15 44.63 215.1 43.49 215.76 42.4C216.42 41.26 216.77 40.3 216.77 39.39C216.77 38.55 216.59 37.95 216.35 37.59H216.41L216.36 37.58ZM191.09 32.53C191.63 31.03 192.22 29.58 192.94 28.32C193.66 27.06 194.43 26.04 195.33 25.19C196.23 24.41 197.18 23.99 198.2 23.99C198.26 23.99 198.44 24.05 198.56 24.11C198.74 24.17 198.92 24.23 199.1 24.41C199.28 24.53 199.46 24.71 199.58 24.95C199.76 25.19 199.82 25.55 199.82 25.91C199.82 26.87 199.52 27.83 198.98 28.68C198.5 29.58 197.79 30.42 196.89 31.33C195.99 32.17 194.92 33.07 193.72 33.98C192.46 34.88 191.21 35.9 189.78 36.99C190.14 35.55 190.56 34.04 191.1 32.54L191.09 32.53Z" fill="#66033C"/>
<path d="M274.6 34.45V56.82H266.72V36.2C266.72 33.92 266 32.11 264.57 30.85C263.14 29.59 261.34 28.93 259.25 28.93C257.88 28.93 256.56 29.23 255.43 29.77C254.29 30.37 253.4 31.21 252.74 32.3C252.02 33.38 251.73 34.7 251.73 36.21V56.83H243.85V36.21C243.85 33.93 243.13 32.12 241.7 30.86C240.27 29.6 238.47 28.94 236.38 28.94C234.95 28.94 233.69 29.24 232.56 29.78C231.43 30.38 230.53 31.22 229.87 32.31C229.21 33.39 228.85 34.71 228.85 36.22V56.84H220.97V22.18H228.85V25.73C229.75 24.65 230.88 23.81 232.14 23.08C234.11 22 236.32 21.46 238.77 21.46C241.22 21.46 243.37 22 245.34 23.08C247.25 24.04 248.74 25.48 249.82 27.29C251.02 25.49 252.63 24.1 254.54 23.08C256.57 22 258.84 21.46 261.23 21.46C263.74 21.46 266.01 22 267.98 23.08C270.01 24.1 271.62 25.61 272.82 27.53C274.01 29.45 274.61 31.8 274.61 34.44L274.6 34.45Z" fill="#66033C"/>
<path d="M314.14 35.11V56.81H306.25V36.85C306.25 34.57 305.53 32.64 304.04 31.14C302.61 29.64 300.75 28.92 298.43 28.92C296.94 28.92 295.56 29.28 294.37 29.94C293.17 30.6 292.22 31.56 291.56 32.77C290.9 33.97 290.54 35.3 290.54 36.86V56.82H282.65V22.18H290.54V26.21C291.44 25.01 292.57 24.05 293.94 23.26C295.97 22.06 298.24 21.46 300.81 21.46C303.38 21.46 305.65 22.12 307.68 23.44C309.71 24.76 311.26 26.51 312.4 28.61C313.54 30.65 314.13 32.88 314.13 35.1L314.14 35.11Z" fill="#66033C"/>
<path d="M347.11 22.18V26.03C346.15 24.89 344.96 23.93 343.59 23.2C341.56 22.06 339.23 21.46 336.6 21.46C333.49 21.46 330.69 22.3 328.18 23.93C325.67 25.49 323.64 27.66 322.21 30.42C320.78 33.13 320 36.19 320 39.62C320 43.05 320.78 45.99 322.21 48.7C323.64 51.47 325.67 53.57 328.18 55.19C330.69 56.75 333.5 57.53 336.6 57.53C339.23 57.53 341.56 56.99 343.59 55.85C344.96 55.07 346.16 54.17 347.11 53.02V56.81H355V22.18H347.11ZM344.9 47.08C343.11 49.06 340.78 50.09 337.85 50.09C335.94 50.09 334.27 49.61 332.83 48.71C331.34 47.87 330.2 46.61 329.37 45.04C328.53 43.42 328.11 41.61 328.11 39.51C328.11 37.41 328.53 35.66 329.37 34.04C330.21 32.48 331.34 31.21 332.83 30.31C334.26 29.47 335.94 28.99 337.85 28.99C339.76 28.99 341.55 29.47 342.99 30.31C344.42 31.21 345.56 32.47 346.39 34.04C347.23 35.66 347.58 37.47 347.58 39.51C347.58 42.64 346.68 45.16 344.89 47.09L344.9 47.08Z" fill="#66033C"/>
</g>
<defs>
<clipPath id="clip0_22_657">
<rect width="355" height="58.92" fill="white"/>
</clipPath>
</defs>
</svg>
