<svg width="108" height="103" viewBox="0 0 108 103" fill="none" xmlns="http://www.w3.org/2000/svg">
<path d="M51.2019 99.4531C77.9877 99.4531 99.7019 77.7389 99.7019 50.9531C99.7019 24.1673 77.9877 2.45312 51.2019 2.45312C24.4161 2.45312 2.7019 24.1673 2.7019 50.9531C2.7019 77.7389 24.4161 99.4531 51.2019 99.4531Z" fill="#66033C"/>
<path d="M107.521 54.3229C107.621 56.3222 107.094 58.9017 106.44 60.7875C106.237 61.3778 105.876 60.9942 105.715 61.3926C105.4 62.165 105.442 62.9651 105.064 63.7114C104.937 63.957 104.36 63.4782 104.242 63.7363C103.598 65.1431 103.37 66.5695 102.752 67.9904C99.7055 74.9444 95.7247 81.2234 90.4737 86.569C88.7395 88.343 86.1737 89.9433 84.3884 91.7297C84.1798 91.9401 84.6871 92.2876 84.674 92.3608C84.4425 93.5004 83.9308 92.3845 83.3818 92.6125C81.1985 93.5173 79.1102 94.8479 77.3355 96.1347C76.5796 96.6814 77.9695 97.239 76.8233 97.1296C76.745 97.1223 76.6464 96.4608 76.3919 96.5258C75.8172 96.6758 74.9078 97.2788 74.4849 97.4325C73.6723 97.7262 73.5487 97.7918 72.8113 98.1256C71.7956 98.5763 70.4699 98.7951 69.4135 99.3429C69.1871 99.462 69.7292 99.945 69.3835 100.19C69.0382 100.437 67.9954 100.743 67.6007 100.71C67.2067 100.68 67.1992 100.151 67.1025 100.061C66.3121 99.296 65.5399 100.934 65.3835 101.01C62.7136 102.35 60.0599 102.079 57.3817 102.404C55.3485 102.652 53.1745 103.025 51.2019 102.993C51.1856 102.992 51.1693 102.992 51.153 102.992C48.7896 102.94 46.8418 102.463 44.5807 102.24C44.3418 102.214 44.5253 102.999 44.2301 102.969C41.0917 102.642 38.0008 101.856 35.192 100.411C34.9113 100.265 35.4968 99.7591 35.232 99.5765C33.5747 98.4797 31.4745 96.1948 29.2441 98.3208C28.1135 97.6756 26.7594 96.8442 26.047 95.7726C25.5913 95.083 26.5678 94.812 25.6413 94.6307C25.4326 94.5876 25.3393 95.2665 25.048 95.1584C23.8159 94.6982 22.7432 93.76 21.508 93.2897C21.2554 93.1949 20.9862 93.6978 20.866 93.7377C19.8636 94.0425 19.8283 92.3093 19.7175 92.0966C18.8103 90.4634 17.6899 89.8964 16.5215 88.8074C16.2525 88.5538 16.0598 89.411 15.7801 89.1839C14.3345 87.9945 13.0211 86.5412 12.0824 84.9452C11.8758 84.5892 12.6089 84.4459 12.5365 84.2553C12.2218 83.4256 11.1609 84.0636 10.8512 83.259C10.786 83.0908 11.2801 82.8203 11.3082 82.7579C11.7573 81.7876 10.4359 82.2919 10.3329 82.2065C9.03589 81.1757 9.60836 79.5267 8.62496 78.3819C8.50509 78.2425 8.13803 78.9704 7.83558 78.5513C5.81635 75.7584 4.32611 72.3496 3.66182 68.9985C3.55768 68.4774 4.1836 68.643 4.23249 68.5886C4.99904 67.7402 3.60917 67.8895 3.50261 67.7418C2.70325 66.583 3.44194 65.0745 1.63799 64.6261C0.848436 60.0688 -0.245383 55.5422 0.289633 50.9531C0.421828 49.8241 0.65261 48.7257 1.01122 47.6337C1.03265 47.5639 1.69316 47.734 1.73304 47.596C2.23445 45.9434 1.17436 46.2022 0.0332272 44.905C-0.251856 44.5695 1.38946 43.8966 1.51251 43.8444C1.96304 43.6291 2.90951 44.0542 3.00222 43.9745C3.73637 43.3352 0.454381 42.9487 0.636845 41.8879C0.648032 41.8563 1.22137 42.0994 1.29628 42.0227C1.53074 41.7864 1.34339 41.4751 1.59967 41.2519C2.19404 40.7407 3.79913 40.8736 3.09141 39.7821C3.00133 39.6411 1.13111 39.3963 1.44438 38.4911C1.56411 38.1331 1.97921 36.5 2.23812 36.0907C2.4905 35.6791 2.97274 36.1636 3.00758 36.1387C4.13921 35.1938 4.31464 35.7444 5.62247 35.5476C6.92531 35.3696 4.22319 34.6087 4.01162 34.2656C3.79998 33.9211 4.73278 33.2952 5.02596 33.1764C5.31839 33.0543 5.5773 33.4466 5.76781 33.3131C7.02179 32.4427 4.68354 32.2725 4.43383 31.7029C3.8593 30.3346 6.09797 30.4249 6.66974 29.6995C6.82687 29.4993 6.3117 29.4775 6.36914 29.2568C6.60883 28.3806 7.42296 28.2112 7.37917 27.0455C7.36878 26.8596 6.6866 25.5148 7.75309 25.5139C7.90514 25.5165 8.24459 25.9605 8.53559 25.6962C8.96968 25.3015 9.59614 24.5086 9.78204 23.9123C9.91963 23.4701 8.92401 23.4274 9.45868 23.1018C9.69669 22.9595 9.85401 23.6211 10.2646 23.3347C10.6713 23.0492 11.3349 22.0737 11.5917 21.7037C11.8451 21.3331 11.1802 21.1422 11.1666 21.0872C11.0969 20.7591 11.3879 19.8686 11.4388 19.808C13.8385 16.636 17.1534 14.8449 19.8361 12.1989C20.0501 11.9908 19.4676 11.5833 19.4958 11.5461C20.1236 10.6798 20.6209 12.6029 21.5428 12.6528C20.6131 11.6209 21.0934 11.5603 21.5754 11.0122C21.8078 10.7476 21.3391 10.427 21.3315 10.3642C21.2688 9.39779 22.1837 10.0409 22.3803 10.1655C23.112 10.618 22.8799 9.64091 23.3705 9.94791C23.8533 10.2559 23.8628 11.1893 24.4093 10.8092C24.2923 10.2908 23.1477 9.4956 23.4673 9.03016C24.6857 7.22662 28.4817 6.29199 29.9523 5.75431C31.4293 5.18338 31.872 4.91123 32.79 4.73245C34.4522 4.43363 33.5426 3.75599 34.3832 2.98489C35.2414 2.22294 35.5108 4.6354 35.8141 5.06893C36.1093 5.50641 36.091 4.96098 36.3455 5.17237C36.5971 5.38485 36.3468 5.82898 36.7657 5.80448C37.1794 5.77827 37.9846 4.59753 37.9914 4.04604C37.9929 2.87705 37.1654 1.87167 38.3845 1.97673C38.454 1.98411 38.4062 2.63969 38.6637 2.63772C40.6862 2.60769 42.6933 2.24836 44.6723 2.4133C44.9434 2.4373 44.7985 3.15469 44.9556 3.17685C46.5842 3.42532 45.8808 2.33679 46.6545 0.957486C46.6144 2.69675 47.1882 3.69156 48.3681 3.62944C49.0841 3.5965 48.9184 2.85183 49.3701 2.30168C49.5072 2.13559 50.0378 2.63824 50.123 2.28251C50.4125 1.12044 49.8867 -0.176516 51.2019 0.330699C51.2024 0.330913 51.203 0.331126 51.2035 0.33134C51.2238 0.339996 51.2141 0.424421 51.2019 0.531805C51.1858 0.673063 51.1655 0.854053 51.2019 0.954538C51.2163 0.994362 51.2396 1.02155 51.2757 1.02866C52.5358 1.28993 52.7087 0.0796168 54.1126 0.00287271C55.2225 -0.0576224 57.0805 0.861235 58.2675 1.15802C57.9797 3.07482 59.1288 2.79586 59.8236 1.56241C60.5956 1.75139 61.4487 1.84421 62.158 2.19284C62.4009 2.31213 62.108 2.82207 62.1271 2.88858C62.3999 3.92679 63.0235 2.74052 63.2044 2.73264C65.1306 2.70435 66.2635 4.08292 68.236 3.76637C68.3046 3.75463 68.8679 2.52315 68.9756 3.61418C68.9786 3.68803 68.2196 4.05719 68.9789 4.39447C69.7468 4.73417 70.8835 5.98725 72.1756 5.90648C72.4847 5.88371 73.6113 5.20897 73.7387 6.23226C73.7537 6.36991 73.506 6.67783 73.5049 6.91842C73.4998 7.68494 74.2994 6.56455 74.1188 7.77884C73.938 8.99419 74.2152 10.1255 75.5676 10.0019C75.6087 9.99952 76.3915 9.20853 76.6892 9.41162C77.1615 9.73376 77.7175 10.3582 78.2102 10.6822C78.4469 10.8373 78.6724 10.1807 78.7201 10.198C80.533 10.9808 81.2934 12.3004 82.6867 13.8123C82.9373 14.0858 84.3684 14.1221 84.4149 15.1557C84.4516 16.2798 81.625 18.1141 83.3919 18.7498C84.077 18.9916 87.782 16.8087 87.0613 19.2569C89.1612 20.8295 89.6895 23.3619 91.6945 25.0676C91.7838 25.1438 92.9659 24.8311 93.0994 25.0775C93.2941 25.4418 92.9426 25.915 93.0591 26.1812C93.5332 27.3037 94.4729 28.056 94.9364 29.1439C95.1112 29.5556 94.538 29.6647 94.7377 30.1512C94.9337 30.6348 95.7584 30.6468 95.7215 31.451C95.691 32.0624 94.4985 33.1349 94.5854 33.8349C95.9846 33.3092 96.1395 33.7707 96.8086 34.4572C96.9377 34.5894 97.366 34.2429 97.4525 34.2968C97.8165 34.5158 97.5092 34.9447 97.8855 35.1455C97.9763 35.195 98.4614 35.0354 98.5632 35.0678C99.4511 35.3431 98.6196 36.5426 98.4672 36.736C97.9023 37.4988 98.6113 37.5682 98.4392 38.0721C98.2637 38.5697 97.7347 38.0426 97.6896 38.5752C97.5946 39.6699 97.9681 40.9383 98.138 41.9703C98.2089 42.3811 98.8265 41.977 98.8523 42.0328C99.1847 42.8692 98.599 43.8457 100.01 44.1404C96.6091 45.2102 100.426 44.6179 99.8645 45.9756C99.8179 46.0817 98.1781 46.3633 97.8982 46.0235C97.6185 45.6853 98.0696 45.0688 97.6242 44.6141C97.5202 44.5005 95.8837 44.0588 95.7762 43.9888C94.9396 43.4107 97.3634 42.8939 97.4914 42.8289C98.8644 42.1289 97.0522 41.5958 96.8942 41.4136C96.1691 40.5351 96.3084 39.6367 95.7239 38.9209C95.3434 38.4552 93.7653 38.8515 93.6988 38.4448C93.472 37.1141 95.4457 35.873 93.1457 35.3102C92.6523 35.1935 91.099 36.0878 92.0425 34.6705C92.1048 34.586 93.006 33.4092 92.0895 33.3299C91.9746 33.321 91.5002 33.5282 91.4326 33.4817C90.9886 33.1678 91.2371 32.7152 90.8419 32.3377C90.4473 31.9623 89.9168 31.5507 89.8081 30.9609C89.7434 30.6071 90.3798 29.755 90.5029 29.4889C90.8642 28.7314 89.6362 28.8321 90.197 28.1604C90.7524 27.4729 92.1543 27.3706 92.1837 26.3744C91.0147 27.0402 89.7967 27.6937 88.616 28.3552C87.782 26.8866 87.1879 25.2532 86.0852 23.9281C85.9478 23.7658 85.5103 24.3805 85.3499 24.2208C84.6785 23.5522 84.5413 22.583 83.7297 21.9793C83.0991 21.5143 81.9747 21.4362 81.2924 21.0244C82.0485 19.5978 80.8193 19.135 80.2759 18.465C80.0836 18.2282 80.3708 17.934 80.2959 17.6897C79.9997 16.776 79.4038 18.0608 79.0978 18.0801C77.7988 18.1826 79.6911 15.7485 78.7138 15.0849C78.6588 15.0445 77.0805 15.91 76.9446 15.9389C76.0413 16.104 77.198 15.4156 76.9436 15.0819C76.4776 14.4758 76.2643 13.8519 75.2754 13.7808C74.9819 13.7593 73.9405 14.3087 73.9401 13.3842C73.9392 13.2625 74.2503 12.8169 74.2222 12.7627C73.6784 11.8203 72.7937 13.284 72.0624 13.5335C71.3348 13.7854 71.1856 12.3783 71.1848 11.998C71.194 11.017 71.6566 11.8189 71.7162 11.7546C72.4435 10.9801 71.8204 10.8491 71.4377 10.5613C72.1287 9.03694 71.4674 8.82437 71.0363 10.2699C70.9895 10.4274 71.3873 10.4501 71.4377 10.5613C70.3272 11.8383 69.6516 11.7405 69.5592 10.0196C69.511 9.21408 70.1772 8.58339 68.987 8.41005C68.4485 8.33634 68.1983 9.47746 67.6654 9.6012C66.4616 9.88887 65.5871 8.43888 64.5062 8.28181C64.1218 8.22727 64.292 8.93876 64.0259 8.92374C63.3249 8.88927 62.8668 8.27014 62.1334 8.332C62.0679 8.33877 62.0504 9.01454 61.8442 8.97086C60.2806 8.65805 58.9898 7.97098 57.3159 7.72127C56.5074 7.59723 55.0258 7.808 54.1967 7.68387C53.2623 7.54016 52.2099 7.07676 51.2019 6.84658C50.6475 6.7188 50.1204 6.66132 49.6728 6.75956C48.8538 6.93986 49.0689 7.59401 48.7464 8.06031C48.1422 8.96178 46.8595 7.51207 46.661 7.29249C46.6549 7.28391 47.3425 7.06245 46.9351 6.76098C46.6461 6.08008 46.6678 7.2888 46.661 7.29249C46.5394 7.14256 45.1105 7.16351 44.8526 7.33452C44.7119 7.42454 44.8864 8.03052 44.8126 8.06573C43.0495 8.89197 41.3255 9.42364 39.4475 9.65233C39.4123 9.64922 39.2695 8.96326 39.1881 8.96466C38.0424 8.97119 37.6178 10.011 36.9589 10.781C36.2969 11.5544 35.6111 11.6444 34.6603 10.7381C34.0915 11.1332 32.985 11.0459 32.3292 11.0026C31.6719 10.9589 32.1996 12.2189 32.1684 12.2635C31.1925 13.7131 30.0759 13.4378 28.6434 14.1659C27.9625 14.5068 26.8188 15.5015 26.2494 16.1009C25.7995 16.5725 25.2976 16.5505 24.9518 17.0755C24.9053 17.1461 25.3407 17.5748 25.3358 17.6082C25.2722 18.5782 24.601 17.224 24.329 17.1015C23.3413 16.6603 22.7547 16.4722 22.3826 17.3855C22.2909 17.5999 23.2667 19.5794 23.0998 19.9001C22.8726 20.3213 22.4807 19.643 22.2562 20.1055C22.2368 20.1447 22.5651 20.4821 22.3395 20.668C21.297 21.5351 20.0684 22.4275 19.1792 23.5395C19.0572 23.6896 19.7854 23.9879 19.6214 24.2101C18.8523 25.2521 17.9778 26.3457 16.9693 27.1849C16.7189 27.3907 16.3993 26.9328 16.2326 26.9005C15.2123 26.7211 16.0148 27.9875 15.9874 28.0786C15.2919 30.3681 13.3478 31.3424 12.8853 33.7792C12.857 33.921 13.8179 35.3852 12.4951 35.3138C12.4079 35.3058 11.0446 35.249 11.725 35.9338C11.7684 35.9752 12.4824 35.9574 12.252 36.3766C12.02 36.8017 12.1878 37.6501 11.2962 38.0478C11.0163 38.169 9.6349 38.2777 10.441 39.1721C10.492 39.2451 12.4728 40.7507 10.8504 40.6737C10.5839 40.6611 8.95557 40.1949 9.6208 41.1348C9.75169 41.3123 10.1762 41.1474 10.3214 41.5636C10.5478 42.1955 9.95066 42.8494 10.5697 43.6664C10.6783 43.8135 11.7232 44.493 10.8041 44.76C10.6599 44.8029 10.1209 44.5972 10.0263 44.8037C9.57396 45.7931 9.8289 46.9246 9.36613 47.953C9.20384 48.3219 8.30722 48.0669 8.03936 48.4589C7.77079 48.8513 7.50455 49.6683 7.91438 50.1053C8.3241 50.5362 9.78086 50.1026 9.89129 50.7172C9.90575 50.7959 9.91923 50.8745 9.93182 50.9531C10.3457 53.5035 9.77159 56.0837 10.1293 58.6724C10.1848 59.0634 10.6322 58.647 10.7539 59.2079C11.1833 61.315 12.7088 64.595 12.4199 66.7164C12.184 68.4499 10.8216 66.9395 10.9491 68.1688C11.022 68.7771 12.8167 68.6385 12.9191 68.7317C13.9599 69.6809 13.7126 70.8213 14.4983 71.7477C14.6602 71.9357 15.1364 71.3901 15.2666 71.551C15.7146 72.0933 15.835 72.8767 16.2451 73.4099C16.4303 73.6472 16.8376 73.3152 16.9535 73.5643C17.2378 74.1571 17.3853 74.754 17.37 75.5651C17.3697 75.6404 16.6058 75.6961 16.8808 76.1136C17.3251 76.7836 17.5735 77.8886 18.5589 78.2857C18.8539 78.4025 19.7634 77.6327 19.5233 78.6135C19.474 78.8174 18.2947 79.6532 19.6818 79.3452C19.92 79.3064 21.8993 78.9872 21.5155 80.1266C21.414 80.4282 20.8552 81.5308 21.2266 81.6354C21.2792 81.6456 21.5993 81.062 21.8385 81.2076C22.6723 81.7257 23.37 82.4506 24.2504 82.9303C24.4852 83.056 24.6169 82.3002 24.9499 82.4999C25.8627 83.0456 26.7945 83.971 27.5239 84.7341C27.7919 85.0164 27.2619 85.3168 27.2499 85.3814C27.0712 86.4429 28.0392 85.5093 28.2017 85.5258C29.2208 85.6525 29.4881 86.5444 30.3116 86.8376C30.5369 86.9185 30.707 86.2928 30.7754 86.268C31.4608 86.033 30.5915 86.831 30.7971 87.0908C31.3764 87.823 32.2627 88.231 33.0868 88.5393C33.3889 88.6508 33.3799 87.8411 33.644 87.9464C35.2108 88.5543 36.785 89.2592 38.2216 90.1551C38.4929 90.3251 38.1336 90.7956 38.1559 90.9374C38.3193 91.9321 39.3245 90.9616 39.4961 90.8898C40.3016 90.5711 40.4255 91.1158 41.0388 91.1769C44.0089 91.4731 47.5444 92.2534 50.3707 92.4916C50.6512 92.517 50.9281 92.5412 51.2019 92.5639C54.4802 92.8234 57.2622 92.965 60.4375 92.1417C60.655 92.0846 60.2716 91.4084 60.4542 91.3501C62.7994 90.6314 65.198 90.1593 67.3838 88.9959C67.5623 88.9018 67.0206 88.3669 67.2933 88.1952C67.8502 87.8384 68.6053 87.5301 69.2988 87.4356C69.6371 87.3879 69.517 88.1248 69.8555 88.0634C70.6464 87.9194 71.4077 87.5658 72.0398 87.0691C72.3062 86.8569 71.5071 86.4876 71.8765 86.2623C74.3867 84.7004 76.5876 82.9228 79.4381 81.5673C79.6319 81.4752 80.7716 82.4188 80.9086 81.8983C80.6515 81.5811 80.3183 81.2376 80.0272 80.9141C82.9868 77.7398 86.0153 74.5976 88.1789 70.7392C88.2686 70.5782 87.4349 70.4909 87.6024 70.1807C88.5708 68.3704 89.1561 66.5094 90.5831 64.7815C90.7228 64.6086 91.9809 65.1612 91.9883 64.489C91.9905 64.3708 92.1072 63.4009 91.8889 63.0835C91.8552 63.0395 91.196 63.0201 91.263 62.7274C91.6628 61.0236 92.2012 59.2955 92.8613 57.6142C92.9689 57.3418 93.5928 57.7485 93.6754 57.5527C94.2574 56.1527 93.9015 54.5199 94.5849 53.1443C95.0417 52.2184 96.1987 52.6129 97.3699 52.1154C97.5359 52.0441 97.5719 51.419 98.2436 51.3907C99.9353 51.3158 101.783 51.6623 103.587 51.5475C103.977 51.523 103.561 50.5639 104.498 51.1338C104.562 51.1734 104.866 51.877 105.18 52.0585C105.397 52.185 106.086 51.9776 106.362 52.2356C106.637 52.4959 106.057 52.7552 106.371 53.1833C106.687 53.6159 107.477 53.4593 107.521 54.3229ZM29.3458 10.9092C28.5461 10.6041 29.6509 12.7281 29.875 11.95C29.8845 11.9099 29.3859 10.9238 29.3458 10.9092ZM88.6325 24.2271C89.0627 23.0158 87.5178 23.5488 87.1628 24.4358C86.7958 25.3089 88.4967 24.5883 88.6325 24.2271ZM93.1605 30.2907C93.5162 29.1406 90.443 30.5854 91.4476 31.0566C91.5046 31.0844 93.1392 30.3567 93.1605 30.2907ZM97.5712 54.6172C97.604 54.6122 97.6678 54.1638 97.6366 54.1507C96.8954 53.8632 96.7701 54.7447 97.5712 54.6172ZM96.7372 37.0476C97.0984 36.652 96.351 36.0609 95.9118 36.559C95.5582 36.9532 96.2882 37.5328 96.7372 37.0476ZM7.73391 30.1815C7.69763 30.174 7.52512 30.4629 7.71069 30.5425C8.30742 30.7977 8.33904 30.3059 7.73391 30.1815ZM98.8277 49.888C98.9044 47.9962 101.597 46.5381 101.407 48.7805C101.368 49.1777 100.474 47.9698 100.246 48.4852C99.8288 49.4011 101.604 49.9767 100.664 50.9358C100.493 51.0975 98.8198 49.9879 98.8237 49.8846C98.825 49.8857 98.8263 49.8869 98.8277 49.888ZM27.6731 8.54965C27.6474 8.52713 27.2254 8.73015 27.2315 8.76341C27.3904 9.54578 28.2268 9.14442 27.6731 8.54965ZM1.59725 48.9525C1.52596 48.9747 1.43166 50.0826 1.49613 50.1207C2.72266 50.7049 2.91312 48.5243 1.59725 48.9525ZM58.2793 1.21196C58.9045 0.527622 59.5725 0.543259 59.8214 1.56104C59.3144 1.42143 58.7915 1.33165 58.2793 1.21196Z" fill="#FFF0E1"/>
<path d="M59.539 68.185C59.3303 67.9694 59.1302 67.6344 58.9958 67.3646C58.9532 67.2798 59.045 67.2689 59.0187 67.2086C58.9666 67.0899 58.8647 67.0217 58.8176 66.901C58.8025 66.8609 58.9333 66.824 58.915 66.7836C58.8134 66.562 58.65 66.4057 58.522 66.2007C58.3297 65.893 58.1313 65.594 57.9255 65.2973C57.5073 64.6815 56.9522 64.1032 56.3703 63.5111C56.0929 63.2298 55.8109 62.8225 55.4712 62.5876C55.4318 62.5605 55.3795 62.6619 55.3667 62.6627C55.1675 62.6724 55.3501 62.5361 55.2999 62.452C55.1001 62.1185 54.796 61.838 54.4975 61.6338C54.372 61.5487 54.3417 61.8137 54.3076 61.6204C54.3051 61.6071 54.4115 61.5441 54.3882 61.5071C54.3336 61.4221 54.1866 61.3218 54.1364 61.2658C54.0397 61.157 54.0237 61.1446 53.9231 61.0555C53.8852 61.0215 53.8477 60.9822 53.8095 60.9406C53.7152 60.8368 53.6122 60.7143 53.4939 60.6373C53.4585 60.6147 53.4214 60.7417 53.3578 60.7138C53.2949 60.6864 53.164 60.5598 53.1393 60.5011C53.113 60.4409 53.1939 60.3857 53.2001 60.3625C53.2549 60.168 52.9312 60.2236 52.9084 60.2123C52.4732 59.9785 52.2563 59.6023 51.9121 59.3082C51.6495 59.0842 51.3414 58.8837 51.0969 58.6665C50.8066 58.408 50.5979 58.1445 50.3026 57.9079C50.2716 57.8829 50.2154 58.0209 50.1774 57.9905C49.7724 57.6675 49.3909 57.3231 49.0598 56.9166C49.0266 56.8757 49.1578 56.8242 49.1295 56.7777C48.9546 56.4952 48.7314 55.9841 48.2386 56.2754C48.0883 56.1202 47.905 55.9361 47.8287 55.7285C47.7799 55.5951 47.9589 55.5694 47.8059 55.5154C47.7716 55.5031 47.7288 55.6223 47.683 55.597C47.4894 55.4897 47.3359 55.309 47.1319 55.2163C47.0904 55.1979 47.0308 55.2866 47.009 55.2932C46.8297 55.3442 46.8647 55.0382 46.8474 54.9992C46.7186 54.7081 46.5231 54.6138 46.3231 54.4398C46.2767 54.3993 46.2403 54.5555 46.1917 54.52C45.9416 54.3346 45.7067 54.1193 45.5166 53.8748C45.4744 53.82 45.6004 53.7676 45.5843 53.7367C45.5121 53.6016 45.3418 53.7581 45.2689 53.6311C45.2535 53.6046 45.3332 53.5359 45.3366 53.5238C45.3898 53.3337 45.1713 53.4815 45.1517 53.4722C44.8993 53.3583 44.9437 53.0479 44.7207 52.9074C44.6942 52.8911 44.6617 53.0362 44.5925 52.9844C44.2919 52.7595 44.002 52.5032 43.7359 52.2275C43.588 52.075 43.4513 51.9203 43.3249 51.7626C43.2666 51.691 43.3803 51.6585 43.3839 51.6455C43.438 51.4407 43.2278 51.5962 43.1999 51.5849C42.9791 51.4853 42.9614 51.1859 42.6421 51.3094C42.3505 50.9882 42.0227 50.7095 41.7048 50.3714C41.5489 50.1874 41.373 50.0451 41.2458 49.6416C41.1726 49.437 41.2599 49.0687 41.4043 48.9306C41.5381 48.7788 41.6544 48.7187 41.7614 48.6613C41.8671 48.6093 41.9759 48.5628 42.0883 48.5227C42.1003 48.5181 42.1546 48.6336 42.178 48.6241C42.461 48.5127 42.3025 48.3856 42.3342 48.076C42.3429 47.9978 42.6285 48.1548 42.6509 48.1656C42.734 48.2043 42.7945 48.3882 42.8162 48.392C42.9918 48.419 42.637 47.9118 42.7911 47.813C42.7964 47.8108 42.8375 47.9196 42.8565 47.9209C42.9154 47.9255 42.9307 47.8622 42.9908 47.8707C43.1289 47.8908 43.3189 48.1262 43.3628 47.8933C43.3681 47.8634 43.1571 47.5812 43.3035 47.5107C43.362 47.4826 43.6019 47.3299 43.6815 47.3086C43.7612 47.2871 43.7728 47.4121 43.7802 47.4133C44.04 47.4314 44.0025 47.5263 44.2076 47.6613C44.4123 47.7956 44.1167 47.3598 44.1238 47.2871C44.131 47.2146 44.3282 47.2403 44.3829 47.2576C44.4377 47.2747 44.4337 47.3608 44.4753 47.3642C44.7503 47.3844 44.4263 47.0894 44.4469 46.9798C44.495 46.7206 44.8121 46.9848 44.969 46.9343C45.0113 46.9207 44.9351 46.8631 44.9637 46.836C45.0774 46.7297 45.2193 46.7856 45.3079 46.5996C45.3225 46.5692 45.3168 46.2967 45.4841 46.3945C45.5081 46.4087 45.5291 46.5103 45.5956 46.4942C45.6951 46.47 45.8536 46.3939 45.9232 46.3098C45.9743 46.2478 45.8134 46.1616 45.9211 46.1507C45.9691 46.1458 45.9539 46.2678 46.04 46.2519C46.126 46.2362 46.2949 46.1185 46.3574 46.0719C46.42 46.0253 46.3162 45.949 46.3168 45.9387C46.322 45.8786 46.4107 45.7462 46.4212 45.7389C46.9386 45.3608 47.5308 45.1501 47.9694 44.6945C47.9797 44.6837 47.9901 44.6727 48.0003 44.6615C48.0347 44.6243 47.9248 44.5505 47.9292 44.5438C48.0231 44.3889 48.1475 44.7338 48.3142 44.7378C48.128 44.5557 48.2122 44.5438 48.2851 44.4393C48.319 44.3897 48.2278 44.3366 48.2248 44.3254C48.186 44.1542 48.3648 44.2579 48.4037 44.277C48.5465 44.3476 48.4742 44.1755 48.5709 44.2213C48.6672 44.2664 48.6991 44.4361 48.7851 44.3537C48.7458 44.2632 48.5168 44.1442 48.5548 44.055C48.6998 43.7178 49.2857 43.4193 49.4947 43.2421C49.7031 43.0663 49.7535 42.9922 49.89 42.9047C50.1362 42.7465 49.9349 42.692 50.0024 42.5083C50.0701 42.3243 50.3224 42.6994 50.408 42.7489C50.4932 42.7985 50.4434 42.7095 50.5027 42.7243C50.5619 42.7393 50.5599 42.8331 50.6258 42.7949C50.6919 42.7567 50.7141 42.494 50.6616 42.4052C50.5505 42.2171 50.3294 42.1251 50.5216 42.0421C50.5327 42.0374 50.5901 42.1453 50.6286 42.1233C50.9318 41.9449 51.1838 41.6966 51.4784 41.5089C51.5192 41.4832 51.5827 41.6039 51.6074 41.59C51.8648 41.4453 51.6378 41.3644 51.5719 41.0836C51.7793 41.3344 51.9812 41.4111 52.1328 41.2578C52.2236 41.1661 52.1072 41.0831 52.0939 40.9538C52.0899 40.9147 52.2227 40.9171 52.1869 40.8586C52.0689 40.6681 51.8347 40.5604 52.058 40.469C52.068 40.4652 52.1321 40.5701 52.1604 40.5511C52.346 40.427 52.2007 40.2504 52.3433 40.0629C52.456 39.915 52.7831 39.7752 52.9448 39.6397C53.204 39.8951 53.2813 39.6946 53.1563 39.4628C53.1704 39.4501 53.1843 39.4371 53.198 39.4239C53.2836 39.341 53.362 39.2489 53.4609 39.1866C53.5001 39.1619 53.5572 39.2552 53.5693 39.2588C53.7598 39.3162 53.6197 39.1078 53.6325 39.0797C53.7753 38.7857 54.085 38.7131 54.1411 38.3665C54.143 38.3541 53.9606 38.1786 54.1529 38.2362C54.1661 38.2402 54.1907 38.3903 54.2882 38.2872C54.3853 38.1847 54.6594 38.0619 54.6888 37.8337C54.696 37.7789 54.6072 37.5588 54.7923 37.5802C54.8174 37.5833 54.8665 37.6384 54.9099 37.6481C55.0487 37.6778 54.8648 37.4975 55.0808 37.5712C55.2965 37.6452 55.5183 37.6199 55.515 37.3681C55.5153 37.3602 55.3786 37.2035 55.4174 37.1545C55.4801 37.0756 55.5961 36.9835 55.6548 36.8958C55.6827 36.854 55.5608 36.8093 55.5638 36.8008C55.6952 36.4841 55.9196 36.3473 56.1543 36.0674C56.1978 36.016 56.1525 35.7649 56.3347 35.7263C56.5345 35.6831 56.987 36.1288 57.0311 35.7697C57.0498 35.6234 56.458 35.086 56.9262 35.0859C57.0664 34.6405 57.4522 34.371 57.5443 33.8996C57.5486 33.8784 57.3872 33.7173 57.4127 33.6763C57.4468 33.6222 57.5368 33.6272 57.5773 33.5993C57.5823 33.5958 57.5866 33.5918 57.5899 33.5872C57.7192 33.4124 57.7398 33.1995 57.858 33.0264C57.9025 32.9611 57.9789 33.0391 58.0323 32.9617C58.0853 32.885 57.9993 32.7588 58.1232 32.6859C58.217 32.6313 58.509 32.7002 58.6045 32.609C58.3684 32.4575 58.4203 32.3856 58.4377 32.2144C58.4408 32.1815 58.3408 32.1582 58.338 32.1401C58.3242 32.0656 58.4207 32.0618 58.4007 31.9874C58.3959 31.9696 58.3135 31.9208 58.3048 31.9037C58.2276 31.7568 58.4843 31.7359 58.5297 31.7292C58.7014 31.7083 58.6106 31.6103 58.6927 31.5672C58.7753 31.5217 58.7914 31.6553 58.8599 31.5868C58.9934 31.4523 59.0636 31.2296 59.1105 31.0464C59.1135 31.0356 59.1168 31.0237 59.1202 31.0121C59.1405 30.9406 59.004 30.9564 59.004 30.9454C59.0133 30.7856 59.188 30.6755 58.9704 30.5177C59.6311 30.611 58.9364 30.4084 59.1335 30.235C59.1494 30.2215 59.4508 30.302 59.473 30.3787C59.4954 30.455 59.3719 30.5195 59.4128 30.6277C59.422 30.654 59.6661 30.8544 59.6789 30.8742C59.776 31.0337 59.324 30.9254 59.2972 30.9256C59.1389 30.9268 59.1478 30.9989 59.1904 31.0688C59.225 31.1274 59.2788 31.189 59.2825 31.2115C59.3199 31.4404 59.192 31.5865 59.1854 31.7716C59.1798 31.8927 59.4473 32.0383 59.3964 32.1181C59.2242 32.3796 58.8096 32.239 58.9901 32.6528C59.0283 32.7407 59.3399 32.8704 59.014 32.8992C58.9931 32.9016 58.7144 32.8962 58.8002 33.0455C58.8112 33.0642 58.8939 33.1149 58.8938 33.1306C58.8913 33.2351 58.7947 33.2446 58.7764 33.3461C58.7585 33.4471 58.7474 33.5734 58.6652 33.6494C58.6159 33.6948 58.4173 33.678 58.3634 33.6834C58.208 33.699 58.3453 33.8833 58.1839 33.857C58.0348 33.8347 57.8936 33.6573 57.7483 33.6912C57.7343 33.6946 57.7203 33.6999 57.7063 33.7075C57.9257 33.832 58.1474 33.9661 58.3664 34.0944C58.1991 34.3863 57.9686 34.6391 57.8126 34.9416C57.7934 34.9793 57.9329 35.0077 57.9153 35.0498C57.8406 35.2276 57.6739 35.3258 57.6077 35.5175C57.5569 35.6663 57.595 35.8856 57.5423 36.0446C57.2437 35.9824 57.2038 36.2384 57.0885 36.3741C57.0484 36.4215 56.9851 36.3773 56.9407 36.401C56.7746 36.4911 57.0314 36.5612 57.0413 36.621C57.0812 36.878 56.5861 36.5813 56.4746 36.7784C56.4689 36.7883 56.6444 37.0811 56.6486 37.1093C56.6802 37.2871 56.5475 37.0679 56.4835 37.1227C56.3661 37.2229 56.2482 37.2654 56.2228 37.4597C56.2162 37.516 56.3017 37.7279 56.1235 37.7219C56.1002 37.7212 56.0216 37.6562 56.0107 37.6612C55.8202 37.7562 56.0759 37.9472 56.0982 38.0998C56.1198 38.2532 55.842 38.2556 55.7706 38.2443C55.5856 38.2161 55.756 38.1473 55.7459 38.1337C55.6264 37.973 55.5796 38.0904 55.5109 38.1535C55.2539 37.974 55.1912 38.0862 55.4403 38.22C55.4677 38.2343 55.4883 38.1595 55.5109 38.1535C55.7063 38.4042 55.6474 38.5451 55.3242 38.4904C55.1727 38.4645 55.0939 38.3125 54.9999 38.5208C54.9565 38.6154 55.1485 38.7213 55.1373 38.8278C55.1098 39.0732 54.7838 39.1468 54.6688 39.3263C54.627 39.3915 54.765 39.4132 54.7394 39.4605C54.6712 39.5865 54.5227 39.6197 54.4622 39.7537C54.4567 39.766 54.5692 39.8261 54.5407 39.8597C54.4027 40.0245 54.2468 40.1472 54.0874 40.28C54.0046 40.3479 53.9187 40.4221 53.8368 40.5061C53.7247 40.621 53.5735 40.8763 53.4484 40.9863C53.2311 41.1786 52.8545 41.3095 52.7136 41.5175C52.6215 41.6525 52.7343 41.7138 52.7469 41.8219C52.7712 42.0312 52.3964 41.9968 52.3417 41.988C52.34 41.9876 52.4161 41.8677 52.3189 41.8765C52.1942 41.8151 52.3424 41.9864 52.3417 41.988C52.3059 41.9829 52.0923 42.1615 52.0705 42.2174C52.0588 42.2478 52.1542 42.3178 52.1465 42.3321C51.9615 42.671 51.7206 42.9578 51.4152 43.1873C51.4088 43.1903 51.323 43.0908 51.3092 43.0991C51.1137 43.213 51.128 43.4253 51.0671 43.6203C51.0058 43.8156 50.881 43.8941 50.6467 43.8093C50.5696 43.9251 50.3602 43.9912 50.2369 44.0271C50.1141 44.0625 50.2808 44.2561 50.2772 44.2667C50.1663 44.599 49.9346 44.6193 49.6839 44.8252C49.5656 44.9217 49.3648 45.1595 49.2595 45.2932C49.176 45.3999 49.0758 45.41 49.0098 45.5204C49.0008 45.5352 49.089 45.6087 49.0882 45.6154C49.0746 45.8095 48.9398 45.5577 48.8855 45.5396C48.795 45.5094 48.7231 45.4863 48.6647 45.4871C48.5939 45.4895 48.5417 45.5256 48.4981 45.6233C48.4804 45.664 48.6444 46.0488 48.5994 46.1163C48.5411 46.2029 48.4795 46.0682 48.4203 46.1612C48.4151 46.169 48.4723 46.2366 48.4195 46.2742C48.1747 46.4498 47.885 46.6059 47.6411 46.7936C47.6074 46.819 47.7335 46.9008 47.6859 46.9396C47.463 47.1211 47.2014 47.2947 46.9357 47.3921C46.8702 47.4156 46.8514 47.3103 46.8231 47.2941C46.6513 47.1963 46.6858 47.4797 46.6706 47.4953C46.3164 47.8712 45.8717 47.8715 45.5056 48.2215C45.4861 48.2409 45.4498 48.5832 45.2502 48.4281C45.2368 48.4179 45.035 48.2577 45.0513 48.44C45.0524 48.4514 45.1643 48.5291 45.0736 48.5686C44.9828 48.6082 44.8907 48.7599 44.7064 48.7116C44.6483 48.6964 44.4382 48.5421 44.4304 48.7708C44.4297 48.7868 44.4914 49.2564 44.2776 49.0368C44.2426 49.0006 44.0866 48.7248 44.0457 48.9405C44.0383 48.9821 44.1188 49.0153 44.079 49.0918C44.0186 49.209 43.8466 49.2166 43.8069 49.4092C43.7998 49.4433 43.8313 49.6781 43.6754 49.5851C43.6508 49.5706 43.6134 49.4689 43.5711 49.4823C43.3693 49.5462 43.2339 49.7224 43.0264 49.7787C42.9529 49.799 42.8846 49.6381 42.7962 49.6447C42.7266 49.6499 42.6184 49.6848 42.5677 49.7535C42.5576 49.7694 42.5534 49.7864 42.5557 49.8055C42.5762 49.8887 42.7567 50.0935 42.7721 50.1085C42.7894 50.1053 42.8575 50.07 42.9561 49.8973C43.0598 49.7309 43.1058 49.3954 43.0629 49.2249C42.9753 48.8839 42.9335 48.9563 42.9593 48.9933C43.0069 49.1058 43.1572 49.323 43.3304 49.5003C43.3814 49.5526 43.402 49.439 43.4851 49.5133C43.7894 49.7856 44.4197 50.2095 44.5745 50.6149C44.7015 50.9424 44.3246 50.7853 44.4586 50.9891C44.5166 51.0779 44.7765 50.9501 44.8391 50.9378C44.8444 50.9367 44.8482 50.9364 44.8503 50.9371C45.1162 51.0314 45.1674 51.2594 45.3795 51.3837C45.4225 51.4086 45.4692 51.2798 45.505 51.3022C45.6281 51.378 45.7089 51.522 45.8194 51.6022C45.8698 51.6386 45.9246 51.5566 45.9634 51.5996C46.0585 51.7027 46.1199 51.809 46.1635 51.9665C46.1674 51.9809 46.0255 52.0202 46.1003 52.0898C46.2191 52.1999 46.3176 52.4024 46.5197 52.4513C46.5803 52.4659 46.7267 52.2964 46.7185 52.4923C46.7168 52.5332 46.5187 52.7177 46.7756 52.6311C46.8181 52.6165 47.1991 52.5289 47.1576 52.7586C47.1463 52.8187 47.0625 53.0361 47.136 53.0531C47.1465 53.0548 47.1965 52.9395 47.2465 52.9665C47.4223 53.0642 47.5691 53.2055 47.7482 53.308C47.7962 53.3352 47.8152 53.1881 47.884 53.2316C48.0711 53.349 48.262 53.5524 48.4007 53.7211C48.4521 53.7838 48.3434 53.8268 48.3406 53.8391C48.2937 54.0386 48.4953 53.8866 48.5278 53.8954C48.729 53.9532 48.7673 54.1373 48.9213 54.2278C48.9637 54.2531 49.0133 54.1412 49.0275 54.1395C49.1705 54.1266 48.9769 54.2389 49.0105 54.2979C49.1047 54.4641 49.2624 54.5855 49.4103 54.6912C49.4647 54.73 49.4957 54.5777 49.5436 54.6137C49.8278 54.824 50.0993 55.0715 50.3134 55.3518C50.3536 55.4047 50.2546 55.4582 50.2494 55.4852C50.212 55.6733 50.464 55.5875 50.502 55.5912C50.6752 55.6079 50.6577 55.7147 50.765 55.7832C51.2908 56.1168 51.831 56.6571 52.2494 57.0639C52.7947 57.5932 53.179 58.0529 53.745 58.5049C53.7807 58.5336 53.8366 58.3977 53.8685 58.421C54.2796 58.7299 54.6268 59.1012 55.042 59.4082C55.0755 59.4332 55.1168 59.294 55.1735 59.3308C55.1807 59.3354 55.1879 59.3402 55.1952 59.3451C55.31 59.424 55.423 59.5339 55.4986 59.6522C55.5373 59.713 55.393 59.7377 55.4334 59.797C55.5256 59.9337 55.6513 60.0559 55.7876 60.1468C55.8458 60.1854 55.8555 60.0142 55.9256 60.0734C56.405 60.4749 56.8783 60.8605 57.2345 61.416C57.2592 61.4544 57.1047 61.685 57.2079 61.7072C57.2641 61.6552 57.324 61.5883 57.3809 61.5298C58.0884 62.1143 58.7056 62.7996 59.3628 63.565C59.3906 63.5976 59.4514 63.4459 59.5058 63.5089C59.5916 63.6085 59.6778 63.7071 59.7609 63.8077C59.9606 64.049 60.1485 64.2945 60.2675 64.6136C60.2839 64.6571 60.0683 64.7975 60.1797 64.8757C60.1993 64.889 60.3468 65.0207 60.4217 65.026C60.4325 65.0262 60.5044 64.9242 60.5462 64.9718C60.7864 65.2481 61.0004 65.569 61.1634 65.9038C61.1893 65.9577 61.0499 65.9848 61.0679 66.0244C61.194 66.3017 61.4659 66.5028 61.5415 66.7989C61.5918 66.9974 61.3731 67.0721 61.2581 67.2811C61.2422 67.3109 61.3073 67.4073 61.2093 67.4868C60.9634 67.6875 60.651 67.8488 60.3928 68.0681C60.3369 68.1149 60.4924 68.1934 60.2965 68.2243C60.2831 68.226 60.1688 68.1695 60.1049 68.1834C60.0602 68.1924 59.9778 68.2967 59.9118 68.2962C59.8463 68.2963 59.907 68.1976 59.8187 68.1826C59.7298 68.1683 59.6292 68.2773 59.539 68.185ZM49.6849 44.186C49.5252 44.1694 49.8243 44.5042 49.8315 44.3486C49.8315 44.3407 49.693 44.1866 49.6849 44.186ZM57.6718 34.4743C57.4331 34.4978 57.6424 34.72 57.8228 34.7099C58.0032 34.6991 57.7444 34.4668 57.6718 34.4743ZM58.2183 33.191C58.0044 33.246 58.5423 33.5866 58.5137 33.382C58.5123 33.3703 58.2307 33.1879 58.2183 33.191ZM60.9322 66.9457C60.9284 66.9505 60.9736 67.0208 60.9797 67.0192C61.1207 66.9699 61.0296 66.8285 60.9322 66.9457ZM58.8019 31.9146C58.7029 31.9184 58.7185 32.0926 58.8426 32.0905C58.9435 32.0878 58.9268 31.9083 58.8019 31.9146ZM45.0863 47.1193C45.0814 47.1145 45.0273 47.1403 45.0478 47.172C45.1143 47.274 45.1678 47.2014 45.0863 47.1193ZM59.5989 29.6919C59.5249 29.8186 59.3713 29.9008 59.2401 29.914C59.1494 29.9241 59.0708 29.9011 59.0432 29.8417C59.025 29.7993 59.03 29.7412 59.0763 29.6616C59.1131 29.5985 59.1746 29.8685 59.2523 29.8006C59.3895 29.6878 59.1408 29.433 59.3913 29.3606C59.4302 29.3558 59.6032 29.6822 59.5993 29.6927C59.5992 29.6924 59.5991 29.6921 59.5989 29.6919ZM49.2689 43.8383C49.2634 43.8354 49.1999 43.8884 49.2023 43.8942C49.2682 44.0282 49.3969 43.9209 49.2689 43.8383ZM41.9764 48.7536C41.9703 48.7495 41.9171 48.7797 41.8713 48.8103C41.8313 48.837 41.798 48.864 41.7981 48.8706C41.8267 48.9908 41.9204 48.996 41.9831 48.9616C42.0508 48.9242 42.0876 48.8305 41.9764 48.7536ZM52.9541 39.6441C52.9133 39.4799 52.9765 39.3898 53.1559 39.4629C53.0869 39.5208 53.0228 39.5853 52.9541 39.6441Z" fill="#FFF0E1"/>
</svg>
