<svg width="108" height="103" viewBox="0 0 108 103" fill="none" xmlns="http://www.w3.org/2000/svg">
<path d="M51.2019 99.4531C77.9877 99.4531 99.7019 77.7389 99.7019 50.9531C99.7019 24.1673 77.9877 2.45312 51.2019 2.45312C24.4161 2.45312 2.7019 24.1673 2.7019 50.9531C2.7019 77.7389 24.4161 99.4531 51.2019 99.4531Z" fill="#D37E91"/>
<path d="M107.521 54.3229C107.621 56.3222 107.094 58.9017 106.44 60.7875C106.237 61.3778 105.876 60.9942 105.715 61.3926C105.4 62.165 105.442 62.9651 105.064 63.7114C104.937 63.957 104.36 63.4782 104.242 63.7363C103.598 65.1431 103.37 66.5695 102.752 67.9904C99.7055 74.9444 95.7247 81.2234 90.4737 86.569C88.7395 88.343 86.1737 89.9433 84.3884 91.7297C84.1798 91.9401 84.6871 92.2876 84.674 92.3608C84.4425 93.5004 83.9308 92.3845 83.3818 92.6125C81.1985 93.5173 79.1102 94.8479 77.3355 96.1347C76.5796 96.6814 77.9695 97.239 76.8233 97.1296C76.745 97.1223 76.6464 96.4608 76.3919 96.5258C75.8172 96.6758 74.9078 97.2788 74.4849 97.4325C73.6723 97.7262 73.5487 97.7918 72.8113 98.1256C71.7956 98.5763 70.4699 98.7951 69.4135 99.3429C69.1871 99.462 69.7292 99.945 69.3835 100.19C69.0382 100.437 67.9954 100.743 67.6007 100.71C67.2067 100.68 67.1992 100.151 67.1025 100.061C66.3121 99.296 65.5399 100.934 65.3835 101.01C62.7136 102.35 60.0599 102.079 57.3817 102.404C55.3485 102.652 53.1745 103.025 51.2019 102.993C51.1856 102.992 51.1693 102.992 51.153 102.992C48.7896 102.94 46.8418 102.463 44.5807 102.24C44.3418 102.214 44.5253 102.999 44.2301 102.969C41.0917 102.642 38.0008 101.856 35.192 100.411C34.9113 100.265 35.4968 99.7591 35.232 99.5765C33.5747 98.4797 31.4745 96.1948 29.2441 98.3208C28.1135 97.6756 26.7594 96.8442 26.047 95.7726C25.5913 95.083 26.5678 94.812 25.6413 94.6307C25.4326 94.5876 25.3393 95.2665 25.048 95.1584C23.8159 94.6982 22.7432 93.76 21.508 93.2897C21.2554 93.1949 20.9862 93.6978 20.866 93.7377C19.8636 94.0425 19.8283 92.3093 19.7175 92.0966C18.8103 90.4634 17.6899 89.8964 16.5215 88.8074C16.2525 88.5538 16.0598 89.411 15.7801 89.1839C14.3345 87.9945 13.0211 86.5412 12.0824 84.9452C11.8758 84.5892 12.6089 84.4459 12.5365 84.2553C12.2218 83.4256 11.1609 84.0636 10.8512 83.259C10.786 83.0908 11.2801 82.8203 11.3082 82.7579C11.7573 81.7876 10.4359 82.2919 10.3329 82.2065C9.03589 81.1757 9.60836 79.5267 8.62496 78.3819C8.50509 78.2425 8.13803 78.9704 7.83558 78.5513C5.81635 75.7584 4.32611 72.3496 3.66182 68.9985C3.55768 68.4774 4.1836 68.643 4.23249 68.5886C4.99904 67.7402 3.60917 67.8895 3.50261 67.7418C2.70325 66.583 3.44194 65.0745 1.63799 64.6261C0.848436 60.0688 -0.245383 55.5422 0.289633 50.9531C0.421828 49.8241 0.65261 48.7257 1.01122 47.6337C1.03265 47.5639 1.69316 47.734 1.73304 47.596C2.23445 45.9434 1.17436 46.2022 0.0332272 44.905C-0.251856 44.5695 1.38946 43.8966 1.51251 43.8444C1.96304 43.6291 2.90951 44.0542 3.00222 43.9745C3.73637 43.3352 0.454381 42.9487 0.636845 41.8879C0.648032 41.8563 1.22137 42.0994 1.29628 42.0227C1.53074 41.7864 1.34339 41.4751 1.59967 41.2519C2.19404 40.7407 3.79913 40.8736 3.09141 39.7821C3.00133 39.6411 1.13111 39.3963 1.44438 38.4911C1.56411 38.1331 1.97921 36.5 2.23812 36.0907C2.4905 35.6791 2.97274 36.1636 3.00758 36.1387C4.13921 35.1938 4.31464 35.7444 5.62247 35.5476C6.92531 35.3696 4.22319 34.6087 4.01162 34.2656C3.79998 33.9211 4.73278 33.2952 5.02596 33.1764C5.31839 33.0543 5.5773 33.4466 5.76781 33.3131C7.02179 32.4427 4.68354 32.2725 4.43383 31.7029C3.8593 30.3346 6.09797 30.4249 6.66974 29.6995C6.82687 29.4993 6.3117 29.4775 6.36914 29.2568C6.60883 28.3806 7.42296 28.2112 7.37917 27.0455C7.36878 26.8596 6.6866 25.5148 7.75309 25.5139C7.90514 25.5165 8.24459 25.9605 8.53559 25.6962C8.96968 25.3015 9.59614 24.5086 9.78204 23.9123C9.91963 23.4701 8.92401 23.4274 9.45868 23.1018C9.69669 22.9595 9.85401 23.6211 10.2646 23.3347C10.6713 23.0492 11.3349 22.0737 11.5917 21.7037C11.8451 21.3331 11.1802 21.1422 11.1666 21.0872C11.0969 20.7591 11.3879 19.8686 11.4388 19.808C13.8385 16.636 17.1534 14.8449 19.8361 12.1989C20.0501 11.9908 19.4676 11.5833 19.4958 11.5461C20.1236 10.6798 20.6209 12.6029 21.5428 12.6528C20.6131 11.6209 21.0934 11.5603 21.5754 11.0122C21.8078 10.7476 21.3391 10.427 21.3315 10.3642C21.2688 9.39779 22.1837 10.0409 22.3803 10.1655C23.112 10.618 22.8799 9.64091 23.3705 9.94791C23.8533 10.2559 23.8628 11.1893 24.4093 10.8092C24.2923 10.2908 23.1477 9.4956 23.4673 9.03016C24.6857 7.22662 28.4817 6.29199 29.9523 5.75431C31.4293 5.18338 31.872 4.91123 32.79 4.73245C34.4522 4.43363 33.5426 3.75599 34.3832 2.98489C35.2414 2.22294 35.5108 4.6354 35.8141 5.06893C36.1093 5.50641 36.091 4.96098 36.3455 5.17237C36.5971 5.38485 36.3468 5.82898 36.7657 5.80448C37.1794 5.77827 37.9846 4.59753 37.9914 4.04604C37.9929 2.87705 37.1654 1.87167 38.3845 1.97673C38.454 1.98411 38.4062 2.63969 38.6637 2.63772C40.6862 2.60769 42.6933 2.24836 44.6723 2.4133C44.9434 2.4373 44.7985 3.15469 44.9556 3.17685C46.5842 3.42532 45.8808 2.33679 46.6545 0.957486C46.6144 2.69675 47.1882 3.69156 48.3681 3.62944C49.0841 3.5965 48.9184 2.85183 49.3701 2.30168C49.5072 2.13559 50.0378 2.63824 50.123 2.28251C50.4125 1.12044 49.8867 -0.176516 51.2019 0.330699C51.2024 0.330913 51.203 0.331126 51.2035 0.33134C51.2238 0.339996 51.2141 0.424421 51.2019 0.531805C51.1858 0.673063 51.1655 0.854053 51.2019 0.954538C51.2163 0.994362 51.2396 1.02155 51.2757 1.02866C52.5358 1.28993 52.7087 0.0796168 54.1126 0.00287271C55.2225 -0.0576224 57.0805 0.861235 58.2675 1.15802C57.9797 3.07482 59.1288 2.79586 59.8236 1.56241C60.5956 1.75139 61.4487 1.84421 62.158 2.19284C62.4009 2.31213 62.108 2.82207 62.1271 2.88858C62.3999 3.92679 63.0235 2.74052 63.2044 2.73264C65.1306 2.70435 66.2635 4.08292 68.236 3.76637C68.3046 3.75463 68.8679 2.52315 68.9756 3.61418C68.9786 3.68803 68.2196 4.05719 68.9789 4.39447C69.7468 4.73417 70.8835 5.98725 72.1756 5.90648C72.4847 5.88371 73.6113 5.20897 73.7387 6.23226C73.7537 6.36991 73.506 6.67783 73.5049 6.91842C73.4998 7.68494 74.2994 6.56455 74.1188 7.77884C73.938 8.99419 74.2152 10.1255 75.5676 10.0019C75.6087 9.99952 76.3915 9.20853 76.6892 9.41162C77.1615 9.73376 77.7175 10.3582 78.2102 10.6822C78.4469 10.8373 78.6724 10.1807 78.7201 10.198C80.533 10.9808 81.2934 12.3004 82.6867 13.8123C82.9373 14.0858 84.3684 14.1221 84.4149 15.1557C84.4516 16.2798 81.625 18.1141 83.3919 18.7498C84.077 18.9916 87.782 16.8087 87.0613 19.2569C89.1612 20.8295 89.6895 23.3619 91.6945 25.0676C91.7838 25.1438 92.9659 24.8311 93.0994 25.0775C93.2941 25.4418 92.9426 25.915 93.0591 26.1812C93.5332 27.3037 94.4729 28.056 94.9364 29.1439C95.1112 29.5556 94.538 29.6647 94.7377 30.1512C94.9337 30.6348 95.7584 30.6468 95.7215 31.451C95.691 32.0624 94.4985 33.1349 94.5854 33.8349C95.9846 33.3092 96.1395 33.7707 96.8086 34.4572C96.9377 34.5894 97.366 34.2429 97.4525 34.2968C97.8165 34.5158 97.5092 34.9447 97.8855 35.1455C97.9763 35.195 98.4614 35.0354 98.5632 35.0678C99.4511 35.3431 98.6196 36.5426 98.4672 36.736C97.9023 37.4988 98.6113 37.5682 98.4392 38.0721C98.2637 38.5697 97.7347 38.0426 97.6896 38.5752C97.5946 39.6699 97.9681 40.9383 98.138 41.9703C98.2089 42.3811 98.8265 41.977 98.8523 42.0328C99.1847 42.8692 98.599 43.8457 100.01 44.1404C96.6091 45.2102 100.426 44.6179 99.8645 45.9756C99.8179 46.0817 98.1781 46.3633 97.8982 46.0235C97.6185 45.6853 98.0696 45.0688 97.6242 44.6141C97.5202 44.5005 95.8837 44.0588 95.7762 43.9888C94.9396 43.4107 97.3634 42.8939 97.4914 42.8289C98.8644 42.1289 97.0522 41.5958 96.8942 41.4136C96.1691 40.5351 96.3084 39.6367 95.7239 38.9209C95.3434 38.4552 93.7653 38.8515 93.6988 38.4448C93.472 37.1141 95.4457 35.873 93.1457 35.3102C92.6523 35.1935 91.099 36.0878 92.0425 34.6705C92.1048 34.586 93.006 33.4092 92.0895 33.3299C91.9746 33.321 91.5002 33.5282 91.4326 33.4817C90.9886 33.1678 91.2371 32.7152 90.8419 32.3377C90.4473 31.9623 89.9168 31.5507 89.8081 30.9609C89.7434 30.6071 90.3798 29.755 90.5029 29.4889C90.8642 28.7314 89.6362 28.8321 90.197 28.1604C90.7524 27.4729 92.1543 27.3706 92.1837 26.3744C91.0147 27.0402 89.7967 27.6937 88.616 28.3552C87.782 26.8866 87.1879 25.2532 86.0852 23.9281C85.9478 23.7658 85.5103 24.3805 85.3499 24.2208C84.6785 23.5522 84.5413 22.583 83.7297 21.9793C83.0991 21.5143 81.9747 21.4362 81.2924 21.0244C82.0485 19.5978 80.8193 19.135 80.2759 18.465C80.0836 18.2282 80.3708 17.934 80.2959 17.6897C79.9997 16.776 79.4038 18.0608 79.0978 18.0801C77.7988 18.1826 79.6911 15.7485 78.7138 15.0849C78.6588 15.0445 77.0805 15.91 76.9446 15.9389C76.0413 16.104 77.198 15.4156 76.9436 15.0819C76.4776 14.4758 76.2643 13.8519 75.2754 13.7808C74.9819 13.7593 73.9405 14.3087 73.9401 13.3842C73.9392 13.2625 74.2503 12.8169 74.2222 12.7627C73.6784 11.8203 72.7937 13.284 72.0624 13.5335C71.3348 13.7854 71.1856 12.3783 71.1848 11.998C71.194 11.017 71.6566 11.8189 71.7162 11.7546C72.4435 10.9801 71.8204 10.8491 71.4377 10.5613C72.1287 9.03694 71.4674 8.82437 71.0363 10.2699C70.9895 10.4274 71.3873 10.4501 71.4377 10.5613C70.3272 11.8383 69.6516 11.7405 69.5592 10.0196C69.511 9.21408 70.1772 8.58339 68.987 8.41005C68.4485 8.33634 68.1983 9.47746 67.6654 9.6012C66.4616 9.88887 65.5871 8.43888 64.5062 8.28181C64.1218 8.22727 64.292 8.93876 64.0259 8.92374C63.3249 8.88927 62.8668 8.27014 62.1334 8.332C62.0679 8.33877 62.0504 9.01454 61.8442 8.97086C60.2806 8.65805 58.9898 7.97098 57.3159 7.72127C56.5074 7.59723 55.0258 7.808 54.1967 7.68387C53.2623 7.54016 52.2099 7.07676 51.2019 6.84658C50.6475 6.7188 50.1204 6.66132 49.6728 6.75956C48.8538 6.93986 49.0689 7.59401 48.7464 8.06031C48.1422 8.96178 46.8595 7.51207 46.661 7.29249C46.6549 7.28391 47.3425 7.06245 46.9351 6.76098C46.6461 6.08008 46.6678 7.2888 46.661 7.29249C46.5394 7.14256 45.1105 7.16351 44.8526 7.33452C44.7119 7.42454 44.8864 8.03052 44.8126 8.06573C43.0495 8.89197 41.3255 9.42364 39.4475 9.65233C39.4123 9.64922 39.2695 8.96326 39.1881 8.96466C38.0424 8.97119 37.6178 10.011 36.9589 10.781C36.2969 11.5544 35.6111 11.6444 34.6603 10.7381C34.0915 11.1332 32.985 11.0459 32.3292 11.0026C31.6719 10.9589 32.1996 12.2189 32.1684 12.2635C31.1925 13.7131 30.0759 13.4378 28.6434 14.1659C27.9625 14.5068 26.8188 15.5015 26.2494 16.1009C25.7995 16.5725 25.2976 16.5505 24.9518 17.0755C24.9053 17.1461 25.3407 17.5748 25.3358 17.6082C25.2722 18.5782 24.601 17.224 24.329 17.1015C23.3413 16.6603 22.7547 16.4722 22.3826 17.3855C22.2909 17.5999 23.2667 19.5794 23.0998 19.9001C22.8726 20.3213 22.4807 19.643 22.2562 20.1055C22.2368 20.1447 22.5651 20.4821 22.3395 20.668C21.297 21.5351 20.0684 22.4275 19.1792 23.5395C19.0572 23.6896 19.7854 23.9879 19.6214 24.2101C18.8523 25.2521 17.9778 26.3457 16.9693 27.1849C16.7189 27.3907 16.3993 26.9328 16.2326 26.9005C15.2123 26.7211 16.0148 27.9875 15.9874 28.0786C15.2919 30.3681 13.3478 31.3424 12.8853 33.7792C12.857 33.921 13.8179 35.3852 12.4951 35.3138C12.4079 35.3058 11.0446 35.249 11.725 35.9338C11.7684 35.9752 12.4824 35.9574 12.252 36.3766C12.02 36.8017 12.1878 37.6501 11.2962 38.0478C11.0163 38.169 9.6349 38.2777 10.441 39.1721C10.492 39.2451 12.4728 40.7507 10.8504 40.6737C10.5839 40.6611 8.95557 40.1949 9.6208 41.1348C9.75169 41.3123 10.1762 41.1474 10.3214 41.5636C10.5478 42.1955 9.95066 42.8494 10.5697 43.6664C10.6783 43.8135 11.7232 44.493 10.8041 44.76C10.6599 44.8029 10.1209 44.5972 10.0263 44.8037C9.57396 45.7931 9.8289 46.9246 9.36613 47.953C9.20384 48.3219 8.30722 48.0669 8.03936 48.4589C7.77079 48.8513 7.50455 49.6683 7.91438 50.1053C8.3241 50.5362 9.78086 50.1026 9.89129 50.7172C9.90575 50.7959 9.91923 50.8745 9.93182 50.9531C10.3457 53.5035 9.77159 56.0837 10.1293 58.6724C10.1848 59.0634 10.6322 58.647 10.7539 59.2079C11.1833 61.315 12.7088 64.595 12.4199 66.7164C12.184 68.4499 10.8216 66.9395 10.9491 68.1688C11.022 68.7771 12.8167 68.6385 12.9191 68.7317C13.9599 69.6809 13.7126 70.8213 14.4983 71.7477C14.6602 71.9357 15.1364 71.3901 15.2666 71.551C15.7146 72.0933 15.835 72.8767 16.2451 73.4099C16.4303 73.6472 16.8376 73.3152 16.9535 73.5643C17.2378 74.1571 17.3853 74.754 17.37 75.5651C17.3697 75.6404 16.6058 75.6961 16.8808 76.1136C17.3251 76.7836 17.5735 77.8886 18.5589 78.2857C18.8539 78.4025 19.7634 77.6327 19.5233 78.6135C19.474 78.8174 18.2947 79.6532 19.6818 79.3452C19.92 79.3064 21.8993 78.9872 21.5155 80.1266C21.414 80.4282 20.8552 81.5308 21.2266 81.6354C21.2792 81.6456 21.5993 81.062 21.8385 81.2076C22.6723 81.7257 23.37 82.4506 24.2504 82.9303C24.4852 83.056 24.6169 82.3002 24.9499 82.4999C25.8627 83.0456 26.7945 83.971 27.5239 84.7341C27.7919 85.0164 27.2619 85.3168 27.2499 85.3814C27.0712 86.4429 28.0392 85.5093 28.2017 85.5258C29.2208 85.6525 29.4881 86.5444 30.3116 86.8376C30.5369 86.9185 30.707 86.2928 30.7754 86.268C31.4608 86.033 30.5915 86.831 30.7971 87.0908C31.3764 87.823 32.2627 88.231 33.0868 88.5393C33.3889 88.6508 33.3799 87.8411 33.644 87.9464C35.2108 88.5543 36.785 89.2592 38.2216 90.1551C38.4929 90.3251 38.1336 90.7956 38.1559 90.9374C38.3193 91.9321 39.3245 90.9616 39.4961 90.8898C40.3016 90.5711 40.4255 91.1158 41.0388 91.1769C44.0089 91.4731 47.5444 92.2534 50.3707 92.4916C50.6512 92.517 50.9281 92.5412 51.2019 92.5639C54.4802 92.8234 57.2622 92.965 60.4375 92.1417C60.655 92.0846 60.2716 91.4084 60.4542 91.3501C62.7994 90.6314 65.198 90.1593 67.3838 88.9959C67.5623 88.9018 67.0206 88.3669 67.2933 88.1952C67.8502 87.8384 68.6053 87.5301 69.2988 87.4356C69.6371 87.3879 69.517 88.1248 69.8555 88.0634C70.6464 87.9194 71.4077 87.5658 72.0398 87.0691C72.3062 86.8569 71.5071 86.4876 71.8765 86.2623C74.3867 84.7004 76.5876 82.9228 79.4381 81.5673C79.6319 81.4752 80.7716 82.4188 80.9086 81.8983C80.6515 81.5811 80.3183 81.2376 80.0272 80.9141C82.9868 77.7398 86.0153 74.5976 88.1789 70.7392C88.2686 70.5782 87.4349 70.4909 87.6024 70.1807C88.5708 68.3704 89.1561 66.5094 90.5831 64.7815C90.7228 64.6086 91.9809 65.1612 91.9883 64.489C91.9905 64.3708 92.1072 63.4009 91.8889 63.0835C91.8552 63.0395 91.196 63.0201 91.263 62.7274C91.6628 61.0236 92.2012 59.2955 92.8613 57.6142C92.9689 57.3418 93.5928 57.7485 93.6754 57.5527C94.2574 56.1527 93.9015 54.5199 94.5849 53.1443C95.0417 52.2184 96.1987 52.6129 97.3699 52.1154C97.5359 52.0441 97.5719 51.419 98.2436 51.3907C99.9353 51.3158 101.783 51.6623 103.587 51.5475C103.977 51.523 103.561 50.5639 104.498 51.1338C104.562 51.1734 104.866 51.877 105.18 52.0585C105.397 52.185 106.086 51.9776 106.362 52.2356C106.637 52.4959 106.057 52.7552 106.371 53.1833C106.687 53.6159 107.477 53.4593 107.521 54.3229ZM29.3458 10.9092C28.5461 10.6041 29.6509 12.7281 29.875 11.95C29.8845 11.9099 29.3859 10.9238 29.3458 10.9092ZM88.6325 24.2271C89.0627 23.0158 87.5178 23.5488 87.1628 24.4358C86.7958 25.3089 88.4967 24.5883 88.6325 24.2271ZM93.1605 30.2907C93.5162 29.1406 90.443 30.5854 91.4476 31.0566C91.5046 31.0844 93.1392 30.3567 93.1605 30.2907ZM97.5712 54.6172C97.604 54.6122 97.6678 54.1638 97.6366 54.1507C96.8954 53.8632 96.7701 54.7447 97.5712 54.6172ZM96.7372 37.0476C97.0984 36.652 96.351 36.0609 95.9118 36.559C95.5582 36.9532 96.2882 37.5328 96.7372 37.0476ZM7.73391 30.1815C7.69763 30.174 7.52512 30.4629 7.71069 30.5425C8.30742 30.7977 8.33904 30.3059 7.73391 30.1815ZM98.8277 49.888C98.9044 47.9962 101.597 46.5381 101.407 48.7805C101.368 49.1777 100.474 47.9698 100.246 48.4852C99.8288 49.4011 101.604 49.9767 100.664 50.9358C100.493 51.0975 98.8198 49.9879 98.8237 49.8846C98.825 49.8857 98.8263 49.8869 98.8277 49.888ZM27.6731 8.54965C27.6474 8.52713 27.2254 8.73015 27.2315 8.76341C27.3904 9.54578 28.2268 9.14442 27.6731 8.54965ZM1.59725 48.9525C1.52596 48.9747 1.43166 50.0826 1.49613 50.1207C2.72266 50.7049 2.91312 48.5243 1.59725 48.9525ZM58.2793 1.21196C58.9045 0.527622 59.5725 0.543259 59.8214 1.56104C59.3144 1.42143 58.7915 1.33165 58.2793 1.21196Z" fill="#FFF0E1"/>
<path d="M47.1997 28.981C47.4085 29.1966 47.6086 29.5316 47.743 29.8014C47.7856 29.8862 47.6938 29.8971 47.72 29.9574C47.7722 30.0761 47.8741 30.1443 47.9211 30.265C47.9363 30.3051 47.8055 30.342 47.8238 30.3824C47.9254 30.604 48.0887 30.7603 48.2168 30.9653C48.409 31.273 48.6075 31.5721 48.8133 31.8688C49.2314 32.4845 49.7866 33.0628 50.3685 33.6549C50.6459 33.9362 50.9279 34.3435 51.2676 34.5785C51.307 34.6055 51.3593 34.5041 51.3721 34.5033C51.5713 34.4936 51.3886 34.6299 51.4389 34.714C51.6387 35.0475 51.9428 35.328 52.2413 35.5322C52.3668 35.6174 52.3971 35.3523 52.4311 35.5456C52.4337 35.5589 52.3273 35.6219 52.3506 35.6589C52.4052 35.7439 52.5522 35.8442 52.6024 35.9002C52.6991 36.009 52.7151 36.0214 52.8157 36.1106C52.8536 36.1446 52.891 36.1838 52.9293 36.2254C53.0236 36.3292 53.1266 36.4517 53.2449 36.5287C53.2803 36.5513 53.3173 36.4243 53.381 36.4522C53.4439 36.4796 53.5747 36.6062 53.5995 36.665C53.6257 36.7251 53.5449 36.7803 53.5386 36.8035C53.4839 36.998 53.8076 36.9424 53.8304 36.9538C54.2655 37.1875 54.4825 37.5637 54.8267 37.8579C55.0893 38.0819 55.3974 38.2823 55.6418 38.4995C55.9322 38.758 56.1409 39.0215 56.4362 39.2581C56.4672 39.2831 56.5234 39.1451 56.5614 39.1755C56.9664 39.4985 57.3479 39.843 57.679 40.2494C57.7121 40.2903 57.5809 40.3419 57.6092 40.3883C57.7842 40.6708 58.0074 41.1819 58.5002 40.8906C58.6505 41.0458 58.8338 41.2299 58.91 41.4375C58.9589 41.5709 58.7799 41.5966 58.9328 41.6506C58.9672 41.6629 59.01 41.5438 59.0557 41.569C59.2493 41.6763 59.4029 41.857 59.6069 41.9497C59.6484 41.9681 59.708 41.8794 59.7297 41.8728C59.9091 41.8218 59.8741 42.1278 59.8913 42.1668C60.0201 42.4579 60.2157 42.5522 60.4157 42.7262C60.4621 42.7667 60.4985 42.6106 60.547 42.6461C60.7972 42.8314 61.032 43.0468 61.2222 43.2912C61.2644 43.346 61.1384 43.3984 61.1545 43.4293C61.2267 43.5644 61.3969 43.4079 61.4698 43.5349C61.4853 43.5614 61.4055 43.6301 61.4022 43.6422C61.349 43.8324 61.5675 43.6845 61.5871 43.6938C61.8395 43.8077 61.795 44.1182 62.018 44.2586C62.0445 44.2749 62.0771 44.1298 62.1463 44.1817C62.4469 44.4065 62.7367 44.6628 63.0029 44.9385C63.1507 45.091 63.2874 45.2457 63.4139 45.4034C63.4721 45.475 63.3585 45.5076 63.3549 45.5205C63.3007 45.7253 63.511 45.5698 63.5388 45.5812C63.7597 45.6807 63.7773 45.9802 64.0966 45.8566C64.3882 46.1778 64.7161 46.4565 65.0339 46.7946C65.1899 46.9786 65.3657 47.1209 65.4929 47.5245C65.5662 47.729 65.4789 48.0973 65.3345 48.2354C65.2007 48.3872 65.0844 48.4474 64.9774 48.5047C64.8717 48.5568 64.7628 48.6032 64.6505 48.6433C64.6385 48.6479 64.5842 48.5324 64.5608 48.5419C64.2778 48.6533 64.4362 48.7804 64.4046 49.09C64.3959 49.1682 64.1102 49.0112 64.0879 49.0004C64.0047 48.9617 63.9443 48.7778 63.9225 48.774C63.7469 48.747 64.1018 49.2542 63.9477 49.353C63.9423 49.3552 63.9013 49.2464 63.8823 49.2451C63.8233 49.2406 63.808 49.3038 63.748 49.2954C63.6099 49.2752 63.4199 49.0398 63.376 49.2727C63.3706 49.3026 63.5817 49.5848 63.4353 49.6553C63.3767 49.6834 63.1369 49.8361 63.0573 49.8574C62.9776 49.8789 62.9659 49.754 62.9586 49.7527C62.6987 49.7346 62.7363 49.6397 62.5311 49.5048C62.3265 49.3704 62.6221 49.8062 62.615 49.8789C62.6078 49.9514 62.4105 49.9257 62.3559 49.9084C62.3011 49.8913 62.3051 49.8052 62.2635 49.8018C61.9885 49.7816 62.3125 50.0766 62.2919 50.1863C62.2438 50.4454 61.9266 50.1812 61.7697 50.2317C61.7274 50.2453 61.8037 50.3029 61.7751 50.33C61.6614 50.4363 61.5195 50.3804 61.4309 50.5664C61.4163 50.5968 61.422 50.8693 61.2547 50.7715C61.2306 50.7573 61.2097 50.6557 61.1432 50.6719C61.0436 50.696 60.8851 50.7721 60.8156 50.8562C60.7644 50.9182 60.9253 51.0044 60.8176 51.0153C60.7696 51.0202 60.7849 50.8982 60.6987 50.9142C60.6128 50.9298 60.4438 51.0475 60.3814 51.0941C60.3188 51.1407 60.4226 51.217 60.4219 51.2273C60.4168 51.2874 60.3281 51.4198 60.3175 51.4271C59.8002 51.8052 59.208 52.0159 58.7694 52.4715C58.7591 52.4823 58.7487 52.4934 58.7384 52.5045C58.7041 52.5417 58.814 52.6155 58.8096 52.6222C58.7157 52.7772 58.5913 52.4322 58.4245 52.4282C58.6108 52.6104 58.5265 52.6223 58.4537 52.7267C58.4197 52.7764 58.511 52.8294 58.514 52.8406C58.5528 53.0118 58.3739 52.9081 58.335 52.889C58.1922 52.8184 58.2646 52.9905 58.1679 52.9447C58.0716 52.8996 58.0397 52.7299 57.9536 52.8123C57.9929 52.9028 58.222 53.0218 58.1839 53.111C58.039 53.4482 57.4531 53.7467 57.2441 53.9239C57.0357 54.0997 56.9853 54.1738 56.8488 54.2613C56.6025 54.4195 56.8039 54.4741 56.7363 54.6577C56.6686 54.8417 56.4163 54.4666 56.3308 54.4172C56.2455 54.3675 56.2953 54.4565 56.2361 54.4417C56.1769 54.4267 56.1789 54.333 56.1129 54.3711C56.0469 54.4093 56.0247 54.672 56.0772 54.7608C56.1882 54.9489 56.4094 55.0409 56.2172 55.1239C56.206 55.1286 56.1487 55.0207 56.1102 55.0428C55.8069 55.2211 55.5549 55.4694 55.2603 55.6571C55.2196 55.6828 55.1561 55.5621 55.1313 55.5761C54.8739 55.7208 55.101 55.8016 55.1669 56.0824C54.9594 55.8316 54.7576 55.7549 54.606 55.9082C54.5151 56 54.6316 56.0829 54.6449 56.2123C54.6489 56.2513 54.5161 56.2489 54.5519 56.3074C54.6699 56.4979 54.904 56.6057 54.6808 56.697C54.6708 56.7008 54.6067 56.596 54.5783 56.6149C54.3928 56.739 54.5381 56.9157 54.3954 57.1031C54.2827 57.251 53.9557 57.3908 53.794 57.5263C53.5348 57.2709 53.4575 57.4714 53.5825 57.7033C53.5684 57.7159 53.5545 57.7289 53.5408 57.7421C53.4552 57.825 53.3767 57.9171 53.2779 57.9794C53.2387 58.0041 53.1816 57.9109 53.1694 57.9072C52.979 57.8498 53.119 58.0583 53.1063 58.0863C52.9635 58.3803 52.6538 58.4529 52.5977 58.7995C52.5957 58.812 52.7782 58.9874 52.5859 58.9298C52.5727 58.9258 52.5481 58.7757 52.4506 58.8788C52.3535 58.9814 52.0794 59.1041 52.0499 59.3323C52.0428 59.3871 52.1316 59.6072 51.9464 59.5858C51.9214 59.5827 51.8722 59.5276 51.8289 59.5179C51.69 59.4882 51.8739 59.6686 51.658 59.5948C51.4423 59.5208 51.2205 59.5461 51.2238 59.7979C51.2235 59.8058 51.3602 59.9625 51.3214 60.0115C51.2587 60.0904 51.1427 60.1825 51.084 60.2702C51.0561 60.3121 51.178 60.3567 51.1749 60.3652C51.0436 60.6819 50.8192 60.8187 50.5844 61.0986C50.541 61.15 50.5863 61.4012 50.4041 61.4397C50.2042 61.4829 49.7517 61.0372 49.7077 61.3963C49.689 61.5426 50.2808 62.08 49.8126 62.0801C49.6724 62.5255 49.2866 62.7951 49.1945 63.2664C49.1902 63.2876 49.3515 63.4487 49.326 63.4897C49.2919 63.5438 49.202 63.5388 49.1614 63.5668C49.1564 63.5703 49.1522 63.5742 49.1488 63.5789C49.0196 63.7536 48.999 63.9665 48.8808 64.1396C48.8362 64.2049 48.7599 64.1269 48.7065 64.2043C48.6535 64.281 48.7395 64.4072 48.6156 64.4801C48.5218 64.5347 48.2298 64.4658 48.1343 64.557C48.3704 64.7085 48.3185 64.7804 48.3011 64.9517C48.2979 64.9846 48.3979 65.0078 48.4008 65.0259C48.4145 65.1004 48.3181 65.1042 48.3381 65.1786C48.3428 65.1965 48.4253 65.2452 48.434 65.2623C48.5112 65.4092 48.2545 65.4301 48.2091 65.4368C48.0374 65.4577 48.1281 65.5557 48.0461 65.5988C47.9635 65.6443 47.9474 65.5107 47.8789 65.5792C47.7453 65.7137 47.6752 65.9364 47.6283 66.1196C47.6253 66.1304 47.622 66.1423 47.6186 66.154C47.5983 66.2254 47.7348 66.2097 47.7347 66.2206C47.7255 66.3804 47.5508 66.4905 47.7684 66.6483C47.1076 66.555 47.8024 66.7576 47.6053 66.931C47.5894 66.9445 47.288 66.864 47.2657 66.7873C47.2433 66.711 47.3669 66.6465 47.3259 66.5383C47.3168 66.512 47.0727 66.3116 47.0599 66.2918C46.9627 66.1323 47.4148 66.2406 47.4415 66.2404C47.5999 66.2392 47.591 66.1671 47.5483 66.0973C47.5137 66.0386 47.4599 65.977 47.4563 65.9545C47.4189 65.7256 47.5468 65.5795 47.5534 65.3944C47.559 65.2733 47.2915 65.1278 47.3424 65.0479C47.5145 64.7864 47.9291 64.927 47.7487 64.5132C47.7105 64.4253 47.3989 64.2956 47.7248 64.2668C47.7456 64.2644 48.0244 64.2698 47.9385 64.1205C47.9276 64.1019 47.8449 64.0511 47.8449 64.0354C47.8475 63.9309 47.9441 63.9214 47.9624 63.8199C47.9803 63.7189 47.9914 63.5926 48.0736 63.5166C48.1229 63.4712 48.3215 63.488 48.3754 63.4826C48.5307 63.467 48.3935 63.2828 48.5549 63.309C48.7039 63.3314 48.8452 63.5088 48.9905 63.4748C49.0044 63.4714 49.0184 63.4661 49.0325 63.4585C48.8131 63.3341 48.5914 63.1999 48.3724 63.0716C48.5397 62.7797 48.7702 62.5269 48.9262 62.2244C48.9453 62.1867 48.8059 62.1584 48.8234 62.1162C48.8982 61.9385 49.0649 61.8402 49.131 61.6485C49.1818 61.4997 49.1438 61.2804 49.1965 61.1214C49.4951 61.1836 49.535 60.9276 49.6503 60.7919C49.6904 60.7445 49.7537 60.7887 49.7981 60.7651C49.9642 60.6749 49.7073 60.6048 49.6975 60.545C49.6576 60.288 50.1527 60.5847 50.2641 60.3876C50.2698 60.3777 50.0944 60.0849 50.0902 60.0567C50.0586 59.8789 50.1912 60.0981 50.2553 60.0433C50.3727 59.9431 50.4905 59.9006 50.516 59.7063C50.5226 59.65 50.4371 59.4381 50.6152 59.4441C50.6386 59.4448 50.7171 59.5098 50.728 59.5048C50.9186 59.4098 50.6629 59.2188 50.6405 59.0662C50.619 58.9128 50.8968 58.9105 50.9681 58.9218C51.1532 58.95 50.9828 59.0187 50.9929 59.0323C51.1124 59.193 51.1592 59.0756 51.2279 59.0125C51.4849 59.192 51.5476 59.0798 51.2985 58.9461C51.2711 58.9317 51.2504 59.0065 51.2279 59.0125C51.0325 58.7619 51.0914 58.6209 51.4146 58.6756C51.5661 58.7015 51.6449 58.8535 51.7389 58.6453C51.7822 58.5506 51.5903 58.4448 51.6015 58.3382C51.629 58.0928 51.9549 58.0192 52.07 57.8397C52.1118 57.7745 51.9738 57.7528 51.9994 57.7056C52.0675 57.5795 52.216 57.5464 52.2766 57.4123C52.2821 57.4 52.1696 57.3399 52.1981 57.3063C52.336 57.1415 52.492 57.0188 52.6514 56.886C52.7342 56.8181 52.82 56.744 52.902 56.6599C53.014 56.545 53.1652 56.2897 53.2904 56.1797C53.5077 55.9874 53.8843 55.8565 54.0251 55.6486C54.1172 55.5135 54.0045 55.4522 53.9919 55.3442C53.9676 55.1348 54.3424 55.1692 54.397 55.1781C54.3987 55.1785 54.3227 55.2983 54.4198 55.2895C54.5446 55.3509 54.3964 55.1796 54.397 55.1781C54.4329 55.1832 54.6465 55.0046 54.6683 54.9486C54.68 54.9182 54.5846 54.8482 54.5923 54.8339C54.7773 54.4951 55.0181 54.2082 55.3236 53.9787C55.3299 53.9757 55.4158 54.0752 55.4296 54.0669C55.6251 53.953 55.6107 53.7407 55.6717 53.5457C55.733 53.3504 55.8578 53.2719 56.0921 53.3567C56.1691 53.2409 56.3785 53.1748 56.5019 53.1389C56.6247 53.1035 56.458 52.9099 56.4616 52.8994C56.5724 52.567 56.8042 52.5467 57.0549 52.3409C57.1732 52.2443 57.374 52.0065 57.4793 51.8728C57.5628 51.7661 57.663 51.7561 57.729 51.6456C57.7379 51.6308 57.6498 51.5573 57.6506 51.5507C57.6642 51.3565 57.799 51.6083 57.8533 51.6264C57.9437 51.6566 58.0157 51.6797 58.0741 51.6789C58.1449 51.6765 58.1971 51.6405 58.2407 51.5428C58.2584 51.502 58.0943 51.1173 58.1394 51.0497C58.1977 50.9631 58.2593 51.0979 58.3185 51.0048C58.3236 50.997 58.2665 50.9295 58.3193 50.8918C58.5641 50.7163 58.8538 50.5601 59.0977 50.3724C59.1314 50.347 59.0052 50.2652 59.0528 50.2264C59.2758 50.0449 59.5373 49.8713 59.8031 49.7739C59.8685 49.7504 59.8874 49.8557 59.9157 49.8719C60.0875 49.9697 60.053 49.6863 60.0682 49.6707C60.4224 49.2948 60.867 49.2945 61.2331 48.9445C61.2526 48.9251 61.2889 48.5828 61.4885 48.7379C61.502 48.7481 61.7037 48.9083 61.6874 48.726C61.6864 48.7146 61.5744 48.637 61.6651 48.5974C61.756 48.5578 61.8481 48.4061 62.0324 48.4544C62.0905 48.4697 62.3006 48.624 62.3084 48.3952C62.309 48.3792 62.2474 47.9096 62.4612 48.1292C62.4962 48.1655 62.6522 48.4413 62.693 48.2255C62.7005 48.1839 62.62 48.1507 62.6598 48.0742C62.7202 47.957 62.8921 47.9494 62.9319 47.7568C62.939 47.7227 62.9074 47.4879 63.0634 47.5809C63.0879 47.5954 63.1253 47.6971 63.1677 47.6837C63.3695 47.6198 63.5049 47.4436 63.7124 47.3873C63.7859 47.367 63.8542 47.5279 63.9426 47.5213C64.0122 47.5161 64.1203 47.4812 64.1711 47.4125C64.1812 47.3967 64.1854 47.3796 64.1831 47.3605C64.1626 47.2774 63.982 47.0725 63.9667 47.0575C63.9494 47.0607 63.8813 47.0961 63.7827 47.2687C63.679 47.4351 63.6329 47.7706 63.6759 47.9411C63.7634 48.2821 63.8053 48.2097 63.7795 48.1727C63.7318 48.0602 63.5815 47.843 63.4084 47.6657C63.3574 47.6134 63.3368 47.727 63.2537 47.6527C62.9494 47.3804 62.3191 46.9565 62.1643 46.5511C62.0373 46.2236 62.4141 46.3807 62.2802 46.1769C62.2222 46.0881 61.9623 46.2159 61.8996 46.2282C61.8944 46.2294 61.8906 46.2297 61.8885 46.2289C61.6225 46.1346 61.5713 45.9066 61.3593 45.7824C61.3162 45.7574 61.2696 45.8862 61.2338 45.8638C61.1107 45.788 61.0298 45.644 60.9194 45.5638C60.869 45.5274 60.8142 45.6094 60.7754 45.5665C60.6803 45.4633 60.6189 45.357 60.5753 45.1995C60.5714 45.1852 60.7132 45.1458 60.6384 45.0763C60.5197 44.9661 60.4212 44.7636 60.219 44.7147C60.1584 44.7001 60.0121 44.8696 60.0203 44.6737C60.022 44.6328 60.2201 44.4483 59.9631 44.5349C59.9206 44.5495 59.5397 44.6371 59.5812 44.4075C59.5924 44.3473 59.6763 44.1299 59.6028 44.1129C59.5923 44.1112 59.5422 44.2265 59.4923 44.1995C59.3164 44.1018 59.1697 43.9605 58.9906 43.858C58.9426 43.8308 58.9236 43.9779 58.8547 43.9344C58.6677 43.817 58.4768 43.6136 58.338 43.4449C58.2867 43.3822 58.3954 43.3392 58.3982 43.3269C58.4451 43.1274 58.2435 43.2794 58.2109 43.2706C58.0097 43.2128 57.9715 43.0287 57.8175 42.9382C57.775 42.9129 57.7254 43.0248 57.7113 43.0265C57.5683 43.0394 57.7619 42.9271 57.7283 42.8681C57.6341 42.7019 57.4764 42.5805 57.3285 42.4748C57.2741 42.4361 57.243 42.5883 57.1952 42.5523C56.911 42.342 56.6395 42.0945 56.4254 41.8143C56.3852 41.7613 56.4842 41.7078 56.4894 41.6808C56.5268 41.4927 56.2748 41.5786 56.2367 41.5748C56.0635 41.5581 56.0811 41.4514 55.9737 41.3829C55.4479 41.0492 54.9078 40.509 54.4893 40.1022C53.944 39.5729 53.5598 39.1131 52.9938 38.6611C52.9581 38.6324 52.9022 38.7683 52.8702 38.745C52.4592 38.4361 52.112 38.0648 51.6968 37.7578C51.6632 37.7328 51.6219 37.872 51.5653 37.8353C51.5581 37.8306 51.5508 37.8258 51.5436 37.8209C51.4288 37.742 51.3158 37.6321 51.2402 37.5138C51.2014 37.453 51.3458 37.4283 51.3054 37.369C51.2132 37.2323 51.0874 37.1101 50.9512 37.0192C50.8929 36.9806 50.8833 37.1518 50.8132 37.0926C50.3338 36.6911 49.8605 36.3056 49.5043 35.75C49.4795 35.7116 49.6341 35.481 49.5309 35.4588C49.4747 35.5109 49.4148 35.5777 49.3579 35.6362C48.6504 35.0517 48.0332 34.3664 47.3759 33.601C47.3482 33.5684 47.2874 33.7202 47.233 33.6572C47.1471 33.5576 47.0609 33.4589 46.9779 33.3583C46.7782 33.117 46.5903 32.8716 46.4713 32.5524C46.4548 32.5089 46.6704 32.3685 46.5591 32.2903C46.5394 32.277 46.392 32.1454 46.3171 32.14C46.3063 32.1398 46.2343 32.2418 46.1925 32.1943C45.9524 31.918 45.7384 31.597 45.5754 31.2622C45.5494 31.2083 45.6888 31.1812 45.6709 31.1417C45.5448 30.8644 45.2729 30.6632 45.1973 30.3671C45.147 30.1686 45.3657 30.0939 45.4807 29.8849C45.4966 29.8551 45.4314 29.7587 45.5295 29.6792C45.7754 29.4785 46.0878 29.3172 46.3459 29.0979C46.4019 29.0512 46.2464 28.9726 46.4423 28.9417C46.4556 28.94 46.5699 28.9965 46.6339 28.9826C46.6786 28.9737 46.7609 28.8694 46.8269 28.8698C46.8925 28.8697 46.8318 28.9684 46.9201 28.9834C47.009 28.9978 47.1096 28.8887 47.1997 28.981ZM57.0539 52.98C57.2135 52.9966 56.9145 52.6618 56.9073 52.8174C56.9073 52.8253 57.0458 52.9794 57.0539 52.98ZM49.067 62.6917C49.3057 62.6682 49.0963 62.446 48.916 62.4562C48.7356 62.467 48.9944 62.6993 49.067 62.6917ZM48.5205 63.975C48.7343 63.92 48.1965 63.5794 48.225 63.784C48.2265 63.7957 48.5081 63.9781 48.5205 63.975ZM45.8065 30.2203C45.8104 30.2155 45.7652 30.1452 45.7591 30.1468C45.6181 30.1961 45.7092 30.3376 45.8065 30.2203ZM47.9368 65.2514C48.0359 65.2476 48.0202 65.0734 47.8962 65.0755C47.7953 65.0782 47.812 65.2577 47.9368 65.2514ZM61.6525 50.0467C61.6573 50.0516 61.7115 50.0258 61.691 49.994C61.6244 49.892 61.571 49.9646 61.6525 50.0467ZM47.1399 67.4741C47.2139 67.3474 47.3674 67.2652 47.4987 67.2521C47.5894 67.2419 47.6679 67.2649 47.6956 67.3243C47.7137 67.3667 47.7088 67.4249 47.6625 67.5044C47.6257 67.5675 47.5642 67.2975 47.4865 67.3655C47.3493 67.4783 47.5979 67.7331 47.3475 67.8054C47.3085 67.8102 47.1356 67.4838 47.1395 67.4733C47.1396 67.4736 47.1397 67.4739 47.1399 67.4741ZM57.4698 53.3277C57.4754 53.3306 57.5389 53.2776 57.5365 53.2719C57.4706 53.1378 57.3419 53.2451 57.4698 53.3277ZM64.7623 48.4124C64.7685 48.4166 64.8216 48.3863 64.8674 48.3558C64.9075 48.329 64.9408 48.302 64.9406 48.2954C64.9121 48.1752 64.8184 48.17 64.7557 48.2044C64.6879 48.2418 64.6512 48.3355 64.7623 48.4124ZM53.7847 57.522C53.8255 57.6862 53.7622 57.7762 53.5829 57.7031C53.6519 57.6452 53.7159 57.5807 53.7847 57.522Z" fill="#FFF0E1"/>
</svg>
