<svg width="301" height="50" viewBox="0 0 301 50" fill="none" xmlns="http://www.w3.org/2000/svg">
<g clip-path="url(#clip0_22_1433)">
<path d="M3.95115 13.5696C2.84042 13.5696 1.87383 13.1623 1.11073 12.3985C0.347634 11.6348 0 10.6674 0 9.5387C0 8.41005 0.356113 7.45113 1.11073 6.67889C1.87383 5.91514 2.78107 5.50781 3.95115 5.50781C5.12124 5.50781 6.07935 5.91514 6.79158 6.67889C7.5038 7.44264 7.90231 8.41005 7.90231 9.5387C7.90231 10.6674 7.5462 11.6263 6.79158 12.3985C6.07935 13.1623 5.12124 13.5696 3.95115 13.5696ZM0.610479 48.371V18.9837H7.29183V48.371H0.610479Z" fill="white"/>
<path d="M41.4278 29.8963V48.3111H34.7465V31.3729C34.7465 29.4381 34.136 27.8002 32.8726 26.5273C31.6602 25.2544 30.0831 24.6434 28.1075 24.6434C26.8442 24.6434 25.6741 24.9489 24.6651 25.509C23.6561 26.0691 22.8421 26.8837 22.2825 27.9106C21.7229 28.9289 21.4177 30.0575 21.4177 31.3814V48.3196H14.7363V18.9323H21.4177V22.3013C22.2317 21.3338 23.1898 20.5192 24.3005 19.8488C26.0217 18.8305 27.9464 18.3213 30.1255 18.3213C32.3046 18.3213 34.2293 18.8814 35.9505 20.0015C37.6717 21.1217 38.9859 22.6068 39.9525 24.3888C40.9106 26.12 41.4193 28.0124 41.4193 29.8963H41.4278Z" fill="white"/>
<path d="M61.5905 48.9815C58.75 48.9815 56.1725 48.3196 53.8917 46.9449C51.56 45.5701 49.737 43.7287 48.3719 41.3865C47.0068 39.0359 46.3455 36.49 46.3455 33.6302C46.3455 30.7704 47.0068 28.2246 48.3719 25.9249C49.737 23.6251 51.56 21.7921 53.8917 20.4683C56.2233 19.1445 58.75 18.4316 61.5905 18.4316C64.4309 18.4316 67.0593 19.0936 69.391 20.4683C71.7227 21.7921 73.5457 23.6336 74.9108 25.9249C76.2759 28.2246 76.9372 30.8213 76.9372 33.6811C76.9372 36.5409 76.2759 39.1377 74.9108 41.4374C73.5457 43.7881 71.7227 45.6211 69.391 46.9958C67.0593 48.3705 64.4818 49.0325 61.5905 49.0325V48.9815ZM61.5905 42.4473C63.2608 42.4473 64.7277 42.0908 65.9995 41.3271C67.2628 40.5633 68.2803 39.545 68.984 38.1618C69.6963 36.838 70.0439 35.302 70.0439 33.5708C70.0439 31.8397 69.6878 30.3546 68.9332 29.0308C68.221 27.7069 67.212 26.6801 65.9486 25.9164C64.6853 25.1526 63.2099 24.7962 61.5905 24.7962C59.971 24.7962 58.5042 25.1526 57.2323 25.9164C55.969 26.6801 54.9515 27.6984 54.2478 29.0308C53.5355 30.3546 53.1879 31.8397 53.1879 33.5708C53.1879 35.302 53.544 36.838 54.2478 38.1618C54.96 39.4856 55.969 40.5633 57.2323 41.3271C58.4957 42.0908 59.971 42.4473 61.5905 42.4473Z" fill="white"/>
<path d="M183.449 31.8906C183.195 31.6361 182.889 31.4833 182.542 31.4833C182.236 31.4833 181.829 31.5851 181.473 31.7888C181.066 31.9925 180.71 32.298 180.312 32.7562C179.243 33.9273 178.133 35.005 176.971 35.9724C175.809 36.8889 174.588 37.7036 173.376 38.3231C172.164 38.985 170.892 39.4942 169.628 39.8506C168.365 40.207 167.144 40.3597 165.881 40.3597C165.067 40.3597 164.363 40.2579 163.803 39.9524C163.193 39.6978 162.744 39.3923 162.337 38.985C161.98 38.5777 161.675 38.1194 161.523 37.7121C161.319 37.2538 161.217 36.7956 161.217 36.3883C161.217 36.3883 161.319 36.2864 161.523 36.1337C161.726 35.9809 161.879 35.93 161.98 35.8791C164.007 34.6571 165.83 33.4266 167.5 32.2555C169.171 31.0845 170.637 29.854 171.807 28.632C173.02 27.41 173.936 26.1286 174.597 24.8048C175.258 23.43 175.606 21.9959 175.606 20.4174C175.606 19.8064 175.453 19.0936 175.148 18.4317C174.894 17.7698 174.487 17.1588 173.986 16.5987C173.478 16.0895 172.825 15.6313 172.113 15.2749C171.35 14.9694 170.493 14.7657 169.577 14.7657C168.416 14.7657 167.297 14.9185 166.288 15.2749C165.33 15.5804 164.414 16.0386 163.557 16.5478C162.744 17.057 161.989 17.617 161.277 18.279C160.615 18.9409 160.013 19.5519 159.454 20.2138C158.64 21.2321 157.885 22.3098 157.224 23.43C156.613 24.6011 156.062 25.7807 155.604 27.0026C155.197 28.2246 154.841 29.4551 154.638 30.6771C154.434 31.6955 154.332 32.612 154.332 33.5879C154.129 33.7406 153.976 33.8934 153.773 33.9952C152.764 34.8098 151.696 35.4718 150.636 35.9809C149.627 36.541 148.609 36.9483 147.651 37.3048C146.634 37.6612 145.726 37.8648 144.862 38.0176C143.997 38.1703 143.242 38.2722 142.53 38.2722C141.818 38.2722 141.267 38.0176 140.86 37.5593C140.453 37.1011 140.147 36.541 139.893 35.8791C139.689 35.2172 139.537 34.5553 139.486 33.8424C139.435 33.1296 139.384 32.5695 139.384 32.0604C139.384 31.3984 139.435 30.7365 139.537 30.0237C139.537 29.2599 139.689 28.5471 139.791 27.8767C139.893 27.1639 139.995 26.502 140.046 25.891C140.147 25.28 140.198 24.8217 140.198 24.4144C140.198 23.0396 139.944 21.911 139.486 21.0454C139.028 20.1289 138.426 19.7216 137.663 19.7216C136.603 19.7216 135.586 19.9762 134.577 20.4853C133.559 21.0454 132.601 21.7073 131.694 22.4711C130.727 23.2348 129.922 24.1004 129.108 25.0254C128.345 25.9928 127.641 26.8075 127.081 27.6306C126.929 27.8852 126.624 28.2925 126.217 28.8526C125.86 29.4127 125.403 30.0746 124.902 30.8384C124.444 31.6021 123.893 32.3659 123.334 33.2399C122.774 34.1055 122.215 34.8693 121.663 35.6924C121.155 36.4561 120.654 37.169 120.197 37.8394C119.79 38.4504 119.433 38.9595 119.188 39.316C119.289 38.094 119.493 36.6598 119.747 34.9287C119.951 33.1975 120.256 31.356 120.612 29.3194C120.917 27.2827 121.324 25.1357 121.723 22.8869C122.181 20.6381 122.63 18.3978 123.088 16.1489C123.19 15.5889 123.342 14.9779 123.495 14.2141C123.597 13.5013 123.749 12.7375 123.902 11.9144C124.054 11.1506 124.207 10.336 124.309 9.51283C124.461 8.69817 124.563 7.98534 124.665 7.26402C124.818 6.55119 124.868 5.94019 124.919 5.38011C125.021 4.87094 125.021 4.46361 125.021 4.15811C125.021 2.8852 124.767 1.9093 124.258 1.14555C123.8 0.432723 123.096 0.0253906 122.181 0.0253906C121.875 0.0253906 121.468 0.0253906 121.07 0.17814C120.663 0.33089 120.307 0.432723 119.908 0.687305C119.501 0.941888 119.145 1.2983 118.84 1.75655C118.535 2.2148 118.28 2.8258 118.128 3.53863C117.822 6.75485 117.415 9.86925 116.966 12.7715C116.915 13.1788 116.813 13.6371 116.763 14.0444H116.559C116.152 14.1462 115.745 14.3499 115.296 14.5536C114.787 14.7572 114.278 15.0118 113.727 15.3173C113.168 15.6228 112.515 15.9283 111.802 16.2338C111.243 16.4884 110.539 16.743 109.776 16.9466C108.962 17.2012 108.157 17.4049 107.343 17.6086C106.478 17.7613 105.621 17.965 104.757 18.1177C103.9 18.2705 103.086 18.3723 102.323 18.5251C101.509 18.6269 100.805 18.7287 100.195 18.7796C99.5844 18.8815 99.0841 18.9324 98.6771 18.9833C98.6771 18.9324 98.6263 18.9324 98.5754 18.8815C98.5245 18.8306 98.5245 18.7796 98.4737 18.6778C98.4228 18.576 98.4228 18.5251 98.4228 18.4232C98.4228 18.2705 98.4228 18.1177 98.4737 17.965C98.5245 17.7613 98.5754 17.4558 98.6263 16.9976C98.728 16.5902 98.8298 15.9792 99.0333 15.1646C99.1859 14.4008 99.3894 13.3316 99.6946 11.9993C99.7455 11.7956 99.7964 11.4901 99.8472 11.0828C99.949 10.6245 100.051 10.1663 100.152 9.60618C100.254 9.0461 100.356 8.48602 100.458 7.87502C100.559 7.26402 100.661 6.70394 100.763 6.19477C100.814 5.68561 100.916 5.22736 100.966 4.87094C101.017 4.46361 101.068 4.25995 101.068 4.15811C101.068 4.00536 100.966 3.75078 100.763 3.39437C100.559 3.08887 100.356 2.78337 99.9999 2.42695C99.6946 2.12145 99.3385 1.86687 98.94 1.61229C98.533 1.40862 98.0751 1.25587 97.6258 1.25587C97.4223 1.25587 97.1679 1.35771 96.7609 1.56137C96.4048 1.76504 95.9978 2.01962 95.6502 2.32512C95.2941 2.63062 94.938 2.93612 94.6412 3.34345C94.3868 3.69986 94.2342 4.05628 94.1833 4.36178C94.1833 4.61636 94.1325 5.02369 94.0816 5.58377C93.9799 6.14386 93.8781 6.75485 93.7764 7.46769C93.6746 8.18052 93.522 8.94426 93.4202 9.76741C93.2676 10.5312 93.1659 11.3458 93.0133 12.0671C92.8606 12.8309 92.7589 13.4928 92.6063 14.1632C92.5045 14.7742 92.4028 15.2834 92.301 15.6398C92.0467 16.8618 91.8432 17.7868 91.6397 18.3978C91.4871 19.0597 91.2836 19.4161 91.0801 19.467C90.9275 19.5179 90.6222 19.6198 90.1728 19.6707C89.715 19.7216 89.1639 19.7725 88.5534 19.8234C87.892 19.8234 87.2391 19.8743 86.5269 19.9253C85.8656 19.9762 85.1618 20.0271 84.5005 20.0271C83.8391 20.078 83.288 20.078 82.7284 20.1289H81.5159C81.1089 20.1289 80.7019 20.1798 80.3034 20.3326C79.8964 20.4344 79.5403 20.6381 79.1927 20.8418C78.8875 21.0963 78.5822 21.4528 78.3787 21.8092C78.1752 22.1656 78.0735 22.6238 78.0735 23.1839C78.0735 23.4385 78.1752 23.744 78.3787 24.1513C78.5822 24.5077 78.8875 24.8642 79.1927 25.2206C79.5488 25.577 79.9558 25.8825 80.3543 26.1371C80.7613 26.3916 81.2191 26.4935 81.6685 26.4935H82.4316C82.8386 26.4935 83.2965 26.4426 83.7967 26.4426C84.3055 26.3917 84.8566 26.3407 85.4671 26.2898C86.0775 26.2389 86.6287 26.2389 87.1374 26.188C87.697 26.1371 88.1464 26.1371 88.5025 26.0862H89.308C89.308 26.0862 89.6641 26.0862 89.8676 26.188C90.0711 26.188 90.1728 26.3407 90.1728 26.5444C90.0711 27.3591 89.9693 28.0719 89.8676 28.7423C89.7658 29.4042 89.6641 30.0661 89.5624 30.6771C89.4606 31.2372 89.3589 31.8482 89.2062 32.4083C89.1045 33.0193 89.0028 33.5794 88.8501 34.2413C88.494 35.9724 88.1888 37.8139 87.8835 39.596C87.6292 41.429 87.4766 43.2705 87.4766 45.0525C87.4766 45.2053 87.5274 45.5108 87.6292 45.969C87.6292 46.3764 87.8835 46.8346 88.1379 47.2929C88.3923 47.7511 88.7484 48.1585 89.2062 48.5149C89.6132 48.8713 90.2152 49.024 90.9275 49.024C91.0801 49.024 91.3853 48.9222 91.7838 48.7695C92.1908 48.6167 92.5978 48.413 92.9963 48.1585C93.4033 47.9039 93.7594 47.7002 94.0562 47.4456C94.3614 47.191 94.5649 46.9874 94.5649 46.8346V45.6126C94.6158 45.358 94.6158 44.9507 94.6158 44.5434V42.8631C94.6158 42.1503 94.6158 41.4375 94.6666 40.7162C94.7684 40.0542 94.8193 39.3414 94.921 38.6201C95.0736 37.9073 95.1754 37.0926 95.2771 36.2695C95.4297 35.4039 95.5824 34.4365 95.6841 33.3587C95.735 33.1041 95.7858 32.6968 95.8876 32.1367C95.9385 31.6276 96.0402 31.0166 96.0911 30.3547C96.1928 29.6927 96.2946 29.0308 96.3963 28.3689C96.4981 27.6561 96.5489 27.096 96.6507 26.5868C96.7016 26.1795 96.8033 25.874 96.9559 25.6703C97.1086 25.5176 97.3629 25.3648 97.719 25.3648C99.3385 25.1612 100.907 24.9575 102.332 24.7029C103.748 24.4993 105.07 24.1938 106.283 23.8883C107.495 23.5828 108.665 23.1754 109.776 22.7681C110.887 22.3608 111.955 21.9534 113.015 21.4443C113.829 21.0878 114.584 20.6296 115.296 20.1204C115.448 19.9677 115.652 19.8659 115.804 19.6622C115.804 20.2223 115.652 20.7823 115.55 21.3424C114.94 24.966 114.388 28.4368 113.931 31.6445C113.473 34.9117 113.218 37.9752 113.218 40.8774V42.3031C113.218 42.965 113.218 43.6778 113.32 44.45C113.371 45.2647 113.473 46.0794 113.575 46.9025C113.676 47.7681 113.88 48.5318 114.032 49.3041C114.236 49.4568 114.388 49.6096 114.49 49.7114C114.643 49.8132 114.745 49.8642 114.948 49.9151C115.101 49.966 115.304 49.966 115.609 50.0169H116.72C117.331 50.0169 118.034 49.6096 118.848 48.7949C119.713 47.9802 120.57 46.9619 121.485 45.6805C122.401 44.4076 123.359 43.0244 124.275 41.5478C125.182 40.0203 126.047 38.5862 126.861 37.2114C128.175 34.9626 129.396 33.0278 130.558 31.3984C131.668 29.7691 132.635 28.5386 133.398 27.724C133.551 27.724 133.653 27.8258 133.703 28.0295V28.5895C133.703 28.5895 133.703 29.0478 133.653 29.506C133.602 29.9643 133.551 30.5244 133.5 31.0845L133.347 32.9175C133.296 33.5284 133.296 34.0376 133.296 34.4959C133.296 35.7688 133.398 36.9993 133.653 38.1703C133.907 39.3414 134.365 40.4191 135.018 41.3356C135.628 42.2521 136.484 42.965 137.553 43.5335C138.621 44.0936 139.935 44.3991 141.504 44.3991C142.615 44.3991 143.734 44.1955 144.946 43.89C146.159 43.5335 147.431 43.0753 148.643 42.4134C149.906 41.8024 151.178 41.0386 152.442 40.1136C153.205 39.5536 153.959 38.9935 154.722 38.3316C154.722 38.7898 154.875 39.2481 154.977 39.6554C155.435 41.1829 156.138 42.4643 157.054 43.4826C157.911 44.501 159.03 45.2647 160.344 45.8333C161.607 46.3424 163.074 46.597 164.753 46.597C166.118 46.597 167.492 46.3933 168.908 46.0369C170.324 45.6296 171.74 45.1204 173.113 44.4076C174.478 43.7457 175.852 42.931 177.115 41.9551C178.379 40.9877 179.549 39.9694 180.608 38.8917C181.575 37.8733 182.381 36.9059 182.94 35.9809C183.5 35.0135 183.797 34.1988 183.797 33.4266C183.797 32.7138 183.644 32.2046 183.44 31.8991H183.491L183.449 31.8906ZM162.023 27.6052C162.481 26.3322 162.981 25.1018 163.591 24.0325C164.202 22.9633 164.855 22.0977 165.618 21.3764C166.381 20.7145 167.186 20.358 168.051 20.358C168.102 20.358 168.255 20.409 168.357 20.4599C168.509 20.5108 168.662 20.5617 168.814 20.7145C168.967 20.8163 169.12 20.969 169.221 21.1727C169.374 21.3764 169.425 21.6819 169.425 21.9874C169.425 22.802 169.17 23.6167 168.713 24.338C168.306 25.1018 167.704 25.8146 166.941 26.5868C166.177 27.2997 165.27 28.0634 164.253 28.8356C163.184 29.5994 162.125 30.465 160.912 31.39C161.217 30.168 161.573 28.8866 162.031 27.6136L162.023 27.6052Z" fill="white"/>
<path d="M232.83 29.2344V48.2177H226.149V30.7194C226.149 28.7846 225.538 27.2486 224.326 26.1794C223.113 25.1101 221.587 24.55 219.815 24.55C218.653 24.55 217.534 24.8046 216.576 25.2629C215.609 25.772 214.855 26.4849 214.295 27.4099C213.685 28.3263 213.439 29.4465 213.439 30.7279V48.2262H206.757V30.7279C206.757 28.7931 206.147 27.2571 204.934 26.1879C203.722 25.1186 202.196 24.5585 200.424 24.5585C199.211 24.5585 198.143 24.8131 197.185 25.2714C196.227 25.7805 195.463 26.4934 194.904 27.4183C194.344 28.3348 194.039 29.455 194.039 30.7364V48.2347H187.358V18.8219H194.039V21.8345C194.802 20.918 195.76 20.2052 196.829 19.5857C198.499 18.6692 200.373 18.2109 202.45 18.2109C204.527 18.2109 206.35 18.6692 208.021 19.5857C209.64 20.4003 210.904 21.6223 211.819 23.1583C212.837 21.6308 214.202 20.4513 215.821 19.5857C217.542 18.6692 219.467 18.2109 221.494 18.2109C223.622 18.2109 225.547 18.6692 227.217 19.5857C228.938 20.4513 230.303 21.7327 231.321 23.362C232.33 24.9913 232.838 26.9855 232.838 29.2259L232.83 29.2344Z" fill="white"/>
<path d="M266.355 29.7944V48.2092H259.665V31.271C259.665 29.3362 259.055 27.6984 257.792 26.4255C256.579 25.1526 255.002 24.5416 253.035 24.5416C251.772 24.5416 250.602 24.8471 249.593 25.4071C248.575 25.9672 247.77 26.7819 247.21 27.8087C246.65 28.827 246.345 29.9557 246.345 31.2795V48.2177H239.655V18.8219H246.345V22.2418C247.108 21.2235 248.066 20.4088 249.228 19.7384C250.949 18.7201 252.874 18.2109 255.053 18.2109C257.232 18.2109 259.157 18.771 260.878 19.8912C262.599 21.0113 263.913 22.4964 264.88 24.2785C265.847 26.0096 266.347 27.902 266.347 29.786L266.355 29.7944Z" fill="white"/>
<path d="M294.31 18.8219V22.0891C293.496 21.1217 292.487 20.307 291.326 19.6875C289.604 18.7201 287.629 18.2109 285.399 18.2109C282.762 18.2109 280.388 18.9238 278.26 20.307C276.131 21.6308 274.41 23.4723 273.198 25.8145C271.985 28.1142 271.324 30.7109 271.324 33.6217C271.324 36.5324 271.985 39.0273 273.198 41.327C274.41 43.6777 276.131 45.4598 278.26 46.8345C280.388 48.1583 282.77 48.8202 285.399 48.8202C287.629 48.8202 289.604 48.362 291.326 47.3946C292.487 46.7327 293.505 45.9689 294.31 44.993V48.2092H301V18.8219H294.31ZM292.436 39.9523C290.919 41.6325 288.943 42.5066 286.459 42.5066C284.839 42.5066 283.423 42.0993 282.202 41.3355C280.939 40.6227 279.972 39.5534 279.269 38.2211C278.556 36.8464 278.2 35.3104 278.2 33.5283C278.2 31.7462 278.556 30.2612 279.269 28.8864C279.981 27.5626 280.939 26.4849 282.202 25.7211C283.415 25.0083 284.839 24.601 286.459 24.601C288.078 24.601 289.596 25.0083 290.817 25.7211C292.029 26.4849 292.996 27.5541 293.7 28.8864C294.412 30.2612 294.709 31.7972 294.709 33.5283C294.709 36.1845 293.946 38.323 292.428 39.9608L292.436 39.9523Z" fill="white"/>
</g>
<defs>
<clipPath id="clip0_22_1433">
<rect width="301" height="50" fill="white"/>
</clipPath>
</defs>
</svg>
