<svg width="70" height="70" viewBox="0 0 70 70" fill="none" xmlns="http://www.w3.org/2000/svg">
<path d="M59.0722 32.9417C59.1154 33.0064 58.9745 33.0326 58.7948 33.0714C58.7394 33.0828 58.6302 32.9652 58.5852 32.9702C58.4982 32.9795 58.5197 33.0781 58.419 33.0879C58.3845 33.0913 58.2034 32.9137 58.1714 32.9213C58.0012 32.96 57.9665 33.114 57.8376 33.2003C57.1846 33.6512 56.6657 34.2609 56.1242 34.8804C55.947 35.0833 55.5742 35.2393 55.5096 35.5253C55.5022 35.559 55.6987 35.662 55.7107 35.6771C55.8933 35.9092 55.5349 35.6413 55.4503 35.6635C55.1171 35.7498 54.9449 35.9826 54.8908 36.2277C54.8668 36.3348 55.2934 36.4818 55.0292 36.4384C55.0113 36.4356 54.8269 36.2878 54.7905 36.2986C54.7087 36.3225 54.6754 36.4539 54.6351 36.483C54.5534 36.5432 54.5469 36.5578 54.4962 36.6334C54.4497 36.7003 54.3571 36.7516 54.2902 36.8202C54.2562 36.8544 54.2295 36.8933 54.2208 36.9419C54.216 36.9723 54.4398 37.0684 54.4506 37.1283C54.4614 37.1881 54.38 37.2796 54.31 37.2845C54.2401 37.2893 54.089 37.1742 54.0483 37.1574C53.7058 37.0149 54.0612 37.4028 54.063 37.4235C54.0729 37.8111 53.6776 37.9001 53.5163 38.1618C53.3903 38.3673 53.3458 38.6204 53.2151 38.8071C53.0607 39.0257 52.8347 39.1437 52.7161 39.3793C52.7034 39.4038 52.9611 39.525 52.9466 39.5546C52.7926 39.8677 52.5797 40.1553 52.2347 40.3527C52.1997 40.3727 52.0117 40.204 51.964 40.2162C51.6757 40.2958 51.0808 40.3284 51.9365 41.0027C51.8242 41.1054 51.6932 41.2361 51.44 41.2324C51.2765 41.2309 51.0879 41.0203 51.1327 41.1686C51.1426 41.2019 51.3607 41.2995 51.3601 41.3401C51.3576 41.5108 51.2073 41.6093 51.2356 41.7982C51.2421 41.8366 51.4276 41.9402 51.456 41.9672C51.684 42.1882 51.1858 42.0219 51.1407 42.0244C50.8025 42.0464 50.8207 42.2265 50.7204 42.3784C50.6972 42.4134 50.9667 42.5192 50.9531 42.5582C50.8792 42.7584 50.7449 42.9323 50.529 43.044C50.4803 43.0685 50.2946 42.9061 50.2608 42.9114C50.1144 42.9353 50.4959 43.1916 50.3631 43.2192C50.3356 43.2253 50.1634 43.108 50.1421 43.0992C49.8065 42.9608 50.2159 43.2658 50.218 43.2839C50.2551 43.5185 49.7406 43.3436 49.7139 43.5327C49.7112 43.5555 49.9608 43.6516 49.9395 43.7074C49.7987 44.0802 49.5209 44.3996 49.1396 44.6235C49.0806 44.6586 48.9337 44.5194 48.9108 44.51C48.5527 44.3663 48.9687 44.6646 48.9749 44.6915C49.0125 44.8969 48.5714 44.7994 49.0371 45.2042C48.5155 45.6603 48.4697 46.398 47.6661 46.6778C47.6564 46.6817 47.4487 46.5394 47.4303 46.5477C47.2064 46.6463 47.5609 46.8147 47.9024 47.1741C47.9881 47.2644 47.4415 47.0542 47.4006 47.0402C47.2502 46.9879 46.9471 46.7664 46.9156 46.7602C46.6658 46.7158 47.7336 47.3398 47.6712 47.4446C47.6675 47.4468 47.4806 47.3159 47.4559 47.313C47.3786 47.3037 47.4399 47.3773 47.3568 47.3636C47.1647 47.3313 46.6364 47.0438 46.8801 47.3174C46.9119 47.3525 47.5243 47.6954 47.4398 47.7719C47.4055 47.8021 47.317 47.9732 47.2503 47.996C47.1837 48.0188 47.0088 47.8709 46.9984 47.8691C46.6676 47.8397 46.5896 47.7289 46.1727 47.5636C45.7572 47.3992 46.6695 47.9225 46.755 48.0081C46.8403 48.0936 46.5738 48.0585 46.4868 48.0369C46.3997 48.0153 46.2933 47.9135 46.2397 47.9085C45.8883 47.878 46.6527 48.2348 46.7697 48.3641C47.0473 48.6699 46.3304 48.3492 46.2087 48.4037C46.1758 48.4185 46.3406 48.489 46.3413 48.5201C46.3423 48.642 46.1012 48.5711 46.2314 48.7881C46.2525 48.8235 46.6055 49.1468 46.2782 49.0237C46.2311 49.0058 46.0772 48.8846 46.0169 48.9005C45.9267 48.9241 45.8288 49.0051 45.848 49.0996C45.8623 49.1695 46.1681 49.2819 46.0487 49.2877C45.9955 49.2902 45.8626 49.1473 45.7761 49.16C45.69 49.1719 45.6239 49.2986 45.602 49.348C45.5801 49.3976 45.8037 49.4968 45.8155 49.5089C45.8825 49.5796 45.9303 49.7281 45.9254 49.7357C45.7169 50.1428 45.1477 50.2981 45.0356 50.7513C45.0265 50.7868 45.2586 50.8976 45.2594 50.9044C45.2901 51.0627 44.7534 50.6329 44.5146 50.5885C44.9675 50.8439 44.8612 50.8384 44.8671 50.94C44.8702 50.9892 45.0545 51.0731 45.0703 51.0868C45.3023 51.2949 44.9416 51.1289 44.8666 51.0969C44.5909 50.9792 44.8706 51.1958 44.6861 51.1175C44.5029 51.04 44.2834 50.8373 44.2456 50.9083C44.3939 51.0228 44.8426 51.2196 44.8788 51.3129C45.0142 51.6684 44.4686 51.84 44.3373 51.9838C44.2076 52.1247 44.2067 52.1936 44.0937 52.2523C43.8897 52.3581 44.2375 52.4788 44.3167 52.6691C44.3959 52.8593 43.6628 52.3554 43.4895 52.2734C43.3166 52.1912 43.4759 52.3075 43.3746 52.2727C43.2735 52.2378 43.1856 52.1316 43.1259 52.1551C43.0663 52.1787 43.2882 52.4698 43.4509 52.5866C43.7956 52.8342 44.2087 53.0072 44.0073 53.0415C43.9955 53.0433 43.8072 52.9032 43.7721 52.9162C43.5007 53.0221 43.3645 53.2307 43.1116 53.3465C43.0764 53.3624 42.8672 53.2061 42.8442 53.2138C42.6031 53.2955 43.0145 53.4599 43.3792 53.7988C42.834 53.4492 42.4625 53.2995 42.3846 53.4243C42.3376 53.499 42.5889 53.6294 42.7317 53.7794C42.7748 53.8246 42.5762 53.7793 42.6851 53.8564C43.0405 54.1092 43.4906 54.3035 43.2458 54.3374C43.2344 54.3386 43.0404 54.1994 43.0161 54.2122C42.8586 54.294 43.2412 54.54 43.2076 54.7056C43.1824 54.8338 42.8291 54.8879 42.7174 54.9893C42.0913 54.6185 42.1666 54.8195 42.5721 55.1197C42.5086 55.1874 42.4815 55.2898 42.3756 55.3334C42.3394 55.3484 42.168 55.2242 42.1464 55.2161C41.8077 55.0879 42.2085 55.3693 42.2149 55.3962C42.2372 55.5192 42.1723 55.5809 42.1099 55.6409C42.0264 55.7234 41.9473 55.8029 42.0648 56.0055C42.0724 56.0184 42.503 56.2832 42.1567 56.1445C42.133 56.1347 41.9682 55.9608 41.9045 56.0347C41.8433 56.1043 41.5109 56.1368 41.6472 56.3687C41.6795 56.4253 41.994 56.7008 41.6838 56.5969C41.6416 56.5829 41.5211 56.5016 41.4447 56.4726C41.201 56.3806 41.6316 56.6565 41.2312 56.4818C40.8309 56.307 40.498 56.2335 40.6905 56.4991C40.6956 56.5076 41.0319 56.735 41.0038 56.7711C40.9594 56.827 40.8371 56.8704 40.804 56.9334C40.7883 56.9637 41.0173 57.0698 41.0183 57.0773C41.0299 57.3405 40.7491 57.38 40.5444 57.5442C40.5054 57.5759 40.7398 57.8581 40.4618 57.7994C40.1571 57.7362 39.1286 57.0461 39.2741 57.3886C39.3315 57.5271 40.6489 58.3803 39.8593 58.1323C39.8874 58.4985 39.3811 58.5622 39.4908 58.9743C39.4954 58.993 39.8634 59.2329 39.8436 59.2585C39.8132 59.2964 39.6199 59.2258 39.5913 59.2525C39.469 59.3575 39.5664 59.5545 39.4824 59.6671C39.4514 59.7091 39.268 59.6028 39.2294 59.657C39.1906 59.7125 39.4269 59.8638 39.2686 59.8878C39.1477 59.9068 38.6021 59.7346 38.5027 59.7989C39.0174 60.0219 38.9822 60.0741 39.0803 60.2273C39.0992 60.2573 39.2888 60.3089 39.3072 60.3267C39.3865 60.3994 39.2231 60.3734 39.313 60.4452C39.3346 60.4625 39.5136 60.5304 39.5416 60.5479C39.7857 60.6992 39.3505 60.6391 39.2737 60.6327C38.9821 60.6062 39.2098 60.7126 39.0887 60.7254C38.9663 60.7439 38.8546 60.627 38.7712 60.6691C38.599 60.755 38.5867 60.9418 38.558 61.0787C38.5474 61.1345 38.8062 61.1321 38.8105 61.141C38.86 61.2477 38.5813 61.3509 39.0888 61.4225C37.7714 61.4681 39.2131 61.4869 38.9556 61.6209C38.9349 61.6316 38.3144 61.6898 38.2202 61.6382C38.1262 61.5842 38.3187 61.4977 38.1783 61.4169C38.1445 61.4028 37.5674 61.2553 37.5343 61.2289C37.2703 61.06 38.1998 61.141 38.2505 61.1434C38.8043 61.1486 38.2011 60.9446 38.1665 60.8952C38.0018 60.6968 38.1626 60.5987 38.0629 60.435C37.9989 60.3291 37.4206 60.1371 37.4616 60.0713C37.5996 59.8557 38.4156 60.1051 37.8064 59.6441C37.677 59.5456 37.0448 59.3293 37.5905 59.3839C37.6264 59.3835 38.1077 59.4778 37.8574 59.2954C37.8258 59.2723 37.6486 59.1932 37.6382 59.1765C37.5735 59.0632 37.732 59.0886 37.6978 58.9865C37.6641 58.8835 37.604 58.7528 37.7011 58.7036C37.7594 58.6737 38.1149 58.7706 38.2041 58.7901C38.4616 58.8449 38.1203 58.5926 38.4154 58.6937C38.7114 58.7963 39.0952 59.0818 39.3232 59.0759C38.8757 58.8431 38.4185 58.6003 37.9698 58.3637C38.0954 58.1568 38.3526 58.0194 38.444 57.8029C38.4551 57.7755 38.2022 57.6732 38.208 57.6403C38.2349 57.4999 38.4594 57.4922 38.4581 57.3348C38.4577 57.2099 38.2618 56.9712 38.2527 56.839C38.7898 57.0606 38.6998 56.8203 38.8027 56.7453C38.8389 56.7182 38.9718 56.7963 39.0301 56.7953C39.2471 56.7893 38.7774 56.5839 38.7228 56.5174C38.4919 56.23 39.4978 56.7964 39.549 56.6488C39.5518 56.6415 39.0669 56.2496 39.0407 56.2182C38.8679 56.017 39.234 56.3118 39.3012 56.2858C39.4218 56.2423 39.5822 56.2578 39.4841 56.0667C39.4547 56.0108 39.1636 55.7476 39.4543 55.8374C39.4921 55.8495 39.6661 55.955 39.6797 55.9551C39.9129 55.9482 39.3613 55.6256 39.2096 55.4553C39.0581 55.2849 39.4967 55.4079 39.6183 55.4516C39.9333 55.5641 39.7168 55.5621 39.7432 55.581C40.0565 55.8064 40.0404 55.7022 40.1002 55.6637C40.6467 55.9704 40.6563 55.8789 40.1584 55.6254C40.1039 55.5979 40.131 55.6677 40.1002 55.6637C39.5946 55.3101 39.5733 55.1898 40.1227 55.3878C40.3803 55.4805 40.628 55.679 40.6044 55.4911C40.5941 55.4057 40.208 55.2113 40.1368 55.0998C39.9713 54.8505 40.4077 54.9012 40.4252 54.7455C40.4315 54.689 40.202 54.6137 40.1994 54.5709C40.1983 54.5547 40.2013 54.5411 40.2072 54.5294C40.2407 54.4621 40.3791 54.4619 40.3518 54.3543C40.3487 54.3428 40.125 54.2356 40.1368 54.2092C40.2228 54.0052 40.456 53.9204 40.5744 53.7274C40.6317 53.6337 40.6164 53.3904 40.696 53.3092C40.8338 53.1655 41.2723 53.1294 41.2796 52.9449C41.2868 52.8226 41.0617 52.7175 40.9404 52.5915C40.7051 52.3475 41.2916 52.5046 41.3809 52.5316C41.3838 52.5326 41.3854 52.6446 41.5206 52.6652C41.7635 52.774 41.3813 52.5331 41.3809 52.5316C41.4391 52.548 41.5831 52.4145 41.5612 52.3587C41.5492 52.3281 41.3417 52.2188 41.3393 52.2051C41.2861 51.8828 41.3671 51.6288 41.5901 51.4671C41.5964 51.4656 41.8185 51.6049 41.8307 51.5998C42.0064 51.5316 41.7794 51.2859 41.6788 51.0822C41.5778 50.8795 41.6811 50.8301 42.1051 50.9971C42.1033 50.889 42.3422 50.8761 42.4853 50.8716C42.6282 50.8671 42.1951 50.5974 42.1899 50.5865C42.0192 50.2416 42.3309 50.2885 42.4815 50.1241C42.5539 50.0461 42.5953 49.8317 42.604 49.7081C42.6103 49.6095 42.7403 49.6249 42.7163 49.5157C42.7131 49.501 42.5122 49.3945 42.5064 49.3871C42.3195 49.1698 42.7743 49.4914 42.8691 49.526C43.2139 49.6518 43.4005 49.7139 43.3147 49.5263C43.2952 49.4831 42.6478 49.0077 42.6326 48.9418C42.6141 48.857 42.848 49.0243 42.8224 48.9317C42.8204 48.9239 42.6679 48.8344 42.6956 48.8032C42.8219 48.6574 43.0188 48.528 43.104 48.3506C43.1163 48.3265 42.8578 48.2126 42.8716 48.1754C42.9369 48.0012 43.0492 47.8333 43.2542 47.7461C43.3053 47.7252 43.4597 47.8497 43.5147 47.8713C43.8474 48.0022 43.4499 47.6681 43.4486 47.6513C43.4046 47.2448 43.9327 47.2654 43.9139 46.8669C43.9121 46.8447 43.5126 46.4423 43.949 46.6308C43.9781 46.6432 44.4235 46.8379 44.1688 46.6216C44.1529 46.608 43.9201 46.5136 43.9764 46.4688C44.0328 46.4238 43.946 46.2463 44.2273 46.3074C44.316 46.3265 44.7639 46.5147 44.4799 46.2428C44.4598 46.2242 43.7857 45.6629 44.3233 45.9293C44.4118 45.9732 44.9503 46.3058 44.7256 46.0495C44.6819 46.0001 44.5423 45.9585 44.4937 45.8681C44.4187 45.7291 44.6185 45.7255 44.4275 45.4959C44.3935 45.4555 44.0629 45.1716 44.3727 45.289C44.4212 45.3074 44.5934 45.4312 44.6296 45.4168C44.8028 45.3488 44.7613 45.1433 44.9638 45.0903C45.0351 45.0713 45.3139 45.2705 45.4208 45.2703C45.5277 45.2701 45.6605 45.22 45.5566 45.09C45.4526 44.9599 44.9535 44.7335 44.9608 44.6368C44.993 44.2162 45.4596 44.0605 45.6937 43.7626C45.7285 43.7183 45.5378 43.6574 45.5772 43.5849C45.7216 43.3172 45.8358 42.7747 46.3265 42.7631C46.7193 42.7542 46.7981 43.1117 46.9969 43.0437C47.0921 43.0106 46.5939 42.6113 46.5865 42.5849C46.508 42.3237 46.8145 42.3587 46.8263 42.1731C46.8287 42.1347 46.5919 42.0304 46.5964 41.9992C46.6097 41.8914 46.7615 41.8617 46.7924 41.7702C46.8059 41.7288 46.6341 41.6342 46.6674 41.6083C46.7452 41.5455 46.8587 41.5172 47.063 41.5343C47.0817 41.5358 47.261 41.7102 47.3047 41.6556C47.3748 41.5669 47.6016 41.5422 47.5082 41.3355C47.48 41.2736 47.0975 41.0407 47.4049 41.1303C47.4691 41.149 47.9173 41.4469 47.5701 41.1235C47.5125 41.0696 47.0607 40.6063 47.4469 40.7486C47.5486 40.786 47.9522 40.9692 47.9169 40.8941C47.9107 40.883 47.6922 40.7794 47.6919 40.7347C47.6943 40.5797 47.7892 40.473 47.7971 40.315C47.7988 40.2727 47.5575 40.1904 47.5667 40.1315C47.5918 39.9692 47.7439 39.8414 47.8867 39.7568C47.9398 39.7257 48.0964 39.865 48.1176 39.8733C48.4626 40.0084 48.0618 39.7196 48.0483 39.6864C47.9704 39.4838 48.2203 39.5186 48.231 39.3834C48.2345 39.3465 48.0217 39.2443 48.0073 39.2277C47.8685 39.0623 48.2018 39.3258 48.2642 39.3129C48.4398 39.2779 48.4952 39.1509 48.5347 39.0287C48.5489 38.9838 48.2897 38.8856 48.3051 38.8469C48.3919 38.6149 48.5433 38.4174 48.7964 38.2917C48.8442 38.2687 49.0084 38.4022 49.0541 38.4193C49.3733 38.5398 49.0323 38.2214 49.0064 38.1803C48.8879 37.9933 49.0657 38.0581 49.0809 37.9671C49.1571 37.5134 49.5361 37.1319 49.8079 36.8361C50.1678 36.4392 50.5477 36.2048 50.7671 35.7543C50.7814 35.7256 50.5275 35.6055 50.5368 35.5789C50.6515 35.2802 50.8909 35.0519 51.02 34.7681C51.0355 34.7348 51.0495 34.7007 51.0619 34.6658C51.0725 34.6375 50.8259 34.5328 50.8352 34.4828C50.8528 34.3792 50.9295 34.2844 51.0515 34.2492C51.1105 34.2318 51.2695 34.4052 51.325 34.3853C51.4551 34.3384 51.5372 34.2437 51.5614 34.1262C51.5714 34.0756 51.3041 33.9922 51.3349 33.9378C51.5419 33.5607 51.7297 33.1796 52.2614 33.0015C52.2979 32.9894 52.7739 33.2655 52.7192 33.1559C52.5936 33.0692 52.4428 32.9719 52.307 32.8817C52.5723 32.3096 53.08 31.8832 53.4666 31.3679C53.4833 31.3455 53.2154 31.2213 53.2466 31.177C53.4221 30.9275 53.5318 30.628 53.9588 30.5303C54.0001 30.5215 54.4064 30.834 54.4002 30.7106C54.3992 30.6876 54.4262 30.535 54.3617 30.4354C54.3514 30.4211 54.1427 30.3009 54.166 30.2578C54.304 30.0112 54.5314 29.8039 54.8545 29.6479C54.9069 29.6233 55.0651 29.8306 55.1035 29.8153C55.3657 29.715 55.4514 29.337 55.8373 29.3038C56.0875 29.2916 56.3184 29.6753 56.661 29.9535C56.709 29.9929 56.7845 29.9444 56.9445 30.1394C57.3485 30.6282 57.7548 31.1924 58.1893 31.7103C58.2804 31.8238 58.2626 31.6375 58.4344 31.9504C58.4442 31.9727 58.4675 32.1036 58.5357 32.2021C58.5819 32.2709 58.7541 32.4614 58.8101 32.5521C58.8672 32.6417 58.7195 32.4849 58.7891 32.5888C58.8619 32.692 59.0571 32.9087 59.0722 32.9417ZM43.1242 50.8519C43.3708 50.9166 42.6046 50.4494 42.7503 50.6245C42.7583 50.6335 43.1121 50.8489 43.1242 50.8519ZM38.9481 58.3424C39.3424 58.4438 38.8605 58.1113 38.5589 58.0271C38.2565 57.9452 38.8284 58.312 38.9481 58.3424ZM38.7591 59.3537C39.0871 59.3913 37.9504 58.8191 38.1286 59.0424C38.1386 59.0552 38.74 59.3516 38.7591 59.3537ZM56.4566 30.3028C56.4661 30.31 56.5236 30.2706 56.5164 30.2613C56.3482 30.0276 56.2267 30.1129 56.4566 30.3028ZM38.6616 60.3988C38.8349 60.4232 38.6829 60.2596 38.4665 60.2288C38.291 60.2069 38.4443 60.3725 38.6616 60.3988ZM45.8313 48.1814C45.8434 48.1873 45.8746 48.1585 45.8094 48.1203C45.5991 47.9977 45.6289 48.0817 45.8313 48.1814ZM38.5398 62.1494C38.5423 61.8767 39.5765 61.6423 39.4876 61.8723C39.4728 61.9181 39.1427 61.831 39.0568 61.8984C38.9021 62.0322 39.5639 61.9841 39.2359 62.1538C39.1761 62.1864 38.5373 62.1664 38.5382 62.1492C38.5388 62.1493 38.5393 62.1493 38.5398 62.1494ZM44.0716 51.3674C44.0825 51.3722 44.121 51.3295 44.1116 51.3223C43.8822 51.1506 43.8046 51.2367 44.0716 51.3674ZM47.5338 46.4218C47.557 46.4321 47.6449 46.3319 47.6272 46.3162C47.2633 46.0174 47.0843 46.2195 47.5338 46.4218ZM42.6995 54.9814C42.9154 55.1797 42.9075 55.2598 42.5726 55.1196C42.6196 55.0771 42.6531 55.0257 42.6995 54.9814Z" fill="#66033C"/>
<path d="M33.1052 63.2772C33.0289 63.2863 33.0089 63.0139 33.0294 62.7851C33.0354 62.7125 33.1935 62.6759 33.2029 62.6204C33.2219 62.5139 33.1122 62.4639 33.1407 62.3526C33.1503 62.314 33.3942 62.2402 33.3987 62.2019C33.4197 61.9876 33.2876 61.8639 33.2494 61.6667C33.07 60.7143 32.706 59.8201 32.3478 58.9027C32.2296 58.6007 32.2455 58.1463 31.9975 57.8963C31.968 57.8668 31.7846 57.9925 31.765 57.9945C31.4624 58.0209 31.8748 57.8453 31.8914 57.7512C31.9567 57.3786 31.8121 57.0683 31.5986 56.8536C31.5061 56.7606 31.1804 57.0812 31.3363 56.8517C31.3467 56.8359 31.5684 56.7523 31.5738 56.7097C31.5844 56.611 31.4815 56.5095 31.4688 56.4473C31.4467 56.3291 31.4355 56.3133 31.3852 56.2153C31.3581 56.1608 31.3444 56.0933 31.3293 56.0239C31.3096 55.9258 31.287 55.824 31.2135 55.7556C31.1866 55.7314 30.9969 55.8863 30.9349 55.8582C30.8731 55.8302 30.8212 55.6926 30.8471 55.6218C30.8732 55.551 31.0493 55.4788 31.0832 55.4503C31.368 55.2084 30.8467 55.3115 30.825 55.298C30.4506 55.0585 30.5419 54.6244 30.364 54.302C30.2238 54.0493 30.0037 53.8468 29.8843 53.6027C29.7421 53.3101 29.7337 53.0245 29.5623 52.7602C29.5446 52.7324 29.3154 52.9029 29.2933 52.8692C29.0628 52.5195 28.8834 52.1309 28.8506 51.6768C28.8474 51.6309 29.0909 51.5578 29.1007 51.5047C29.1566 51.1838 29.3832 50.5803 28.3657 50.976C28.3191 50.8046 28.2547 50.5982 28.369 50.3547C28.4425 50.1978 28.7272 50.153 28.5655 50.0996C28.5293 50.0873 28.3398 50.2344 28.3012 50.2074C28.1398 50.0953 28.1159 49.8932 27.924 49.7999C27.8846 49.7813 27.7035 49.8928 27.6652 49.9025C27.3535 49.9791 27.7326 49.6071 27.7502 49.562C27.8772 49.219 27.7025 49.1294 27.6027 48.9358C27.5798 48.891 27.3593 49.0815 27.3282 49.0434C27.1712 48.8448 27.0621 48.5982 27.0559 48.3263C27.0547 48.2648 27.2914 48.1904 27.3017 48.155C27.3444 48 26.9308 48.2008 26.9638 48.056C26.9702 48.0257 27.1584 47.9361 27.1763 47.9213C27.4574 47.6887 26.985 47.885 26.9669 47.8754C26.7274 47.7603 27.1215 47.3773 26.9558 47.2341C26.9354 47.217 26.7327 47.394 26.6894 47.3382C26.3993 46.9664 26.2187 46.4935 26.178 45.988C26.1711 45.9091 26.369 45.8579 26.3881 45.8421C26.6847 45.5918 26.2155 45.7982 26.1872 45.7869C25.9755 45.6913 26.2637 45.3293 25.6724 45.5171C25.4748 44.7295 24.7944 44.2109 24.8895 43.2642C24.8902 43.2525 25.1182 43.1454 25.1187 43.1226C25.1262 42.8466 24.8073 43.0768 24.3133 43.1723C24.1892 43.1961 24.6337 42.809 24.6654 42.779C24.7823 42.6689 25.1286 42.5219 25.1485 42.4958C25.3025 42.2855 24.2316 42.9043 24.1597 42.7765C24.1593 42.7715 24.3674 42.6773 24.3811 42.6555C24.4245 42.5874 24.327 42.5984 24.3772 42.5275C24.4943 42.3655 25.0042 42.0461 24.6359 42.104C24.5883 42.1119 23.9882 42.476 23.954 42.3468C23.9409 42.2951 23.8186 42.101 23.8268 42.0225C23.835 41.9442 24.0539 41.8724 24.0602 41.8637C24.2365 41.5664 24.3767 41.5633 24.7204 41.2713C25.0627 40.9801 24.1567 41.5144 24.0369 41.5406C23.9175 41.5669 24.07 41.3342 24.1301 41.266C24.1899 41.1972 24.334 41.1607 24.363 41.1131C24.5507 40.799 23.8684 41.2979 23.6933 41.3269C23.2792 41.396 23.9057 40.9186 23.9086 40.7673C23.9093 40.7263 23.7684 40.8382 23.7385 40.8189C23.6223 40.741 23.7979 40.5566 23.5337 40.5412C23.4906 40.5386 23.0251 40.667 23.2889 40.4337C23.327 40.4003 23.5111 40.3314 23.5232 40.2638C23.5418 40.1632 23.5094 40.0183 23.4112 39.9759C23.3386 39.9446 23.0943 40.1638 23.1425 40.0462C23.1641 39.9939 23.3594 39.9592 23.3863 39.8685C23.4134 39.7781 23.324 39.6352 23.287 39.5824C23.2499 39.5297 23.0551 39.679 23.0383 39.6824C22.9412 39.7009 22.7789 39.6507 22.7738 39.6411C22.4792 39.1756 22.5927 38.5404 22.2123 38.1386C22.183 38.1074 21.9731 38.2568 21.9663 38.2533C21.8031 38.1816 22.4521 37.9466 22.6023 37.7484C22.1559 38.015 22.2093 37.9178 22.1105 37.858C22.0625 37.8294 21.8998 37.9508 21.8796 37.957C21.5778 38.0438 21.8978 37.8071 21.962 37.7563C22.1979 37.5695 21.8662 37.6959 22.0236 37.5705C22.1797 37.4458 22.4711 37.3681 22.4206 37.2855C22.245 37.3528 21.856 37.6532 21.7513 37.6277C21.3555 37.5311 21.4354 36.8935 21.3616 36.6808C21.2875 36.4679 21.2224 36.4219 21.2176 36.2758C21.2089 36.0117 20.9363 36.2632 20.7209 36.2167C20.5053 36.1698 21.3144 35.7979 21.4705 35.6862C21.6269 35.575 21.4447 35.6516 21.5237 35.5781C21.6027 35.5047 21.7427 35.4892 21.7479 35.4179C21.753 35.3466 21.3771 35.37 21.1927 35.4491C20.8021 35.6168 20.4513 35.8982 20.5097 35.6838C20.5133 35.6713 20.7313 35.5829 20.7348 35.5409C20.756 35.2115 20.6238 34.953 20.6267 34.6335C20.6275 34.5895 20.8705 34.492 20.8736 34.465C20.9057 34.183 20.5642 34.469 20.0783 34.5969C20.6566 34.3048 20.9677 34.0502 20.8853 33.8955C20.8359 33.8023 20.5983 33.9565 20.3911 33.9946C20.3288 34.0061 20.4615 33.846 20.3389 33.8992C19.9381 34.073 19.5484 34.3725 19.6286 34.1197C19.6328 34.1083 19.8526 34.0139 19.8517 33.9829C19.8471 33.7821 19.4396 33.9847 19.2985 33.8458C19.1876 33.7366 19.2989 33.3686 19.2544 33.1974C19.8907 32.8443 19.6663 32.785 19.1967 32.9734C19.1602 32.8665 19.0766 32.7756 19.0844 32.6478C19.0868 32.6039 19.2825 32.522 19.3 32.5068C19.5763 32.2695 19.1274 32.467 19.099 32.4555C18.8102 32.3211 19.0292 31.9558 18.5926 31.9167C18.577 31.9154 18.1293 32.1506 18.4186 31.912C18.4387 31.8958 18.6793 31.8546 18.6377 31.7442C18.5962 31.634 18.7239 31.3081 18.4411 31.2829C18.3728 31.2765 17.9667 31.3914 18.2073 31.1652C18.2401 31.1347 18.3722 31.0737 18.435 31.0209C18.6349 30.852 18.1763 31.0788 18.5263 30.8156C18.8762 30.5524 19.1004 30.2879 18.7594 30.2923C18.7493 30.292 18.3773 30.4567 18.3577 30.4088C18.3268 30.3321 18.3432 30.1892 18.2989 30.1158C18.2776 30.0807 18.0712 30.2268 18.0637 30.2228C17.8059 30.0517 17.9059 29.7721 17.8461 29.4672C17.8356 29.4111 17.4605 29.4437 17.6455 29.2195C17.8477 28.9737 18.9817 28.4719 18.5956 28.3852C18.4405 28.3494 17.0099 29.0003 17.6233 28.4358C17.2663 28.2113 17.4595 27.7076 17.0266 27.5237C17.0073 27.5153 16.6005 27.6836 16.5864 27.6464C16.5662 27.5908 16.7286 27.4627 16.7199 27.4198C16.6879 27.2374 16.4571 27.1837 16.3981 27.0233C16.3753 26.9627 16.5704 26.8786 16.5432 26.8062C16.5159 26.734 16.2485 26.826 16.3148 26.6699C16.3657 26.5516 16.8227 26.2044 16.8298 26.0818C16.3391 26.3534 16.3143 26.2858 16.1233 26.2483C16.0864 26.2412 15.9291 26.3596 15.9028 26.3612C15.7922 26.3698 15.912 26.2527 15.7947 26.2677C15.7665 26.2712 15.5994 26.3646 15.5669 26.3728C15.2842 26.4456 15.5989 26.1265 15.6539 26.0711C15.8621 25.8604 15.6264 25.9493 15.6934 25.8398C15.7605 25.7303 15.9286 25.743 15.9521 25.646C16.0006 25.4452 15.8782 25.2907 15.8105 25.1526C15.7826 25.0982 15.5803 25.2599 15.5711 25.255C15.4525 25.1766 15.6267 24.9317 15.1485 25.1203C16.2528 24.398 14.9998 25.1164 15.1407 24.8294C15.1523 24.8065 15.6859 24.4853 15.7924 24.4881C15.8989 24.4911 15.77 24.6589 15.9314 24.6551C15.9694 24.6544 16.5283 24.458 16.566 24.4529C16.8607 24.4133 16.0575 24.8832 16.0159 24.9134C15.5676 25.2414 16.1771 25.0428 16.2313 25.0505C16.4792 25.0853 16.4285 25.2619 16.6145 25.3029C16.7353 25.3302 17.2704 25.0384 17.2861 25.1043C17.3386 25.3234 16.6347 25.8062 17.3772 25.6224C17.5357 25.5834 18.0949 25.2189 17.7152 25.6123C17.6912 25.637 17.3308 25.9735 17.628 25.8837C17.6655 25.8723 17.8345 25.7769 17.8542 25.7786C17.9828 25.7921 17.8725 25.9114 17.977 25.9461C18.0815 25.9807 18.2257 26.0119 18.2139 26.1252C18.2071 26.1933 17.927 26.4332 17.863 26.5C17.6778 26.691 18.082 26.5566 17.8358 26.7489C17.5883 26.9423 17.1322 27.093 17.018 27.2992C17.4599 27.0559 17.9162 26.8113 18.3619 26.569C18.4792 26.8137 18.4687 27.1278 18.6218 27.3545C18.6412 27.3823 18.8606 27.2193 18.8875 27.2457C19 27.3579 18.8969 27.569 19.0416 27.6692C19.1546 27.7464 19.4704 27.7223 19.5965 27.799C19.132 28.1504 19.3963 28.2207 19.4181 28.3672C19.426 28.4184 19.2901 28.4911 19.2631 28.5458C19.1647 28.7503 19.5794 28.4472 19.6669 28.439C20.0404 28.4043 19.0405 28.9815 19.1536 29.1244C19.1593 29.1322 19.7527 28.9322 19.794 28.9274C20.0618 28.8938 19.6156 29.0471 19.6072 29.1249C19.5917 29.2669 19.5036 29.4101 19.728 29.4414C19.7941 29.4502 20.1755 29.346 19.9549 29.559C19.9261 29.5869 19.746 29.6817 19.7396 29.6947C19.6395 29.9216 20.1985 29.6119 20.4288 29.5799C20.6591 29.548 20.3387 29.8784 20.2409 29.9639C19.9883 30.1859 20.0922 29.9862 20.0622 29.9987C19.7055 30.1482 19.81 30.1991 19.8175 30.2787C19.2764 30.5949 19.3591 30.6654 19.8274 30.3599C19.8785 30.3264 19.7997 30.3055 19.8175 30.2787C20.3849 30.0333 20.5084 30.0925 20.0682 30.4818C19.8618 30.6642 19.5611 30.7701 19.748 30.8682C19.8325 30.9128 20.1935 30.6744 20.3308 30.6786C20.6441 30.6883 20.396 31.0685 20.5328 31.1825C20.5824 31.2238 20.7595 31.0569 20.8006 31.0812C20.9101 31.1452 20.8028 31.3161 20.9357 31.3673C20.948 31.3718 21.1517 31.2296 21.1711 31.2578C21.3226 31.4689 21.2964 31.7456 21.4251 31.9837C21.4875 32.0989 21.7208 32.2359 21.763 32.3672C21.8369 32.5929 21.6665 33.0238 21.8408 33.1558C21.9537 33.2427 22.1552 33.0965 22.3296 33.063C22.6674 32.9976 22.2509 33.4507 22.1845 33.5175C22.1823 33.5196 22.0764 33.4501 21.9951 33.5646C21.7815 33.7244 22.1829 33.5169 22.1845 33.5175C22.1418 33.5609 22.2026 33.7839 22.2655 33.7995C22.3 33.8082 22.4976 33.6816 22.5117 33.6883C22.8426 33.8495 23.0424 34.0838 23.0958 34.403C23.0943 34.41 22.8618 34.5312 22.8611 34.546C22.8459 34.7571 23.1799 34.6972 23.4178 34.7323C23.6554 34.767 23.6566 34.8993 23.3064 35.1947C23.4097 35.2631 23.3134 35.498 23.2525 35.6361C23.1915 35.7742 23.6427 35.5357 23.6554 35.5377C24.0584 35.5965 23.8737 35.8642 23.9612 36.1133C24.002 36.2319 24.1858 36.4086 24.2994 36.4972C24.3899 36.5668 24.3165 36.6803 24.4304 36.7271C24.4457 36.7335 24.6374 36.611 24.6469 36.6102C24.9366 36.5712 24.4269 36.7975 24.3513 36.8654C24.076 37.1119 23.9328 37.2492 24.1489 37.2879C24.1985 37.297 24.9417 36.9877 25.0111 37.0158C25.0999 37.0531 24.8359 37.1682 24.9353 37.2036C24.9436 37.2067 25.0971 37.1191 25.1143 37.1656C25.1959 37.3806 25.2268 37.6463 25.3568 37.8422C25.374 37.8694 25.5985 37.6962 25.6276 37.7336C25.7642 37.9095 25.8725 38.1243 25.8619 38.374C25.8585 38.4359 25.6711 38.5032 25.6258 38.5416C25.3521 38.7748 25.8476 38.6106 25.864 38.62C26.2672 38.8361 26.0116 39.3291 26.3973 39.5664C26.4192 39.5789 26.9798 39.4555 26.6045 39.75C26.5796 39.7697 26.1945 40.0688 26.5137 39.9641C26.5337 39.9577 26.7278 39.7964 26.7449 39.8787C26.7622 39.9613 26.9701 39.9935 26.7859 40.2228C26.7279 40.2952 26.3484 40.6019 26.7337 40.5055C26.7604 40.4983 27.5951 40.2151 27.1009 40.5566C27.0194 40.6127 26.4623 40.9132 26.8057 40.8625C26.8721 40.8523 26.9745 40.7461 27.0817 40.7573C27.2468 40.7742 27.1594 40.9652 27.4637 40.9319C27.5174 40.9256 27.9352 40.7927 27.6848 41.013C27.6456 41.0475 27.451 41.1324 27.4484 41.1763C27.4354 41.3856 27.6485 41.4772 27.6074 41.7034C27.5932 41.7833 27.2793 41.9219 27.2313 42.0236C27.1835 42.1257 27.17 42.282 27.3407 42.2675C27.5109 42.2521 27.9492 41.9204 28.038 41.99C28.4246 42.2943 28.3571 42.8285 28.538 43.2487C28.5644 43.3104 28.7076 43.1672 28.7586 43.2512C28.9467 43.5587 29.4104 44.0153 29.2014 44.4906C29.0335 44.8706 28.6599 44.7185 28.635 44.951C28.6236 45.0628 29.2248 44.8415 29.253 44.8511C29.5353 44.942 29.3663 45.2147 29.5368 45.3443C29.5722 45.3711 29.7769 45.2115 29.8046 45.2357C29.9009 45.3172 29.8609 45.4809 29.9336 45.5684C29.9667 45.6074 30.1334 45.5041 30.1426 45.5517C30.166 45.6635 30.1433 45.792 30.0359 45.9767C30.0261 45.9935 29.7804 46.0532 29.8128 46.1302C29.8659 46.2544 29.7882 46.4874 30.026 46.53C30.0972 46.5422 30.4894 46.3263 30.2663 46.5614C30.2198 46.6106 29.7372 46.8492 30.1981 46.7221C30.2743 46.7002 30.9158 46.5645 30.6089 46.8438C30.5281 46.9173 30.1744 47.1867 30.2616 47.2012C30.2748 47.2023 30.4706 47.0594 30.5132 47.0879C30.6598 47.19 30.7185 47.3486 30.8632 47.4541C30.9023 47.4821 31.0885 47.3048 31.1398 47.3503C31.2808 47.4746 31.3374 47.7072 31.3541 47.8979C31.36 47.9687 31.158 48.0295 31.1406 48.0445C30.8583 48.2879 31.3107 48.0879 31.348 48.0959C31.5744 48.1496 31.427 48.3609 31.5524 48.4609C31.5862 48.4883 31.7778 48.3494 31.8 48.3463C32.0193 48.3199 31.6203 48.4702 31.6052 48.5387C31.5614 48.7314 31.6569 48.8648 31.7542 48.9785C31.7902 49.02 31.9991 48.8352 32.0287 48.874C32.2058 49.0969 32.3332 49.381 32.3362 49.6966C32.3365 49.7565 32.1369 49.8291 32.1003 49.8618C31.8436 50.0901 32.2968 49.9651 32.3471 49.9661C32.5762 49.9697 32.4378 50.1025 32.518 50.1762C32.9122 50.5333 33.1064 51.1397 33.2662 51.5873C33.4818 52.1816 33.5367 52.6959 33.8654 53.1882C33.8864 53.2201 34.1126 53.0524 34.1338 53.0782C34.393 53.4115 34.4986 53.8319 34.7648 54.1524C34.7649 54.1525 34.7649 54.1525 34.765 54.1526C34.7873 54.1807 34.9951 54.0094 35.0387 54.0503C35.1298 54.1334 35.1865 54.2677 35.1666 54.4079C35.1573 54.4761 34.9224 54.5192 34.9171 54.5855C34.9038 54.7392 34.9536 54.8704 35.0567 54.9715C35.1007 55.0136 35.2968 54.8079 35.3354 54.8725C35.5953 55.2955 35.8822 55.7291 35.8118 56.339C35.807 56.3811 35.3381 56.67 35.4669 56.6871C35.6041 56.6202 35.7622 56.5352 35.9071 56.4604C36.3355 57.0746 36.5099 57.8101 36.8309 58.4932C36.8447 58.5225 37.0776 58.3389 37.1057 58.3948C37.2632 58.7084 37.4978 58.9894 37.4051 59.4512C37.3962 59.4967 36.9292 59.7084 37.046 59.7692C37.068 59.7815 37.2025 59.8991 37.32 59.8862C37.3375 59.8838 37.5393 59.7521 37.5683 59.7954C37.7385 60.0601 37.8342 60.3855 37.8402 60.7584C37.8404 60.8182 37.5841 60.8685 37.582 60.9113C37.5661 61.2126 37.8745 61.4353 37.7686 61.8806C37.6916 62.1796 37.2392 62.2028 36.8437 62.4131C36.7884 62.443 36.8021 62.5703 36.5532 62.6145C35.9296 62.729 35.2388 62.8084 34.5752 62.9378C34.4306 62.9541 34.6027 63.0384 34.2449 63.0281C34.2198 63.0197 34.098 63.0003 33.9819 63.0297C33.9011 63.0465 33.649 63.0936 33.5466 63.1201C33.4451 63.1501 33.6566 63.1106 33.5376 63.1456C33.417 63.181 33.1384 63.2676 33.1052 63.2772ZM22.9812 36.2552C22.8084 36.4479 23.5971 36.0199 23.3656 36.046C23.3535 36.0478 22.9896 36.2456 22.9812 36.2552ZM17.8779 27.458C17.5869 27.748 18.131 27.5283 18.3594 27.3108C18.5875 27.0935 17.9661 27.37 17.8779 27.458ZM17.0675 26.6068C16.8586 26.8717 17.9774 26.2655 17.6858 26.2717C17.6692 26.2718 17.0797 26.5913 17.0675 26.6068ZM36.5874 61.9809C36.5771 61.9869 36.593 62.0666 36.6044 62.064C36.8889 62.014 36.854 61.8457 36.5874 61.9809ZM16.2389 25.7756C16.1086 25.895 16.3383 25.8981 16.5004 25.7497C16.6308 25.6303 16.401 25.6271 16.2389 25.7756ZM24.2891 40.5503C24.2781 40.558 24.2913 40.6064 24.3568 40.5687C24.5677 40.4469 24.4746 40.4213 24.2891 40.5503ZM15.2834 24.1079C15.3811 24.3791 14.5496 25.0447 14.5012 24.717C14.4925 24.6576 14.8525 24.6578 14.9001 24.5491C14.9866 24.3507 14.369 24.599 14.6118 24.3094C14.6563 24.2567 15.2799 24.0913 15.2849 24.1077C15.2844 24.1078 15.2839 24.1078 15.2834 24.1079ZM22.0646 36.8243C22.055 36.8313 22.0784 36.8961 22.0894 36.8917C22.3558 36.7844 22.309 36.6542 22.0646 36.8243ZM25.1911 43.3011C25.1706 43.3164 25.2262 43.4644 25.2493 43.4579C25.6958 43.3021 25.5844 43.0017 25.1911 43.3011ZM19.27 33.1856C18.9841 33.2617 18.9115 33.2014 19.1965 32.9739C19.2158 33.0472 19.2494 33.1128 19.27 33.1856Z" fill="#66033C"/>
<path d="M39.8644 7.61593C39.9117 7.91511 39.8497 8.30529 39.7685 8.60128C39.7433 8.69405 39.638 8.64519 39.6159 8.70915C39.5727 8.83424 39.6228 8.95224 39.5717 9.07573C39.5542 9.11664 39.3871 9.06269 39.3727 9.10565C39.2947 9.34112 39.3339 9.56569 39.2944 9.80485C39.0994 10.9829 39.0178 12.1426 38.9221 13.3367C38.8907 13.7304 38.7307 14.207 38.7908 14.6152C38.798 14.6628 38.9458 14.6369 38.9578 14.6461C39.1415 14.7909 38.8447 14.739 38.8037 14.8309C38.6417 15.1959 38.6216 15.6044 38.6729 15.9589C38.6951 16.1098 38.9902 15.9636 38.8235 16.1125C38.8122 16.1228 38.6563 16.0822 38.639 16.1232C38.5999 16.2161 38.6251 16.3941 38.6115 16.4664C38.5846 16.6058 38.5858 16.629 38.5819 16.7611C38.5752 16.9418 38.494 17.1555 38.5263 17.35C38.5337 17.3915 38.695 17.3393 38.7212 17.4057C38.7474 17.4722 38.731 17.6468 38.6923 17.7051C38.6535 17.7634 38.5278 17.7363 38.4987 17.7463C38.2534 17.8282 38.588 18.0358 38.596 18.0619C38.7308 18.5385 38.5318 18.9421 38.5252 19.3873C38.5206 19.7253 38.5784 20.0877 38.5645 20.4091C38.5474 20.7921 38.4553 21.1154 38.4642 21.4879C38.465 21.5272 38.6544 21.4842 38.6557 21.5322C38.6695 22.0422 38.6408 22.5481 38.5054 23.0536C38.4916 23.1042 38.327 23.036 38.3034 23.0865C38.1623 23.3956 37.8274 23.883 38.5456 24.0795C38.5141 24.2899 38.4809 24.5455 38.3325 24.7318C38.237 24.852 38.0584 24.7309 38.133 24.8816C38.1497 24.9156 38.3084 24.8743 38.3213 24.925C38.3758 25.1387 38.3207 25.3704 38.399 25.5822C38.4153 25.6253 38.557 25.6159 38.5823 25.6284C38.7872 25.7337 38.4431 25.898 38.4177 25.9346C38.2283 26.2134 38.2978 26.4203 38.2891 26.6827C38.287 26.7436 38.4783 26.6747 38.4831 26.7334C38.5055 27.0378 38.4841 27.3525 38.395 27.6488C38.3747 27.7147 38.2136 27.6512 38.1957 27.6825C38.1183 27.8209 38.4238 27.8567 38.3556 27.9894C38.3416 28.0174 38.2031 27.9993 38.1878 28.0042C37.9474 28.0809 38.2851 28.1563 38.2922 28.1771C38.3903 28.4408 38.0339 28.6026 38.0799 28.8565C38.0858 28.8869 38.2624 28.8214 38.2681 28.9066C38.3075 29.4745 38.2497 30.0735 38.1003 30.6325C38.0774 30.7194 37.9465 30.655 37.9302 30.6603C37.6749 30.7457 38.0141 30.8091 38.0265 30.8377C38.1151 31.0637 37.8265 31.2689 38.2292 31.4279C38.0734 32.3764 38.2858 33.3264 37.9077 34.2635C37.9033 34.2754 37.7361 34.2513 37.7281 34.2751C37.6294 34.5615 37.8907 34.5104 38.2061 34.7061C38.2853 34.7553 37.8984 34.8952 37.8701 34.9077C37.7654 34.9531 37.517 34.9003 37.4966 34.9157C37.3366 35.0436 38.1612 35.0356 38.1587 35.2115C38.1572 35.217 38.0059 35.1915 37.9905 35.206C37.9424 35.2511 38.002 35.2976 37.9491 35.3417C37.8266 35.4425 37.4254 35.4727 37.656 35.6334C37.686 35.6537 38.154 35.6309 38.1294 35.7876C38.1192 35.8501 38.1228 36.1274 38.0913 36.2047C38.0598 36.2818 37.9099 36.2261 37.9033 36.2315C37.7007 36.4374 37.6194 36.3568 37.3227 36.4569C37.0272 36.5569 37.7286 36.5391 37.8061 36.583C37.8835 36.627 37.7166 36.7777 37.6589 36.8145C37.6011 36.8512 37.5061 36.8027 37.4732 36.8357C37.2582 37.0543 37.8195 36.9387 37.9296 37.0136C38.1903 37.1903 37.6683 37.3163 37.6149 37.4734C37.6004 37.5159 37.7194 37.4829 37.7298 37.5212C37.7697 37.6725 37.6061 37.7605 37.752 37.9343C37.7758 37.9627 38.0861 38.1063 37.8553 38.1923C37.8221 38.2045 37.6931 38.1663 37.6631 38.2301C37.618 38.3253 37.5869 38.4977 37.6285 38.6015C37.6594 38.6781 37.8742 38.5943 37.8064 38.689C37.7761 38.7311 37.6525 38.6502 37.606 38.7295C37.5595 38.8084 37.5617 39.0119 37.5648 39.0894C37.568 39.1668 37.7306 39.1271 37.7414 39.1335C37.8033 39.1723 37.879 39.3219 37.8786 39.335C37.8877 39.9964 37.6051 40.6018 37.6851 41.2469C37.6911 41.2976 37.8624 41.2666 37.8651 41.2744C37.9339 41.4485 37.4821 41.3049 37.3282 41.4232C37.675 41.4113 37.6111 41.4816 37.6472 41.6041C37.6648 41.6631 37.7995 41.6332 37.8131 41.6388C38.0155 41.7291 37.7513 41.7855 37.6972 41.8003C37.4983 41.8548 37.7313 41.9213 37.5983 41.9584C37.4662 41.9955 37.2729 41.9021 37.2735 42.019C37.397 42.0537 37.7225 41.9722 37.7736 42.0617C37.967 42.3996 37.7027 43.0203 37.672 43.2889C37.6413 43.5571 37.6628 43.6442 37.6154 43.8C37.5299 44.0813 37.772 43.9816 37.8793 44.1589C37.9865 44.3367 37.3962 44.2416 37.2686 44.2649C37.1411 44.2877 37.2715 44.3169 37.2011 44.3467C37.1307 44.3764 37.0453 44.3083 37.0179 44.3803C36.9906 44.4524 37.2136 44.6542 37.3462 44.682C37.627 44.7408 37.9242 44.6562 37.8172 44.8463C37.8109 44.8573 37.6559 44.819 37.6395 44.861C37.5143 45.1945 37.5013 45.5428 37.39 45.8762C37.3745 45.922 37.2021 45.878 37.1911 45.9047C37.0759 46.1821 37.3693 46.087 37.6911 46.2452C37.2602 46.204 36.9949 46.2844 36.989 46.4962C36.9852 46.6236 37.174 46.6047 37.3055 46.6892C37.3451 46.7146 37.2143 46.8027 37.3027 46.8204C37.5915 46.8789 37.9171 46.7992 37.7845 47.0156C37.7782 47.0251 37.6201 46.992 37.61 47.025C37.5437 47.2381 37.8463 47.2686 37.8793 47.5006C37.9051 47.6825 37.7152 48.0022 37.6819 48.2083C37.1969 48.1962 37.3048 48.393 37.638 48.4775C37.6222 48.6114 37.6388 48.7565 37.5905 48.8853C37.574 48.9296 37.434 48.8981 37.4188 48.9035C37.1793 48.9859 37.5038 49.0494 37.5161 49.0785C37.635 49.3941 37.3844 49.6457 37.6206 49.9489C37.6291 49.9596 37.9657 49.9822 37.7184 50.0583C37.7014 50.0632 37.5497 49.9619 37.5356 50.1025C37.5214 50.2431 37.3366 50.5057 37.4896 50.7037C37.5264 50.7516 37.798 50.8756 37.5828 50.9682C37.5535 50.9806 37.4571 50.965 37.4031 50.9826C37.2308 51.0396 37.5708 51.0776 37.2804 51.1432C36.9899 51.2087 36.7709 51.3512 36.9674 51.5516C36.9731 51.5579 37.2423 51.6089 37.237 51.6709C37.2284 51.7697 37.1699 51.9093 37.17 52.0127C37.1701 52.0622 37.3383 52.0332 37.3412 52.0419C37.4298 52.3761 37.2766 52.6105 37.206 52.9658C37.1928 53.031 37.4183 53.2224 37.2356 53.346C37.0356 53.4817 36.215 53.3258 36.4059 53.6482C36.4823 53.7782 37.5236 53.9579 36.979 54.1807C37.1059 54.6316 36.8224 55.0422 37.0066 55.4953C37.0147 55.5156 37.3051 55.5843 37.3003 55.6318C37.2928 55.7023 37.156 55.7389 37.1462 55.7892C37.1018 55.9999 37.2152 56.1951 37.1938 56.3986C37.186 56.4758 37.0456 56.4465 37.0363 56.5387C37.0271 56.6308 37.2115 56.6952 37.12 56.8187C37.0502 56.912 36.6697 57.0003 36.6235 57.1249C36.9973 57.1356 36.9882 57.2215 37.0844 57.376C37.1031 57.4057 37.2337 57.3763 37.2492 57.3904C37.3154 57.4481 37.2067 57.4987 37.2789 57.5536C37.2962 57.567 37.4238 57.5696 37.4452 57.5807C37.6317 57.6745 37.3422 57.8196 37.2918 57.8445C37.1003 57.94 37.2656 57.9887 37.1896 58.0631C37.1137 58.1374 37.022 58.023 36.9752 58.1105C36.8785 58.2916 36.8953 58.5267 36.8865 58.7122C36.8838 58.7862 37.055 58.7384 37.0585 58.7491C37.0993 58.9028 36.9156 59.0548 37.2536 59.1451C36.3743 59.2372 37.3373 59.2387 37.1581 59.4548C37.1436 59.4718 36.7282 59.487 36.6684 59.4199C36.6085 59.3527 36.7399 59.2545 36.6464 59.1611C36.6244 59.139 36.2375 59.0083 36.2142 58.9909C36.0322 58.8548 36.6528 58.8459 36.6869 58.8394C37.0558 58.7654 36.6393 58.6065 36.611 58.566C36.4813 58.3805 36.571 58.2261 36.4787 58.0712C36.4191 57.9699 36.013 57.9536 36.0267 57.8751C36.072 57.6139 36.6402 57.5316 36.1528 57.277C36.0488 57.2224 35.604 57.2679 35.9561 57.0839C35.9783 57.0724 36.3 56.9367 36.0993 56.8522C36.074 56.8416 35.9445 56.8398 35.9339 56.8262C35.865 56.7348 35.9691 56.6762 35.9213 56.5771C35.8735 56.478 35.8018 56.3586 35.8474 56.247C35.8748 56.1798 36.1173 56.0969 36.1768 56.0654C36.3483 55.9767 36.0711 55.8742 36.2779 55.8208C36.4858 55.767 36.7983 55.8837 36.9344 55.736C36.5983 55.7251 36.2534 55.7069 35.9154 55.6925C35.9325 55.3644 36.0464 55.0431 36.0368 54.7135C36.0353 54.6726 35.8539 54.7115 35.8476 54.6676C35.8218 54.4824 35.9532 54.3231 35.905 54.1308C35.867 53.9819 35.6782 53.8162 35.6325 53.6604C36.0187 53.5719 35.8918 53.3397 35.9296 53.1731C35.9427 53.1148 36.0454 53.1203 36.0796 53.0792C36.206 52.9242 35.8649 52.9923 35.8121 52.9484C35.5867 52.76 36.3565 52.7565 36.3409 52.5384C36.3404 52.5268 35.9324 52.3792 35.9072 52.3594C35.7426 52.2333 36.0503 52.3412 36.0819 52.2645C36.1395 52.1243 36.239 52.0278 36.1215 51.8604C36.0867 51.8116 35.8329 51.6918 36.0322 51.6012C36.0582 51.5893 36.1937 51.5983 36.2018 51.5885C36.337 51.411 35.9111 51.3995 35.7685 51.2945C35.6259 51.1895 35.9225 51.0357 36.0078 51.0048C36.2284 50.9239 36.1004 51.071 36.1219 51.0759C36.3771 51.1337 36.3348 51.0173 36.3579 50.9293C36.7758 50.9232 36.7527 50.7993 36.3801 50.8381C36.3394 50.8425 36.3773 50.9119 36.3579 50.9293C35.9493 50.8452 35.899 50.7086 36.2844 50.5647C36.465 50.4974 36.6732 50.5671 36.6001 50.3526C36.567 50.2553 36.2788 50.2881 36.2018 50.2014C36.026 50.0034 36.2984 49.7541 36.2593 49.5523C36.2451 49.479 36.0866 49.5476 36.0714 49.4975C36.0308 49.3643 36.1508 49.2494 36.0924 49.1155C36.087 49.1033 35.9217 49.1301 35.9202 49.0887C35.9061 48.7749 36.016 48.5036 36.0242 48.1763C36.0281 48.0181 35.9417 47.7339 35.9626 47.5703C35.9979 47.2868 36.2431 46.9413 36.1888 46.6978C36.154 46.5389 35.9886 46.571 35.8774 46.5014C35.6618 46.3671 36.0555 46.1418 36.1163 46.1115C36.1184 46.1106 36.155 46.2474 36.2408 46.1761C36.4178 46.1367 36.1171 46.1131 36.1163 46.1115C36.1557 46.0917 36.1975 45.8203 36.1668 45.7658C36.1501 45.7362 35.9936 45.7501 35.9878 45.7347C35.8539 45.3688 35.82 45.0038 35.899 44.6361C35.9022 44.6296 36.0768 44.6422 36.0822 44.627C36.1633 44.4147 35.9518 44.2745 35.8278 44.0964C35.7037 43.9183 35.7485 43.7793 36.05 43.6798C36.0144 43.5464 36.15 43.3579 36.2322 43.2494C36.3144 43.141 35.9746 43.1203 35.9681 43.1105C35.7577 42.8061 35.9551 42.6351 35.9904 42.3233C36.0078 42.1751 35.9632 41.8797 35.9286 41.7184C35.9006 41.5908 35.9816 41.5156 35.9325 41.3977C35.9259 41.3817 35.7743 41.3953 35.7685 41.3904C35.5894 41.2568 35.9586 41.3255 36.0251 41.2996C36.2671 41.2056 36.3961 41.1473 36.2857 40.9781C36.2604 40.9391 35.7292 40.8182 35.6992 40.7473C35.6611 40.6552 35.8516 40.6928 35.8068 40.5963C35.8032 40.588 35.6853 40.5878 35.6915 40.5288C35.7184 40.2548 35.7918 39.9567 35.7845 39.6714C35.784 39.6324 35.5963 39.6794 35.5924 39.623C35.5745 39.3586 35.586 39.0693 35.6776 38.8134C35.7008 38.7505 35.831 38.7922 35.8701 38.7791C36.1066 38.6985 35.7669 38.5734 35.7607 38.5535C35.604 38.0799 35.919 37.7243 35.7795 37.2419C35.7712 37.2156 35.4082 37.0086 35.7238 36.9239C35.7447 36.9181 36.0675 36.8344 35.8491 36.7524C35.8354 36.7473 35.6691 36.8 35.6875 36.7037C35.7058 36.6074 35.5978 36.4503 35.7818 36.3205C35.8397 36.2794 36.1619 36.1852 35.9083 36.0558C35.8906 36.0473 35.3159 35.8446 35.7157 35.7819C35.7815 35.7717 36.2032 35.7902 35.9892 35.6372C35.9478 35.6079 35.8528 35.6583 35.7953 35.582C35.7066 35.4652 35.822 35.3142 35.6363 35.1694C35.6035 35.1441 35.3188 35.0342 35.5375 34.9532C35.5717 34.9406 35.7122 34.9679 35.7287 34.9236C35.8077 34.7127 35.717 34.4891 35.8179 34.2754C35.8534 34.1996 36.0804 34.2423 36.1427 34.1638C36.205 34.0852 36.2662 33.926 36.1635 33.8411C36.0608 33.7562 35.6964 33.8413 35.6694 33.7162C35.5519 33.1722 35.7734 32.6387 35.8132 32.098C35.8191 32.0178 35.6882 32.0823 35.6876 31.9639C35.685 31.5277 35.5752 30.7728 35.8572 30.3988C36.0831 30.0991 36.2452 30.4834 36.3389 30.2531C36.3836 30.142 35.9636 30.0143 35.9507 29.9871C35.82 29.7212 36.0099 29.541 35.9563 29.3028C35.9452 29.2536 35.7734 29.2989 35.7659 29.257C35.7385 29.1141 35.8172 28.9656 35.8054 28.8292C35.7998 28.7681 35.669 28.7772 35.6799 28.7212C35.7047 28.5871 35.7615 28.4691 35.886 28.3399C35.8974 28.3282 36.0585 28.4113 36.0662 28.3119C36.0781 28.1511 36.202 27.9531 36.0803 27.7659C36.0437 27.7103 35.7452 27.7034 35.9532 27.5886C35.9967 27.5645 36.3546 27.6018 36.0471 27.4592C35.996 27.4353 35.582 27.1974 35.8531 27.0882C35.9244 27.0594 36.2189 26.9877 36.1739 26.9209C36.1667 26.9118 36.0058 26.9452 35.991 26.8901C35.9418 26.6963 35.9621 26.4942 35.9151 26.2951C35.9022 26.242 35.735 26.3182 35.7211 26.239C35.6827 26.0213 35.7293 25.751 35.7846 25.5396C35.8053 25.4616 35.9419 25.5179 35.9569 25.5125C36.2016 25.4248 35.8742 25.3654 35.8555 25.3347C35.7439 25.1439 35.9004 25.0024 35.8624 24.8276C35.8523 24.7793 35.6952 24.8109 35.6814 24.8011C35.5466 24.6997 35.8266 24.7781 35.8586 24.7158C35.9491 24.5412 35.9397 24.3448 35.9225 24.1665C35.916 24.101 35.7333 24.1716 35.7295 24.1128C35.7038 23.7651 35.7269 23.4043 35.8324 23.0671C35.8526 23.0035 35.9918 23.0459 36.0239 23.0331C36.2488 22.9451 35.9462 22.8058 35.9177 22.7745C35.7874 22.6318 35.9119 22.5792 35.8908 22.4547C35.7857 21.8465 35.8795 21.0992 35.9393 20.5276C36.0163 19.7828 36.1585 19.2062 36.1354 18.4944C36.1341 18.4492 35.9474 18.4918 35.9439 18.4528C35.9071 17.9489 35.9877 17.4548 35.9421 16.9499C35.9386 16.9084 35.7614 16.9652 35.75 16.8986C35.7253 16.762 35.7377 16.5897 35.7962 16.4529C35.8244 16.3861 35.9742 16.4786 35.9995 16.4114C36.0587 16.2549 36.074 16.0864 36.0483 15.9243C36.037 15.8553 35.855 15.9562 35.8544 15.8667C35.8463 15.2572 35.8248 14.6584 36.0681 14.0465C36.0848 14.0045 36.4519 13.9734 36.383 13.8825C36.2814 13.8741 36.1618 13.8726 36.0532 13.8679C36.0088 12.9801 36.1499 12.1043 36.1837 11.2153C36.1851 11.1778 35.9899 11.2395 35.9916 11.1669C36.0012 10.7468 35.954 10.3379 36.1538 9.91121C36.1734 9.86887 36.5146 9.89622 36.465 9.76973C36.4559 9.74741 36.4134 9.55741 36.34 9.50729C36.3289 9.50047 36.1689 9.53245 36.1653 9.47138C36.1467 9.11657 36.1891 8.74574 36.2921 8.39349C36.3091 8.33665 36.4779 8.40018 36.4914 8.35971C36.5862 8.07266 36.4621 7.75679 36.6207 7.48358C36.7275 7.30072 37.0199 7.37373 37.3103 7.2803C37.3513 7.26708 37.3596 7.15292 37.5278 7.1497C37.9507 7.1413 38.4126 7.20405 38.8635 7.18855C38.9606 7.1853 38.8586 7.0306 39.0916 7.12496C39.1072 7.13154 39.1832 7.24373 39.2624 7.27233C39.3171 7.29224 39.4885 7.26069 39.5583 7.30063C39.628 7.34057 39.4841 7.38093 39.5658 7.44661C39.6485 7.51227 39.8434 7.4871 39.8644 7.61593ZM36.5997 42.7613C36.7646 42.6623 36.1668 42.6378 36.3081 42.7499C36.3156 42.7554 36.5916 42.7664 36.5997 42.7613ZM36.4975 55.0522C36.7634 54.9236 36.377 54.8265 36.1717 54.917C35.9667 55.0074 36.4169 55.0914 36.4975 55.0522ZM36.6681 56.4322C36.8786 56.2804 36.0308 56.2424 36.1996 56.4113C36.2091 56.4211 36.6558 56.4411 36.6681 56.4322ZM37.3853 7.73634C37.3933 7.73507 37.4023 7.65305 37.3945 7.65096C37.2052 7.60419 37.1873 7.76818 37.3853 7.73634ZM36.8559 57.802C36.9714 57.7554 36.8412 57.6138 36.6976 57.6717C36.582 57.7183 36.7122 57.8601 36.8559 57.802ZM37.3228 37.473C37.3318 37.4715 37.3407 37.4128 37.2903 37.4132C37.128 37.4146 37.1725 37.4972 37.3228 37.473ZM36.8285 60.1245C36.8659 59.7819 37.5699 59.5851 37.4848 59.9575C37.4694 60.0249 37.2637 59.8081 37.1992 59.8932C37.0816 60.0489 37.5198 60.1606 37.2815 60.3177C37.2379 60.3461 36.8248 60.144 36.8275 60.1239C36.8279 60.1241 36.8282 60.1243 36.8285 60.1245ZM37.319 42.7143C37.327 42.7124 37.3358 42.631 37.328 42.6289C37.1388 42.5817 37.121 42.7457 37.319 42.7143ZM37.7476 34.0428C37.7646 34.0385 37.7834 33.8496 37.7679 33.8432C37.459 33.7395 37.4201 34.1215 37.7476 34.0428ZM37.6689 48.2113C37.8585 48.3033 37.8793 48.4101 37.6383 48.4771C37.6524 48.3889 37.6557 48.3 37.6689 48.2113Z" fill="#66033C"/>
</svg>
