<svg width="64" height="81" viewBox="0 0 64 81" fill="none" xmlns="http://www.w3.org/2000/svg">
<path d="M19.8877 4.22915C19.5488 4.52669 19.0911 4.73731 18.7178 4.88871C18.6004 4.9367 18.5495 4.7738 18.463 4.80308C18.2937 4.86156 18.2256 5.02313 18.0523 5.0808C17.9938 5.09994 17.8762 4.86635 17.8182 4.89123C17.4983 5.03334 17.3162 5.30693 17.0404 5.52798C16.6798 5.81754 16.335 6.1429 16.0024 6.49568C15.084 7.46908 14.3137 8.58466 13.6502 9.79364C13.3522 10.3335 12.8517 10.9502 12.7339 11.5962C12.7206 11.6706 12.9442 11.701 12.9567 11.7203C13.1493 12.0187 12.7506 11.8053 12.6479 11.9264C12.2426 12.4052 12.0457 13.0385 12.0032 13.6071C11.9862 13.8492 12.4672 13.7109 12.1747 13.8917C12.1549 13.9046 11.9385 13.7947 11.8999 13.8543C11.813 13.9868 11.7975 14.2776 11.7586 14.3863C11.6815 14.599 11.677 14.6388 11.6397 14.8461C11.5869 15.1312 11.4224 15.4599 11.4391 15.7763C11.4434 15.8439 11.6925 15.7845 11.7212 15.8938C11.7494 16.004 11.7014 16.2759 11.6369 16.3654C11.572 16.4543 11.3871 16.3981 11.3424 16.4111C10.9648 16.5206 11.4472 16.8864 11.4577 16.9276C11.461 16.9432 11.4641 16.9588 11.4671 16.9744C11.613 17.7204 11.3306 18.3559 11.3513 19.0697C11.3684 19.6218 11.5003 20.2026 11.5342 20.7267C11.5738 21.3509 11.5079 21.8977 11.6176 22.5018C11.629 22.5656 11.8981 22.4499 11.9126 22.5273C12.0666 23.3476 12.1859 24.1652 12.1769 25.0245C12.1758 25.1106 11.9099 25.0576 11.8944 25.1472C11.8028 25.6945 11.5268 26.6266 12.6531 26.6523C12.6995 26.9993 12.7698 27.4194 12.6471 27.7815C12.5685 28.0155 12.2536 27.9017 12.4345 28.1094C12.475 28.1562 12.6819 28.0194 12.7254 28.0942C12.9087 28.4096 12.9489 28.8019 13.1729 29.0996C13.2189 29.1594 13.4152 29.0759 13.4577 29.0832C13.8035 29.1473 13.405 29.5731 13.3898 29.6445C13.2755 30.1769 13.4931 30.4682 13.6358 30.8824C13.669 30.9788 13.8961 30.7684 13.9375 30.857C14.1485 31.3164 14.3122 31.813 14.3784 32.3198C14.3925 32.4329 14.1292 32.429 14.1245 32.4878C14.1073 32.7471 14.5524 32.6229 14.545 32.8659C14.5442 32.917 14.3418 32.972 14.3239 32.9886C14.0441 33.2508 14.5589 33.1642 14.5825 33.1913C14.8928 33.5338 14.5174 34.002 14.7591 34.3609C14.7885 34.4034 14.9823 34.1919 15.0501 34.3175C15.1988 34.5918 15.3373 34.8743 15.4661 35.1657C15.7298 35.7624 15.9503 36.3886 16.1147 37.0169C16.1532 37.1621 15.9295 37.1599 15.9121 37.1792C15.6431 37.4885 16.1415 37.3401 16.1805 37.3732C16.4774 37.6423 16.2687 38.157 16.9254 38.0909C17.5067 39.5935 18.6166 40.7691 19.0329 42.3915C19.0388 42.4119 18.8088 42.5197 18.8215 42.5599C18.9734 43.0452 19.2476 42.7511 19.8225 42.7498C19.9667 42.7493 19.6273 43.2759 19.6052 43.3183C19.5214 43.4719 19.1661 43.6147 19.1563 43.6538C19.0867 43.9714 20.0852 43.2414 20.2537 43.4838C20.2573 43.4926 20.0481 43.5904 20.0437 43.6238C20.0294 43.7277 20.1474 43.7387 20.1265 43.8456C20.0771 44.091 19.6222 44.4892 20.0623 44.505C20.1188 44.506 20.6607 44.0582 20.7868 44.2916C20.8364 44.3852 21.1199 44.7564 21.1603 44.8879C21.2007 45.0199 20.9655 45.0814 20.9631 45.0946C20.9316 45.5565 20.7526 45.5221 20.5034 45.9294C20.2564 46.3363 21.0704 45.6686 21.2076 45.6562C21.3443 45.644 21.3027 45.9993 21.2731 46.1024C21.2433 46.2052 21.0804 46.2279 21.0761 46.3027C21.0523 46.7965 21.5921 46.1194 21.7998 46.1169C22.2893 46.1072 21.8104 46.7633 21.9146 47.0217C21.9429 47.0915 22.0467 46.9358 22.0994 46.9763C22.3061 47.1379 22.2113 47.4111 22.5661 47.4992C22.6243 47.5141 23.1362 47.404 22.9631 47.7377C22.938 47.7857 22.748 47.8595 22.7826 47.972C22.8334 48.1394 22.9854 48.3942 23.1471 48.489C23.2664 48.5588 23.42 48.2411 23.4463 48.43C23.4576 48.5137 23.2281 48.5295 23.2617 48.6772C23.2948 48.8244 23.5221 49.0857 23.6119 49.1829C23.7016 49.2799 23.8416 49.0686 23.861 49.0663C23.9738 49.0552 24.2246 49.1716 24.2387 49.1886C24.981 50.0224 25.3555 51.0704 26.1905 51.791C26.2557 51.8477 26.4071 51.6333 26.419 51.6402C26.6957 51.7852 26.0357 52.0716 26.0062 52.3778C26.3706 52.0059 26.3821 52.1585 26.5638 52.2724C26.6516 52.3269 26.7632 52.1508 26.7846 52.1436C27.1092 52.0453 26.8884 52.3881 26.8472 52.4626C26.6955 52.7363 27.026 52.5765 26.9253 52.76C26.8262 52.9429 26.5075 53.0291 26.6456 53.1724C26.8197 53.0864 27.0757 52.6477 27.2357 52.7039C27.8397 52.9173 28.2896 53.9435 28.5817 54.3008C28.6042 54.3285 28.6258 54.3546 28.6465 54.3793C28.89 54.6689 29.0088 54.7552 29.1366 54.9741C29.3866 55.4015 29.5201 55.0227 29.8467 55.1179C30.1741 55.2134 29.4427 55.7364 29.3378 55.9015C29.2325 56.0662 29.4047 55.9608 29.3674 56.0719C29.3303 56.1831 29.1581 56.1942 29.2176 56.3095C29.2772 56.4251 29.7569 56.424 29.9285 56.3132C30.2922 56.0785 30.4968 55.6569 30.6184 55.9967C30.6252 56.0165 30.4179 56.1397 30.4522 56.2068C30.7306 56.7349 31.1475 57.1574 31.4483 57.6684C31.4893 57.7387 31.2586 57.877 31.2805 57.9201C31.5085 58.3701 31.6896 57.9366 32.214 57.7655C31.7241 58.1924 31.5551 58.5793 31.8146 58.8315C31.9707 58.9834 32.1382 58.7526 32.3774 58.7047C32.4493 58.6901 32.4279 58.9371 32.5395 58.8596C32.9046 58.6067 33.1334 58.154 33.2701 58.5489C33.2757 58.5668 33.0749 58.7045 33.106 58.7535C33.3066 59.0714 33.6506 58.7708 33.9742 58.9975C34.2284 59.1756 34.4421 59.7512 34.6703 60.0222C34.172 60.5525 34.5311 60.6561 34.9685 60.3763C35.1226 60.5451 35.3237 60.6902 35.4407 60.8902C35.4809 60.9587 35.3023 61.0811 35.2941 61.1044C35.1625 61.4673 35.5642 61.1726 35.6134 61.1914C36.134 61.412 36.2094 61.9773 36.8313 62.0484C36.8534 62.0508 37.2119 61.6933 37.0673 62.059C37.057 62.0839 36.7784 62.1435 36.9452 62.3162C37.1117 62.4887 37.2708 62.9927 37.675 63.0375C37.7728 63.0487 38.1969 62.876 38.1077 63.2247C38.0953 63.2718 37.9815 63.3647 37.9518 63.4461C37.8582 63.7063 38.2373 63.3594 38.0403 63.7641C37.8432 64.1688 37.8165 64.5782 38.2675 64.575C38.2813 64.5755 38.6078 64.3232 38.6831 64.3975C38.8031 64.5164 38.9283 64.7376 39.0632 64.8516C39.128 64.9061 39.2522 64.6809 39.2663 64.6871C39.7859 64.9524 39.9446 65.3866 40.3412 65.8572C40.4138 65.944 40.8801 65.8931 40.8667 66.239C40.8532 66.6185 39.8636 67.3961 40.4703 67.5289C40.7143 67.5831 41.9428 66.5732 41.7166 67.4469C42.4291 67.7905 42.7009 68.5659 43.4728 68.8428C43.5073 68.8553 43.8729 68.592 43.931 68.6489C44.0168 68.7341 43.9355 68.9328 43.9927 68.9987C44.2286 69.2784 44.593 69.3569 44.8418 69.6019C44.9365 69.6944 44.7651 69.8263 44.8779 69.9366C44.9908 70.0467 45.25 69.9012 45.3269 70.1413C45.3844 70.3233 45.1422 70.8623 45.2633 71.0504C45.63 70.6261 45.7349 70.7292 46.0301 70.7834C46.087 70.7936 46.1711 70.6095 46.2045 70.6066C46.3431 70.5915 46.3079 70.773 46.4484 70.7479C46.4823 70.742 46.6061 70.5959 46.6408 70.5828C46.9405 70.4659 46.8596 70.96 46.8452 71.0457C46.7913 71.3721 47.0114 71.2315 47.0384 71.4003C47.0652 71.569 46.8277 71.5531 46.8993 71.7017C47.0478 72.0094 47.3754 72.2429 47.6126 72.4525C47.708 72.5352 47.8058 72.2838 47.8233 72.291C48.0651 72.4085 48.0938 72.7866 48.5313 72.4886C47.8269 73.6156 48.734 72.4914 48.8517 72.9329C48.8606 72.9681 48.4905 73.4701 48.3452 73.468C48.2 73.4658 48.1934 73.2068 47.9818 73.2158C47.9319 73.2176 47.3947 73.5293 47.3498 73.5378C46.9983 73.6042 47.5699 72.8693 47.5934 72.8224C47.8423 72.3117 47.2404 72.6279 47.1598 72.6172C46.7918 72.5691 46.6718 72.2982 46.3801 72.2394C46.1897 72.1999 45.7857 72.6566 45.6945 72.5559C45.3908 72.2213 45.8177 71.4698 45.0208 71.7638C44.8506 71.8262 44.4913 72.3943 44.5798 71.7848C44.5853 71.7464 44.7095 71.225 44.4079 71.3676C44.37 71.3856 44.2455 71.5346 44.2174 71.5323C44.0313 71.5137 44.052 71.3291 43.8757 71.2776C43.6994 71.2262 43.4737 71.1806 43.369 71.0063C43.3057 70.9016 43.4253 70.5293 43.4401 70.426C43.485 70.1302 43.0875 70.3421 43.2126 70.0434C43.3381 69.7431 43.7881 69.506 43.7219 69.1876C43.3893 69.5668 43.0386 69.9483 42.6996 70.3259C42.282 69.9499 41.9652 69.4679 41.5216 69.1201C41.4661 69.0773 41.3451 69.3303 41.2811 69.2896C41.0117 69.1172 40.9273 68.7913 40.6275 68.6367C40.3948 68.5178 39.9964 68.5549 39.7477 68.437C39.9996 67.8929 39.5726 67.7848 39.3902 67.5581C39.3261 67.4789 39.4318 67.3665 39.4104 67.2817C39.3277 66.9649 39.0904 67.4337 38.982 67.4462C38.5179 67.4983 39.2521 66.6071 38.9517 66.3848C38.936 66.3728 38.3501 66.6793 38.2998 66.6863C37.976 66.7362 38.4137 66.5016 38.3434 66.3804C38.2154 66.1592 38.1855 65.9384 37.8528 65.8875C37.7554 65.8733 37.3533 66.0315 37.4277 65.7024C37.4374 65.6592 37.5801 65.5138 37.5751 65.4937C37.4746 65.1418 37.0468 65.6166 36.7714 65.6629C36.4958 65.709 36.5828 65.1978 36.6255 65.066C36.7345 64.7236 36.8016 65.0337 36.8288 65.0147C37.1516 64.787 36.9596 64.7062 36.8672 64.5814C37.2652 64.0969 37.0818 63.9851 36.7699 64.454C36.7361 64.5055 36.8633 64.5398 36.8672 64.5814C36.3607 64.9545 36.1328 64.8583 36.3215 64.2578C36.41 63.9764 36.704 63.8176 36.3542 63.6606C36.1957 63.5891 35.9569 63.9541 35.7691 63.9444C35.3405 63.9222 35.2836 63.3312 34.9848 63.1478C34.8763 63.0812 34.8091 63.3384 34.7295 63.2989C34.518 63.1948 34.4866 62.9278 34.2564 62.8418C34.2353 62.8342 34.1069 63.0515 34.0521 63.0061C33.6334 62.6656 33.3921 62.2312 32.9799 61.8463C32.7806 61.6604 32.3306 61.43 32.142 61.217C31.8152 60.8503 31.6219 60.1756 31.2588 59.9519C31.0221 59.8047 30.8955 60.0252 30.6945 60.0667C30.3055 60.1478 30.4196 59.4473 30.4438 59.3449C30.4447 59.3416 30.6549 59.4621 30.652 59.2837C30.7824 59.0423 30.4466 59.3459 30.4438 59.3449C30.4584 59.278 30.16 58.913 30.0602 58.882C30.0057 58.8653 29.8633 59.0534 29.8379 59.0415C29.2397 58.7545 28.7466 58.3548 28.3699 57.8259C28.3653 57.8146 28.5621 57.6407 28.5489 57.6165C28.3691 57.2732 27.9763 57.3333 27.6249 57.2493C27.2743 57.1658 27.1494 56.9478 27.3438 56.5032C27.183 56.4035 27.0943 56.1451 27.0428 55.9331C27.0293 55.8786 27.0183 55.8271 27.009 55.7821C26.9637 55.5615 26.5781 55.8964 26.5591 55.8912C25.9647 55.7388 25.9647 55.3153 25.6274 54.8905C25.4657 54.686 25.0648 54.364 24.833 54.1942C24.6498 54.0616 24.6482 53.8829 24.4547 53.7841C24.4285 53.7705 24.2795 53.9442 24.2673 53.9439C23.9121 53.9573 24.3971 53.6652 24.4388 53.5637C24.5912 53.1949 24.6638 52.9892 24.3443 52.8875C24.2714 52.8645 23.5442 53.2509 23.4271 53.1897C23.2763 53.1094 23.5306 52.9642 23.3678 52.8852C23.3541 52.8783 23.2236 52.9978 23.1611 52.9153C22.8675 52.5321 22.6017 52.0701 22.2636 51.7021C22.218 51.6515 22.0617 51.9002 21.9922 51.8298C21.665 51.4981 21.3454 51.1016 21.158 50.6687C21.1128 50.5619 21.3086 50.4906 21.3382 50.4349C21.5167 50.0972 20.9878 50.2603 20.9579 50.2392C20.2433 49.7531 20.2099 48.9663 19.5202 48.4349C19.4821 48.407 18.8287 48.4581 19.1082 48.0466C19.1266 48.019 19.4164 47.6035 19.0701 47.6916C19.0485 47.6971 18.9091 47.9247 18.8266 47.773C18.7443 47.6216 18.4474 47.5009 18.527 47.1493C18.5517 47.0381 18.8364 46.6137 18.3973 46.6618C18.3682 46.6675 17.4632 46.8959 17.8776 46.4471C17.946 46.3735 18.4722 46.0219 18.0558 45.9968C17.9754 45.9923 17.9134 46.1488 17.7646 46.0915C17.5351 46.003 17.5184 45.6847 17.1439 45.6398C17.0781 45.6325 16.6172 45.7216 16.8007 45.4127C16.8295 45.3644 17.0289 45.2817 17.0038 45.2031C16.8858 44.8303 16.5477 44.5809 16.4595 44.182C16.4279 44.0407 16.7511 43.9105 16.7508 43.7432C16.7502 43.5757 16.6719 43.2935 16.4611 43.2541C16.2503 43.2148 15.8791 43.6446 15.7227 43.4811C15.0427 42.7677 14.8163 41.7797 14.3776 40.9228C14.3125 40.7952 14.2024 40.9952 14.0944 40.8135C13.6939 40.1474 12.8922 39.0385 12.9582 38.2456C13.0113 37.6148 13.5412 38.1055 13.4778 37.6793C13.4473 37.4751 12.7852 37.5632 12.7459 37.5283C12.4321 37.2597 12.4443 36.9337 12.3264 36.638C12.2983 36.5672 12.2627 36.498 12.2134 36.4312C12.1605 36.3594 11.9638 36.545 11.9212 36.4825C11.7737 36.2695 11.7673 35.9781 11.649 35.7642C11.5955 35.6685 11.4246 35.7664 11.3976 35.668C11.3314 35.4342 11.3213 35.2041 11.3983 34.917C11.4054 34.891 11.6857 34.9268 11.6247 34.7607C11.525 34.4914 11.5563 34.0957 11.2594 33.8609C11.1707 33.7916 10.7534 33.9546 10.9622 33.6437C11.0058 33.5786 11.5262 33.4329 11.0045 33.3766C10.9177 33.3679 10.1821 33.2063 10.4877 32.8719C10.568 32.784 10.9315 32.501 10.8258 32.4156C10.8099 32.4044 10.6069 32.5486 10.5508 32.4651C10.3572 32.17 10.2579 31.8195 10.0701 31.5104C10.0192 31.4272 9.83102 31.6435 9.76268 31.5164C9.57446 31.1672 9.47925 30.6818 9.43745 30.295C9.42222 30.1514 9.6484 30.1819 9.66662 30.1652C9.96447 29.8981 9.46602 29.9543 9.42213 29.9102C9.1568 29.6371 9.30264 29.3192 9.15619 29.037C9.11637 28.9586 8.90803 29.0832 8.8831 29.0725C8.63635 28.9566 9.0788 28.9678 9.09196 28.8458C9.13049 28.5041 9.01845 28.1703 8.90703 27.8675C8.86588 27.7566 8.63652 27.9544 8.60259 27.8536C8.39617 27.2553 8.26707 26.6104 8.28137 25.9746C8.28472 25.8554 8.50519 25.8818 8.54685 25.8481C8.83933 25.6172 8.34222 25.4737 8.28825 25.4271C8.04211 25.2171 8.20452 25.0825 8.1276 24.8672C7.74647 23.8159 7.66627 22.4279 7.64279 21.3715C7.60999 19.9876 7.76467 18.9148 7.74494 17.5829C7.74434 17.4981 7.46298 17.5757 7.45897 17.5019C7.44861 17.2474 7.45505 16.986 7.47078 16.732C7.51394 16.0354 7.62621 15.3496 7.66949 14.6432C7.6749 14.5642 7.39652 14.6389 7.39673 14.5098C7.39601 14.2404 7.46535 13.913 7.59754 13.6652C7.66132 13.5454 7.85253 13.7572 7.91209 13.6369C8.0517 13.3564 8.1354 13.0478 8.16362 12.7362C8.17512 12.6039 7.86657 12.7368 7.90255 12.5685C8.14476 11.4177 8.4544 10.2741 9.21734 9.30354C9.27008 9.23633 9.80572 9.37692 9.77179 9.1829C9.63565 9.11288 9.46962 9.04474 9.32114 8.97708C9.89475 7.36627 10.8815 5.965 11.8735 4.59784C11.9155 4.54003 11.605 4.47537 11.6869 4.3602C11.8671 4.10723 12.0424 3.85047 12.2306 3.60848C12.5342 3.21806 12.8831 2.84916 13.3639 2.5757C13.4418 2.53102 13.7944 2.90379 13.9 2.67273C13.918 2.63072 14.12 2.31551 14.1092 2.16878C14.1066 2.14743 13.8862 2.03068 13.9676 1.93741C14.4405 1.40163 15.0621 0.922153 15.7271 0.604576C15.8342 0.554033 15.8888 0.831702 15.9659 0.797993C16.5039 0.562729 16.9148 0.066621 17.4689 0.00249322C17.8366 -0.0370598 17.9552 0.405693 18.3239 0.690813C18.3758 0.73106 18.5506 0.639506 18.6867 0.852058C19.0298 1.38593 19.3002 2.03229 19.6756 2.59565C19.7557 2.71737 19.9009 2.45051 19.9459 2.83195C19.9481 2.8579 19.8463 3.05298 19.8686 3.17844C19.8836 3.26539 20.0621 3.45784 20.0612 3.58098C20.0608 3.7038 19.8917 3.55403 19.8683 3.71263C19.8472 3.87195 20.0329 4.10007 19.8877 4.22915ZM26.8078 54.7933C26.8645 54.4975 26.1959 55.0965 26.4828 55.0866C26.4975 55.0855 26.8053 54.8081 26.8078 54.7933ZM42.4057 68.9536C42.4887 68.5051 41.9939 68.8483 41.9181 69.1849C41.8427 69.5214 42.3809 69.0899 42.4057 68.9536ZM44.3896 70.2508C44.3877 69.8414 43.5361 70.7877 43.9194 70.7741C43.9414 70.7736 44.3897 70.2746 44.3896 70.2508ZM17.7047 1.21199C17.713 1.22067 17.8427 1.15302 17.8394 1.14136C17.7556 0.857584 17.4929 0.995003 17.7047 1.21199ZM46.3784 71.5089C46.4255 71.3239 46.1155 71.3235 46.0568 71.5535C46.0097 71.7386 46.32 71.7392 46.3784 71.5089ZM21.5735 47.2965C21.5824 47.2861 21.5303 47.1995 21.4718 47.2474C21.2837 47.4021 21.4241 47.4706 21.5735 47.2965ZM49.4296 74.0377C49.0106 73.6259 49.4117 72.5918 49.8249 73.0908C49.8998 73.1812 49.4193 73.1889 49.4713 73.3558C49.5672 73.6605 50.1269 73.268 50.1114 73.7155C50.1081 73.797 49.452 74.0629 49.4279 74.0381C49.4284 74.038 49.429 74.0378 49.4296 74.0377ZM27.5193 53.9776C27.5255 53.9669 27.4378 53.8582 27.427 53.8638C27.1682 54.005 27.3452 54.2247 27.5193 53.9776ZM18.6256 42.2171C18.6425 42.1971 18.4886 41.9153 18.4634 41.9188C17.9801 42.0291 18.2929 42.6042 18.6256 42.2171ZM34.6613 60.0402C34.9667 59.9318 35.1226 60.029 34.9683 60.3756C34.8707 60.2603 34.7607 60.1556 34.6613 60.0402Z" fill="#66033C"/>
<path d="M49.5516 48.2207C49.63 48.1934 49.5456 48.2553 49.4417 48.3679C49.4093 48.4019 49.2496 48.4026 49.2204 48.4287C49.1636 48.4794 49.2465 48.5171 49.18 48.5775C49.1573 48.5983 48.9046 48.6082 48.8866 48.63C48.7892 48.7449 48.8688 48.8453 48.8334 48.9645C48.6638 49.5784 48.6952 50.2145 48.7152 50.8677C48.7219 51.0818 48.5539 51.3878 48.6982 51.5797C48.7153 51.6022 48.9281 51.54 48.9469 51.5409C49.2358 51.5562 48.7944 51.6268 48.7474 51.6892C48.5615 51.9346 48.5914 52.1625 48.7157 52.3263C48.7697 52.3981 49.1801 52.2214 48.9578 52.3564C48.9429 52.3657 48.7092 52.3968 48.6897 52.4244C48.6459 52.4862 48.7094 52.5766 48.6993 52.6164C48.6798 52.6976 48.6849 52.7093 48.6983 52.7803C48.7089 52.844 48.6754 52.9271 48.6724 53.004C48.6703 53.0427 48.6767 53.0797 48.7028 53.1109C48.7196 53.1301 48.9475 53.0473 48.9955 53.073C49.0433 53.0986 49.0449 53.1964 48.9969 53.241C48.9489 53.2856 48.7615 53.3146 48.7205 53.33C48.3747 53.4592 48.8938 53.4538 48.9089 53.4638C49.1749 53.6657 48.9449 53.9508 49.0014 54.1881C49.0463 54.374 49.1825 54.5365 49.2113 54.7152C49.244 54.9253 49.1572 55.1245 49.2273 55.3222C49.2344 55.3429 49.5039 55.2528 49.5129 55.2774C49.6088 55.5379 49.6446 55.8202 49.5234 56.1338C49.5111 56.1656 49.261 56.1885 49.2343 56.2237C49.0762 56.44 48.6622 56.816 49.7379 56.6619C49.724 56.7845 49.7151 56.9336 49.5272 57.0842C49.4064 57.1819 49.1281 57.1826 49.2596 57.2351C49.289 57.2471 49.5137 57.1679 49.5404 57.19C49.6522 57.283 49.6076 57.4265 49.7541 57.5106C49.7844 57.5273 49.9893 57.471 50.028 57.4684C50.3421 57.4493 49.8665 57.6605 49.8351 57.6891C49.602 57.9048 49.7352 57.9903 49.7628 58.1322C49.7691 58.165 50.0369 58.0592 50.0529 58.0883C50.132 58.2401 50.1493 58.4143 50.0654 58.6044C50.0461 58.6469 49.8021 58.6719 49.7807 58.6951C49.6895 58.7962 50.1394 58.7035 50.0605 58.7983C50.0444 58.8182 49.8403 58.8592 49.8188 58.8674C49.4809 58.9956 49.9837 58.9121 49.9973 58.9205C50.1804 59.0239 49.6873 59.2406 49.7935 59.358C49.8067 59.3719 50.0534 59.2727 50.0749 59.3155C50.2196 59.6003 50.2286 59.9391 50.0981 60.2892C50.0782 60.3436 49.878 60.3577 49.855 60.3665C49.497 60.5056 50.0002 60.4144 50.0226 60.425C50.1867 60.5124 49.7987 60.7265 50.409 60.6622C50.33 61.2215 50.7867 61.6443 50.3838 62.2797C50.3793 62.2876 50.1325 62.3369 50.1245 62.3525C50.026 62.5405 50.3977 62.4166 50.8867 62.4028C51.0095 62.3994 50.4692 62.6171 50.43 62.6343C50.2851 62.6972 49.9157 62.7616 49.8886 62.7773C49.6761 62.9045 50.8731 62.5936 50.8969 62.6874C50.8956 62.6908 50.6717 62.7337 50.6517 62.747C50.5889 62.7887 50.6827 62.7911 50.6127 62.834C50.4505 62.9328 49.8724 63.098 50.2327 63.0973C50.2794 63.0969 50.9559 62.9105 50.9447 63.0026C50.9397 63.0394 50.9885 63.1846 50.9547 63.2371C50.9211 63.2895 50.6947 63.316 50.6859 63.3214C50.4239 63.5056 50.2931 63.4933 49.8778 63.6568C49.4642 63.8198 50.4803 63.5487 50.5998 63.5429C50.719 63.5372 50.5005 63.6795 50.4224 63.7205C50.3442 63.7615 50.1986 63.7713 50.156 63.801C49.8782 63.9971 50.6753 63.7262 50.847 63.7248C51.2535 63.7208 50.5151 63.9823 50.4621 64.0851C50.4479 64.1129 50.6154 64.0511 50.6366 64.0673C50.7183 64.132 50.4945 64.2397 50.734 64.2773C50.773 64.2835 51.2464 64.2432 50.9248 64.3751C50.8784 64.394 50.685 64.4222 50.6515 64.4671C50.601 64.5343 50.5831 64.6369 50.6599 64.676C50.7167 64.7047 51.0155 64.5801 50.9319 64.6553C50.8945 64.6888 50.7023 64.6926 50.6473 64.7518C50.5921 64.8102 50.6277 64.918 50.6444 64.9578C50.6613 64.9976 50.8911 64.9155 50.9078 64.9148C51.0038 64.9122 51.1374 64.9628 51.1389 64.9699C51.2563 65.3139 50.9421 65.7414 51.1607 66.0519C51.1775 66.0764 51.4212 65.9954 51.4264 65.9985C51.5539 66.0647 50.8753 66.1592 50.6708 66.2799C51.1722 66.1427 51.0907 66.2041 51.1624 66.255C51.1974 66.2794 51.3881 66.2128 51.4088 66.2106C51.7169 66.1816 51.3423 66.311 51.2662 66.3392C50.986 66.443 51.3347 66.3898 51.1475 66.4595C50.9617 66.5288 50.6664 66.5531 50.6857 66.614C50.8705 66.5855 51.3299 66.4194 51.4184 66.4475C51.7535 66.5559 51.4674 66.978 51.4664 67.1344C51.4649 67.2884 51.5099 67.3258 51.466 67.4256C51.3866 67.6058 51.7216 67.4598 51.9059 67.5138C52.0901 67.5676 51.2184 67.7417 51.037 67.8027C50.8557 67.8634 51.0496 67.8293 50.9523 67.8719C50.855 67.9144 50.7202 67.9108 50.692 67.9595C50.6639 68.0083 51.0197 68.0298 51.2164 67.9938C51.6333 67.9176 52.0509 67.7601 51.9259 67.9004C51.9185 67.9085 51.6875 67.9476 51.6704 67.9758C51.5416 68.1968 51.5801 68.391 51.4714 68.6061C51.4561 68.6359 51.1991 68.679 51.1874 68.6971C51.0648 68.8869 51.4753 68.7257 51.9674 68.6862C51.3359 68.8293 50.9644 68.9742 50.9899 69.0882C51.005 69.1567 51.2756 69.0743 51.4798 69.068C51.5413 69.0661 51.3657 69.1622 51.4966 69.1375C51.9247 69.0575 52.3836 68.8888 52.2266 69.0552C52.219 69.0627 51.9844 69.1058 51.9751 69.1273C51.9138 69.2666 52.3574 69.1664 52.4425 69.2753C52.5089 69.3592 52.2856 69.6022 52.2708 69.7242C51.5661 69.9053 51.7544 69.9673 52.2507 69.882C52.2489 69.9567 52.2968 70.028 52.248 70.1155C52.2314 70.1455 52.0235 70.183 52.0023 70.1918C51.6689 70.3285 52.1493 70.236 52.1718 70.2466C52.2695 70.2989 52.2628 70.3712 52.2567 70.4412C52.2501 70.5359 52.2447 70.6264 52.4649 70.6635C52.479 70.6658 52.9701 70.5461 52.6243 70.6821C52.6004 70.6912 52.3644 70.6982 52.3667 70.7763C52.3678 70.8507 52.1455 71.0698 52.3988 71.1111C52.46 71.1218 52.8729 71.0781 52.5765 71.2109C52.5363 71.2291 52.3942 71.2587 52.319 71.2896C52.0793 71.3884 52.5776 71.2744 52.1684 71.4242C51.7591 71.5738 51.4663 71.7369 51.7831 71.762C51.7925 71.7635 52.1895 71.6806 52.1927 71.7171C52.1971 71.774 52.136 71.8715 52.1533 71.9253C52.1618 71.9511 52.3999 71.8686 52.4056 71.8719C52.5878 72.0055 52.4079 72.1974 52.3658 72.4099C52.358 72.4506 52.7161 72.4583 52.4733 72.5965C52.2079 72.7486 50.9982 73.0073 51.3306 73.1022C51.4641 73.1417 52.9929 72.792 52.2497 73.1425C52.5108 73.3207 52.1806 73.6659 52.5302 73.8188C52.5458 73.826 52.9729 73.7267 52.9749 73.7524C52.9772 73.7912 52.789 73.8731 52.7853 73.905C52.7636 74.0366 52.963 74.081 52.9736 74.1929C52.9778 74.2344 52.7742 74.2923 52.7807 74.3454C52.7879 74.3993 53.0592 74.3317 52.9579 74.4436C52.8809 74.5293 52.3688 74.7818 52.3372 74.8804C52.8584 74.6735 52.8659 74.7238 53.0351 74.7429C53.068 74.7467 53.2404 74.6534 53.2651 74.6511C53.3694 74.6389 53.2324 74.7292 53.3437 74.7096C53.3704 74.7048 53.545 74.6262 53.5765 74.6174C53.8508 74.5398 53.4913 74.7858 53.4308 74.8326C53.1994 75.007 53.4327 74.9155 53.3512 75.0009C53.2724 75.0909 53.1187 75.1016 53.0834 75.1791C53.01 75.339 53.1154 75.4508 53.1762 75.5468C53.2018 75.5852 53.3874 75.4064 53.3959 75.4084C53.4933 75.4314 53.3544 75.6847 53.7557 75.3677C52.8457 76.3206 53.8803 75.3156 53.77 75.5712C53.761 75.5918 53.3611 76.0696 53.265 76.106C53.1674 76.1407 53.2527 75.9533 53.1053 76.005C53.0737 76.0211 52.5732 76.338 52.5328 76.3447C52.239 76.4262 52.955 75.8287 52.9932 75.7952C53.3955 75.4161 52.8377 75.7162 52.7813 75.7103C52.5394 75.7085 52.5947 75.5441 52.4191 75.5184C52.3057 75.5014 51.7615 75.7756 51.7492 75.7102C51.7109 75.4936 52.4695 75.1048 51.7266 75.2423C51.5684 75.2711 50.9655 75.5579 51.4002 75.2361C51.4263 75.2124 51.8403 74.9566 51.5386 75.0158C51.5005 75.0231 51.3191 75.0925 51.3007 75.0898C51.1796 75.0681 51.3123 74.9812 51.2208 74.9465C51.1291 74.9111 50.9997 74.8768 51.0389 74.7884C51.062 74.7351 51.3862 74.5647 51.4644 74.5196C51.6892 74.3881 51.2739 74.4644 51.5566 74.3351C51.8411 74.2062 52.3093 74.1212 52.4732 73.9767C51.9924 74.1293 51.4979 74.2825 51.0137 74.4337C50.9704 74.2424 51.0691 74.0086 50.9939 73.8352C50.984 73.8136 50.7312 73.9144 50.7138 73.8931C50.6412 73.8003 50.8009 73.658 50.6963 73.5738C50.6138 73.5068 50.3127 73.4983 50.2188 73.4324C50.7591 73.2224 50.5346 73.1482 50.5605 73.0449C50.5692 73.0082 50.7183 72.9689 50.7604 72.9327C50.9157 72.7969 50.4354 72.9735 50.3515 72.9712C49.9923 72.9576 51.1043 72.6476 51.0444 72.5373C51.0417 72.5316 50.4271 72.6171 50.3871 72.6161C50.1274 72.6134 50.5907 72.5485 50.6228 72.4936C50.6825 72.3967 50.8105 72.3073 50.6123 72.2645C50.5537 72.2524 50.1662 72.2884 50.4387 72.1596C50.4745 72.143 50.6719 72.0938 50.682 72.0855C50.8484 71.9398 50.2304 72.1026 50.0066 72.1035C49.7827 72.1042 50.1858 71.9033 50.3039 71.8528C50.6093 71.7216 50.4492 71.8522 50.481 71.8463C50.86 71.7765 50.7792 71.7304 50.7977 71.6735C51.4014 71.5056 51.3479 71.4508 50.815 71.6176C50.7568 71.6359 50.8229 71.6569 50.7977 71.6735C50.1928 71.7914 50.0976 71.7398 50.6316 71.5119C50.8818 71.4051 51.1949 71.361 51.0533 71.2746C50.9892 71.2351 50.5774 71.3655 50.4513 71.349C50.165 71.3159 50.5186 71.078 50.4283 70.984C50.3955 70.9499 50.1773 71.0489 50.1471 71.0276C50.1355 71.0195 50.1288 71.0104 50.1253 71.0006C50.1054 70.9442 50.2067 70.86 50.1154 70.8189C50.1055 70.8147 49.8705 70.893 49.8616 70.8717C49.7897 70.7102 49.9045 70.5232 49.8634 70.348C49.8434 70.2631 49.671 70.1419 49.6755 70.0501C49.6814 69.8896 49.9789 69.6044 49.862 69.5011C49.7862 69.4312 49.5515 69.5114 49.379 69.5174C49.0448 69.5293 49.5789 69.2579 49.6623 69.2183C49.665 69.2171 49.7405 69.2761 49.8533 69.2052C50.1035 69.1163 49.6636 69.2188 49.6623 69.2183C49.7159 69.1918 49.7329 69.033 49.6798 69.0164C49.6508 69.0073 49.4261 69.0744 49.4153 69.0685C49.1626 68.9281 49.0536 68.7429 49.1098 68.5211C49.1135 68.5165 49.3687 68.4566 49.3742 68.4465C49.4578 68.3035 49.1284 68.3094 48.9196 68.2611C48.711 68.2137 48.754 68.1246 49.1756 67.9573C49.1026 67.9004 49.2692 67.7489 49.371 67.6599C49.4729 67.5709 48.9764 67.6887 48.9653 67.686C48.6114 67.6045 48.871 67.4408 48.8723 67.2616C48.8737 67.1759 48.7617 67.036 48.686 66.9645C48.6253 66.9078 48.7307 66.8374 48.6407 66.7934C48.6287 66.7875 48.4107 66.8519 48.4015 66.8515C48.1203 66.8482 48.6671 66.7453 48.7595 66.7064C49.0958 66.5651 49.2737 66.4855 49.0864 66.4369C49.0434 66.4256 48.2533 66.5626 48.1985 66.5364C48.1286 66.5022 48.4111 66.4503 48.3308 66.4162C48.3242 66.4132 48.1531 66.4575 48.1526 66.424C48.1484 66.2695 48.2068 66.0809 48.1515 65.9343C48.1446 65.9139 47.8794 66.0093 47.8649 65.981C47.7971 65.8481 47.7679 65.6902 47.8602 65.5194C47.8838 65.4772 48.0796 65.4506 48.1343 65.4289C48.465 65.2978 47.9519 65.3592 47.9398 65.351C47.6376 65.1596 48.0383 64.8513 47.7598 64.649C47.7437 64.6382 47.1837 64.6641 47.6287 64.5012C47.6583 64.4903 48.114 64.3253 47.7837 64.3633C47.763 64.3657 47.5297 64.4558 47.5412 64.3978C47.5526 64.3395 47.3711 64.2969 47.6178 64.1596C47.6955 64.1162 48.1487 63.9462 47.76 63.9722C47.733 63.9743 46.8661 64.081 47.437 63.8987C47.531 63.8688 48.1466 63.7216 47.8117 63.72C47.7468 63.7199 47.6168 63.782 47.5212 63.763C47.3739 63.7338 47.5179 63.6111 47.2254 63.6034C47.1737 63.6022 46.7428 63.6499 47.0478 63.5256C47.0956 63.5061 47.304 63.4684 47.3209 63.4388C47.4026 63.2976 47.2357 63.2125 47.3488 63.0617C47.3885 63.0084 47.7251 62.9467 47.8033 62.882C47.8815 62.8173 47.9456 62.7102 47.783 62.7033C47.6204 62.6964 47.1042 62.8767 47.0453 62.8203C46.7893 62.5753 47.0277 62.2098 47.0012 61.9086C46.9972 61.8638 46.817 61.9464 46.7977 61.8838C46.7255 61.6529 46.4484 61.2929 46.8002 60.9903C47.082 60.7483 47.3775 60.8925 47.4779 60.736C47.5256 60.6607 46.8951 60.7474 46.8722 60.7377C46.6409 60.645 46.8887 60.4786 46.7739 60.372C46.7501 60.3499 46.5073 60.4369 46.4898 60.4175C46.4278 60.3516 46.5193 60.2441 46.4811 60.1763C46.4633 60.1459 46.2746 60.1989 46.2818 60.1649C46.297 60.0842 46.3612 60.0005 46.5223 59.8863C46.537 59.8759 46.7843 59.8612 46.78 59.8055C46.7724 59.7157 46.9221 59.5655 46.7162 59.5109C46.6543 59.4948 46.2192 59.6007 46.5039 59.4632C46.5634 59.4344 47.0899 59.3238 46.6204 59.3599C46.5424 59.3657 45.9032 59.3898 46.2807 59.233C46.3801 59.1917 46.7975 59.0464 46.7217 59.0274C46.7098 59.0252 46.4808 59.1015 46.4509 59.0777C46.3495 58.9931 46.348 58.8785 46.2486 58.789C46.2217 58.7653 45.9902 58.8667 45.9577 58.8295C45.8681 58.7273 45.8943 58.5668 45.9425 58.4353C45.9608 58.3866 46.1682 58.3669 46.1892 58.3585C46.5318 58.2229 46.046 58.3097 46.0141 58.3C45.8222 58.2382 46.0283 58.1062 45.9461 58.0271C45.9241 58.0052 45.7002 58.0787 45.6786 58.0785C45.4668 58.0734 45.8864 58.0138 45.9234 57.9692C46.0287 57.8446 45.9848 57.7429 45.9323 57.6535C45.9127 57.6208 45.6576 57.7245 45.643 57.6944C45.5521 57.5174 45.5313 57.32 45.6329 57.0999C45.6526 57.0587 45.8617 57.0314 45.9066 57.0131C46.2205 56.8854 45.7588 56.9199 45.7124 56.9134C45.501 56.8844 45.6744 56.812 45.6249 56.754C45.3783 56.4643 45.4014 56.0308 45.403 55.7081C45.4016 55.2779 45.5232 54.9231 45.3829 54.5487C45.3742 54.5246 45.1082 54.6127 45.0973 54.5928C44.9817 54.363 45.0043 54.096 44.9089 53.8653C44.8979 53.8381 44.8854 53.8112 44.8711 53.7849C44.8599 53.7634 44.6096 53.8553 44.583 53.8227C44.5266 53.7562 44.5192 53.6589 44.5848 53.5666C44.6164 53.5216 44.8486 53.5196 44.8758 53.4755C44.9396 53.3719 44.9363 53.2715 44.8753 53.1936C44.8487 53.1603 44.5975 53.276 44.5835 53.2281C44.4824 52.9 44.3641 52.5809 44.6327 52.1652C44.6512 52.1368 45.1842 52.0006 45.0707 51.9741C44.9207 52.0025 44.7453 52.0404 44.5855 52.073C44.395 51.6037 44.4783 51.0677 44.4109 50.5541C44.4078 50.5318 44.1289 50.6242 44.1215 50.5812C44.0803 50.3391 43.9565 50.1075 44.1992 49.797C44.2231 49.7673 44.7309 49.6981 44.6421 49.6332C44.6257 49.6211 44.5409 49.5198 44.4259 49.5026C44.4087 49.5007 44.1755 49.5583 44.1627 49.5201C44.0933 49.2985 44.1143 49.0429 44.2367 48.755C44.2571 48.7087 44.5147 48.7348 44.5315 48.7026C44.6493 48.4868 44.4443 48.2044 44.6913 47.9471C44.8578 47.7879 45.2931 47.886 45.7308 47.8546C45.7925 47.8505 45.8098 47.7791 46.0607 47.8046C46.6918 47.8667 47.3789 47.9705 48.052 48.0327C48.1966 48.0492 48.0498 47.9518 48.394 48.0387C48.4168 48.0466 48.5276 48.107 48.6458 48.1246C48.7274 48.1379 48.9834 48.1555 49.0876 48.1747C49.1919 48.1921 48.9772 48.1797 49.1005 48.1947C49.2256 48.2071 49.5168 48.2263 49.5516 48.2207ZM49.8263 67.2624C50.05 67.1479 49.1784 67.3614 49.4014 67.367C49.4132 67.367 49.8154 67.2682 49.8263 67.2624ZM51.7182 73.815C52.0743 73.6264 51.5023 73.7447 51.2255 73.8854C50.9497 74.0281 51.6104 73.8726 51.7182 73.815ZM52.2386 74.4771C52.5043 74.2922 51.2971 74.6947 51.5733 74.7047C51.589 74.7054 52.2233 74.488 52.2386 74.4771ZM45.8367 48.1812C45.8485 48.1799 45.8612 48.1232 45.8495 48.1219C45.5652 48.0818 45.5399 48.2046 45.8367 48.1812ZM52.8349 75.1044C52.9776 75.0051 52.763 75.0151 52.5844 75.1385C52.4419 75.2407 52.6589 75.2319 52.8349 75.1044ZM50.0379 64.1941C50.0507 64.19 50.0545 64.1556 49.9813 64.1747C49.7458 64.2361 49.8234 64.2631 50.0379 64.1941ZM53.7736 76.1797C53.6228 76.0135 54.2112 75.1352 54.2686 75.3283C54.2826 75.3654 54.0123 75.5555 53.9893 75.6565C53.9563 75.847 54.3782 75.3366 54.2471 75.6754C54.2245 75.7385 53.7818 76.1919 53.7725 76.1807C53.7729 76.1804 53.7733 76.18 53.7736 76.1797ZM50.8628 66.9652C50.874 66.9612 50.8739 66.915 50.8622 66.9168C50.5802 66.9636 50.5803 67.0568 50.8628 66.9652ZM50.1167 62.2225C50.1406 62.214 50.1384 62.1072 50.115 62.1095C49.6498 62.1692 49.653 62.3856 50.1167 62.2225ZM52.2525 69.7308C52.5422 69.706 52.5895 69.7537 52.251 69.8817C52.2573 69.8305 52.2478 69.7826 52.2525 69.7308Z" fill="#66033C"/>
<path d="M51.1158 80.3545C51.1132 80.4379 50.9695 80.2842 50.8689 80.1255C50.8364 80.0754 50.9149 79.9349 50.8928 79.8929C50.8507 79.8114 50.7578 79.8608 50.7181 79.7686C50.7041 79.737 50.8162 79.5094 50.7993 79.4815C50.7013 79.3289 50.5552 79.3467 50.4284 79.2476C49.8178 78.7645 49.1179 78.4484 48.4105 78.1124C48.1773 78.0019 47.9452 77.6929 47.6599 77.7117C47.6261 77.7139 47.5806 77.9311 47.5696 77.9469C47.3982 78.1867 47.5575 77.7685 47.5176 77.6946C47.3592 77.4026 47.1051 77.3057 46.8599 77.3219C46.7536 77.3289 46.7249 77.7785 46.6982 77.5134C46.6962 77.4955 46.7874 77.2776 46.768 77.2458C46.7219 77.1733 46.6047 77.1824 46.5638 77.1509C46.4872 77.0896 46.472 77.0876 46.3889 77.0603C46.3433 77.0444 46.2989 77.0102 46.2526 76.9758C46.1883 76.926 46.1201 76.8758 46.0386 76.8849C46.0093 76.8889 45.9757 77.1299 45.9228 77.157C45.87 77.1841 45.7649 77.132 45.743 77.0664C45.7212 77.0009 45.7905 76.8241 45.796 76.7805C45.8414 76.4124 45.5773 76.8632 45.5567 76.8702C45.1999 76.9883 45.0242 76.6362 44.7434 76.5553C44.5228 76.4924 44.2801 76.5211 44.0768 76.4485C43.8337 76.3609 43.6761 76.1795 43.4303 76.1317C43.4046 76.1265 43.3555 76.4069 43.3239 76.401C42.9964 76.3406 42.6793 76.2171 42.417 75.9427C42.3905 75.9149 42.5003 75.688 42.4779 75.6459C42.3408 75.3939 42.1571 74.8307 41.7465 75.8383C41.6265 75.7599 41.4769 75.6716 41.4168 75.4275C41.378 75.2703 41.528 75.0318 41.4007 75.1154C41.372 75.134 41.3347 75.3699 41.2967 75.3805C41.1383 75.4253 41.0157 75.3101 40.8487 75.3896C40.8147 75.4064 40.7636 75.6127 40.7454 75.6472C40.5958 75.9266 40.6288 75.4035 40.6154 75.3609C40.5099 75.0421 40.3554 75.1115 40.1911 75.0575C40.1531 75.0449 40.1201 75.3322 40.0808 75.3299C39.8788 75.3147 39.6805 75.2326 39.5315 75.0584C39.498 75.0188 39.6028 74.796 39.5902 74.7651C39.5336 74.6318 39.3881 75.0677 39.331 74.9482C39.3187 74.9236 39.3858 74.7264 39.3888 74.7035C39.4364 74.3441 39.2526 74.8201 39.2364 74.8272C39.0287 74.9274 39.0648 74.386 38.8872 74.4135C38.8657 74.4172 38.8363 74.6826 38.78 74.6777C38.4044 74.6462 38.0416 74.4678 37.7468 74.165C37.7004 74.1182 37.7939 73.9392 37.7971 73.9147C37.8446 73.5322 37.6683 74.0127 37.6449 74.0261C37.4646 74.1186 37.4472 73.6688 37.1865 74.2266C36.6452 73.8536 35.9529 74.012 35.5053 73.3192C35.4995 73.311 35.5815 73.073 35.5696 73.0577C35.4267 72.8706 35.355 73.2563 35.1045 73.6819C35.0414 73.7887 35.106 73.2075 35.1093 73.1645C35.1219 73.0061 35.2548 72.6551 35.253 72.6232C35.2347 72.3718 34.9114 73.5655 34.7993 73.5342C34.7964 73.5312 34.8731 73.3164 34.8698 73.292C34.86 73.2153 34.8063 73.2941 34.799 73.2106C34.784 73.018 34.9247 72.4333 34.7308 72.7419C34.706 72.782 34.5341 73.4624 34.4442 73.4025C34.4086 73.3781 34.2303 73.3402 34.1934 73.2825C34.1566 73.2249 34.2518 73.0169 34.251 73.0065C34.1998 72.6814 34.2837 72.5764 34.3376 72.1317C34.391 71.6886 34.1234 72.7057 34.0643 72.811C34.0054 72.916 33.9742 72.6509 33.9744 72.5618C33.9742 72.4726 34.0427 72.3427 34.0349 72.2901C33.9817 71.9455 33.8317 72.7751 33.7404 72.9227C33.5245 73.2723 33.6518 72.4979 33.5728 72.3962C33.5514 72.3687 33.5252 72.5459 33.4966 72.5551C33.3841 72.5892 33.3928 72.3388 33.2233 72.5228C33.1956 72.5527 32.9801 72.979 33.0164 72.6318C33.0218 72.5818 33.0974 72.4012 33.0687 72.3478C33.0262 72.268 32.9291 72.1964 32.8465 72.2406C32.7855 72.2733 32.7535 72.597 32.7201 72.4842C32.7053 72.4339 32.806 72.2676 32.7739 72.1881C32.7422 72.1087 32.6113 72.0803 32.5605 72.0727C32.5098 72.0653 32.4706 72.3066 32.4622 72.3212C32.4128 72.4047 32.287 72.4909 32.2787 72.4882C31.8503 72.3982 31.5802 71.8967 31.1334 71.9115C31.0989 71.9125 31.0506 72.165 31.0446 72.1677C30.9067 72.2403 31.1772 71.609 31.163 71.3682C31.033 71.8716 31.0137 71.7683 30.9214 71.8016C30.8768 71.818 30.8424 72.0174 30.8334 72.0363C30.6956 72.315 30.7644 71.9242 30.7765 71.8437C30.8206 71.5474 30.6858 71.8742 30.7148 71.676C30.7434 71.4793 30.8798 71.2141 30.8048 71.1969C30.7336 71.3701 30.6567 71.8536 30.5792 71.9137C30.2861 72.1408 29.9943 71.6623 29.8356 71.5765C29.6766 71.4906 29.6123 71.5082 29.5314 71.4155C29.385 71.248 29.353 71.6138 29.1967 71.7414C29.0401 71.8688 29.3351 71.0297 29.3707 70.8415C29.4067 70.6535 29.3365 70.8377 29.3454 70.7313C29.3544 70.625 29.4315 70.5119 29.3966 70.4612C29.3616 70.4105 29.1448 70.702 29.0745 70.8895C28.9258 71.2867 28.8621 71.7297 28.7832 71.5455C28.7787 71.5347 28.8645 71.3164 28.8442 71.2861C28.6812 71.0536 28.4624 70.9805 28.2935 70.768C28.2705 70.7385 28.3667 70.4958 28.3541 70.4758C28.2231 70.2664 28.1675 70.7056 27.9394 71.1466C28.1361 70.5297 28.1899 70.1335 28.057 70.0921C27.9771 70.0671 27.9145 70.3431 27.8084 70.5202C27.7765 70.5737 27.772 70.3708 27.7256 70.4958C27.574 70.9046 27.4963 71.388 27.4101 71.1626C27.4065 71.1521 27.4902 70.9285 27.4731 70.9087C27.363 70.7799 27.2226 71.2126 27.0624 71.2247C26.9364 71.2342 26.8077 70.9102 26.6891 70.8301C26.8886 70.1303 26.72 70.256 26.5342 70.725C26.4548 70.6813 26.3553 70.6828 26.2918 70.593C26.2698 70.5623 26.3454 70.3647 26.348 70.3417C26.3898 69.9826 26.2214 70.4423 26.1979 70.4556C25.9499 70.5792 25.8884 70.1777 25.6012 70.4726C25.591 70.4833 25.4435 70.9669 25.4926 70.5973C25.4961 70.5719 25.6209 70.368 25.5365 70.3259C25.4523 70.2838 25.3561 69.9754 25.1701 70.1664C25.1251 70.2124 24.9388 70.5863 24.9647 70.2606C24.9684 70.2164 25.0163 70.0793 25.0265 69.9984C25.0582 69.7403 24.8996 70.2264 24.9725 69.7961C25.0453 69.3658 25.0408 69.0269 24.8351 69.2802C24.8287 69.2875 24.6899 69.6691 24.6523 69.6519C24.5925 69.6242 24.5262 69.518 24.4599 69.5021C24.4281 69.4947 24.3803 69.7424 24.3736 69.7453C24.125 69.8219 24.0365 69.5644 23.8372 69.4075C23.8008 69.3782 23.5894 69.6751 23.5824 69.3916C23.5745 69.0812 23.998 67.9179 23.7162 68.1444C23.6025 68.2347 23.0777 69.714 23.1502 68.8917C22.8125 69.0059 22.6612 68.5323 22.2989 68.729C22.2827 68.7377 22.1245 69.1473 22.096 69.1331C22.054 69.1113 22.0846 68.9077 22.0564 68.8858C21.9394 68.7892 21.7699 68.9233 21.6483 68.861C21.602 68.8378 21.676 68.6391 21.6208 68.6114C21.5655 68.5839 21.4516 68.8409 21.4086 68.6893C21.3765 68.574 21.4697 68.0097 21.4085 67.9238C21.2544 68.463 21.2031 68.4367 21.0666 68.5522C21.0403 68.5746 21.0076 68.7682 20.9925 68.7885C20.9296 68.8754 20.9401 68.7103 20.8766 68.8063C20.8612 68.8293 20.8092 69.0136 20.7938 69.0428C20.6603 69.2983 20.6817 68.857 20.6857 68.7802C20.7001 68.4885 20.6038 68.7202 20.5862 68.5988C20.5686 68.4774 20.6778 68.3623 20.6404 68.2812C20.5627 68.1133 20.4055 68.1014 20.2904 68.0601C20.2443 68.0448 20.2073 68.2999 20.1991 68.3034C20.0849 68.3388 20.0603 68.0495 19.8695 68.5249C20.1569 67.2382 19.7767 68.6316 19.7092 68.339C19.7041 68.3154 19.8579 67.7119 19.9244 67.6356C19.9908 67.5594 20.0019 67.7646 20.0983 67.6436C20.1211 67.6152 20.357 67.0754 20.3773 67.0444C20.5358 66.8019 20.2971 67.7013 20.2878 67.7517C20.1898 68.297 20.4553 67.7186 20.4925 67.6839C20.6623 67.5247 20.7257 67.6783 20.8611 67.5687C20.9493 67.498 21.1197 66.9129 21.1645 66.9448C21.3136 67.0505 21.1423 67.8854 21.4969 67.2192C21.5727 67.0771 21.719 66.4263 21.6976 66.9643C21.6962 66.9981 21.6562 67.4845 21.7895 67.2071C21.8062 67.1721 21.8583 66.9851 21.8713 66.9718C21.9569 66.8862 21.9534 67.0458 22.0357 66.9919C22.1179 66.938 22.2225 66.8526 22.2759 66.9359C22.3081 66.9858 22.2655 67.3495 22.2621 67.4405C22.2512 67.7024 22.4259 67.317 22.3785 67.6245C22.3309 67.9335 22.1332 68.3678 22.1738 68.5875C22.3133 68.1028 22.4609 67.6065 22.6033 67.1196C22.8055 67.1947 22.967 67.4093 23.1814 67.4462C23.2082 67.4503 23.2549 67.1818 23.2854 67.1794C23.414 67.1707 23.4639 67.3854 23.6057 67.3452C23.7159 67.3131 23.8956 67.0653 24.0135 67.0232C23.9179 67.5958 24.1167 67.448 24.2083 67.5285C24.2404 67.5564 24.1964 67.7042 24.2092 67.76C24.2584 67.9669 24.3494 67.4628 24.3983 67.3931C24.6077 67.096 24.3062 68.2104 24.4515 68.2215C24.4591 68.2225 24.7143 67.6549 24.7369 67.6215C24.8823 67.4027 24.692 67.8313 24.7285 67.8888C24.7949 67.9937 24.8177 68.1527 24.9713 68.0086C25.0163 67.9657 25.1932 67.617 25.1725 67.9193C25.1698 67.9589 25.1106 68.1535 25.1137 68.1668C25.1738 68.3899 25.3494 67.7753 25.4728 67.5851C25.5962 67.395 25.5773 67.8479 25.5633 67.976C25.5278 68.3077 25.4845 68.0999 25.4729 68.1302C25.3352 68.4905 25.4262 68.4474 25.4732 68.4943C25.3121 69.0999 25.4002 69.0856 25.5226 68.5405C25.5359 68.4809 25.4767 68.525 25.4732 68.4943C25.6882 67.916 25.7952 67.8643 25.7346 68.444C25.7062 68.7157 25.5794 69.0062 25.7458 68.9336C25.8212 68.9009 25.914 68.4788 26 68.3807C26.1963 68.157 26.2481 68.5896 26.3924 68.5643C26.4448 68.555 26.4637 68.315 26.5017 68.3009C26.6027 68.2627 26.6285 68.454 26.737 68.3901C26.7469 68.3841 26.7951 68.1408 26.8221 68.1451C27.0273 68.1729 27.1591 68.3744 27.3649 68.4367C27.4645 68.4667 27.68 68.3856 27.7759 68.4411C27.9416 68.5354 28.0679 68.9443 28.2447 68.9033C28.36 68.8776 28.4049 68.6334 28.4934 68.4832C28.6646 68.1921 28.6525 68.7964 28.6477 68.8891C28.6475 68.8922 28.5457 68.9241 28.5573 69.0592C28.5124 69.3213 28.6464 68.8899 28.6477 68.8891C28.6448 68.9491 28.8011 69.0513 28.8478 69.0153C28.8734 68.9957 28.9264 68.7672 28.9386 68.7613C29.2266 68.6244 29.4737 68.632 29.6769 68.803C29.6797 68.8087 29.6025 69.0592 29.6101 69.0695C29.7135 69.2197 29.8853 68.9349 30.0493 68.7833C30.2128 68.6317 30.2841 68.718 30.2283 69.1697C30.3279 69.1388 30.3947 69.3642 30.4313 69.4999C30.4678 69.6356 30.6157 69.1472 30.6245 69.1393C30.9019 68.882 30.9321 69.1939 31.1187 69.2936C31.2069 69.3418 31.4135 69.3231 31.5301 69.298C31.6226 69.2774 31.6384 69.406 31.7329 69.3532C31.7457 69.3462 31.7972 69.1248 31.8026 69.1172C31.9586 68.8788 31.7685 69.4021 31.7585 69.5024C31.7222 69.8668 31.7082 70.0624 31.8608 69.9292C31.8959 69.8987 32.1842 69.1493 32.2416 69.1169C32.3157 69.0761 32.2161 69.3458 32.2956 69.2961C32.3024 69.2921 32.3493 69.1216 32.3846 69.1397C32.5493 69.2213 32.7101 69.3735 32.8941 69.407C32.9191 69.4123 32.9636 69.1334 33.0014 69.1367C33.1787 69.1522 33.3596 69.214 33.4865 69.3862C33.5175 69.4295 33.4391 69.6113 33.432 69.6699C33.3895 70.0244 33.6042 69.5525 33.6193 69.5466C33.9808 69.3927 34.0882 69.905 34.4504 69.7779C34.4705 69.7701 34.7467 69.2772 34.675 69.7466C34.6703 69.7779 34.595 70.2576 34.7339 69.9543C34.7427 69.9353 34.775 69.6866 34.8294 69.7282C34.8841 69.7699 35.0282 69.6384 35.0383 69.9247C35.0416 70.0149 34.9738 70.4955 35.1574 70.149C35.1699 70.1247 35.5282 69.3252 35.409 69.913C35.3892 70.0098 35.2096 70.6167 35.3922 70.3311C35.4273 70.2757 35.433 70.1306 35.5044 70.0592C35.6143 69.949 35.663 70.139 35.831 69.8935C35.8603 69.85 36.0444 69.4556 36.0093 69.7845C36.0038 69.836 35.9303 70.0348 35.9522 70.0656C36.0561 70.2129 36.2351 70.1167 36.3309 70.2958C36.3649 70.3588 36.2473 70.6805 36.2723 70.7828C36.2977 70.8851 36.3729 70.9979 36.4694 70.8629C36.5651 70.7277 36.6555 70.1875 36.7469 70.1681C37.1456 70.0845 37.3898 70.4857 37.7247 70.6293C37.7738 70.6505 37.7848 70.4511 37.8608 70.4688C38.1399 70.533 38.6671 70.4929 38.7934 70.9592C38.8939 71.3325 38.5844 71.5069 38.6934 71.6781C38.7462 71.7601 38.9952 71.1728 39.0175 71.1585C39.2385 71.0109 39.281 71.3145 39.4544 71.2745C39.4903 71.2661 39.5301 71.0107 39.5599 71.0064C39.6623 70.9893 39.7253 71.1263 39.8165 71.1305C39.8576 71.1318 39.9042 70.9414 39.9353 70.9659C40.0093 71.0223 40.064 71.1236 40.0971 71.3239C40.1001 71.3422 39.9819 71.5619 40.0428 71.5887C40.1416 71.6314 40.2187 71.8418 40.3866 71.6952C40.4367 71.6509 40.561 71.2207 40.5503 71.5393C40.5481 71.6058 40.3808 72.1172 40.5945 71.6951C40.6293 71.6247 40.9488 71.0643 40.9105 71.4734C40.9004 71.5811 40.8282 72.0181 40.8892 71.9636C40.8979 71.9546 40.9412 71.7168 40.9824 71.7042C41.1265 71.6637 41.2471 71.7249 41.392 71.688C41.4308 71.6777 41.4499 71.4242 41.5055 71.4165C41.6582 71.3947 41.817 71.5061 41.929 71.6192C41.9705 71.6615 41.8795 71.8499 41.877 71.8725C41.8344 72.2399 42.0041 71.7761 42.0311 71.754C42.1982 71.623 42.221 71.8702 42.3511 71.8438C42.3864 71.837 42.4293 71.605 42.4412 71.5866C42.5612 71.4081 42.3976 71.8 42.4249 71.8562C42.5011 72.015 42.6307 72.0326 42.751 72.0359C42.7952 72.0368 42.8242 71.7617 42.863 71.7655C43.0903 71.782 43.3201 71.8752 43.4905 72.0805C43.5227 72.1197 43.4394 72.3139 43.4346 72.3624C43.3995 72.701 43.6098 72.2859 43.6412 72.2496C43.7832 72.0836 43.7695 72.2727 43.858 72.2621C44.2899 72.2073 44.7327 72.4631 45.0697 72.6398C45.5193 72.8719 45.8276 73.1693 46.292 73.251C46.3219 73.2566 46.3709 72.9803 46.3976 72.9817C46.7345 73.0101 47.024 73.2085 47.3586 73.2232C47.3586 73.2232 47.3587 73.2232 47.3587 73.2232C47.3875 73.2253 47.4233 72.9601 47.4719 72.955C47.5722 72.9426 47.6788 72.989 47.7416 73.0957C47.7723 73.1472 47.6513 73.3481 47.6835 73.3955C47.7575 73.5061 47.8582 73.5556 47.9755 73.5461C48.025 73.5414 48.0354 73.2623 48.0936 73.2764C48.4793 73.3629 48.8876 73.4363 49.1707 73.8877C49.1903 73.9188 49.0565 74.4526 49.1448 74.3692C49.1934 74.2245 49.2451 74.0527 49.2943 73.8972C49.8865 73.9847 50.3878 74.3378 50.953 74.548C50.9773 74.5569 51.0229 74.2658 51.0703 74.2817C51.3363 74.3707 51.6334 74.3818 51.8252 74.7508C51.8442 74.787 51.6673 75.2681 51.7729 75.2218C51.7932 75.2136 51.9407 75.1913 52.0073 75.0966C52.017 75.0821 52.0719 74.8481 52.1135 74.855C52.3638 74.9023 52.6018 75.0437 52.8133 75.2814C52.8467 75.32 52.7105 75.5405 52.733 75.5699C52.8896 75.7766 53.2149 75.6955 53.4136 76.063C53.5433 76.3137 53.2499 76.6555 53.1049 77.0751C53.0848 77.1342 53.1686 77.2036 53.023 77.4101C52.6609 77.9306 52.2363 78.4807 51.8554 79.0391C51.764 79.1524 51.9243 79.0751 51.6764 79.3299C51.6537 79.3424 51.5689 79.4256 51.5117 79.5311C51.4691 79.6019 51.3194 79.8103 51.2711 79.905C51.2261 80.0016 51.354 79.8281 51.3039 79.9424C51.2535 80.0582 51.1131 80.3141 51.1158 80.3545ZM30.5965 70.1068C30.594 70.3606 30.8466 69.4996 30.7193 69.6868C30.7128 69.6968 30.5964 70.0943 30.5965 70.1068ZM22.7831 68.0606C22.7605 68.4653 22.975 67.921 22.9981 67.6101C23.0211 67.2995 22.7898 67.9379 22.7831 68.0606ZM21.834 68.095C21.8481 68.423 22.2066 67.202 22.032 67.4202C22.022 67.4325 21.8331 68.0759 21.834 68.095ZM52.6861 76.9876C52.6827 76.999 52.7376 77.038 52.7437 77.028C52.9028 76.7882 52.7844 76.7061 52.6861 76.9876ZM20.8846 68.1559C20.8689 68.3303 21.0106 68.1636 21.0302 67.9469C21.046 67.7725 20.9041 67.9391 20.8846 68.1559ZM33.6892 71.974C33.6866 71.9871 33.7205 72.0092 33.7403 71.9363C33.804 71.7013 33.7335 71.7528 33.6892 71.974ZM19.4108 67.759C19.6152 67.8659 19.4638 68.9149 19.2592 68.7345C19.2222 68.7019 19.4418 68.4376 19.4128 68.331C19.3595 68.1369 19.1155 68.7539 19.1089 68.3849C19.1079 68.3174 19.3998 67.7506 19.4116 67.7577C19.4113 67.7581 19.4111 67.7585 19.4108 67.759ZM30.3412 71.1546C30.3391 71.1663 30.3879 71.1918 30.3924 71.1808C30.4976 70.9145 30.3995 70.8631 30.3412 71.1546ZM35.7091 73.122C35.7048 73.147 35.8178 73.2036 35.8284 73.1824C36.0178 72.7519 35.7893 72.6361 35.7091 73.122ZM26.6923 70.8108C26.5586 71.0709 26.4821 71.0845 26.5344 70.7254C26.5852 70.7595 26.6408 70.778 26.6923 70.8108Z" fill="#66033C"/>
</svg>
