<svg width="25" height="21" viewBox="0 0 25 21" fill="none" xmlns="http://www.w3.org/2000/svg">
<path d="M3.75288 7.13626C3.93225 7.22671 4.02857 7.46751 4.06771 7.68942C4.07946 7.75778 3.93906 7.83834 3.94208 7.89059C3.94951 7.99425 4.05668 7.99943 4.05355 8.10897C4.05197 8.14584 3.83884 8.28424 3.84158 8.31917C3.85792 8.50932 4.003 8.58014 4.06197 8.73159C4.36208 9.48945 4.78399 10.1352 5.19453 10.8112C5.33166 11.0358 5.35329 11.4221 5.60034 11.5669C5.62945 11.5838 5.78897 11.4295 5.80688 11.4227C6.08236 11.3191 5.71634 11.5765 5.70859 11.661C5.67927 11.996 5.83105 12.2164 6.04333 12.345C6.13366 12.3987 6.41478 12.0471 6.28445 12.2788C6.27575 12.2946 6.07674 12.4216 6.07407 12.4584C6.06834 12.5414 6.17405 12.6067 6.18939 12.6559C6.21731 12.7505 6.22843 12.7607 6.28019 12.8303C6.34943 12.9269 6.34559 13.1104 6.46557 13.1771C6.49182 13.191 6.65889 13.014 6.71792 13.0229C6.77693 13.0318 6.83209 13.1354 6.81139 13.2011C6.79061 13.2667 6.63123 13.37 6.60128 13.4021C6.34708 13.6712 6.82822 13.4641 6.84879 13.4702C7.2096 13.5866 7.14408 13.9754 7.32144 14.2075C7.45746 14.3845 7.6762 14.5167 7.79276 14.695C7.93053 14.9075 7.95266 15.1572 8.11542 15.3423C8.1324 15.362 8.34312 15.1707 8.36438 15.1945C8.58974 15.4479 8.76123 15.74 8.79862 16.125C8.80214 16.1637 8.57399 16.2713 8.56528 16.3184C8.54348 16.4458 8.48803 16.6248 8.51785 16.7379C8.40262 16.6025 8.21256 16.5254 8.16228 16.4292C8.09145 16.3245 8.028 16.1562 7.94042 15.868C7.83667 15.9388 7.93339 15.9614 8.10082 16.1148C8.21694 16.2111 8.298 16.4761 8.31203 16.3351C8.31413 16.3041 8.17662 16.1099 8.1851 16.081C8.2154 15.9628 8.37194 15.9525 8.39388 15.7874C8.39734 15.7539 8.27014 15.5836 8.25308 15.5489C8.11372 15.2683 8.48679 15.63 8.5281 15.6456C8.8325 15.7651 8.85432 15.6094 8.98326 15.515C9.01327 15.493 8.80048 15.298 8.8226 15.2692C8.94747 15.1159 9.09284 15.0261 9.31874 14.9992C9.36903 14.994 9.49837 15.2033 9.53064 15.2101C9.67123 15.2377 9.38912 14.8748 9.51465 14.8969C9.54064 14.9011 9.67049 15.064 9.68785 15.0791C9.96073 15.317 9.65774 14.9066 9.65952 14.8901C9.67706 14.6701 10.1096 14.995 10.1826 14.8276C10.1908 14.8072 9.98096 14.6422 10.0149 14.597C10.2197 14.3129 10.5571 14.096 10.9541 14.0076C11.0167 13.9925 11.1247 14.1628 11.1441 14.178C11.4491 14.4134 11.1231 14.0188 11.1229 13.9924C11.1314 13.7924 11.5288 14.0032 11.1719 13.5023C11.7517 13.2322 11.9411 12.5593 12.75 12.5117C12.7599 12.5106 12.9298 12.6964 12.9488 12.6934C13.1792 12.6597 12.8753 12.4117 12.6187 11.9905C12.5542 11.8848 13.0338 12.219 13.0701 12.2423C13.2033 12.3288 13.4493 12.6121 13.4782 12.6258C13.7075 12.7297 12.8119 11.8768 12.8886 11.7971C12.8925 11.796 13.0459 11.9648 13.0687 11.9738C13.14 12.0023 13.095 11.9187 13.1712 11.9526C13.3469 12.0316 13.7959 12.4317 13.614 12.1164C13.5902 12.0757 13.0713 11.6033 13.1648 11.5538C13.2025 11.5345 13.3174 11.3974 13.3851 11.3923C13.4526 11.3874 13.5922 11.5685 13.6017 11.5727C13.9118 11.6808 13.9658 11.8036 14.3335 12.0594C14.7003 12.3135 13.9253 11.6025 13.8593 11.5017C13.7932 11.4013 14.0393 11.5004 14.1182 11.5419C14.197 11.5834 14.2804 11.7042 14.3304 11.722C14.6588 11.8367 13.9949 11.3174 13.906 11.1685C13.695 10.8167 14.3208 11.2898 14.4468 11.2676C14.4809 11.2616 14.3362 11.1562 14.341 11.1269C14.3618 11.0124 14.5794 11.1361 14.4934 10.9018C14.48 10.863 14.1979 10.4785 14.4883 10.6718C14.53 10.6997 14.6561 10.8495 14.716 10.8492C14.8057 10.849 14.9127 10.7967 14.9106 10.7037C14.909 10.635 14.6364 10.4577 14.7513 10.4804C14.8025 10.4906 14.9048 10.6556 14.9896 10.6641C15.0743 10.6727 15.1581 10.5705 15.1876 10.5293C15.2169 10.488 15.0202 10.3428 15.011 10.3287C14.959 10.247 14.9385 10.0968 14.9445 10.0907C15.2108 9.75972 15.7799 9.74552 15.9597 9.34718C15.9741 9.31623 15.7702 9.15967 15.7704 9.15317C15.766 8.9987 16.2102 9.52225 16.4313 9.61805C16.0394 9.27644 16.14 9.30581 16.1507 9.20929C16.1555 9.1625 15.9927 9.0424 15.9798 9.02598C15.7913 8.7789 16.1098 9.01547 16.1764 9.06226C16.4214 9.23437 16.1887 8.96842 16.3528 9.08304C16.5159 9.19662 16.6931 9.43624 16.7413 9.37756C16.6176 9.23691 16.2197 8.95199 16.1997 8.8566C16.1244 8.49599 16.6763 8.45335 16.8221 8.35004C16.9674 8.24738 16.9791 8.18267 17.0967 8.15209C17.3091 8.09677 16.9955 7.90641 16.9475 7.71209C16.8997 7.51758 17.5258 8.1491 17.6792 8.26381C17.8323 8.37863 17.6974 8.23494 17.789 8.28969C17.8806 8.34446 17.9488 8.46304 18.0094 8.45408C18.0701 8.44502 17.9019 8.12349 17.7637 7.97865C17.4709 7.67177 17.1009 7.42039 17.2995 7.43137C17.3111 7.43218 17.4704 7.60432 17.5062 7.59957C17.7844 7.5566 17.9414 7.39568 18.2044 7.33741C18.2408 7.32967 18.4181 7.52122 18.4415 7.51865C18.6858 7.49221 18.3143 7.25174 18.014 6.85663C18.4858 7.30026 18.8196 7.52023 18.9131 7.41927C18.9695 7.35877 18.7474 7.18329 18.6325 7.01204C18.5978 6.96049 18.7823 7.04437 18.6891 6.94896C18.3847 6.63689 17.9825 6.35803 18.2207 6.37966C18.2317 6.38107 18.398 6.55225 18.4229 6.54566C18.5848 6.5034 18.2534 6.19191 18.3098 6.04312C18.3541 5.92643 18.6997 5.95095 18.8207 5.87989C19.3692 6.358 19.3256 6.1536 18.9789 5.78743C19.0503 5.7362 19.0908 5.64565 19.1981 5.62733C19.2349 5.62082 19.3822 5.77259 19.4018 5.78467C19.7091 5.97499 19.3636 5.62813 19.3613 5.60148C19.3523 5.3264 19.7406 5.44166 19.5901 5.06097C19.5847 5.04733 19.2072 4.71101 19.5212 4.91154C19.5428 4.92546 19.6766 5.12297 19.7488 5.06567C19.8219 5.00736 20.1404 5.05105 20.0436 4.80307C20.0204 4.7432 19.7571 4.4192 20.0417 4.57912C20.0803 4.60094 20.1852 4.70144 20.2544 4.74445C20.4756 4.88099 20.0989 4.53522 20.4596 4.78082C20.8203 5.0264 21.1296 5.1638 20.9822 4.87398C20.9782 4.8652 20.6881 4.58103 20.7191 4.55411C20.7689 4.51132 20.8925 4.4953 20.9337 4.44206C20.9533 4.41648 20.7473 4.27077 20.7474 4.26354C20.7779 4.00765 21.0475 4.03449 21.2678 3.92166C21.3093 3.90044 21.1241 3.5867 21.3854 3.6962C21.6716 3.81567 22.5636 4.6741 22.47 4.32563C22.4332 4.18546 21.2908 3.10918 22.0115 3.51008C22.0393 3.15929 22.5366 3.20646 22.4936 2.80309C22.4918 2.785 22.1775 2.47859 22.201 2.45895C22.2361 2.4309 22.4123 2.53788 22.4434 2.52065C22.579 2.45048 22.5217 2.24261 22.6249 2.15705C22.6637 2.1243 22.8179 2.26971 22.8642 2.23069C22.9102 2.19158 22.7171 1.98761 22.8715 2.00919C22.9883 2.02677 23.4725 2.33126 23.5766 2.30649C23.1387 1.95613 23.1833 1.91839 23.1289 1.74824C23.1182 1.7154 22.9522 1.61077 22.9392 1.58901C22.8829 1.49786 23.0311 1.57121 22.9664 1.47625C22.9509 1.45337 22.8006 1.33476 22.7794 1.30941C22.5936 1.08937 22.9913 1.28026 23.0605 1.31349C23.3235 1.43954 23.1451 1.26328 23.2628 1.29474C23.3805 1.32617 23.4474 1.46839 23.5353 1.46635C23.7199 1.4584 23.7922 1.3144 23.8722 1.22471C23.9034 1.18801 23.6807 1.05825 23.6805 1.04937C23.6892 0.931585 23.9652 1.01825 23.5925 0.667183C24.6807 1.41137 23.5247 0.545612 23.8228 0.588556C23.8466 0.592374 24.3523 0.95599 24.3983 1.04668C24.4442 1.13732 24.2474 1.07466 24.3265 1.20595C24.345 1.23698 24.7603 1.65452 24.7815 1.68495C24.9481 1.92169 24.202 1.36563 24.1588 1.33804C23.6899 1.04313 24.1278 1.50476 24.1457 1.55258C24.2299 1.76933 24.0595 1.7755 24.1114 1.93998C24.1446 2.04686 24.6211 2.42681 24.5749 2.45565C24.421 2.55247 23.7161 2.07348 24.1937 2.65839C24.2952 2.78349 24.84 3.16862 24.3498 2.94405C24.3192 2.9295 23.8832 2.70823 24.0893 2.93598C24.1152 2.96489 24.2673 3.08546 24.2747 3.10242C24.321 3.21373 24.1756 3.14801 24.1936 3.24428C24.2116 3.34057 24.2493 3.47025 24.1515 3.48708C24.0928 3.49743 23.7746 3.31604 23.6921 3.27731C23.4554 3.16476 23.7403 3.47778 23.4759 3.31359C23.2103 3.14848 22.8896 2.79497 22.6711 2.74648C23.0614 3.06592 23.4591 3.39753 23.8501 3.72066C23.7024 3.87551 23.4436 3.93557 23.3228 4.11889C23.3082 4.14193 23.5358 4.29189 23.5255 4.32107C23.4813 4.44334 23.2623 4.40573 23.2441 4.54924C23.2299 4.662 23.3841 4.92648 23.3749 5.05133C22.8901 4.73205 22.9447 4.97348 22.8331 5.02543C22.7943 5.04374 22.6773 4.94333 22.6209 4.9325C22.4111 4.89403 22.8347 5.18231 22.8781 5.25559C23.0649 5.56676 22.171 4.83627 22.1026 4.96287C22.0987 4.96925 22.5122 5.43414 22.5334 5.46857C22.6733 5.69085 22.3605 5.3415 22.2932 5.35113C22.1701 5.36872 22.0163 5.32352 22.0843 5.52291C22.1048 5.58154 22.3492 5.88695 22.0821 5.74362C22.0471 5.72487 21.8943 5.59049 21.881 5.58785C21.6531 5.55024 22.1408 5.96325 22.263 6.15412C22.3853 6.34479 21.9813 6.13936 21.8706 6.07329C21.5839 5.90297 21.7905 5.95032 21.7678 5.92722C21.4969 5.65263 21.4989 5.75272 21.4369 5.77571C20.9532 5.37736 20.93 5.4629 21.3746 5.80118C21.4233 5.83802 21.4076 5.76604 21.4369 5.77571C21.8737 6.21132 21.876 6.33053 21.3742 6.03382C21.1391 5.89468 20.928 5.65827 20.9251 5.8391C20.9235 5.92105 21.2681 6.18188 21.3212 6.30099C21.4413 6.57391 21.0298 6.43615 20.9925 6.57728C20.979 6.6284 21.1887 6.74673 21.1856 6.78699C21.178 6.8944 20.9938 6.83708 21.0059 6.96234C21.0072 6.97389 21.2074 7.12026 21.1921 7.14292C21.0796 7.31801 20.842 7.35117 20.6995 7.50921C20.6306 7.58591 20.6124 7.81507 20.5212 7.8783C20.3641 7.98896 19.9424 7.92545 19.9044 8.10157C19.8786 8.21608 20.0795 8.36189 20.1771 8.50627C20.3663 8.78599 19.8262 8.51443 19.7448 8.46987C19.7422 8.46835 19.7571 8.36296 19.6303 8.31493C19.4134 8.16116 19.7446 8.46834 19.7448 8.46987C19.692 8.44134 19.5323 8.53795 19.5444 8.59573C19.5511 8.62723 19.734 8.774 19.7342 8.78751C19.7337 9.1053 19.6203 9.32336 19.3778 9.43156C19.3714 9.43159 19.1797 9.2528 19.1672 9.25506C18.9873 9.28213 19.1674 9.56197 19.2325 9.77493C19.2977 9.98775 19.1887 10.014 18.8079 9.765C18.792 9.8677 18.5605 9.82802 18.4228 9.80075C18.2851 9.77347 18.658 10.1218 18.6612 10.1332C18.7693 10.4959 18.4763 10.3849 18.3051 10.5066C18.2229 10.564 18.1479 10.757 18.1183 10.8726C18.0955 10.9645 17.9733 10.9212 17.9782 11.0294C17.9788 11.0439 18.1538 11.1891 18.1581 11.1973C18.3013 11.4437 17.9186 11.0393 17.8334 10.9855C17.5237 10.7899 17.3554 10.6894 17.4072 10.8843C17.4192 10.9288 17.959 11.5233 17.962 11.5892C17.9649 11.6739 17.769 11.4635 17.7775 11.557C17.778 11.5648 17.9091 11.6834 17.877 11.7069C17.7296 11.8176 17.5207 11.8926 17.4071 12.0417C17.3911 12.0617 17.6192 12.2279 17.5994 12.2599C17.5075 12.4083 17.3669 12.5447 17.1556 12.579C17.1028 12.587 16.9769 12.434 16.9281 12.4009C16.6321 12.2011 16.9534 12.6081 16.9516 12.6243C16.9209 13.0182 16.4189 12.8753 16.3615 13.2575C16.3592 13.2789 16.6667 13.7533 16.2841 13.4719C16.2585 13.4533 15.8688 13.1637 16.0724 13.4279C16.0852 13.4444 16.2901 13.5891 16.2281 13.6175C16.1664 13.6459 16.2161 13.834 15.957 13.7105C15.8753 13.6716 15.4821 13.3871 15.7015 13.7122C15.7173 13.7345 16.2537 14.4276 15.7905 14.0464C15.7144 13.9836 15.2633 13.5396 15.429 13.8354C15.4613 13.8926 15.5867 13.9659 15.6158 14.0628C15.6608 14.2119 15.4692 14.1663 15.6074 14.429C15.6322 14.4751 15.8921 14.8243 15.6179 14.6386C15.5751 14.6095 15.4352 14.4502 15.3973 14.4553C15.2166 14.4787 15.2142 14.6836 15.0099 14.6833C14.9379 14.6834 14.7119 14.426 14.6099 14.3993C14.508 14.3726 14.372 14.3854 14.4452 14.5334C14.5184 14.6817 14.948 15.0214 14.9215 15.1103C14.7938 15.5091 14.3249 15.5268 14.0276 15.7546C13.9839 15.7879 14.1528 15.8949 14.0982 15.9539C13.9009 16.1692 13.6582 16.6585 13.1862 16.5355C12.8111 16.4346 12.8214 16.0767 12.6173 16.0844C12.5197 16.0883 12.8972 16.6022 12.8966 16.63C12.8999 16.9049 12.6157 16.7864 12.5558 16.9587C12.5435 16.9943 12.7413 17.1608 12.7288 17.1892C12.6863 17.2888 12.5391 17.2683 12.4795 17.3506C12.4536 17.3875 12.5911 17.5274 12.5509 17.5433C12.4563 17.5831 12.3381 17.5784 12.1477 17.502C12.1304 17.4949 12.0101 17.2758 11.9526 17.3147C11.8576 17.3804 11.6469 17.3245 11.6623 17.5586C11.669 17.6273 11.9596 17.9681 11.6926 17.7897C11.6368 17.7524 11.3049 17.3289 11.5314 17.7462C11.5697 17.8151 11.845 18.403 11.5243 18.144C11.4393 18.0765 11.1211 17.7687 11.1241 17.8557C11.1258 17.8686 11.2999 18.0369 11.282 18.0819C11.2161 18.2373 11.0807 18.3127 11.011 18.4622C10.9924 18.5027 11.1916 18.6632 11.1585 18.7176C11.0626 18.8716 10.8285 18.9664 10.6421 19.0011C10.5722 19.0143 10.4914 18.8193 10.4745 18.8037C10.2108 18.5427 10.4372 18.9842 10.43 19.0236C10.3692 19.2709 10.1336 19.1462 10.0052 19.2915C9.96161 19.3352 10.1147 19.5182 10.1147 19.5423C10.1018 19.7845 9.97955 19.3695 9.88755 19.3672C9.62199 19.3583 9.44716 19.4787 9.05125 19.6377C8.91137 19.691 9.15431 19.9041 9.01689 19.9504C8.82096 20.0139 8.41459 20.1322 7.81713 20.0803C7.34912 20.0913 6.08476 19.6036 5.59576 18.7683C5.5594 18.6771 5.53951 18.575 5.54071 18.4607C5.54161 18.412 5.72736 18.3116 5.76181 18.2773C6.00305 18.0378 5.5813 18.233 5.53485 18.2428C5.32244 18.2869 5.45417 18.1521 5.38135 18.1096C5.02361 17.9044 4.85032 17.4586 4.69779 17.1265C4.49877 16.6953 4.43839 16.2856 4.12405 15.9623C4.10435 15.9417 3.90083 16.1347 3.88106 16.1192C3.63537 15.9107 3.52989 15.5985 3.27055 15.4001C3.24959 15.3834 3.06529 15.5768 3.02473 15.5556C2.94011 15.5134 2.88443 15.42 2.89714 15.3003C2.90275 15.242 3.11572 15.1452 3.1175 15.0891C3.12196 14.958 3.07015 14.863 2.97369 14.8104C2.93221 14.7884 2.76174 15.0082 2.72436 14.9666C2.46315 14.6837 2.19048 14.4217 2.21507 13.8995C2.21659 13.8634 2.62634 13.4961 2.50849 13.5188C2.38791 13.6124 2.24944 13.7265 2.1223 13.8287C1.69762 13.4506 1.48982 12.9045 1.14462 12.4505C1.13006 12.4314 0.934286 12.651 0.905039 12.6152C0.737156 12.41 0.505385 12.2619 0.548149 11.8661C0.55181 11.8268 0.950485 11.5045 0.839203 11.4936C0.818903 11.4916 0.690049 11.446 0.583679 11.4928C0.568121 11.5004 0.400962 11.673 0.36987 11.6474C0.196644 11.5007 0.0784822 11.2791 0.0414398 11.0113C0.0349729 10.9668 0.254684 10.8318 0.251808 10.7987C0.234735 10.571 -0.0504625 10.5356 0.00764322 10.2465C0.0447582 10.0494 0.412222 9.80196 0.70193 9.47322C0.742029 9.42595 0.69959 9.36029 0.891002 9.19606C1.37138 8.78209 1.92607 8.36304 2.43525 7.91837C2.54425 7.82184 2.36878 7.85619 2.67154 7.67C2.6915 7.65721 2.82278 7.63217 2.92555 7.56894C2.99633 7.5249 3.17896 7.34362 3.27527 7.29405C3.37246 7.24565 3.2219 7.40058 3.34227 7.35075C3.46343 7.29943 3.67545 7.09842 3.75288 7.13626ZM17.8062 9.67972C17.58 9.5648 18.2399 10.1729 18.1285 9.97587C18.1223 9.96562 17.8175 9.68523 17.8062 9.67972ZM22.9182 3.5086C22.5566 3.32597 22.9702 3.73971 23.246 3.88498C23.5218 4.02984 23.028 3.56375 22.9182 3.5086ZM23.2573 2.62755C22.9507 2.51129 23.9339 3.31907 23.8011 3.07325C23.7937 3.05923 23.2751 2.63425 23.2573 2.62755ZM0.988694 9.62064C0.997043 9.61207 0.970971 9.56354 0.961269 9.57035C0.725591 9.73314 0.778048 9.83026 0.988694 9.62064ZM23.5623 1.73475C23.4076 1.65308 23.5084 1.84654 23.7009 1.94799C23.8559 2.02938 23.7549 1.83606 23.5623 1.73475ZM14.7674 11.5662C14.7569 11.5577 14.7219 11.5773 14.7774 11.6286C14.9562 11.7939 14.9429 11.7078 14.7674 11.5662ZM24.4682 0.525015C24.2985 0.672993 23.3774 0.148754 23.6149 0.0295427C23.6578 0.00794049 23.8279 0.304414 23.9366 0.317269C24.1355 0.339512 23.6448 -0.10654 23.9877 0.0244977C24.0507 0.0481091 24.4802 0.517526 24.4692 0.526198C24.4689 0.525806 24.4685 0.525408 24.4682 0.525015ZM16.9802 8.98649C16.9705 8.97953 16.9268 9.01113 16.9347 9.01995C17.1271 9.23195 17.2153 9.16825 16.9802 8.98649ZM12.8276 12.783C12.8075 12.7674 12.7064 12.8364 12.7203 12.8555C13.0079 13.2274 13.2143 13.0878 12.8276 12.783ZM18.8367 5.891C18.6574 5.66028 18.6763 5.58675 18.9785 5.78739C18.927 5.81786 18.8875 5.85929 18.8367 5.891Z" fill="#66033C"/>
</svg>
