<svg width="226" height="164" viewBox="0 0 226 164" fill="none" xmlns="http://www.w3.org/2000/svg">
<path d="M144.257 162.876C144.156 162.888 144.056 162.892 143.956 162.897C142.96 162.953 142.009 162.546 141.632 161.716C142.398 162.094 143.201 162.437 144.005 162.775C144.089 162.808 144.173 162.842 144.257 162.876ZM135.79 92.6246C135.731 92.6321 134.375 94.0453 134.359 94.1123C134.284 95.4586 137.059 92.5762 135.79 92.6246ZM153.798 109.544C153.798 109.544 153.91 108.68 153.887 108.653C153.406 108.145 153.221 109.868 153.798 109.544ZM23.9121 137.254C27.4262 136.976 29.9528 138.467 25.966 138.831C25.2474 138.882 27.4213 138.021 26.4943 137.966C24.8206 137.87 23.8364 139.173 22.1003 138.68C21.7886 138.593 23.7187 137.265 23.922 137.242L23.9121 137.254ZM160.301 66.4818C160.301 66.4818 159.794 66.8647 159.899 66.96C160.223 67.2624 160.786 66.61 160.301 66.4818ZM48.2064 136.185C48.692 136.525 50.1715 136.243 49.5661 135.812C49.0672 135.468 47.5994 135.76 48.2064 136.185ZM30.1545 126.676C30.1545 126.676 29.9065 127.523 29.9285 127.549C30.3323 128.117 30.7737 126.447 30.1545 126.676ZM62.5193 136.541C64.0897 137.227 64.5118 134.916 62.7545 135.267C62.6513 135.285 62.422 136.504 62.5193 136.541ZM77.1486 137.656C78.3216 138.68 79.4614 137.859 78.6592 137.092C77.857 136.324 76.7836 137.344 77.1486 137.656ZM151.781 110.039C152.3 108.973 150.673 108.677 150.983 109.915C150.998 109.975 151.754 110.096 151.781 110.039ZM23.1344 126.746C23.7157 123.667 24.8134 119.712 25.7435 116.743C26.0337 115.808 26.2019 116.356 26.4162 115.714C26.8366 114.434 26.9746 113.244 27.4155 111.997C27.5615 111.586 27.8861 112.221 28.03 111.788C28.8088 109.434 29.2459 107.119 29.932 104.708C33.3115 92.8079 36.3758 81.046 39.6373 68.9558C40.713 64.9748 42.363 60.2029 43.2656 56.0258C43.3721 55.542 42.9057 55.7223 42.8927 55.6273C42.7606 54.1122 43.4421 54.7315 43.7962 53.8252C44.4673 52.1098 45.1308 50.0959 45.6963 48.2285C45.8509 47.7206 45.9909 47.2446 46.123 46.802C46.274 46.2792 46.4155 45.7965 46.5445 45.3674C46.6223 45.0959 46.697 44.8377 46.7721 44.608C46.8071 44.489 46.8406 44.3767 46.8724 44.2711C46.9059 44.1588 46.9586 43.9945 47.0034 43.8637C47.0483 43.7328 47.0848 43.6071 47.1265 43.4897C47.1489 43.4243 47.1568 43.3908 47.1938 43.2935C47.2307 43.1961 47.2677 43.0988 47.3046 43.0015C47.3483 42.9057 47.3854 42.8084 47.4472 42.6957C47.483 42.6334 47.4908 42.5999 47.5676 42.4837C47.6557 42.3489 47.7502 42.1873 48.0333 41.9145C48.2889 41.6988 48.9323 41.0654 50.2502 41.2616C51.547 41.4882 52.081 42.6454 52.0779 42.6588C52.1623 42.8411 52.2144 42.9806 52.2428 43.1003C52.3079 43.3347 52.3218 43.4864 52.342 43.6113C52.3689 43.8579 52.3611 44.0115 52.3585 44.1734C52.3593 44.2302 52.355 44.2786 52.3574 44.3287C52.3662 45.8573 53.2206 44.3546 52.7317 45.8653C52.6999 45.9709 52.2769 45.5749 52.2212 45.9929C52.0929 46.931 52.1873 48.7271 52.1877 49.4481C52.1779 50.8451 52.1997 51.0834 52.3072 52.402C52.4568 54.204 52.5514 56.3605 53.0658 58.234C53.1783 58.6279 53.4865 58.0076 53.7023 58.6237C53.9115 59.2381 54.3261 60.9044 54.4012 61.4875C54.4764 62.0705 54.069 61.9395 54.0257 62.0637C53.6351 63.0957 55.2154 64.7034 55.3337 64.922C56.8677 68.0524 58.138 70.9514 59.5549 73.9483C60.0799 75.0539 60.6049 76.1595 61.152 77.2915C62.7325 80.5247 64.4151 84.0151 65.5737 87.2695C66.4067 89.5923 67.0009 91.7884 67.597 93.886C67.7688 94.5694 68.3033 95.1825 69.3764 95.6393C69.6534 95.7538 69.536 95.1397 69.8666 95.2667C71.338 95.8029 73.3131 95.9696 75.1829 95.8925C76.9889 95.9064 78.7069 94.3378 80.2822 91.9018C80.5467 91.4974 80.6413 92.2687 80.9342 91.864C82.7289 89.3663 85.3604 84.8388 84.3882 82.236C85.1563 80.6494 86.147 78.7476 87.4005 77.2608C87.7517 76.8485 88.1084 76.4728 88.4542 76.144C89.4539 75.2267 89.0725 76.5507 89.8916 75.1386C90.0789 74.8221 89.4395 74.9265 89.7584 74.4713C91.0858 72.5495 92.918 70.7956 94.4117 69.0684C94.7137 68.7152 94.3571 68.5184 94.405 68.3742C94.8251 67.1865 96.8486 66.6649 97.1929 66.463C99.8387 64.886 101.456 63.414 103.763 61.8068C104.302 61.4385 103.367 61.4454 103.878 61.0775C105.742 59.7271 107.733 58.47 109.764 57.3775C110.872 56.8391 112.095 56.0587 114.289 56.6161C115.071 56.8986 115.005 57.0881 114.892 57.1465C114.768 57.2234 114.582 57.2645 114.872 57.4455C116.084 58.3309 116.391 58.9823 116.803 59.4537C117.192 59.9971 117.504 60.5016 117.554 61.3755C117.565 61.7174 117.16 61.5798 117.129 61.6503C116.61 62.6875 117.551 63.3465 117.585 63.6231C117.916 66.5773 116.752 68.2831 116.641 70.9567C116.629 71.2789 117.183 70.6034 117.105 71.5107C116.623 77.4758 115.537 83.6382 115.119 89.3069C115.063 90.1772 114.698 89.5616 114.651 89.6141C113.958 90.5186 114.935 91.1154 114.982 91.3667C115.311 93.3663 115.194 95.6428 116.549 95.982C116.645 96.0257 116.74 96.0693 116.844 96.1079C118.16 98.0916 119.464 100.122 120.863 101.03C121.964 101.755 123.321 101.607 124.748 100.733C129.217 98.0152 133.051 94.3849 136.919 90.6139C137.01 90.5292 137.218 90.9951 137.394 90.8173C139.494 88.6741 138.566 88.6542 139.085 86.5638C139.208 86.0413 140.974 85.4734 141.115 85.4146C141.639 85.1984 141.878 86.0177 142.021 85.9172C143.191 85.0892 141.243 83.904 142.358 82.4343C142.396 82.3937 142.583 82.8332 142.711 82.7362C143.108 82.4334 143.262 81.9539 143.664 81.6593C144.097 81.351 144.568 81.2708 144.997 81.096C145.489 80.9003 145.93 80.5869 146.219 79.6865C146.291 79.4701 145.074 78.9019 146.201 77.654C146.644 77.1502 148.576 74.9109 149.199 74.3645C149.824 73.8114 149.737 74.5119 149.794 74.4828C151.703 73.2418 151.297 74.0087 152.637 73.7791C153.974 73.5628 152.389 72.4275 152.549 71.9562C152.711 71.4782 154.181 70.6642 154.579 70.5033C154.971 70.3407 154.803 70.8739 155.114 70.6925C157.195 69.5058 155.188 69.2962 155.542 68.5384C156.384 66.7571 158.402 66.8631 159.741 65.8841C160.108 65.6168 159.614 65.6139 159.893 65.3262C160.882 64.3355 161.794 64.0053 162.764 62.9398C162.924 62.7723 163.083 62.6047 163.244 62.4305C163.272 62.4017 163.305 62.3529 163.356 62.287C163.416 62.2094 163.495 62.1148 163.589 62.0166C163.683 61.9185 163.785 61.8152 163.915 61.7115C164.07 61.5925 164.289 61.4741 164.541 61.392C164.75 61.3139 165.267 61.2514 165.696 61.4087C166.159 61.5455 166.587 61.9783 166.747 62.263C167.103 62.9121 167.047 63.3018 166.937 63.6789C166.853 63.857 166.49 63.4467 166.431 64.2102C166.316 65.3635 165.872 67.1039 165.733 68.2091C165.632 68.9983 166.424 68.2442 166.004 69.1915C165.812 69.6199 165.687 68.7071 165.356 69.513C165.037 70.272 164.469 72.358 164.245 73.1323C164.023 73.9282 164.576 73.6198 164.587 73.6931C164.647 74.1028 164.389 75.682 164.354 75.801C162.354 82.4556 159.621 88.2596 157.958 94.7741C157.823 95.2867 158.381 95.0784 158.362 95.1588C158.049 96.9441 157.243 95.2284 156.491 96.3241C157.461 96.4102 157.083 97.0849 156.847 98.33C156.734 98.9325 157.175 98.7108 157.203 98.7738C157.499 99.7976 156.639 100.211 156.456 100.33C155.771 100.777 156.235 101.572 155.775 101.874C155.39 102.13 155.125 101.424 154.873 101.923C154.831 102.012 154.786 102.143 154.744 102.324C154.995 102.729 156.074 102.078 156 102.994C155.639 106.372 154.616 112.627 154.68 115.455C154.677 118.238 154.795 119.15 154.736 120.789C154.617 123.765 155.238 122.653 155.58 124.507C155.898 126.377 154.259 125.469 153.913 125.741C153.562 125.998 153.919 126.287 153.725 126.602C153.531 126.917 153.297 126.226 153.219 126.978C153.143 127.723 153.674 129.799 154.015 130.091C154.745 130.714 155.64 129.822 155.186 131.85C155.159 131.963 154.769 131.547 154.68 131.985C154.473 133.082 154.263 134.184 154.032 135.289C153.525 137.693 153.101 140.131 152.574 142.495C152.464 142.964 152.057 142.472 151.985 142.746C151.287 145.599 152.225 144.675 152.892 146.379C151.762 145.866 150.922 146.645 150.625 148.843C150.449 150.166 150.99 149.996 151.244 150.904C151.323 151.17 150.845 152.061 151.06 152.26C151.772 152.929 152.781 152.155 152.124 154.383C152.093 154.482 151.701 154.107 151.629 154.443C151.153 156.65 151.958 157.015 151.68 159.466C151.611 160.029 151.469 160.724 151.24 161.518C150.999 162.607 149.902 163.395 149.179 163.558C148.416 163.767 147.786 163.74 147.198 163.686C146.036 163.548 145.077 163.21 144.273 162.901C144.392 162.604 144.352 162.354 144.223 162.147C143.837 161.505 142.489 161.316 141.617 161.691C140.333 161.079 138.937 160.461 137.772 159.764C137.369 159.521 137.815 159.308 137.781 159.243C137.261 158.266 136.32 158.815 136.033 158.713C132.943 157.634 130.786 155.955 127.635 155.406C127.515 155.378 127.022 156.181 126.505 155.254C126.47 155.189 127.583 155.175 126.225 154.609C124.899 154.057 122.413 152.604 120.385 152.362C119.851 152.286 118.496 152.611 117.699 151.731C117.592 151.614 117.824 151.407 117.681 151.204C117.233 150.555 116.643 151.349 116.19 150.359C115.717 149.365 114.487 148.341 112.313 148.241C112.242 148.238 111.573 148.802 110.956 148.601C109.951 148.273 108.621 147.707 107.569 147.403C107.066 147.257 107.258 147.797 107.17 147.776C103.785 147.052 101.48 145.974 97.9621 144.823C97.3115 144.614 95.2282 144.698 94.1033 143.89C92.8437 142.993 94.8334 141.17 91.4726 140.855C90.1441 140.734 87.7011 143.073 85.7778 141.059C81.4479 140.326 77.7911 138.803 73.4601 138.105C73.4467 138.102 73.4131 138.094 73.3997 138.091C73.0259 138.088 72.6488 138.098 72.2718 138.109C72.0583 138.115 71.3448 138.866 70.8468 138.82C70.0998 138.751 69.7284 138.346 69.2068 138.28C66.9964 138.001 64.9829 138.179 62.8554 137.969C62.0532 137.894 62.3516 137.526 61.3974 137.436C60.4565 137.35 59.7555 137.807 58.4772 137.472C57.5056 137.216 56.5865 136.102 55.2918 135.897C55.1648 136.921 54.2858 136.842 52.6627 137.012C52.3578 137.046 52.6586 137.421 52.5156 137.458C51.9153 137.607 51.3781 137.276 50.8164 137.441C50.6801 137.479 50.6468 137.832 50.5357 137.884C49.5578 138.347 48.0448 137.476 47.7839 137.323C46.7809 136.748 46.2749 137.188 45.5037 136.95C44.7192 136.709 45.9196 136.504 44.996 136.343C43.0953 136.01 40.6286 136.011 38.6776 136.012C37.8999 136.014 38.434 136.478 38.3257 136.488C36.7321 136.623 35.0803 136.193 34.25 137.171C32.9962 134.835 33.3026 137.444 31.0056 137.173C30.8267 137.152 30.4735 136.038 31.1577 135.802C31.8419 135.567 32.9306 135.837 33.8823 135.516C34.1048 135.441 35.3818 134.306 35.561 134.235C36.9782 133.677 37.2199 135.388 37.2913 135.475C38.1468 136.467 39.7405 135.308 40.1601 135.237C42.101 134.886 43.744 135.173 45.3651 134.981C46.413 134.852 46.5889 133.742 47.406 133.813C50.1735 134.067 51.0246 135.68 53.6994 134.492C54.2882 134.241 53.786 132.978 55.7261 134.077C55.8306 134.144 57.2683 135.124 58.1407 134.63C58.2549 134.564 58.2748 134.209 58.4198 134.193C59.396 134.069 59.9698 134.394 61.0303 134.332C62.0491 134.268 63.311 134.161 64.4721 134.363C65.1849 134.488 66.0182 135.213 66.3563 135.399C67.2903 135.936 68.3434 135.243 68.9131 135.857C69.4626 136.467 68.2473 137.249 69.7679 137.726C69.8915 136.808 70.0982 135.867 70.2568 134.95C71.4013 135.042 72.468 135.165 73.6047 135.29C73.7083 135.301 74.0026 135.341 74.1031 135.365C76.4121 136.006 78.4639 136.629 80.8249 137.169C81.2469 137.268 80.9397 136.68 81.3849 136.77C83.2747 137.15 84.8442 137.9 86.832 138.254C88.3261 138.512 90.1742 138.437 91.7637 138.711C92.4078 139.972 94.9337 140.261 96.5485 140.788C97.1187 140.979 97.0275 141.247 97.4326 141.448C98.9558 142.216 98.4457 141.106 98.9244 141.084C100.934 140.984 100.57 143.075 102.777 143.642C102.89 143.669 104.599 142.982 104.84 142.982C106.236 142.906 104.941 143.422 105.703 143.728C107.065 144.281 108.016 144.837 109.756 145.012C110.24 145.055 111.668 144.754 112.434 145.555C112.536 145.664 112.359 145.997 112.453 146.047C114.115 146.946 114.575 145.86 115.704 145.807C116.828 145.746 118.229 147.064 118.45 147.384C119.085 148.233 117.735 147.421 117.669 147.462C116.923 147.959 118.073 148.208 118.963 148.572C118.732 149.705 119.979 150.054 119.866 148.939C119.853 148.816 119.128 148.681 118.963 148.572C120.106 147.766 121.526 148.099 122.661 149.617C123.167 150.322 122.364 150.642 124.522 151.205C125.505 151.471 125.428 150.598 126.349 150.708C128.469 150.98 130.701 152.67 132.71 153.417C133.431 153.685 132.917 152.985 133.414 153.158C134.781 153.627 135.747 154.419 137.117 154.875C137.234 154.917 137.15 154.374 137.546 154.552C140.501 155.874 142.821 157.401 145.609 158.501C145.673 158.53 145.745 158.554 145.817 158.578C146.242 158.727 146.909 158.834 147.354 158.804C147.561 158.796 147.722 158.714 147.486 158.757C147.372 158.787 147.125 158.878 146.817 159.166C146.512 159.441 146.233 159.94 146.153 160.31C146.206 160.083 146.254 159.79 146.309 159.555C146.871 156.86 147.984 153.263 148.159 150.738C148.272 149.083 147.777 149.384 147.563 148.641C147.15 147.208 148.532 144.932 148.743 144.635C148.746 144.622 148.664 146.058 148.997 145.331C149.537 144.956 148.74 144.648 148.743 144.635C148.876 144.433 149.366 141.622 149.359 141.048C149.355 140.736 148.904 140.849 148.913 140.689C148.992 138.637 149.168 136.593 149.435 134.55C149.652 132.904 149.847 131.261 150.043 129.582C150.057 129.522 150.531 129.64 150.551 129.497C150.876 127.389 150.288 126.007 149.916 124.252C149.538 122.488 149.592 121.052 150.372 119.928C150.215 118.548 150.503 116.51 150.704 115.32C150.904 114.137 149.974 113.975 149.957 113.866C149.377 110.556 149.994 108.56 150.593 105.074C150.77 104.077 151.031 102.485 151.36 100.993C151.555 100.07 151.749 99.1547 151.885 98.4869C152.162 97.1527 152.593 96.4338 152.798 95.1959C152.823 95.0319 152.381 95.0767 152.379 95.0267C152.286 93.556 153.08 94.4775 153.33 94.2536C154.257 93.4391 154.77 92.9377 154.983 91.1572C155.03 90.7443 153.976 89.1823 154.114 88.4444C154.296 87.4904 154.694 87.9937 154.873 86.9898C154.893 86.9027 154.573 86.8205 154.775 86.2318C155.7 83.4947 156.839 80.5676 157.704 77.7246C157.824 77.3357 157.178 77.6788 157.338 77.1157C158.102 74.4961 159.016 71.6224 159.916 69.2328C160.143 68.6287 160.384 69.1092 160.529 69.002C161.372 68.3589 160.737 67.0013 160.759 66.8157C160.91 65.6636 161.07 64.4079 161.071 64.1325C161.074 64.1191 161.071 64.1325 161.091 64.2291C161.1 64.2807 161.113 64.3472 161.141 64.4386C161.163 64.5217 161.201 64.6647 161.282 64.8605C161.363 65.0562 161.483 65.2965 161.668 65.5659C161.857 65.8435 162.215 66.2455 162.653 66.5463C163.58 67.2021 164.657 67.3134 165.297 67.2374C165.798 67.1784 166.088 67.0557 166.239 66.9851C166.359 66.9283 166.403 66.8893 166.413 66.8775C166.418 66.8574 166.313 66.9106 166.161 67.0163C164.609 68.1786 163.057 69.4044 161.539 71.0201C161.352 71.2164 160.548 73.3176 159.305 73.3155C159.219 73.3167 157.959 73.2966 157.812 74.2867C157.797 74.347 158.519 74.2832 157.794 74.9329C157.069 75.5825 156.195 76.897 154.919 77.5162C154.52 77.7123 153.182 77.8434 152.865 79.2532C152.841 79.3537 152.767 81.8382 151.498 81.6462C151.292 81.6192 150.465 80.775 149.97 82.3125C149.879 82.6093 150.402 82.3714 150.058 83.0539C149.845 83.4776 149.529 83.891 149.192 84.3348C148.697 84.9962 148.159 85.725 147.874 86.6053C147.793 86.8618 147.766 88.2124 146.751 88.5608C146.59 88.6149 146.44 88.1698 146.125 88.5198C144.611 90.1789 143.358 92.2382 141.634 93.8903C141.024 94.4749 140.821 93.7418 140.133 94.2942C139.444 94.8532 138.159 96.0501 137.738 96.9123C137.308 97.7797 138.739 97.734 137.817 98.8038C135.169 101.836 131.856 104.387 128.233 106.392C125.805 107.915 121.304 108.816 117.893 106.757C117.674 106.635 117.524 106.551 117.405 106.487C116.828 106.175 117.058 106.731 115.736 105.65C113.673 103.838 112.264 101.712 110.967 99.9797C107.283 93.5458 108.7 89.7368 108.98 87.0041C109.76 83.6816 109.998 87.9073 110.386 85.3833C110.582 84.1855 109.54 82.7819 109.524 82.4884C109.414 79.6144 110.165 77.7411 110.289 75.2542C110.317 74.7448 109.789 75.1863 109.821 74.7486C109.908 73.2637 110.299 71.751 110.396 70.3744C110.442 69.7562 110.071 69.8317 110.151 69.2781C110.34 67.9302 110.576 66.8053 110.957 65.5731C110.99 65.4608 111.416 66.239 111.459 65.3021C111.493 64.554 111.579 63.7049 111.565 62.9808C111.575 62.248 111.337 61.4854 111.225 61.7206C111.217 61.8176 111.074 62.0316 111.139 62.3294C111.181 62.4807 111.292 62.6693 111.555 62.8441C111.811 63.0173 112.289 63.1789 112.779 63.1101C112.95 63.0726 112.96 62.7921 113.086 62.645C113.197 62.5016 113.433 62.4297 113.513 62.8441C113.519 62.9091 113.574 63.127 113.372 63.4754C112.81 64.121 112.036 64.8298 111.255 64.8161C110.904 64.8045 109.822 64.5364 109.33 65.0075C109.266 65.0701 109.804 65.246 109.372 65.5827C107.845 66.758 106.169 67.877 104.697 69.1784C104.305 69.5245 105.2 69.4164 104.608 69.9207C102.996 71.3092 100.928 72.9229 99.363 74.2306C98.7841 74.7096 98.8969 74.0788 98.8303 74.0914C97.7225 74.2343 97.9925 75.2518 97.8374 75.491C96.8179 77.0044 95.6135 77.7395 94.6952 79.0929C94.4452 79.4654 94.9795 79.4777 94.9575 79.5714C94.7074 80.5163 94.4977 79.513 94.083 79.9246C93.7393 80.275 93.4109 80.6503 93.1114 81.0535C92.4838 81.8603 91.9487 82.9361 91.4769 84.0127C91.2314 84.5771 91.9781 84.1657 91.7617 84.6662C90.455 87.6742 89.179 91.3042 87.0204 94.8401C86.6012 95.5121 86.5004 94.8877 86.3417 94.9918C85.2949 95.6578 85.0403 97.5558 84.8176 97.9629C83.8805 99.7572 83.0192 100.205 81.3502 101.474C79.8309 102.588 77.7 103.416 75.6139 103.542C73.288 103.695 70.9186 103.613 68.2321 102.834C65.7154 102.144 61.9264 100.04 60.7485 96.0244C60.2306 94.2561 59.7806 92.6805 59.3105 91.2203C57.5996 85.8928 55.8779 81.5451 53.6013 77.0318C52.818 75.491 51.9921 73.8908 51.1326 72.1625C50.9125 71.7151 50.6687 72.3929 50.4695 72.0069C47.9326 67.0368 46.2451 61.3684 45.3463 55.6519C45.2728 55.1824 44.8781 55.9307 44.7453 55.1716C44.4674 53.6152 44.3335 51.6261 44.4275 50.0509C44.4732 49.2842 44.9285 50.2957 44.969 49.5207C45.0618 47.7403 45.1146 45.8586 45.1104 44.0696C45.1084 43.9278 45.0922 43.8462 45.0583 43.81C45.017 43.8357 44.9633 43.8231 44.9113 43.8038C44.8085 43.8503 44.6881 43.9422 44.6309 43.7945C44.6179 43.8197 44.6033 43.8516 44.5979 44.0553C44.6011 44.1621 44.6016 44.3106 44.653 44.6337C44.6838 44.8034 44.7186 45.0166 44.8251 45.3455C44.8776 45.5133 44.9522 45.7075 45.0643 45.9528C45.1049 45.9906 45.4446 46.9821 46.6948 47.9186C48.1919 49.1887 51.0769 49.0319 52.0654 48.3734C53.1949 47.7763 53.5119 47.2994 53.7713 47.0069C54.2741 46.3404 54.1488 46.4523 54.2141 46.3546C54.2858 46.2301 54.3181 46.1528 54.3425 46.1091C54.3846 46.02 54.3731 46.0385 54.3554 46.0839C54.3346 46.1426 54.2913 46.2667 54.2386 46.431C54.1317 46.7664 54.0487 47.0296 53.9311 47.4402C53.7353 48.0939 53.5069 48.9166 53.3099 49.6054C52.8797 51.1371 52.4818 52.5914 52.045 54.1215C51.1808 57.1414 50.2563 60.1472 49.147 63.1873C48.9944 63.5967 47.9263 63.7207 47.8753 64.691C48.1259 64.8276 48.4459 64.9098 48.7328 65.0124C46.5951 74.0306 44.0585 82.8208 41.7857 91.8425C41.6961 92.2243 42.3727 91.6905 42.1848 92.4309C41.1282 96.6919 40.2674 100.872 38.6931 105.11C38.5373 105.533 37.6814 105.085 37.5068 106.401C37.4801 106.635 37.1361 108.582 37.214 109.124C37.2251 109.197 37.7422 108.951 37.6027 109.575C36.7956 113.195 35.7935 116.953 34.6778 120.472C34.4942 121.044 34.1915 120.316 34.0539 120.722C33.1045 123.623 32.7104 126.838 31.6202 129.586C30.905 131.368 30.2785 130.515 29.2672 131.33C29.1254 131.452 28.8334 132.607 28.372 132.555C27.2038 132.443 26.0967 131.59 24.8359 131.541C24.5621 131.533 24.485 133.127 24.0676 132.075C24.0415 132.005 24.0964 130.838 23.9481 130.506C23.8463 130.277 23.3091 130.519 23.2076 130.078C23.1128 129.639 23.6014 129.273 23.5329 128.571C23.4643 127.869 22.8727 128.041 23.1206 126.714L23.1344 126.746Z" fill="#FFF0E1"/>
<path d="M14.519 28.1547C15.026 28.0122 15.1033 28.0444 14.5014 28.3202C14.5156 28.2599 14.5049 28.215 14.519 28.1547ZM11.2184 20.6872C11.2582 20.6683 11.2582 20.5481 11.2199 20.5603C10.4077 20.8291 10.4078 21.0694 11.2184 20.6872ZM12.2846 25.6302C12.2846 25.6302 12.3054 25.5715 12.2904 25.575C11.7937 25.7341 11.7835 25.8377 12.2846 25.6302ZM17.827 33.8146C17.6346 33.6705 18.0897 31.7914 18.1986 32.0502C18.2227 32.0982 17.9649 32.6243 17.9591 32.7997C17.9589 33.1318 18.3227 31.9733 18.2419 32.6187C18.2353 32.7373 17.8388 33.8245 17.8285 33.8079L17.827 33.8146ZM11.0034 22.8983C11.0034 22.8983 11.036 22.8494 10.9033 22.9031C10.4901 23.0676 10.6253 23.064 11.0034 22.8983ZM16.4599 33.3454C16.5724 33.0467 16.3279 33.3356 16.1914 33.7064C16.0856 34.0067 16.3301 33.7178 16.4599 33.3454ZM1.24264 10.3739C1.24264 10.3739 1.23352 10.3223 1.22211 10.3408C1.02382 10.8243 1.04633 10.8791 1.24264 10.3739ZM15.386 33.4043C15.617 32.8719 14.2845 34.7854 14.6688 34.4728C14.6937 34.4574 15.3781 33.4378 15.386 33.4043ZM14.26 33.2036C14.6768 32.6018 13.8964 33.3374 13.576 33.7993C13.2606 34.2695 14.1391 33.3873 14.26 33.2036ZM10.4459 26.3577C10.8484 26.1483 9.30124 26.7181 9.69398 26.6406C9.71565 26.6387 10.4278 26.3747 10.4459 26.3577ZM3.5465 3.96025C4.06775 3.99778 4.48871 4.3722 4.67566 4.71998C4.7423 4.82749 4.55372 5.05887 4.57661 5.14198C4.63738 5.30466 4.82014 5.24861 4.84939 5.42509C4.85691 5.48339 4.57853 5.85624 4.59432 5.90942C4.68195 6.19855 4.90574 6.20867 5.01538 6.40401C5.54661 7.36265 6.01663 8.01008 6.45907 8.71465C6.60261 8.94622 6.53155 9.45961 6.84283 9.51853C6.87632 9.52639 7.15232 9.22366 7.18384 9.20985C7.61349 8.91491 7.00911 9.47274 6.97569 9.58504C6.83728 10.0543 6.97883 10.2643 7.24322 10.3122C7.35709 10.3389 7.88542 9.71374 7.61892 10.0964C7.59923 10.1201 7.27277 10.3968 7.25349 10.4489C7.22007 10.5612 7.3474 10.591 7.35492 10.6493C7.36483 10.7577 7.37659 10.7675 7.42587 10.8285C7.49566 10.9227 7.41902 11.1591 7.57623 11.1819C7.60972 11.1897 7.9188 10.8665 8.00035 10.8503C8.08189 10.8341 8.12846 10.9369 8.07139 11.0295C8.01431 11.1221 7.74375 11.3413 7.68784 11.3989C7.21416 11.8814 8.00101 11.3593 8.02937 11.3589C8.51788 11.3251 8.27349 11.8544 8.45011 12.0654C8.58258 12.2237 8.85886 12.2815 8.96138 12.4469C9.08442 12.6454 9.02032 12.9484 9.18942 13.1012C9.20637 13.1193 9.59858 12.7732 9.62223 12.7928C9.76412 12.911 9.86471 13.0547 9.91249 13.2426C10.0051 13.2997 10.1148 13.6152 10.196 13.6908C10.1996 13.8259 10.1686 13.9882 10.0926 14.1612C10.0749 14.2066 9.64835 14.3679 9.6007 14.4204C9.34678 14.7495 8.65845 15.3936 10.4967 14.6377C10.4838 14.7831 10.4713 14.9569 10.1599 15.2301C9.95706 15.4016 9.47686 15.5504 9.70536 15.5404C9.75539 15.538 10.1362 15.3305 10.1831 15.3415C10.3774 15.3871 10.3133 15.57 10.5638 15.5864C10.619 15.5923 10.9703 15.4203 11.0318 15.3994C11.5765 15.2162 10.7625 15.7037 10.7097 15.7478C10.3144 16.1074 10.5484 16.134 10.5989 16.2802C10.6127 16.3117 11.068 16.0581 11.0968 16.086C11.2423 16.2191 11.2751 16.4106 11.1318 16.6596C11.0976 16.7152 10.6808 16.8648 10.643 16.9054C10.4851 17.0662 11.2614 16.7395 11.1284 16.885C11.1004 16.9138 10.7471 17.0641 10.7074 17.083C10.126 17.3918 10.9973 17.0521 11.0174 17.0568C11.3365 17.0823 10.4874 17.5685 10.6671 17.646C10.6939 17.6523 11.1145 17.4259 11.1551 17.4637C11.4074 17.7138 11.4245 18.0924 11.199 18.5412C11.1617 18.6102 10.8178 18.7203 10.778 18.7392C10.1517 19.0587 11.0282 18.7273 11.0699 18.73C11.354 18.7543 10.6774 19.1679 11.7421 18.8171C11.6014 19.4767 12.3915 19.754 11.6683 20.6373C11.6651 20.6507 11.2252 20.8089 11.2138 20.8275C11.0354 21.0754 11.6905 20.7838 12.5417 20.5596C12.7596 20.5047 11.8084 20.9741 11.7355 21.0135C11.4787 21.1441 10.8311 21.3737 10.7815 21.4045C10.4093 21.6351 12.5115 20.7787 12.5447 20.8783C12.5447 20.8783 12.1495 21.0259 12.1165 21.0464C12.0074 21.1197 12.1721 21.0806 12.048 21.1575C11.7586 21.337 10.7466 21.7638 11.3769 21.6078C11.46 21.5849 12.6496 21.0937 12.6244 21.2009C12.615 21.2411 12.6938 21.3868 12.6348 21.4578C12.5757 21.5287 12.1787 21.6546 12.1621 21.6649C11.6994 21.9803 11.4713 22.0187 10.7371 22.3764C10.0045 22.7275 11.7932 22.0024 12.0027 21.9526C12.2139 21.8961 11.8236 22.1438 11.6846 22.2242C11.5455 22.3047 11.2895 22.3718 11.2135 22.4246C10.7193 22.7539 12.1238 22.1294 12.4247 22.0516C13.1366 21.8795 11.8316 22.4708 11.7352 22.6107C11.7057 22.6461 12.0058 22.5116 12.0393 22.5195C12.18 22.5525 11.7826 22.7702 12.199 22.7125C12.2656 22.6998 13.0983 22.4641 12.5315 22.741C12.452 22.7789 12.1081 22.889 12.0506 22.9533C11.9585 23.0447 11.9219 23.1704 12.0539 23.1802C12.1508 23.1888 12.6845 22.9324 12.5309 23.0448C12.4616 23.0992 12.1256 23.1758 12.0267 23.2657C11.9279 23.3556 11.9812 23.46 12.0084 23.4946C12.0356 23.5293 12.4452 23.3498 12.4751 23.3427C12.6398 23.3036 12.8734 23.3018 12.8785 23.3101C13.067 23.6512 12.4898 24.2437 12.854 24.4988C12.8844 24.52 13.3172 24.3319 13.3239 24.3334C13.5446 24.3569 12.3482 24.7264 11.9808 24.9369C12.8686 24.587 12.7249 24.6875 12.8454 24.7158C12.9057 24.73 13.2441 24.5833 13.2823 24.571C13.8259 24.423 13.1575 24.7113 13.0232 24.7717C12.5257 24.9942 13.1437 24.8 12.8038 24.9534C12.4722 25.1018 11.9518 25.2411 11.9861 25.3057C12.3134 25.2059 13.1276 24.8386 13.2828 24.8397C13.8651 24.828 13.3328 25.4097 13.3203 25.5835C13.3077 25.7572 13.3815 25.7746 13.3016 25.9042C13.1481 26.1368 13.7463 25.846 14.0666 25.8364C14.3869 25.8268 12.844 26.3481 12.5222 26.4846C12.2004 26.6211 12.5443 26.511 12.3702 26.5903C12.1946 26.6763 11.9582 26.7197 11.9074 26.7855C11.8566 26.8514 12.4774 26.7356 12.8213 26.6255C13.5571 26.3812 14.3 26.0467 14.0743 26.2552C14.0578 26.2654 13.6525 26.3965 13.6214 26.4387C13.382 26.7359 13.4282 26.9304 13.227 27.2154C13.1975 27.2509 12.7457 27.3993 12.7193 27.4213C12.4894 27.6783 13.2256 27.3423 14.0918 27.1144C12.9743 27.5095 12.3094 27.8128 12.3461 27.9274C12.3655 27.9956 12.8484 27.805 13.2076 27.7197C13.3124 27.6948 13.0029 27.8695 13.2337 27.7894C13.9928 27.5364 14.8104 27.1842 14.5218 27.4203C14.5052 27.4306 14.0917 27.5667 14.0771 27.5987C14.046 27.6408 14.0712 27.6538 14.1331 27.6613C14.31 27.6604 14.7803 27.5234 14.8863 27.5836C14.9974 27.6521 14.5836 28.0002 14.5454 28.1326C13.2956 28.6096 13.6226 28.6016 14.503 28.3135C14.4975 28.397 14.57 28.4493 14.4798 28.5625C14.4487 28.6046 14.0868 28.7317 14.047 28.7507C13.457 29.0362 14.2972 28.7387 14.3405 28.7347C14.7231 28.7609 14.1496 29.1564 14.8205 29.0382C14.8422 29.0362 15.693 28.6634 15.0967 28.9758C15.0569 28.9947 14.6449 29.1242 14.6477 29.2026C14.6505 29.281 14.2582 29.6271 14.6908 29.5307C14.794 29.5125 15.4975 29.2253 14.9946 29.5313C14.9284 29.5724 14.683 29.6844 14.5589 29.7613C14.1553 30.0058 14.9954 29.5881 14.307 29.9919C13.6201 30.389 13.1365 30.7632 13.675 30.6069C13.6899 30.6033 14.3559 30.2649 14.3615 30.3015C14.369 30.3599 14.2777 30.508 14.3152 30.5592C14.3305 30.5841 14.7157 30.3281 14.7291 30.3313C15.0431 30.3484 14.7557 30.6697 14.7345 30.9404C14.7287 30.9955 15.2935 30.697 14.9415 31.0525C14.5584 31.4503 12.7149 32.7703 13.2987 32.6317C13.5418 32.5898 15.7703 30.7735 14.7446 31.8615C15.1893 31.8033 14.8612 32.539 15.4221 32.3173C15.4453 32.3086 15.9823 31.7067 15.991 31.73C16.0099 31.7697 15.7974 32.0732 15.8029 32.1099C15.8353 32.2729 16.1078 32.0754 16.1694 32.1747C16.195 32.216 15.9658 32.5297 16.0048 32.5742C16.0423 32.6254 16.3384 32.2073 16.2735 32.4535C16.2228 32.6395 15.7423 33.5727 15.7644 33.7193C16.2721 32.8207 16.3096 32.8719 16.5119 32.672C16.5497 32.6314 16.7036 32.3071 16.7332 32.2716C16.8461 32.1215 16.7317 32.3985 16.8478 32.2349C16.8789 32.1928 17.0363 31.8834 17.0622 31.8329C17.3295 31.3868 17.0431 32.1253 17.005 32.2577C16.8319 32.7542 17.0464 32.3522 16.9992 32.5532C16.9505 32.7608 16.7899 32.9634 16.7852 33.1037C16.7826 33.3858 16.9378 33.3869 17.0439 33.4471C17.0876 33.4715 17.2229 33.0156 17.2311 33.0105C17.3501 32.9253 17.2739 33.4304 17.6186 32.5643C16.9009 34.8694 17.7442 32.3605 17.6996 32.8518C17.6901 32.892 17.3688 33.9898 17.2791 34.1313C17.1878 34.2795 17.2376 33.9166 17.0923 34.144C17.0581 34.1996 16.63 35.1804 16.5891 35.2344C16.3234 35.6738 16.891 34.0685 16.9197 33.9762C17.2244 33.0089 16.7306 34.0591 16.668 34.1151C16.4153 34.4091 16.4065 34.1456 16.199 34.3372C16.0639 34.4609 15.5928 35.4741 15.5436 35.4131C15.3788 35.2119 16.0426 33.7987 15.2391 34.9035C15.0639 35.138 14.5107 36.2308 14.8277 35.3016C14.8418 35.2413 15.1889 34.4252 14.8448 34.8674C14.8038 34.9214 14.618 35.2312 14.5932 35.2466C14.4231 35.3692 14.5226 35.0957 14.3784 35.1679C14.2292 35.2318 14.0204 35.3383 14.0014 35.1784C13.9883 35.0834 14.3036 34.4931 14.3799 34.3484C14.5924 33.9248 14.07 34.4948 14.375 34.008C14.6852 33.5296 15.2667 32.8887 15.4202 32.536C14.8533 33.2651 14.2616 34.0097 13.6813 34.7357C13.4562 34.5204 13.4284 34.0968 13.1939 33.9217C13.1635 33.9004 12.8402 34.2839 12.8016 34.2678C12.6204 34.197 12.7671 33.8427 12.548 33.8125C12.3774 33.7866 11.8717 34.0142 11.6743 33.982C12.4296 33.2334 12.0301 33.3093 12.0107 33.121C12.0047 33.056 12.2343 32.8908 12.2883 32.8116C12.4874 32.5049 11.7668 33.1062 11.6207 33.1567C11.0031 33.3792 12.7393 32.1541 12.6077 32.0526C12.6077 32.0526 11.5955 32.5712 11.5274 32.5906C11.0807 32.7472 11.8495 32.3623 11.8865 32.2649C11.9573 32.0837 12.1463 31.8807 11.7933 31.9392C11.6901 31.9574 11.0331 32.2272 11.4655 31.8905C11.525 31.8479 11.8495 31.6697 11.8676 31.6527C12.1204 31.3587 11.092 31.916 10.6981 32.0285C10.3058 32.1343 10.9646 31.6457 11.1631 31.5227C11.6723 31.1899 11.414 31.4473 11.4688 31.4248C12.1155 31.1384 11.965 31.1172 11.9922 31.0317C13.0126 30.508 12.9169 30.4643 12.0126 30.9447C11.9149 30.9995 12.03 30.9911 11.9922 31.0317C10.959 31.4889 10.7782 31.4465 11.6848 30.896C12.1133 30.6361 12.6493 30.4298 12.3968 30.3917C12.2813 30.3717 11.5756 30.729 11.3557 30.7622C10.8495 30.8413 11.4469 30.3737 11.294 30.3025C11.2369 30.275 10.8544 30.4891 10.8024 30.4698C10.6551 30.4352 10.9291 30.231 10.742 30.2153C10.7219 30.2106 10.3091 30.4035 10.2938 30.3787C10.166 30.2003 10.3708 29.9303 10.3044 29.731C10.2697 29.6381 9.97654 29.5622 9.98829 29.4519C9.99533 29.3616 10.1284 29.2162 10.2449 29.081C10.3631 28.9391 10.4563 28.8126 10.359 28.7756C10.2297 28.724 9.81347 28.902 9.50582 28.9782C8.91533 29.1152 9.87948 28.6206 10.0252 28.5418C10.0252 28.5418 10.1591 28.5732 10.3643 28.4517C10.8122 28.26 10.0335 28.5366 10.0252 28.5418C10.1213 28.4936 10.1637 28.3128 10.0719 28.3124C10.0219 28.3148 9.62371 28.4758 9.60361 28.4711C9.17218 28.4122 8.99796 28.2512 9.1093 27.9876C9.11087 27.9809 9.56581 27.8191 9.57722 27.8006C9.7347 27.6114 9.15919 27.7449 8.79241 27.7719C8.43233 27.8004 8.5091 27.6842 9.26179 27.3378C9.13452 27.308 9.44327 27.0765 9.62481 26.9354C9.81148 26.8025 8.93147 27.119 8.90981 27.1209C8.29799 27.1682 8.7596 26.8878 8.77682 26.694C8.78543 26.597 8.59862 26.4896 8.46779 26.4447C8.36376 26.4062 8.55397 26.2883 8.40188 26.2738C8.38179 26.2691 7.99859 26.4265 7.97692 26.4285C7.48452 26.5391 8.45267 26.208 8.61336 26.1255C9.21007 25.8415 9.52994 25.6834 9.2065 25.7064C9.1348 25.7108 7.73956 26.1749 7.64264 26.1663C7.52405 26.1596 8.02393 25.9872 7.88367 25.9825C7.87028 25.9794 7.56656 26.0989 7.56772 26.0639C7.57196 25.8952 7.68726 25.675 7.60011 25.5344C7.58986 25.5178 7.11727 25.7249 7.09519 25.6986C6.98836 25.5816 6.94768 25.4236 7.11972 25.2025C7.16067 25.1485 7.50454 25.0384 7.60735 24.9918C8.19578 24.713 7.29021 24.9881 7.27011 24.9834C6.75317 24.8974 7.47024 24.4013 6.99978 24.298C6.97298 24.2917 5.99215 24.5563 6.77635 24.1961C6.8311 24.1736 7.63189 23.8032 7.05206 23.9852C7.01385 23.9974 6.60103 24.1903 6.62345 24.1249C6.64587 24.0595 6.33425 24.0923 6.76944 23.834C6.90847 23.7536 7.7108 23.3765 7.02933 23.5699C6.98442 23.5806 5.46277 24.0716 6.47109 23.6297C6.63691 23.5556 7.7174 23.1378 7.1336 23.2764C7.02055 23.3064 6.78697 23.4282 6.62703 23.4472C6.37214 23.4793 6.62971 23.2853 6.12076 23.4062C6.03095 23.4275 5.27501 23.667 5.81854 23.3988C5.90637 23.3558 6.26835 23.2288 6.29945 23.1866C6.44866 23.0025 6.16308 22.985 6.36861 22.7717C6.44263 22.6972 7.03032 22.4818 7.16737 22.3797C7.30441 22.2775 7.42403 22.1289 7.13962 22.1965C6.85521 22.264 5.95172 22.681 5.85281 22.6507C5.42015 22.5067 5.84851 22.0065 5.81406 21.7016C5.8101 21.6583 5.49542 21.8247 5.45953 21.7668C5.33965 21.5549 4.87539 21.3046 5.49089 20.8201C5.9859 20.4274 6.49175 20.4401 6.66892 20.2273C6.74923 20.126 5.6601 20.5206 5.61834 20.5178C5.21965 20.5303 5.64933 20.2353 5.45822 20.1764C5.41802 20.1669 4.99383 20.3783 4.96861 20.3653C4.86458 20.3268 5.02249 20.166 4.95667 20.1152C4.92632 20.0939 4.60132 20.2438 4.61075 20.2036C4.63276 20.1098 4.75291 19.9896 5.03213 19.7936C5.05694 19.7783 5.48546 19.6385 5.47794 19.5802C5.46331 19.492 5.7236 19.2562 5.36708 19.2998C5.25717 19.3164 4.50762 19.6493 5.00071 19.3552C5.10665 19.2952 6.01059 18.9066 5.20193 19.1904C5.06406 19.2357 3.96945 19.5937 4.62009 19.2305C4.79063 19.1362 5.51292 18.7686 5.38134 18.7872C5.35967 18.7892 4.96544 18.9935 4.91185 18.9809C4.73769 18.9401 4.73609 18.8266 4.56193 18.7857C4.51504 18.7747 4.11449 19.0058 4.06405 18.9798C3.908 18.922 3.95712 18.7427 4.03818 18.578C4.0673 18.5142 4.42261 18.3855 4.46239 18.3666C5.04844 18.0377 4.21576 18.3935 4.16415 18.4026C3.836 18.4457 4.18452 18.1954 4.04543 18.1557C4.00524 18.1462 3.62598 18.347 3.58777 18.3592C3.22223 18.4713 3.94068 18.1806 4.00643 18.1112C4.18558 17.92 4.10597 17.8377 4.01335 17.7806C3.9763 17.7578 3.54268 18.0094 3.5206 17.983C3.36018 17.8535 3.3206 17.6604 3.49339 17.3759C3.52764 17.3203 3.88099 17.17 3.95386 17.1306C4.48673 16.8175 3.70172 17.1209 3.62018 17.1371C3.25935 17.2291 3.55394 17.0579 3.46331 17.0225C3.44321 17.0178 3.42307 17.0131 3.41124 17.0032L3.91874 17.822C3.53023 17.7309 3.4709 17.3211 3.39982 17.0218C3.29715 16.616 3.39227 16.1507 3.08209 15.9366C3.06357 15.9251 2.68478 16.2744 2.66625 16.263C2.40932 16.1532 2.39807 15.8396 2.12145 15.7535C2.10135 15.7488 1.7592 16.0925 1.71074 16.0882C1.61225 16.0863 1.57435 16.0067 1.644 15.8605C1.67626 15.7833 2.01656 15.5381 2.04055 15.4659C2.10664 15.3048 2.07039 15.2185 1.96519 15.215C1.91673 15.2107 1.58831 15.586 1.55797 15.5647C1.32345 15.3895 1.08463 15.2628 1.33719 14.6083C1.35489 14.563 2.05026 13.8286 1.88328 13.9378C1.68759 14.1393 1.45563 14.3746 1.2434 14.5863C0.848939 14.4301 0.8132 13.9199 0.582581 13.6679C0.570756 13.658 0.251492 14.0849 0.234541 14.0668C0.124563 13.9632 -0.0565888 14.0126 0.151542 13.5173C0.170817 13.4652 0.717157 12.703 0.603352 12.7964C0.585238 12.8134 0.462807 12.8836 0.339979 13.0456C0.320294 13.0692 0.0853017 13.4381 0.0703333 13.4417C-0.0313062 13.4531 -0.0196102 13.3428 0.0870186 13.0993C0.103149 13.0607 0.320824 12.6453 0.335383 12.6134C0.412074 12.3769 0.271589 12.7044 0.467963 12.3194C0.586007 12.0573 0.830206 11.2877 1.04606 10.5186C1.07121 10.4114 1.06253 10.3882 1.17455 9.94094C1.45363 8.81205 1.81817 7.59013 2.11454 6.38755C2.17585 6.12631 1.90217 6.35891 2.17722 5.75912C2.19335 5.7205 2.40961 5.55216 2.51193 5.35708C2.58671 5.21915 2.65341 4.75423 2.77781 4.58553C2.90221 4.41684 2.85121 4.81478 3.01382 4.63386C3.1847 4.4478 3.32072 3.92847 3.53781 3.93701L3.5465 3.96025Z" fill="#FFF0E1"/>
<path d="M118.081 27.9007C118.594 28.0351 118.643 28.1245 117.983 28.0756C118.024 28.0216 118.038 27.9614 118.081 27.9007ZM118.455 18.3556C118.504 18.3599 118.559 18.2456 118.52 18.2295C117.681 18.0397 117.561 18.2801 118.455 18.3556ZM117.194 24.0599C117.194 24.0599 117.242 24.0075 117.215 24.0012C116.697 23.9503 116.65 24.0594 117.194 24.0599ZM114.699 35.4464C114.839 35.2391 116.746 35.5453 116.474 35.7429C116.423 35.7803 115.9 35.5092 115.713 35.5219C115.381 35.55 116.543 35.9004 115.89 35.8531C115.771 35.8465 114.682 35.4567 114.692 35.4449L114.699 35.4464ZM117.177 20.522C117.177 20.522 117.228 20.4846 117.089 20.4732C116.646 20.4329 116.764 20.503 117.177 20.522ZM115.027 33.9263C115.343 33.9651 115.009 33.7947 114.617 33.7453C114.301 33.7065 114.636 33.8769 115.027 33.9263ZM120.033 0.640446C120.033 0.640446 120.086 0.596295 120.066 0.591578C119.563 0.445307 119.498 0.543046 120.033 0.640446ZM114.667 32.9018C115.248 32.9251 112.976 32.3988 113.408 32.6062C113.434 32.6125 114.633 32.8939 114.667 32.9018ZM114.352 31.8949C115.077 31.9662 114.05 31.6757 113.492 31.6153C112.933 31.555 114.131 31.8714 114.352 31.8949ZM115.219 24.0134C115.669 23.9635 114.026 23.8888 114.416 23.9733C114.436 23.978 115.198 24.0154 115.219 24.0134ZM126.697 2.09119C126.79 2.32516 126.588 2.52503 126.333 2.67725C126.259 2.72339 125.978 2.6223 125.915 2.64991C125.789 2.70514 125.904 2.81696 125.758 2.86747C125.705 2.88326 125.263 2.75113 125.224 2.76336C124.987 2.87027 125.073 3.04595 124.937 3.17643C124.289 3.83001 123.949 4.55589 123.565 5.28575C123.438 5.52457 122.963 5.74509 123.081 6.05547C123.093 6.09368 123.494 6.15964 123.526 6.1742C124.008 6.37919 123.209 6.17042 123.095 6.20713C122.623 6.35081 122.525 6.6176 122.627 6.8748C122.67 6.991 123.481 7.06106 123.014 7.06448C122.985 7.06489 122.568 6.94575 122.515 6.96154C122.4 6.99825 122.452 7.13769 122.408 7.17672C122.319 7.25478 122.322 7.26973 122.295 7.35523C122.262 7.46754 122.019 7.56618 122.083 7.71546C122.097 7.74697 122.535 7.8074 122.6 7.86489C122.664 7.92237 122.604 8.02836 122.494 8.04497C122.384 8.06158 122.045 7.96801 121.968 7.96411C121.303 7.8786 122.179 8.21141 122.196 8.22953C122.514 8.62214 121.933 8.77573 121.873 9.06534C121.822 9.27969 121.947 9.56328 121.878 9.76622C121.793 10.0078 121.513 10.1754 121.503 10.4275C121.497 10.4543 122.016 10.5336 122.016 10.562C122.006 10.9059 121.88 11.2298 121.467 11.4862C121.426 11.5118 120.991 11.3745 120.923 11.3939C120.511 11.5233 119.568 11.6555 121.479 12.1886C121.372 12.312 121.257 12.4688 120.839 12.5049C120.571 12.5338 120.098 12.3521 120.29 12.4962C120.332 12.5273 120.763 12.5861 120.796 12.6291C120.925 12.8008 120.755 12.9234 120.945 13.1092C120.985 13.147 121.365 13.215 121.437 13.2389C121.981 13.423 121.038 13.3432 120.965 13.3543C120.43 13.4338 120.595 13.6066 120.547 13.7792C120.538 13.8194 121.061 13.8786 121.065 13.9219C121.098 14.1417 121.011 14.3333 120.743 14.4823C120.678 14.5167 120.257 14.3825 120.204 14.3983C119.981 14.4449 120.805 14.6383 120.609 14.6912C120.57 14.7035 120.195 14.6154 120.154 14.6127C119.5 14.537 120.4 14.7694 120.417 14.7875C120.66 15.0143 119.684 14.9266 119.78 15.1188C119.796 15.1436 120.279 15.1933 120.286 15.2516C120.341 15.6531 120.129 16.0133 119.677 16.3102C119.61 16.3579 119.263 16.2411 119.214 16.2368C118.519 16.1584 119.427 16.3856 119.457 16.4068C119.678 16.6072 118.879 16.5821 119.955 16.9053C119.583 17.3129 119.748 17.8179 119.423 18.2365L119.442 18.1561C119.329 18.3063 119.157 18.4356 118.872 18.5666C118.857 18.5701 118.409 18.4932 118.384 18.5085C118.101 18.6612 118.814 18.7226 119.671 18.9589C119.883 19.0159 118.826 18.9728 118.748 18.9756C118.459 18.9714 117.782 18.8477 117.731 18.8501C117.286 18.8799 119.54 19.1544 119.527 19.2714C119.527 19.2714 119.11 19.209 119.067 19.213C118.937 19.2249 119.094 19.276 118.949 19.2914C118.611 19.318 117.513 19.2087 118.135 19.39C118.215 19.4089 119.497 19.5472 119.427 19.6367C119.397 19.6721 119.398 19.849 119.31 19.892C119.223 19.935 118.811 19.8525 118.796 19.8561C118.233 19.936 118.018 19.8573 117.202 19.8424C116.392 19.8291 118.307 20.01 118.522 20.0603C118.729 20.109 118.271 20.1641 118.113 20.1764C117.955 20.1887 117.693 20.1274 117.605 20.142C117.01 20.2357 118.55 20.3002 118.85 20.3777C119.564 20.5593 118.126 20.5117 117.977 20.6039C117.936 20.6296 118.266 20.6365 118.288 20.6628C118.397 20.7731 117.947 20.7946 118.344 20.9374C118.41 20.9598 119.261 21.1244 118.624 21.1303C118.532 21.13 118.176 21.0817 118.098 21.1129C117.972 21.1681 117.89 21.2761 118 21.3513C118.086 21.4068 118.676 21.3899 118.487 21.4444C118.404 21.4673 118.062 21.3871 117.937 21.4356C117.808 21.4759 117.817 21.6193 117.826 21.6709C117.835 21.7225 118.28 21.7211 118.314 21.7289C118.481 21.7682 118.69 21.8737 118.695 21.882C118.721 22.3122 117.949 22.6822 118.185 23.1193C118.206 23.1524 118.673 23.149 118.678 23.1573C118.869 23.2797 117.623 23.1358 117.205 23.2003C118.16 23.2265 117.981 23.2692 118.087 23.3577C118.134 23.3971 118.51 23.3933 118.543 23.4012C119.104 23.4832 118.373 23.4955 118.224 23.496C117.677 23.5089 118.317 23.5814 117.954 23.595C117.59 23.6086 117.058 23.5261 117.061 23.6046C117.399 23.6414 118.294 23.6184 118.434 23.6865C118.97 23.9324 118.255 24.33 118.17 24.5081C118.093 24.6878 118.149 24.7504 118.02 24.8474C117.787 25.026 118.453 24.9913 118.745 25.1306C119.038 25.2699 117.42 25.1164 117.066 25.1182C116.714 25.1133 117.072 25.1548 116.88 25.1593C116.686 25.1704 116.453 25.1087 116.379 25.1549C116.305 25.201 116.916 25.3657 117.281 25.4088C118.051 25.4978 118.867 25.4844 118.572 25.5988C118.555 25.609 118.131 25.5518 118.082 25.5758C117.737 25.7844 117.702 26.0236 117.386 26.2251C117.345 26.2507 116.873 26.1824 116.841 26.1963C116.522 26.3544 117.326 26.3595 118.207 26.552C117.052 26.4152 116.327 26.4006 116.282 26.5314C116.282 26.5314 116.282 26.5314 116.281 26.5381C116.262 26.6185 116.783 26.6561 117.141 26.7543C117.249 26.7795 116.89 26.8014 117.128 26.843C117.917 26.9718 118.812 27.0122 118.44 27.1227C118.425 27.1263 117.99 27.0525 117.964 27.0746C117.772 27.1992 118.598 27.3224 118.678 27.4965C118.736 27.6375 118.205 27.7954 118.105 27.9204C116.785 27.7308 117.07 27.9036 117.972 28.0942C117.923 28.1817 117.955 28.288 117.819 28.3551C117.771 28.3791 117.394 28.2978 117.352 28.2951C116.698 28.2545 117.575 28.432 117.605 28.4533C117.909 28.7226 117.209 28.7845 117.83 29.0926C117.856 29.0989 118.762 29.276 118.085 29.2091C118.038 29.1981 117.631 29.0671 117.588 29.1562C117.54 29.2436 117.017 29.333 117.42 29.5408C117.515 29.5912 118.24 29.811 117.651 29.7644C117.567 29.7589 117.313 29.6992 117.16 29.6847C116.691 29.6381 117.607 29.8318 116.817 29.7314C116.028 29.631 115.424 29.6164 115.936 29.8426C115.95 29.8458 116.673 30.0155 116.655 30.0609C116.626 30.1247 116.457 30.1839 116.448 30.2524C116.44 30.2859 116.897 30.3578 116.91 30.3609C117.122 30.6299 116.686 30.7113 116.464 30.9064C116.419 30.9455 117.011 31.1973 116.506 31.1779C115.953 31.1542 113.759 30.5967 114.243 30.9152C114.44 31.0392 117.22 31.7483 115.738 31.5912C116.032 31.9641 115.229 32.0725 115.677 32.4816C115.694 32.4997 116.47 32.7171 116.449 32.7475C116.418 32.7897 116.05 32.7316 116.022 32.7603C115.882 32.8759 116.168 33.0703 116.083 33.1917C116.05 33.2406 115.68 33.1325 115.646 33.188C115.611 33.2436 116.098 33.4001 115.838 33.4239C115.643 33.4417 114.609 33.2698 114.475 33.3301C115.479 33.5659 115.44 33.6132 115.684 33.7766C115.733 33.8093 116.086 33.8709 116.126 33.8804C116.299 33.9563 116.002 33.9289 116.188 34.008C116.234 34.0257 116.575 34.1058 116.634 34.1267C117.122 34.3049 116.328 34.2246 116.191 34.2065C115.666 34.154 116.109 34.2862 115.895 34.2926C115.683 34.2923 115.451 34.1672 115.318 34.1924C115.035 34.2533 115.059 34.4215 115.011 34.5374C115 34.5842 115.463 34.6576 115.468 34.6659C115.559 34.7931 115.053 34.7804 115.951 35.0478C113.583 34.5697 116.165 35.1615 115.663 35.1921C115.62 35.1961 114.505 34.9485 114.355 34.8639C114.203 34.786 114.568 34.8008 114.327 34.6807C114.27 34.6532 113.244 34.3276 113.187 34.3C112.712 34.0966 114.376 34.4731 114.471 34.4884C115.468 34.6659 114.367 34.3013 114.298 34.2639C113.971 34.06 114.229 34.0146 113.998 33.8544C113.853 33.7497 112.761 33.4934 112.807 33.4477C112.954 33.3054 114.49 33.5953 113.207 33.1315C112.933 33.032 111.733 32.7856 112.699 32.8852C112.761 32.8926 113.64 33.0001 113.11 32.8191C113.043 32.8034 112.695 32.7217 112.671 32.702C112.498 32.5977 112.782 32.6219 112.662 32.5302C112.542 32.4385 112.365 32.3192 112.497 32.2722C112.575 32.2411 113.238 32.3333 113.397 32.3494C113.867 32.396 113.131 32.1596 113.696 32.2499C114.262 32.3402 115.091 32.5986 115.47 32.5814C114.572 32.3707 113.641 32.1522 112.735 31.9467C112.811 31.7453 113.156 31.6001 113.158 31.3815C113.164 31.3547 112.667 31.2734 112.654 31.2419C112.6 31.1092 112.973 31.0837 112.861 30.9302C112.776 30.8112 112.281 30.6031 112.17 30.4712C113.221 30.6329 112.898 30.4089 113.017 30.3237C113.06 30.2914 113.335 30.3559 113.43 30.3428C113.783 30.3127 112.857 30.1658 112.721 30.1127C112.128 29.8676 114.207 30.2849 114.185 30.1383C114.186 30.1316 113.094 29.8186 113.03 29.7895C112.595 29.6239 113.418 29.8523 113.509 29.8243C113.679 29.7651 113.957 29.7527 113.649 29.5886C113.562 29.5398 112.883 29.331 113.431 29.3748C113.501 29.3771 113.871 29.4569 113.893 29.4549C114.271 29.4094 113.121 29.189 112.744 29.051C112.366 28.9129 113.181 28.9629 113.415 28.9895C114.017 29.0459 113.664 29.0761 113.717 29.0886C114.407 29.2506 114.296 29.1537 114.368 29.1143C115.501 29.3165 115.445 29.2255 114.436 29.0666C114.328 29.0481 114.425 29.1134 114.368 29.1143C113.27 28.8564 113.14 28.7482 114.198 28.848C114.689 28.8927 115.249 29.0381 115.071 28.8621C114.99 28.7865 114.205 28.666 114 28.5755C113.54 28.3685 114.289 28.3394 114.197 28.1905C114.159 28.1393 113.728 28.1088 113.688 28.071C113.584 27.969 113.921 27.9491 113.769 27.8428C113.756 27.8397 113.304 27.7761 113.302 27.7545C113.278 27.5579 113.597 27.4348 113.629 27.2374C113.651 27.1436 113.422 26.9416 113.486 26.8506C113.594 26.6922 114.275 26.5621 114.129 26.4007C114.041 26.2952 113.58 26.2718 113.278 26.201C113.231 26.19 113.191 26.1806 113.164 26.1743C112.864 26.0685 113.788 26.0451 113.938 26.038C113.938 26.038 114.045 26.1265 114.275 26.1099C114.758 26.1312 113.938 26.038 113.938 26.038C114.045 26.0347 114.166 25.8794 114.083 25.8456C114.039 25.8212 113.606 25.7974 113.594 25.7876C113.229 25.5392 113.139 25.3202 113.349 25.1152C113.356 25.1168 113.837 25.1449 113.852 25.1413C114.071 25.023 113.491 24.9012 113.146 24.7777C112.802 24.6475 112.926 24.5706 113.752 24.5453C113.652 24.4583 114.023 24.3544 114.249 24.2944C114.475 24.2344 113.54 24.1845 113.521 24.1731C112.937 23.9513 113.481 23.8599 113.57 23.6617C113.614 23.566 113.486 23.3592 113.392 23.2454C113.314 23.1564 113.537 23.1098 113.401 23.0283C113.382 23.0169 112.967 23.0112 112.947 23.0065C112.451 22.8902 113.469 22.9806 113.647 22.973C114.314 22.9317 114.666 22.9082 114.357 22.7791C114.286 22.7485 112.822 22.6027 112.743 22.5488C112.639 22.4819 113.165 22.5277 113.041 22.4561C113.027 22.4529 112.706 22.4342 112.723 22.3956C112.797 22.2009 112.992 21.9995 112.971 21.7895C112.97 21.7611 112.453 21.7669 112.441 21.7287C112.388 21.5326 112.423 21.3218 112.676 21.1479C112.742 21.1069 113.097 21.1618 113.204 21.1586C113.851 21.1409 112.926 20.9874 112.907 20.976C112.481 20.5933 113.355 20.3954 112.98 20.0036C112.956 19.9839 111.97 19.7311 112.834 19.7503C112.891 19.7495 113.776 19.7735 113.182 19.6552C113.142 19.6458 112.689 19.6456 112.742 19.5731C112.793 19.5073 112.503 19.3546 113.015 19.3122C113.174 19.2999 114.058 19.3238 113.372 19.1485C113.325 19.1374 111.761 18.8129 112.854 18.8856C113.034 18.8997 114.188 19.0432 113.608 18.8646C113.495 18.8312 113.232 18.84 113.081 18.7621C112.845 18.6504 113.166 18.5773 112.663 18.4027C112.571 18.374 111.799 18.1999 112.405 18.2078C112.497 18.2081 112.883 18.2776 112.931 18.2536C113.16 18.1234 112.923 17.9266 113.214 17.8039C113.315 17.764 113.932 17.8736 114.109 17.8444C114.287 17.8084 114.456 17.7209 114.182 17.6213C113.909 17.5218 112.91 17.4428 112.841 17.342C112.8 17.2758 112.78 17.2144 112.772 17.1561C112.796 17.1123 112.789 16.9622 112.814 16.9185C112.785 16.5868 113.281 16.371 113.412 16.0837C113.438 16.0333 113.077 16.0051 113.09 15.9231C113.124 15.6272 112.895 15.0648 113.69 14.9615C114.325 14.8772 114.73 15.2268 115.002 15.1211C115.135 15.0674 114.012 14.7616 113.977 14.732C113.646 14.4848 114.18 14.4687 114.055 14.2769C114.03 14.2356 113.563 14.1756 113.543 14.1425C113.484 14.0299 113.709 13.9765 113.691 13.8733C113.68 13.8284 113.327 13.7668 113.363 13.7329C113.444 13.6599 113.605 13.6059 113.955 13.5891C113.984 13.5887 114.416 13.7327 114.446 13.6688C114.491 13.5664 114.845 13.5012 114.53 13.3071C114.438 13.25 113.629 13.0815 114.207 13.1182C114.326 13.1248 115.292 13.3445 114.47 13.081C114.333 13.0346 113.243 12.6515 113.981 12.7259C114.175 12.7431 114.975 12.8601 114.863 12.7916C114.843 12.7869 114.408 12.7131 114.374 12.6768C114.264 12.5166 114.335 12.392 114.225 12.2317C114.192 12.1888 113.736 12.1453 113.707 12.089C113.626 11.9216 113.774 11.7726 113.942 11.6567C114.009 11.6157 114.371 11.7289 114.413 11.7317C115.08 11.8105 114.207 11.5844 114.156 11.5585C113.877 11.3656 114.309 11.361 114.222 11.2204C114.203 11.1806 113.773 11.1151 113.733 11.1056C113.377 10.9656 114.127 11.17 114.217 11.1487C114.48 11.0832 114.471 10.9397 114.444 10.8133C114.434 10.7684 113.931 10.7139 113.927 10.6706C113.893 10.4224 113.988 10.1974 114.304 10.0243C114.367 9.99664 114.739 10.0981 114.821 10.1102C115.435 10.1765 114.635 9.91098 114.558 9.87872C114.223 9.70832 114.561 9.74516 114.519 9.65063C114.297 9.18153 114.621 8.73459 114.838 8.38265C115.122 7.92626 115.561 7.6195 115.571 7.12702C115.577 7.10023 115.067 7.01581 115.058 6.99257C115.008 6.63447 115.273 6.35027 115.204 5.98076C115.197 5.95082 114.717 5.88767 114.694 5.83292C114.641 5.72855 114.695 5.62096 114.864 5.56177C114.949 5.53217 115.338 5.6801 115.416 5.64893C115.589 5.57634 115.649 5.47031 115.6 5.34584C115.578 5.29109 115.077 5.25829 115.084 5.19643C115.123 4.78864 115.131 4.3663 115.851 4.0972C115.897 4.07983 116.89 4.27744 116.717 4.17314C116.442 4.10868 116.12 4.03321 115.832 3.96561C115.81 3.33842 116.282 2.83426 116.467 2.2558C116.473 2.22901 115.946 2.15485 115.957 2.10796C116.023 1.82662 115.947 1.51898 116.529 1.3587C116.589 1.34448 117.498 1.56497 117.377 1.45158C117.353 1.43189 117.262 1.27632 117.067 1.20236C117.041 1.19608 116.607 1.11555 116.603 1.07221C116.593 0.815348 116.75 0.597798 117.06 0.423091C117.109 0.392333 117.555 0.539425 117.595 0.520493C117.879 0.396229 117.582 0.0934283 118.04 0.0100391C118.351 -0.0512045 119.124 0.179612 119.908 0.300115C120.017 0.318571 120.056 0.242904 120.506 0.341535C121.64 0.600518 122.871 0.924842 124.08 1.19442C124.341 1.25573 124.082 1.09593 124.699 1.2973C124.739 1.30673 124.93 1.42916 125.139 1.49956C125.284 1.54754 125.745 1.62764 125.933 1.70003C126.115 1.77084 125.728 1.70133 125.938 1.8001C126.156 1.89374 126.675 2.00138 126.723 2.09748L126.697 2.09119Z" fill="#FFF0E1"/>
<path d="M202.94 59.2163C203.404 59.4666 203.441 59.5528 202.805 59.3684C202.86 59.3176 202.887 59.2604 202.94 59.2163ZM208.808 50.8685C208.843 50.8981 208.979 50.831 208.952 50.7964C208.416 50.1265 208.145 50.2606 208.808 50.8685ZM203.733 55.0842C203.733 55.0842 203.803 55.0582 203.786 55.0401C203.376 54.7105 203.272 54.7922 203.733 55.0842ZM198.824 67.3885C198.971 67.1544 200.883 67.4405 200.604 67.6648C200.553 67.7023 200.033 67.4177 199.845 67.4371C199.51 67.4787 200.67 67.8358 200.012 67.8086C199.893 67.8019 198.808 67.3987 198.819 67.3802L198.824 67.3885ZM206.204 51.9326C206.204 51.9326 206.268 51.9333 206.171 51.8329C205.858 51.512 205.903 51.6499 206.204 51.9326ZM199.208 65.6623C199.524 65.7011 199.194 65.5106 198.801 65.4679C198.485 65.429 198.815 65.6195 199.208 65.6623ZM218.205 34.1969C218.205 34.1969 218.251 34.1511 218.229 34.1531C217.705 34.129 217.666 34.2047 218.205 34.1969ZM198.891 64.5136C199.472 64.5369 197.212 63.9571 197.643 64.1995C197.668 64.2125 198.863 64.514 198.891 64.5136ZM198.634 63.3507C199.364 63.4303 198.347 63.0996 197.783 63.0309C197.22 62.9623 198.413 63.3272 198.634 63.3507ZM202.08 53.9966C202.497 54.1792 201.158 53.2289 201.424 53.5388C201.441 53.5569 202.06 53.9919 202.08 53.9966ZM225.02 34.065C225.168 34.5518 224.968 35.1622 224.701 35.5449C224.616 35.6663 224.338 35.5585 224.269 35.6413C224.136 35.7867 224.25 35.962 224.085 36.0929C224.032 36.137 223.588 35.9832 223.542 36.029C223.285 36.2797 223.344 36.5409 223.174 36.7836C222.354 37.927 221.755 38.8252 221.073 39.6829C220.851 39.9632 220.276 40.125 220.264 40.5107C220.259 40.5592 220.626 40.7441 220.649 40.7638C221.029 41.1355 220.344 40.6781 220.208 40.6884C219.679 40.7411 219.471 40.9962 219.441 41.3354C219.43 41.4741 220.177 41.8121 219.723 41.6701C219.689 41.6622 219.348 41.3985 219.292 41.3993C219.163 41.4045 219.146 41.57 219.081 41.6043C218.962 41.6611 218.95 41.6796 218.887 41.7707C218.796 41.8838 218.521 41.9111 218.507 42.0916C218.505 42.1333 218.893 42.3447 218.921 42.4361C218.951 42.5207 218.835 42.6209 218.727 42.6024C218.613 42.5757 218.344 42.3643 218.275 42.3269C217.69 41.9916 218.352 42.6629 218.358 42.6996C218.447 43.2507 217.826 43.1896 217.609 43.4781C217.446 43.6941 217.409 44.0317 217.231 44.2162C217.018 44.4346 216.666 44.4864 216.515 44.7406C216.502 44.7658 216.925 45.0701 216.904 45.1005C216.693 45.454 216.389 45.7288 215.861 45.8098C215.809 45.8189 215.492 45.4831 215.424 45.474C214.977 45.4187 214.053 45.11 215.452 46.5267C215.286 46.6009 215.086 46.7022 214.691 46.5461C214.44 46.4445 214.13 46.0468 214.212 46.2709C214.228 46.3241 214.575 46.5895 214.578 46.6395C214.588 46.868 214.358 46.913 214.414 47.1876C214.428 47.2475 214.722 47.5002 214.766 47.553C215.136 47.9933 214.351 47.4555 214.277 47.4383C213.754 47.2589 213.794 47.5087 213.641 47.6494C213.605 47.6833 214.026 47.9943 214.009 48.0396C213.9 48.2615 213.702 48.4129 213.367 48.4261C213.295 48.4304 213.001 48.0859 212.948 48.0733C212.723 48.0065 213.318 48.6054 213.117 48.5582C213.077 48.5488 212.809 48.2739 212.772 48.2511C212.254 47.8397 212.891 48.5264 212.893 48.5481C212.955 48.8876 212.164 48.3133 212.123 48.5442C212.117 48.571 212.505 48.8741 212.471 48.9297C212.262 49.3399 211.838 49.5797 211.258 49.6131C211.164 49.6195 210.943 49.3273 210.908 49.2978C210.362 48.8517 210.998 49.5451 211.002 49.5885C211.058 49.8914 210.392 49.4454 211.091 50.3232C210.299 50.5683 210.207 51.5292 208.987 51.3065C208.974 51.3034 208.665 50.9624 208.639 50.9561C208.301 50.9193 208.822 51.4091 209.32 52.1479C209.446 52.333 208.633 51.6404 208.574 51.5912C208.348 51.4109 207.907 50.8832 207.858 50.8506C207.485 50.6006 209.058 52.2418 208.957 52.3384C208.957 52.3384 208.677 52.0253 208.64 52.0025C208.523 51.9324 208.616 52.0746 208.487 51.9947C208.199 51.807 207.428 51.0254 207.78 51.5744C207.822 51.6338 208.493 52.3284 208.591 52.5423C208.605 52.5738 208.607 52.5955 208.591 52.6057C208.537 52.6215 208.401 52.7803 208.301 52.7568C208.2 52.7332 207.945 52.4048 207.933 52.3949C207.444 52.1033 207.33 51.8929 206.713 51.3595C206.103 50.8275 207.438 52.2151 207.566 52.3935C207.687 52.5704 207.293 52.3224 207.167 52.2291C207.04 52.1358 206.878 51.9212 206.806 51.8688C206.284 51.5626 207.409 52.6111 207.581 52.8706C207.989 53.4823 206.929 52.5196 206.743 52.4972C206.696 52.4862 206.942 52.7063 206.939 52.7481C206.936 52.91 206.577 52.6348 206.776 53.0208C206.81 53.0854 207.342 53.7686 206.851 53.3635C206.78 53.3045 206.547 53.0308 206.46 53.0104C206.326 52.9789 206.177 53.0145 206.209 53.1492C206.234 53.254 206.699 53.6177 206.52 53.5402C206.442 53.508 206.233 53.2256 206.102 53.1808C205.971 53.1359 205.88 53.2557 205.847 53.3046C205.814 53.3535 206.157 53.6389 206.179 53.6653C206.282 53.8023 206.37 54.0281 206.362 54.0332C206.083 54.406 205.223 54.2466 205.122 54.7671C205.113 54.8073 205.494 55.0805 205.499 55.0887C205.576 55.3046 204.659 54.4533 204.279 54.2652C205.033 54.8451 204.865 54.7775 204.897 54.9122C204.91 54.9787 205.215 55.1846 205.244 55.2126C205.653 55.6055 205.05 55.1954 204.927 55.117C204.467 54.8183 204.954 55.2435 204.646 55.051C204.337 54.8585 203.953 54.4785 203.899 54.5578C204.158 54.781 204.914 55.2624 204.988 55.3999C205.292 55.9095 204.472 55.8513 204.307 55.9822C204.144 56.1064 204.16 56.1879 203.997 56.2203C203.7 56.278 204.305 56.5613 204.499 56.8188C204.7 57.078 203.322 56.2033 203.014 56.0392C202.705 55.8818 203.005 56.0794 202.825 56.0019C202.646 55.9244 202.465 55.7618 202.376 55.7764C202.281 55.7895 202.749 56.2383 203.057 56.4308C203.715 56.8469 204.456 57.1833 204.144 57.1595C204.124 57.1547 203.76 56.928 203.708 56.9371C203.3 56.9897 203.165 57.2053 202.796 57.3024C202.796 57.3024 202.796 57.3024 202.789 57.3009C202.707 57.2887 202.332 57.0805 202.295 57.086C201.927 57.1481 202.682 57.4242 203.445 57.9072C202.381 57.3818 201.698 57.1297 201.62 57.281C201.572 57.3685 202.055 57.5668 202.36 57.7727C202.451 57.8365 202.103 57.7547 202.318 57.8617C203.033 58.2203 203.875 58.5168 203.486 58.5174C203.466 58.5127 203.079 58.3231 203.041 58.3353C202.818 58.4103 203.579 58.7514 203.614 58.9362C203.636 59.0827 203.085 59.109 202.954 59.2194C201.71 58.7367 201.942 58.982 202.785 59.3637C202.718 59.4398 202.725 59.5615 202.574 59.6038C202.52 59.6196 202.168 59.4661 202.127 59.4567C201.488 59.2924 202.317 59.6425 202.346 59.6705C202.594 59.9973 201.889 59.9591 202.448 60.38C202.466 60.3914 203.342 60.6958 202.686 60.5418C202.639 60.5307 202.262 60.3293 202.198 60.4203C202.134 60.5113 201.603 60.5491 201.964 60.8176C202.055 60.8813 202.745 61.1918 202.163 61.0834C202.082 61.0645 201.834 60.978 201.685 60.9501C201.22 60.855 202.11 61.1559 201.335 60.9668C200.558 60.7845 199.951 60.7198 200.438 61.0249C200.451 61.028 201.154 61.2849 201.131 61.3219C201.094 61.3909 200.911 61.4469 200.894 61.5206C200.886 61.5541 201.333 61.6661 201.338 61.6744C201.52 61.9855 201.075 62.0437 200.828 62.2542C200.783 62.2933 201.348 62.5955 200.849 62.556C200.292 62.5173 198.139 61.8141 198.594 62.1964C198.776 62.3523 201.522 63.2088 200.037 63.0017C200.306 63.425 199.493 63.5453 199.915 64.0048C199.932 64.0229 200.702 64.2671 200.68 64.2975C200.648 64.3464 200.281 64.2816 200.245 64.3155C200.095 64.4428 200.375 64.664 200.287 64.7988C200.254 64.8477 199.884 64.7396 199.848 64.8019C199.812 64.8641 200.296 65.034 200.034 65.0645C199.837 65.0891 198.805 64.9104 198.662 64.9759C199.664 65.2251 199.623 65.2791 199.864 65.4558C199.913 65.4885 200.266 65.5502 200.303 65.573C200.475 65.6556 200.177 65.6282 200.362 65.714C200.407 65.7317 200.747 65.8186 200.806 65.8394C201.293 66.0243 200.497 65.9507 200.359 65.9394C199.832 65.8936 200.267 66.0308 200.053 66.0372C199.839 66.0437 199.611 65.9051 199.476 65.9371C199.19 66.0113 199.209 66.1996 199.156 66.3356C199.144 66.3892 199.607 66.4626 199.612 66.4709C199.699 66.6115 199.19 66.6122 200.087 66.8862C197.719 66.4081 200.299 67.0067 199.792 67.0574C199.749 67.0613 198.634 66.8138 198.484 66.7292C198.334 66.6445 198.7 66.6526 198.463 66.5192C198.406 66.4916 197.389 66.1542 197.326 66.1251C196.853 65.9083 198.518 66.2847 198.612 66.3067C199.61 66.4776 198.512 66.0996 198.444 66.0555C198.121 65.8382 198.384 65.7727 198.156 65.599C198.012 65.4876 196.924 65.218 196.971 65.1655C197.131 64.998 198.659 65.293 197.391 64.7906C197.12 64.6844 195.919 64.4381 196.89 64.5175C196.952 64.525 197.833 64.6257 197.306 64.4314C197.241 64.409 196.894 64.3205 196.869 64.3075C196.697 64.1965 196.982 64.2141 196.873 64.1105C196.756 64.0054 196.584 63.866 196.725 63.8073C196.811 63.771 197.466 63.8683 197.634 63.8792C198.103 63.9259 197.38 63.6643 197.937 63.7597C198.501 63.8567 199.316 64.147 199.703 64.1247C198.81 63.8939 197.891 63.6569 196.984 63.423C197.076 63.183 197.427 63.011 197.454 62.7486C197.461 62.7151 196.968 62.6205 196.956 62.5822C196.915 62.4243 197.292 62.3855 197.192 62.2067C197.112 62.0676 196.637 61.8008 196.545 61.6519C197.586 61.8538 197.288 61.5861 197.419 61.4824C197.463 61.4434 197.735 61.5212 197.835 61.5164C198.195 61.4879 197.279 61.2942 197.148 61.221C196.586 60.9053 198.623 61.4683 198.624 61.2847C198.626 61.278 197.572 60.861 197.509 60.8252C197.096 60.6009 197.891 60.9148 197.991 60.8817C198.168 60.8173 198.452 60.8132 198.172 60.592C198.087 60.5298 197.442 60.2371 197.981 60.3211C198.048 60.3368 198.412 60.4433 198.433 60.4413C198.823 60.4057 197.702 60.0647 197.345 59.8679C196.989 59.6711 197.803 59.7846 198.034 59.8246C198.63 59.9362 198.266 59.9498 198.318 59.969C198.981 60.2165 198.889 60.096 198.965 60.0431C200.068 60.3727 200.03 60.2647 199.041 59.9903C198.934 59.9652 199.02 60.049 198.965 60.0431C197.906 59.6462 197.801 59.4942 198.848 59.6977C199.335 59.7908 199.868 60.0217 199.723 59.7969C199.654 59.6961 198.893 59.4751 198.711 59.3475C198.295 59.0448 199.058 59.0755 199.003 58.886C198.984 58.8179 198.552 58.7306 198.53 58.6759C198.457 58.5317 198.793 58.5469 198.676 58.3851C198.665 58.3685 198.228 58.2447 198.236 58.2112C198.279 57.9385 198.631 57.8233 198.734 57.5648C198.785 57.4355 198.641 57.1188 198.746 57.0022C198.92 56.8027 199.647 56.7755 199.587 56.521C199.549 56.3497 199.126 56.1939 198.865 56.0124C198.369 55.6558 199.434 55.9057 199.599 55.9584C199.599 55.9584 199.646 56.118 199.885 56.1529C200.34 56.3232 199.599 55.9584 199.599 55.9584C199.672 55.9757 199.79 55.8973 199.835 55.8232C199.857 55.7928 199.864 55.7593 199.842 55.7329C199.81 55.69 199.42 55.5137 199.412 55.4905C199.218 55.021 199.283 54.6546 199.628 54.446C199.635 54.4475 200.052 54.6868 200.074 54.6848C200.359 54.6173 199.909 54.2149 199.694 53.8959C199.481 53.5702 199.657 53.5126 200.408 53.8656C200.389 53.7056 200.788 53.7499 201.026 53.7916C201.263 53.8332 200.491 53.2986 200.481 53.2821C200.147 52.7161 200.69 52.8718 200.925 52.6865C201.037 52.5998 201.094 52.2952 201.108 52.1147C201.115 51.9678 201.336 52.048 201.292 51.8751C201.283 51.8519 200.953 51.6046 200.941 51.5948C200.628 51.1821 201.385 51.8688 201.547 51.9632C202.124 52.3037 202.427 52.4879 202.281 52.1779C202.248 52.1066 201.185 51.0939 201.162 50.9824C201.138 50.8426 201.519 51.2076 201.477 51.0563C201.48 51.0429 201.225 50.8347 201.275 50.8039C201.496 50.6438 201.819 50.5641 201.969 50.3449C201.99 50.3146 201.582 50.0067 201.608 49.9563C201.731 49.7308 201.929 49.5511 202.268 49.5529C202.353 49.5516 202.584 49.832 202.669 49.8942C203.183 50.2907 202.584 49.5633 202.583 49.5349C202.559 48.9144 203.379 49.3048 203.384 48.7406C203.384 48.7123 202.806 47.8628 203.455 48.4392C203.496 48.477 204.162 49.0715 203.788 48.5879C203.767 48.5548 203.419 48.2611 203.509 48.2398C203.599 48.2185 203.479 47.9148 203.899 48.2041C204.032 48.299 204.693 48.8853 204.284 48.3087C204.259 48.2674 203.276 47.0048 204.065 47.7695C204.175 47.873 204.744 48.4873 204.733 48.3857C204.738 48.3656 204.707 48.316 204.655 48.2332C204.594 48.134 204.385 47.9718 204.316 47.8143C204.209 47.5771 204.5 47.7231 204.223 47.2765C204.172 47.1938 203.689 46.5716 204.141 46.9606C204.212 47.0197 204.467 47.3197 204.522 47.3256C204.78 47.3719 204.716 47.0741 205.014 47.1583C205.121 47.1834 205.532 47.6615 205.69 47.741C205.848 47.8205 206.044 47.8594 205.891 47.6046C205.738 47.3564 204.999 46.6812 205.005 46.5626C205.049 46.0429 205.736 46.1899 206.076 45.973C206.126 45.9422 205.839 45.7194 205.897 45.6552C206.102 45.4135 206.253 44.7988 206.981 45.1321C207.567 45.404 207.698 45.9295 207.998 45.9786C208.14 46.0049 207.378 45.1264 207.359 45.0866C207.226 44.688 207.687 44.9517 207.699 44.7212C207.703 44.6727 207.337 44.3676 207.345 44.3341C207.361 44.2037 207.586 44.2706 207.623 44.1732C207.634 44.1264 207.38 43.883 207.425 43.8724C207.536 43.849 207.704 43.8884 208.011 44.0525C208.037 44.0655 208.32 44.4218 208.387 44.3808C208.487 44.3126 208.825 44.4412 208.67 44.108C208.623 44.0052 208.028 43.4414 208.495 43.7701C208.592 43.8354 209.292 44.5296 208.745 43.8783C208.651 43.7645 207.931 42.8603 208.525 43.3107C208.682 43.4253 209.31 43.9402 209.246 43.8193C209.236 43.8028 208.893 43.5173 208.892 43.4606C208.883 43.2605 209.014 43.1851 209.004 42.985C209.002 42.935 208.627 42.6633 208.636 42.5948C208.653 42.4009 208.873 42.3394 209.075 42.3231C209.153 42.3203 209.406 42.5987 209.441 42.6282C209.983 43.0309 209.341 42.3927 209.31 42.343C209.164 42.0331 209.546 42.2428 209.55 42.0742C209.553 42.0325 209.213 41.762 209.186 41.7273C208.953 41.4253 209.495 41.9765 209.587 42.0053C209.849 42.0666 209.919 41.9487 209.957 41.8163C209.968 41.7694 209.563 41.4766 209.579 41.4379C209.677 41.1995 209.87 41.0398 210.238 41.0412C210.308 41.0435 210.584 41.3133 210.656 41.3656C211.167 41.7187 210.591 41.1029 210.543 41.0351C210.326 40.7228 210.613 40.9173 210.617 40.8121C210.649 40.2826 211.146 40.0317 211.493 39.8164C211.95 39.5278 212.481 39.4333 212.69 38.9947C212.696 38.9679 212.275 38.6853 212.281 38.6585C212.383 38.3149 212.728 38.1697 212.79 37.8167C212.796 37.7899 212.373 37.5423 212.371 37.4923C212.354 37.3824 212.442 37.311 212.615 37.3235C212.699 37.329 213.015 37.6081 213.092 37.612C213.276 37.6127 213.363 37.5413 213.356 37.4196C213.349 37.3613 212.897 37.1492 212.923 37.0988C213.088 36.7559 213.188 36.419 213.923 36.4217C213.973 36.4193 214.864 36.8971 214.722 36.7506C214.479 36.609 214.192 36.4495 213.929 36.3031C214.037 35.7842 214.552 35.5164 214.76 35.1412C214.763 35.1278 214.259 34.9599 214.273 34.928C214.349 34.755 214.256 34.5777 214.806 34.5865C214.862 34.5857 215.762 34.8464 215.641 34.7613C215.617 34.7417 215.514 34.6397 215.324 34.574C215.298 34.5677 214.869 34.4671 214.859 34.4506C214.817 34.3277 214.928 34.276 215.206 34.2352C215.249 34.2313 215.716 34.2913 215.753 34.2857C216.007 34.2253 215.657 34.1503 216.077 34.1075C216.364 34.0616 217.173 34.0466 217.963 33.9634C218.073 33.9468 218.085 33.8932 218.547 33.8531C219.703 33.7429 220.98 33.6961 222.215 33.5832C222.483 33.5543 222.177 33.3834 222.833 33.4457C222.874 33.4551 223.106 33.5803 223.325 33.6105C223.475 33.6317 223.946 33.5514 224.141 33.597C224.342 33.6442 223.946 33.735 224.179 33.8251C224.412 33.9152 224.949 33.8574 225.012 34.0701L225.02 34.065Z" fill="#FFF0E1"/>
</svg>
