<svg width="123" height="117" viewBox="0 0 123 117" fill="none" xmlns="http://www.w3.org/2000/svg">
<path d="M68.5034 108.276C69.5967 106.71 71.4054 104.846 72.8747 103.49C73.3327 103.066 73.4444 103.561 73.7774 103.276C74.4236 102.723 74.7633 101.988 75.4267 101.453C75.6483 101.277 75.9277 101.938 76.1474 101.746C77.3534 100.682 78.1636 99.3978 79.262 98.2153C80.0538 97.3627 80.8351 96.5036 81.6081 95.6382C85.7051 91.0787 89.1579 85.1435 92.8528 79.3186C93.4026 78.4405 94.0622 77.5172 94.7343 76.5645C95.7494 75.1374 96.7688 73.6016 97.4149 72.0717C97.5387 71.7774 96.9609 71.6833 96.9491 71.6085C96.7746 70.4509 97.6162 71.2484 98.0352 70.774C99.6997 68.8779 100.992 66.448 101.853 64.226C102.218 63.2791 100.784 63.7005 101.786 63.0623C101.855 63.0173 102.269 63.5071 102.448 63.2858C102.852 62.7851 103.281 61.6638 103.533 61.2469C104.026 60.44 104.087 60.2977 104.476 59.4988C105.011 58.4082 105.89 57.2254 106.314 55.987C106.403 55.7207 105.702 55.803 105.794 55.3579C105.885 54.916 106.417 53.8703 106.707 53.5713C106.999 53.2691 107.362 53.6172 107.489 53.5979C107.63 53.5786 107.742 53.5317 107.83 53.4649C108.412 53.0197 107.925 51.7086 107.953 51.5674C108.63 48.5454 110.147 46.3354 110.857 43.5614C111.39 41.4657 111.563 39.1689 111.817 37.1538C112.115 34.8242 112.492 32.8169 112.447 30.4652C112.446 30.3938 112.443 30.3228 112.441 30.2522C112.432 30.0131 111.728 30.3014 111.714 30.018C111.555 26.9336 111.072 24.7382 109.794 22.0372C109.667 21.7651 110.399 21.7318 110.297 21.4323C109.679 19.5978 108.33 16.2723 105.497 17.187C105.412 17.0779 105.324 16.9655 105.233 16.85C104.516 15.9084 103.661 14.9272 103.168 13.9164C102.809 13.1968 103.784 13.0792 102.873 12.7691C102.667 12.7016 102.54 13.3385 102.264 13.2078C101.116 12.6685 100.007 11.845 98.7444 11.6539C98.4874 11.6166 98.3518 12.1368 98.2522 12.1997C97.4568 12.7085 96.9715 11.2017 96.7638 11.0462C95.3331 9.89891 93.9622 9.92784 92.2525 9.62445C91.8493 9.55322 92.2104 10.3374 91.8174 10.2943C91.6156 10.2712 91.4056 10.2453 91.1982 10.2177C90.2058 10.1049 88.4831 10.2093 86.8524 10.2689C86.4422 10.2829 86.6778 9.60957 86.4726 9.58685C85.542 9.50736 85.6364 10.6713 84.7613 10.6516C84.5757 10.6504 84.5323 10.1217 84.4853 10.0753C83.7403 9.35085 83.6589 10.7067 83.546 10.7708C82.0654 11.6331 80.5994 10.7475 79.0993 11.5305C78.9231 11.6254 79.5791 12.0756 79.072 12.3043C76.14 13.6394 73.0124 14.9789 70.0258 16.2314C69.7137 16.3429 69.3947 16.494 69.0742 16.6829C68.6928 16.9186 68.5874 16.3457 68.5291 16.3155C67.4873 15.9802 68.1733 17.1458 68.1261 17.2759C67.6245 18.3903 66.0655 19.0645 67.0735 20.535C65.8221 22.7499 65.2242 25.4905 64.9496 28.1209C64.8637 28.9684 64.9293 29.7225 65.1439 30.455C65.2525 30.8245 65.398 31.1891 65.6016 31.6022C65.7042 31.8109 65.8195 32.0269 65.9681 32.3028C66.0429 32.4428 66.1246 32.5931 66.2279 32.8037C66.3268 33.0245 66.4686 33.255 66.5938 33.8429C66.6097 33.9269 66.6256 34.0227 66.6367 34.1505C66.6422 34.2219 66.646 34.2632 66.6463 34.395C66.6443 34.5477 66.6363 34.7426 66.5595 35.0243C66.5201 35.1646 66.4612 35.3277 66.3628 35.5081C66.2646 35.7022 65.9812 36.0858 65.6276 36.31C65.2705 36.5507 64.8437 36.6664 64.5106 36.6827C64.1188 36.6943 64.062 36.6631 63.8975 36.6346C63.3543 36.5047 63.1416 36.3137 63.0675 36.2709C62.8608 36.1231 62.7753 36.0308 62.712 35.9675C62.6435 35.8971 62.5919 35.8377 62.5542 35.7917C62.3865 35.588 62.3001 35.4539 62.1976 35.301C62.0083 35.0113 61.8535 34.7455 61.6985 34.4725C61.3937 33.9318 61.1151 33.3913 60.8507 32.8437C60.8139 32.7708 61.399 32.4973 61.3229 32.3529C60.4005 30.6069 59.8585 31.5034 58.1421 31.2941C57.7152 31.2462 58.2002 29.5832 58.2214 29.4479C58.3131 28.9564 59.2345 28.5909 59.223 28.4618C59.0889 27.4042 56.8577 29.5498 56.0996 28.7211C56.0792 28.6914 56.5996 28.4148 56.5765 28.3061C56.5046 27.9656 56.1367 27.9048 56.0773 27.5593C56.0676 27.5016 56.0633 27.4418 56.0631 27.3803C56.0747 26.6112 56.7264 25.5053 55.4615 25.4474C55.288 25.4474 54.2551 26.8653 53.5774 26.1716C53.3131 25.884 51.9293 24.8429 51.5863 24.4749C51.2515 24.0986 51.8517 23.8297 51.8381 23.7899C51.147 22.4025 51.7409 22.4386 51.7543 21.1208C51.7389 19.8004 50.5016 22.1373 50.1107 22.2397C49.7228 22.3408 49.1751 21.2983 49.0582 20.9876C48.9461 20.6766 49.3975 20.5194 49.2616 20.3024C48.3334 18.8757 48.0574 21.1289 47.4359 21.2653C45.988 21.6123 46.0906 19.4817 45.2042 18.8473C44.9672 18.6779 44.9882 19.1799 44.7408 19.1093C43.7655 18.8287 43.4583 18.0218 42.1798 18.0756C41.969 18.0827 40.6622 18.8009 40.4408 17.7759C40.4098 17.6284 40.8216 17.2724 40.464 17.0057C40.4331 16.9826 40.4004 16.959 40.3663 16.935C39.8021 16.5402 38.8532 16.0736 38.1873 15.9927C37.6705 15.9314 37.9343 16.8806 37.4341 16.4351C37.2078 16.2367 37.862 15.9706 37.41 15.6307C36.9708 15.2906 35.6602 14.8946 35.1695 14.7819C34.664 14.66 34.7813 15.3236 34.7292 15.3516C34.4299 15.5091 33.4482 15.5758 33.3724 15.563C29.4151 14.6659 25.4921 14.4504 21.4344 16.1733C21.122 16.3028 21.5356 16.8423 21.49 16.8684C20.4724 17.4883 20.8092 15.5793 19.8492 15.2981C20.3735 16.4954 19.8478 16.4227 19.109 16.8241C18.7572 17.0172 19.1227 17.4256 19.1052 17.486C18.7842 18.4034 18.0872 17.5952 17.9181 17.4388C17.7791 17.3075 17.6647 17.2561 17.5657 17.2508C17.2696 17.2186 17.201 17.7223 16.8811 17.4458C16.4452 17.1063 16.6885 16.1739 15.9658 16.5386C15.9994 17.0467 17.0133 17.8901 16.6552 18.3023C15.3877 19.7094 12.0459 21.9307 10.8646 23.3319C9.6963 24.6674 9.44062 25.1999 8.70036 25.9553C7.37486 27.34 8.51527 27.281 8.20929 28.4812C8.12818 28.8034 7.95906 28.9198 7.74585 28.9128C7.21417 28.8173 6.22495 27.971 5.87057 27.8771C5.36841 27.7826 5.70051 28.1957 5.37334 28.2783C5.03728 28.3882 4.95588 27.7597 4.63038 28.2697C4.23259 28.8564 4.92088 30.5178 5.45717 30.6227C6.52801 30.9624 7.58923 30.4008 7.28544 31.462C7.26983 31.5295 6.66429 31.3808 6.635 31.6413C6.45755 33.7549 7.18354 36.0744 7.49543 38.336C7.54137 38.6546 6.83589 38.5906 6.8543 38.7739C7.05513 40.6996 7.88525 39.7156 9.3689 40.3014C7.75921 40.6018 7.00359 41.4659 7.46265 42.8302C7.73953 43.654 8.35707 43.2724 9.0145 43.6479C9.20969 43.7524 8.94937 44.4876 9.30147 44.487C9.69379 44.4853 10.0642 44.3739 10.3831 44.2902C10.9989 44.1268 11.4229 44.0755 11.439 45.0842C11.4389 45.1533 10.808 45.1559 10.849 45.3803C11.1094 46.814 12.2391 46.5953 12.9094 47.9801C13.4316 49.06 13.589 51.3033 14.0522 52.5922C12.3719 53.3059 13.3125 54.3566 14.6727 54.2646C15.0148 55.08 15.5162 55.8782 15.7879 56.6942C15.8836 56.9769 15.3315 57.0768 15.3007 57.1373C14.8206 58.0889 16.077 57.7891 16.2151 57.9175C17.6007 59.2786 17.9721 61.0174 19.7178 61.8339C19.8259 61.8841 19.9389 61.9306 20.0573 61.973C20.1325 62.0004 21.0885 61.1682 20.8242 62.1943C20.8063 62.2648 19.9336 62.2302 20.5782 62.9038C21.2179 63.5748 22.1064 65.2703 23.4937 65.6799C23.828 65.7803 25.1068 65.5182 25.0843 66.5498C25.0804 66.6892 24.7734 66.9052 24.7391 67.1406C24.6318 67.8926 25.6275 67.0583 25.2896 68.1956C24.953 69.3346 25.1794 70.5882 26.6774 70.8862C26.7229 70.8966 27.6243 70.3338 27.9326 70.6225C28.4251 71.0841 28.9991 71.8708 29.5241 72.3342C29.7765 72.5565 30.0379 71.9446 30.0891 71.9751C31.9952 73.2278 32.7948 74.7391 34.2905 76.6124C34.3031 76.6283 34.3159 76.6443 34.3287 76.6604C34.6085 77.0151 36.1022 77.2842 36.253 78.3615C36.4263 79.5469 33.5921 81.1357 35.7108 82.0978C36.5688 82.4886 40.018 80.3254 39.822 82.8841C42.4225 84.5492 43.8237 87.186 46.5361 88.7321C46.6572 88.8014 47.7233 88.2997 47.9491 88.5333C48.2831 88.8819 48.1201 89.4334 48.3449 89.6951C48.9153 90.3723 49.6008 90.8624 50.2592 91.3846C50.6829 91.7227 51.0876 92.0614 51.4354 92.4523C51.7822 92.8406 51.2844 93.0883 51.7006 93.5566C52.1108 94.0193 52.9058 93.8378 53.2504 94.6835C53.4916 95.3065 52.9236 96.7759 53.3609 97.4866C54.4122 96.5551 54.7874 96.9953 55.7622 97.5111C55.9512 97.6113 56.1663 97.122 56.2745 97.1525C56.7266 97.2741 56.6462 97.7886 57.1067 97.8907C57.2163 97.9141 57.5761 97.5969 57.6858 97.598C58.6264 97.5871 58.5051 99.0858 58.4685 99.3316C58.3753 100.313 59.0393 100.131 59.165 100.716C59.2825 101.292 58.5193 100.929 58.7725 101.496C59.2959 102.67 60.3252 103.836 61.0498 104.862C61.3358 105.263 61.655 104.615 61.7079 104.664C62.4543 105.409 62.4615 106.649 63.8463 106.458C61.4223 108.809 64.4641 106.818 64.6403 108.473C64.6487 108.597 63.3607 109.489 62.9439 109.213C62.5294 108.941 62.6278 108.136 62.0067 107.816C61.8585 107.732 60.201 107.861 60.0746 107.836C59.0466 107.548 60.8735 106.108 60.9532 105.997C61.7654 104.748 59.8981 104.878 59.6485 104.734C58.5182 104.076 58.1306 103.084 57.2066 102.535C56.5887 102.159 55.4073 103.127 55.0995 102.698C54.1009 101.312 55.2714 99.4314 52.7966 99.4646C52.2699 99.4757 51.2947 100.874 51.3903 99.0537C51.4049 98.9475 51.6329 97.4385 50.7073 97.5692C50.5922 97.5872 50.242 97.9245 50.1519 97.8893C49.5589 97.6515 49.5336 97.067 48.9631 96.7459C48.3783 96.4103 47.6261 96.0385 47.2218 95.3966C47.1021 95.2082 47.0923 94.8643 47.1123 94.5219C47.1447 94.1655 47.2093 93.8096 47.2118 93.6505C47.235 92.7736 46.0395 93.0735 46.3076 92.2581C46.5716 91.4339 47.9324 91.1014 47.5494 90.0401C46.6509 90.9288 45.6955 91.8096 44.778 92.6903C43.2453 91.173 41.9236 89.4194 40.2361 87.9739C40.0262 87.7958 39.7808 88.4887 39.544 88.3109C38.5456 87.5572 38.0546 86.4674 36.9533 85.7342C36.0991 85.1684 34.7862 84.9493 33.867 84.3489C34.3608 82.8397 32.8519 82.1073 32.0844 81.1731C31.8132 80.8447 32.1093 80.5938 31.9821 80.2911C31.5123 79.1643 30.979 80.4351 30.6145 80.3532C30.5741 80.3437 30.536 80.3331 30.5003 80.3213C29.2699 80.0002 31.1163 77.9654 30.0623 77.0408C30.0048 76.9878 28.2752 77.4691 28.1214 77.4578C27.1099 77.3681 28.3911 76.9747 28.1019 76.5497C27.5696 75.7731 27.3366 75.0642 26.2227 74.68C25.8955 74.5685 24.6939 74.792 24.7122 73.8265C24.7139 73.6995 25.081 73.3434 25.0507 73.2778C24.4686 72.1207 23.4026 73.3184 22.531 73.2889C21.6599 73.2605 21.5541 71.7264 21.5897 71.3397C21.683 70.3404 22.1534 71.3545 22.2283 71.312C23.1261 70.8104 22.4221 70.4336 22.0136 69.9821C22.9604 68.7277 22.2566 68.2551 21.5862 69.5184C21.5143 69.6576 21.9679 69.8498 22.0136 69.9821C20.6184 70.819 19.7683 70.3599 19.9164 68.5859C19.99 67.7552 20.8521 67.4717 19.5519 66.7062C18.9621 66.3526 18.4336 67.3311 17.7838 67.1378C17.0303 66.9096 16.4829 66.2697 15.9915 65.5641C15.4771 64.8423 15.0434 64.0573 14.4887 63.5129C14.0811 63.1091 13.9783 63.9162 13.6813 63.6465C12.8854 62.9145 12.7065 61.9068 11.9517 61.1702C11.8819 61.1021 11.4907 61.6368 11.3048 61.3649C9.90106 59.3058 9.32444 57.2798 8.3552 55.1113C7.88337 54.0634 6.79285 52.3159 6.44073 51.2063C5.91582 49.5929 5.8557 47.5329 5.418 46.0062C5.33097 45.7032 5.22976 45.427 5.10726 45.1836C4.62182 44.2066 4.11644 44.6404 3.56605 44.3383C2.50309 43.7661 3.37148 41.7701 3.52219 41.5041C3.527 41.4958 3.96406 42.3303 4.10529 41.7567C4.64013 41.2708 3.52927 41.5161 3.52219 41.5041C3.61247 41.3189 3.15188 39.4895 2.92691 39.1675C2.80088 38.9872 2.27824 39.2787 2.22317 39.1812C1.00073 36.8225 -0.17778 34.6044 0.0220294 30.3326C0.0360661 30.2578 0.688533 30.3861 0.713923 30.2178C0.989156 28.4055 1.16724 26.5982 1.74493 24.9693C1.78392 24.6687 1.82915 24.358 1.89891 24.0463C2.19184 22.7448 2.91226 21.9854 4.26802 22.0239C4.70724 21.156 5.95104 20.3265 6.69422 19.8826C7.43356 19.4407 6.52814 18.5399 6.55527 18.4657C7.45239 16.1661 8.93155 15.5812 11.1489 13.955C12.0306 13.3186 13.7461 12.0146 15.5573 11.2969C15.7698 11.1985 15.9632 11.1063 16.1304 11.0243C16.9055 10.643 17.4966 10.7577 18.2012 10.3189C18.2982 10.2594 18.011 9.75569 18.0362 9.72415C18.687 8.7888 18.7071 10.2488 18.9659 10.4244C19.9114 11.0644 20.4367 11.3925 21.4699 10.6319C21.7041 10.4581 21.9511 8.2983 22.4735 8.03982C23.1507 7.71007 23.0476 8.47458 23.7666 8.12477C23.8305 8.0961 23.7089 7.6666 24.2036 7.57924C26.4764 7.15932 29.3417 7.16822 31.8698 7.39313C32.2176 7.42395 31.8377 6.67762 32.3535 6.71526C34.7738 6.90011 37.1479 7.56524 38.9589 8.51168C39.4008 8.7464 38.9502 9.11478 39.0043 9.28681C39.3284 10.3262 40.5946 9.42358 40.7528 9.45741C41.639 9.62318 42.4146 9.88608 43.1531 10.2065C45.2388 11.1184 46.9406 12.4462 49.5089 13.2594C49.6874 13.3082 51.6837 12.785 51.7252 14.1588C51.7329 14.2522 51.7259 15.625 52.65 15.2062C52.709 15.1811 52.6501 14.4273 53.2623 14.8567C53.8686 15.283 55.1355 15.5741 55.6259 16.7293C55.7885 17.0984 55.7201 18.5048 57.0763 18.3187C57.1503 18.282 59.7563 17.5515 59.2428 19.0876C59.1553 19.3405 58.0626 20.4724 59.4894 20.6489C59.7664 20.6866 59.6888 20.1383 60.2937 20.39C60.8861 20.6391 61.3533 21.2174 61.9445 21.7072C62.2604 21.9642 62.6174 22.1868 63.0739 22.3033C63.2926 22.3546 64.6438 22.2399 64.4534 23.2643C64.4225 23.4234 63.9011 23.6305 64.0747 23.92C64.8968 25.2979 66.1956 26.3408 66.8445 27.7653C67.0763 28.2711 66.2324 28.58 66.3884 29.1546C66.5416 29.725 67.0506 30.7493 67.6064 30.8068C67.8768 30.8265 68.1751 30.4974 68.4881 30.2434C68.6399 30.1106 68.792 29.9913 68.8886 29.8753C68.9319 29.8124 68.9663 29.7534 68.9164 29.6334C68.8751 29.5586 68.8243 29.4746 68.6328 29.2879C68.5008 29.1666 68.3252 29.0068 67.9569 28.7612C67.9084 28.7293 67.8667 28.7022 67.8001 28.6613C67.7109 28.6069 67.6109 28.5489 67.4962 28.4873C67.2663 28.3646 66.98 28.2252 66.5837 28.0845C66.187 27.9462 65.6765 27.7996 64.9773 27.7335C64.1827 27.6271 62.2541 27.758 60.7534 28.7628C59.4017 29.5642 58.4434 31.1579 58.2909 31.5603C57.9905 32.2001 57.8501 32.7377 57.7659 33.174C57.6056 34.0239 57.6542 34.6402 57.658 34.7821C57.6853 35.26 57.7385 35.5311 57.7776 35.735C58.0583 36.9465 58.2401 37.1012 58.2807 37.2472C58.329 37.3591 58.291 37.3137 58.2272 37.2337C58.0932 37.061 57.8565 36.7236 57.6215 36.3429C57.1415 35.5711 56.6538 34.5814 56.3153 33.5324C55.6134 31.4131 55.5475 29.1297 55.8593 27.2189C56.1484 25.6166 56.5366 24.0908 56.939 22.5426C57.1104 21.9046 56.5 22.3256 56.7382 21.3638C57.4443 18.0413 60.0593 10.7205 65.5011 8.88146C65.6068 8.84513 65.7071 8.81345 65.802 8.78588C67.8711 8.54211 65.8737 10.3483 67.4797 9.83304C68.266 9.58491 68.3066 7.779 68.464 7.64236C69.9648 6.30546 71.475 6.37161 72.9632 5.47545C73.2718 5.29083 72.6921 4.84364 72.9599 4.69251C73.8765 4.17015 75.0056 4.01252 75.9219 3.59703C76.3335 3.40942 76.0793 2.98168 76.4844 2.86727C77.4537 2.58976 78.3654 2.48153 79.4475 2.60389C79.5445 2.61572 79.1712 3.38402 79.8794 3.17171C81.0353 2.82582 82.5878 2.83121 83.8744 2.03734C84.251 1.80339 84.0279 0.695725 85.129 1.25492C85.3681 1.37425 85.3499 2.73846 86.2486 1.39342C86.3484 1.16846 88.1899 -0.698567 89.4293 0.28343C89.748 0.535663 90.4864 1.61855 91.1677 1.48692C91.2677 1.46595 90.9065 0.837559 91.5135 0.819724C91.8892 0.812785 92.328 0.835107 92.7548 0.884873C93.8061 0.961031 95.002 1.16569 96.2823 1.27063C96.7022 1.30521 96.2128 0.565539 96.8461 0.64106C98.5898 0.841494 100.865 1.66524 102.534 2.5908C103.146 2.93003 102.499 3.21597 102.524 3.28773C102.885 4.43785 103.816 3.52575 104.1 3.58524C105.82 3.96825 106.634 5.15328 107.964 5.91953C108.329 6.13519 108.435 5.48461 108.534 5.49212C109.561 5.61942 108.397 6.06558 108.764 6.49327C109.781 7.69812 111.037 8.79496 112.114 9.83261C112.51 10.2157 112.585 9.29411 112.94 9.65168C112.971 9.68252 113.001 9.71351 113.032 9.74464C114.703 11.4284 116.436 13.4 117.817 15.988C118.076 16.4842 117.443 16.4963 117.41 16.6587C117.156 17.7556 118.737 18.1604 118.98 18.3794C120.057 19.2965 119.879 20.0087 120.413 21.0874C121.842 23.9822 122.304 27.5209 122.242 30.4035C122.207 32.67 122.01 35.0034 121.734 37.0291C120.945 42.7128 119.37 46.8924 117.723 51.8838C117.617 52.1982 118.388 52.1226 118.303 52.3993C117.766 54.0897 117.081 55.7043 116.353 57.2805C115.58 58.9499 114.79 60.6 114.102 62.3146C113.993 62.581 114.768 62.4899 114.615 62.9245C114.304 63.822 113.756 64.8865 113.151 65.6518C112.857 66.0271 112.616 65.2182 112.331 65.5991C111.666 66.4854 111.113 67.5098 110.712 68.5576C110.543 69.0044 111.469 68.6622 111.201 69.2199C109.384 73.0249 107.581 76.7796 104.691 80.1498C104.494 80.3778 103.165 79.9336 103.083 80.6092C103.391 80.8405 103.783 81.0614 104.127 81.2825C104.03 81.4659 103.933 81.6472 103.836 81.8265C101.057 86.942 97.8854 91.7037 94.5474 96.8695C94.4003 97.0946 95.2658 97.0948 94.9835 97.533C93.801 99.3649 92.6287 101.264 91.044 102.963C90.4779 103.557 89.8748 104.119 89.1998 104.649C88.963 104.837 88.0491 103.923 87.6685 104.723C87.6036 104.864 86.9402 105.984 86.9485 106.423C86.9532 106.485 87.5701 106.67 87.3249 107.009C85.8895 108.973 84.1924 110.877 82.3617 112.541C82.0664 112.807 81.8366 112.08 81.6228 112.265C80.1051 113.586 79.0892 115.569 77.3658 116.667C76.2085 117.396 75.7008 116.301 74.4307 116.092C74.2547 116.061 73.6841 116.643 73.1936 116.239C71.9728 115.219 70.9529 113.765 69.6191 112.713C69.3194 112.504 69.0284 113.364 68.734 112.405C68.7115 112.347 68.9429 111.674 68.832 111.35C68.7577 111.125 68.1425 110.846 68.1063 110.493C68.0613 110.149 68.6395 110.312 68.6738 109.803C68.7062 109.289 68.0356 108.948 68.5034 108.276ZM10.1239 17.9962C11.0865 17.8911 9.59775 16.2029 9.37222 17.1968C9.36358 17.2469 10.075 18.0036 10.1239 17.9962ZM43.0651 88.1725C43.0693 86.8362 41.6355 87.506 41.5897 88.4968C41.5421 89.4854 43.0635 88.5775 43.0651 88.1725ZM50.2266 94.0371C50.0562 92.7495 47.6818 94.8811 48.9054 95.2052C48.9777 95.2268 50.2379 94.1135 50.2266 94.0371ZM76.2659 113.516C76.237 113.504 75.8503 113.913 75.8628 113.944C76.2096 114.637 76.9883 113.812 76.2659 113.516ZM57.076 100.23C57.1878 99.7004 56.1873 99.3223 56.0537 99.9798C55.9496 100.511 56.9356 100.885 57.076 100.23ZM45.6484 17.8439C45.6441 17.8786 45.9926 18.0785 46.0674 17.9047C46.3075 17.343 45.7245 17.2563 45.6484 17.8439ZM66.0959 112.968C65.9205 112.682 65.8109 112.387 65.7476 112.107C65.3667 110.355 66.434 108.496 67.5178 110.627C67.7222 111.053 66.2634 110.212 66.3851 110.848C66.4384 111.128 66.5803 111.323 66.7651 111.478C67.3522 111.981 68.2397 111.922 68.2162 112.913C68.2316 113.198 66.1768 113.148 66.0904 112.966C66.0922 112.967 66.0941 112.967 66.0959 112.968ZM12.3423 19.5898C12.3727 19.5993 12.7859 19.2343 12.7768 19.2045C12.5049 18.473 11.6434 19.2338 12.3423 19.5898ZM62.2411 33.6334C62.205 33.6937 62.9681 34.7608 63.0633 34.7697C64.3721 34.5418 62.8511 32.4343 62.2411 33.6334ZM14.0165 52.6315C14.9139 52.8778 15.274 53.443 14.6724 54.2618C14.4583 53.7166 14.2188 53.1883 14.0165 52.6315Z" fill="#66033C"/>
</svg>
