<svg width="20" height="19" viewBox="0 0 20 19" fill="none" xmlns="http://www.w3.org/2000/svg">
<path d="M14.9949 0H5.00509C2.24522 0 0 2.2277 0 4.96604V14.034C0 16.7723 2.24522 19 5.00509 19H14.9949C17.7548 19 20 16.7723 20 14.034V4.96604C20 2.2277 17.7548 0 14.9949 0ZM1.76564 4.96604C1.76564 3.19398 3.21909 1.75186 5.00509 1.75186H14.9949C16.7809 1.75186 18.2344 3.19398 18.2344 4.96604V14.034C18.2344 15.806 16.7809 17.2481 14.9949 17.2481H5.00509C3.21909 17.2481 1.76564 15.806 1.76564 14.034V4.96604Z" fill="#66033C"/>
<path d="M10 14.1181C12.5665 14.1181 14.6556 12.0464 14.6556 9.49887C14.6556 6.95132 12.5676 4.87962 10 4.87962C7.43244 4.87962 5.34444 6.95132 5.34444 9.49887C5.34444 12.0464 7.43244 14.1181 10 14.1181ZM10 6.6326C11.5937 6.6326 12.89 7.91872 12.89 9.5C12.89 11.0813 11.5937 12.3674 10 12.3674C8.40631 12.3674 7.11008 11.0813 7.11008 9.5C7.11008 7.91872 8.40631 6.6326 10 6.6326Z" fill="#66033C"/>
<path d="M15.0866 5.62593C15.7777 5.62593 16.3409 5.06816 16.3409 4.38133C16.3409 3.6945 15.7788 3.13673 15.0866 3.13673C14.3943 3.13673 13.8322 3.6945 13.8322 4.38133C13.8322 5.06816 14.3943 5.62593 15.0866 5.62593Z" fill="#66033C"/>
</svg>
