<svg width="98" height="89" viewBox="0 0 98 89" fill="none" xmlns="http://www.w3.org/2000/svg">
<g clip-path="url(#clip0_22_1298)">
<path d="M0.932134 34.4722C1.48052 34.3158 2.19937 34.483 2.74568 34.7124C2.9169 34.7835 2.8302 35.1016 2.94839 35.165C3.17955 35.2887 3.39491 35.1327 3.62334 35.28C3.69905 35.3304 3.60481 35.8342 3.68419 35.8755C4.11919 36.0981 4.53071 35.9698 4.97137 36.0769C7.14191 36.6052 9.2755 36.7944 11.4726 37.0239C12.197 37.0992 13.0777 37.5564 13.826 37.3564C13.9133 37.3326 13.8612 36.8904 13.8778 36.854C14.1385 36.296 14.0518 37.1887 14.222 37.3073C14.8975 37.7757 15.6487 37.8164 16.2988 37.6457C16.5753 37.5718 16.298 36.6935 16.5765 37.1865C16.5959 37.2198 16.5257 37.6894 16.6015 37.7395C16.7735 37.8521 17.0999 37.7682 17.2332 37.8054C17.4901 37.8795 17.5326 37.8747 17.7756 37.8801C18.1078 37.8915 18.5029 38.1249 18.8593 38.0185C18.9354 37.9944 18.8347 37.513 18.956 37.4311C19.0775 37.3493 19.3987 37.3902 19.507 37.5036C19.6154 37.6172 19.5692 37.9955 19.5884 38.0822C19.7461 38.8142 20.1178 37.8004 20.1655 37.7754C21.0373 37.3482 21.7849 37.9257 22.6033 37.924C23.2245 37.9216 23.8888 37.7309 24.4799 37.7571C25.1842 37.7901 25.781 38.0509 26.4652 38.0061C26.5374 38.0019 26.4528 37.4359 26.541 37.4297C27.4779 37.3638 28.4083 37.4255 29.3412 37.8076C29.4347 37.8464 29.3142 38.3433 29.4076 38.4118C29.9799 38.8202 30.8854 39.8013 31.2253 37.6377C31.6129 37.7222 32.0835 37.8094 32.4303 38.2456C32.6539 38.5263 32.4368 39.0676 32.7114 38.8366C32.7734 38.7852 32.6928 38.3111 32.7857 38.2697C33.1769 38.0962 33.6042 38.2503 33.9912 38.0053C34.0699 37.9544 34.0484 37.5296 34.0707 37.4531C34.2581 36.8336 34.5701 37.8577 34.6381 37.9321C35.156 38.487 35.5343 38.2686 36.0168 38.2822C36.1287 38.2856 35.9964 37.715 36.1041 37.6977C36.6629 37.6159 37.2417 37.665 37.7889 37.9182C37.9106 37.9759 37.7986 38.4619 37.8568 38.5144C38.1132 38.7397 38.1701 37.8216 38.416 38.02C38.4679 38.0606 38.4387 38.4767 38.4481 38.5224C38.5961 39.2398 38.7248 38.2233 38.7628 38.2009C39.2444 37.8943 39.5523 38.9554 40.0175 38.8051C40.0732 38.7861 39.9477 38.2596 40.1041 38.2383C41.1465 38.0929 42.2489 38.2375 43.2807 38.6587C43.4411 38.7234 43.3266 39.1189 43.3367 39.1677C43.5012 39.9295 43.6076 38.9088 43.6599 38.8703C44.0726 38.5936 44.4581 39.4496 44.7384 38.2339C46.4861 38.6558 48.2257 37.9731 49.9588 39.0622C49.9809 39.0748 49.9414 39.5776 49.9853 39.6006C50.5147 39.8828 50.413 39.1015 50.7633 38.146C50.8516 37.906 51.12 39.0597 51.1437 39.1443C51.2303 39.4559 51.1405 40.2038 51.1695 40.2641C51.4092 40.738 51.3702 38.2647 51.6936 38.2639C51.7037 38.268 51.6613 38.7233 51.6884 38.7685C51.7727 38.9106 51.8563 38.7297 51.9389 38.8864C52.1278 39.2491 52.195 40.4509 52.4835 39.7514C52.5201 39.6607 52.4643 38.2577 52.7531 38.3239C52.8682 38.3516 53.3778 38.3275 53.5206 38.4184C53.6633 38.5092 53.5653 38.9613 53.5755 38.9809C53.9598 39.5788 53.8141 39.8265 54.0067 40.7116C54.1992 41.5934 54.1458 39.4903 54.2243 39.2556C54.3029 39.0215 54.5847 39.5148 54.654 39.6862C54.7232 39.8578 54.6369 40.1451 54.6984 40.2422C55.1065 40.8764 54.8775 39.1983 55.012 38.8645C55.329 38.0741 55.5759 39.6338 55.8661 39.7866C55.9447 39.8279 55.8806 39.4726 55.9505 39.4394C56.2274 39.3126 56.394 39.7992 56.7091 39.353C56.7606 39.2803 57.0153 38.3426 57.1802 39.0307C57.2035 39.13 57.1372 39.5186 57.2552 39.6057C57.4315 39.7363 57.7492 39.8213 57.9388 39.6914C58.0787 39.5953 57.9183 38.9548 58.0944 39.1538C58.1727 39.2426 58.0276 39.6173 58.1747 39.7529C58.321 39.8885 58.695 39.872 58.8373 39.8591C58.9794 39.8459 58.9016 39.3601 58.9131 39.3274C58.9826 39.1399 59.2552 38.9056 59.2793 38.9062C60.4946 38.8469 61.6153 39.6658 62.7985 39.3947C62.8914 39.3742 62.8295 38.8619 62.8437 38.8535C63.1616 38.6389 62.911 40.0009 63.133 40.4568C63.1009 39.4172 63.232 39.6054 63.4559 39.4914C63.5638 39.4356 63.5051 39.0331 63.5149 38.9919C63.6749 38.3805 63.7864 39.1702 63.8151 39.3318C63.921 39.926 64.0364 39.2239 64.1085 39.6211C64.1805 40.0153 64.0147 40.5997 64.2294 40.5922C64.2897 40.2201 64.1302 39.2477 64.2933 39.0901C64.9085 38.4939 66.0568 39.2569 66.5514 39.3361C67.0451 39.4153 67.2045 39.3467 67.4922 39.4812C68.0118 39.7243 67.8214 39.0028 68.144 38.6726C68.4676 38.3424 68.3103 40.1176 68.3568 40.4992C68.4024 40.8807 68.4523 40.488 68.5091 40.6977C68.5657 40.9074 68.4431 41.1668 68.5763 41.2456C68.7095 41.3242 69.0737 40.6456 69.1209 40.2465C69.2208 39.4012 69.0566 38.5139 69.4091 38.8257C69.4294 38.8442 69.3636 39.3109 69.4412 39.3581C70.0578 39.7175 70.6984 39.7398 71.3142 40.0576C71.3988 40.102 71.3231 40.6213 71.3724 40.653C71.8857 40.9852 71.7022 40.1096 71.9835 39.1369C71.9203 40.4313 72.0759 41.2233 72.4654 41.2309C72.6996 41.236 72.6593 40.6706 72.8108 40.2722C72.8562 40.1521 73.0219 40.5402 73.0519 40.2744C73.1509 39.4053 72.9949 38.4324 73.3965 38.8198C73.4141 38.8382 73.358 39.3139 73.4189 39.3427C73.8125 39.5313 73.8595 38.6223 74.285 38.5122C74.6184 38.4258 75.2115 38.9801 75.5912 39.0703C75.5832 40.5256 75.9418 40.1923 76.0873 39.1889C76.3337 39.23 76.5999 39.1733 76.8381 39.312C76.92 39.3593 76.8662 39.7806 76.8765 39.8261C77.035 40.5403 77.1421 39.5641 77.1953 39.5258C77.7718 39.1538 78.2414 39.8937 78.7916 39.1706C78.8111 39.1446 78.8428 38.1337 78.9898 38.8718C78.9993 38.9227 78.8176 39.3826 79.0764 39.4182C79.3353 39.4538 79.8232 39.9957 80.1826 39.5273C80.2695 39.4145 80.4895 38.5939 80.666 39.2351C80.6895 39.3221 80.6638 39.6121 80.6977 39.7734C80.8075 40.2875 80.8674 39.2657 80.9964 40.1338C81.1254 41.0018 81.3937 41.6518 81.7561 41.0529C81.7676 41.0355 81.8534 40.2257 81.9674 40.2385C82.1493 40.2596 82.4076 40.4283 82.5975 40.4231C82.6885 40.4202 82.6302 39.9174 82.646 39.9082C83.2576 39.6264 83.6928 40.0747 84.348 40.2693C84.4681 40.3059 84.8132 39.6202 85.0457 40.1623C85.301 40.7558 85.0387 43.2246 85.6254 42.6364C85.8621 42.4012 86.1618 39.2691 86.5871 40.8918C87.412 40.4897 88.1749 41.3202 89.0021 40.7461C89.0393 40.7206 89.1569 39.8465 89.2443 39.8584C89.3742 39.8777 89.4454 40.2863 89.5381 40.3132C89.9266 40.4363 90.2821 40.0867 90.6566 40.1411C90.7988 40.1608 90.749 40.5833 90.9186 40.6069C91.0881 40.6301 91.2011 40.0738 91.4308 40.3425C91.6043 40.5473 91.7777 41.6843 92.008 41.8169C92.0167 40.6953 92.1749 40.7184 92.4559 40.4223C92.51 40.3649 92.452 39.9745 92.4776 39.9272C92.5816 39.726 92.6779 40.0495 92.7766 39.8305C92.8006 39.7779 92.8018 39.3949 92.8214 39.3303C92.9884 38.7662 93.2636 39.6278 93.3108 39.7778C93.4919 40.3475 93.5766 39.8493 93.7155 40.0737C93.8542 40.298 93.6468 40.5784 93.8088 40.7146C94.1446 40.9961 94.5761 40.9343 94.9172 40.9519C95.0533 40.9565 94.9604 40.4453 94.9799 40.434C95.2613 40.3044 95.5458 40.8482 95.7019 39.8298C95.897 42.4631 95.8716 39.5744 96.2738 40.1015C96.3055 40.1442 96.3458 41.3894 96.2242 41.5722C96.1025 41.7549 95.9181 41.3656 95.7493 41.6506C95.7093 41.7175 95.4804 42.8844 95.4492 42.955C95.2045 43.5075 95.1698 41.6466 95.1569 41.5444C95.01 40.4414 94.7303 41.6985 94.6566 41.7854C94.3196 42.1834 94.0332 41.9217 93.7513 42.2058C93.567 42.3894 93.5489 43.6083 93.4042 43.571C92.9229 43.4477 92.7549 41.7473 92.3014 43.2216C92.2041 43.5361 92.3008 44.8683 91.9523 43.8208C91.9304 43.7547 91.6718 42.7964 91.5223 43.4025C91.5035 43.479 91.5041 43.8672 91.4794 43.8999C91.3134 44.1108 91.2028 43.8015 91.022 43.9497C90.8413 44.0978 90.624 44.3187 90.4177 44.187C90.2933 44.1082 90.1337 43.3848 90.0742 43.2077C89.9061 42.6975 89.7259 43.534 89.6217 42.9162C89.5167 42.2953 89.722 41.3523 89.4467 40.9511C89.4365 41.9599 89.413 42.9953 89.3966 44.0097C88.7932 43.9742 88.1994 43.648 87.5939 43.6926C87.5189 43.6991 87.5956 44.2414 87.5152 44.2624C87.1756 44.3486 86.8791 43.962 86.527 44.1159C86.2545 44.2372 85.9556 44.8113 85.6706 44.956C85.4965 43.8017 85.0736 44.1936 84.7665 44.0881C84.6588 44.0516 84.666 43.7434 84.5895 43.6428C84.3008 43.2708 84.4361 44.2908 84.3569 44.4514C84.0173 45.1365 83.9883 42.8277 83.5879 42.8847C83.5667 42.887 83.3074 44.1177 83.2717 44.1943C83.0448 44.694 83.2342 43.7659 83.0921 43.675C82.8329 43.5088 82.6527 43.2149 82.3485 43.5754C82.2598 43.6822 82.047 44.4492 81.8748 43.8559C81.8521 43.7782 81.8646 43.3714 81.8464 43.3476C81.5163 42.9505 81.5076 44.2287 81.3189 44.6616C81.1302 45.0944 80.8388 44.212 80.7795 43.9577C80.6243 43.2999 80.8984 43.6766 80.9068 43.612C81.0055 42.8437 80.7929 42.976 80.6305 42.9111C80.607 41.6578 80.3799 41.733 80.4622 42.8488C80.4715 42.9707 80.5979 42.8538 80.6305 42.9111C80.488 44.1407 80.2384 44.2982 79.9627 43.1491C79.8336 42.6106 79.9556 41.9827 79.5636 42.2124C79.3857 42.3161 79.4544 43.179 79.2974 43.4143C78.9388 43.951 78.4726 43.1461 78.1028 43.2729C77.9686 43.319 78.0994 43.7913 78.0076 43.8391C77.7642 43.9673 77.5495 43.6128 77.3051 43.7944C77.2829 43.8114 77.337 44.3059 77.261 44.3122C76.6847 44.3696 76.1829 44.0529 75.5811 44.0441C75.2904 44.0401 74.7706 44.3128 74.4694 44.258C73.9474 44.1659 73.3052 43.4469 72.8593 43.6215C72.5685 43.7333 72.6323 44.2279 72.5076 44.5649C72.2671 45.2181 71.8415 44.0481 71.7842 43.8669C71.7824 43.8609 72.0327 43.7443 71.8991 43.4904C71.8215 42.9614 71.787 43.8646 71.7842 43.8669C71.7465 43.7499 71.2466 43.6376 71.1473 43.7321C71.0934 43.7838 71.1235 44.2524 71.0954 44.2705C70.4269 44.6898 69.7572 44.8089 69.0791 44.5898C69.0672 44.5803 69.0852 44.0562 69.0571 44.0405C68.6646 43.8074 68.4132 44.4486 68.0895 44.8293C67.7658 45.2098 67.5091 45.0824 67.3175 44.1826C67.0732 44.2959 66.7228 43.8981 66.5212 43.6567C66.3196 43.4153 66.2914 44.4356 66.2737 44.4558C65.7203 45.1013 65.4005 44.5174 64.8264 44.4265C64.5534 44.3815 64.012 44.5295 63.7165 44.6411C63.483 44.7309 63.3422 44.4918 63.127 44.6447C63.0979 44.6651 63.1273 45.1194 63.1185 45.1369C62.8783 45.6804 62.9937 44.5699 62.9441 44.3715C62.7643 43.6503 62.6533 43.2661 62.3457 43.6054C62.2748 43.6831 62.0681 45.2822 61.9388 45.3757C61.7707 45.4943 61.8341 44.9212 61.6581 45.06C61.643 45.0714 61.6461 45.425 61.5375 45.4094C61.0331 45.3417 60.4832 45.1359 59.9591 45.1713C59.8875 45.1748 59.9793 45.7357 59.8759 45.7499C59.3905 45.8164 58.8585 45.7957 58.3856 45.5332C58.2692 45.4668 58.3422 45.0741 58.3169 44.9575C58.1618 44.252 57.9418 45.277 57.9055 45.2966C57.0397 45.7892 56.3771 44.8615 55.4947 45.3032C55.4467 45.3291 55.0769 46.428 54.9119 45.4855C54.9007 45.4228 54.7374 44.4586 54.5931 45.1179C54.5842 45.1591 54.6859 45.6555 54.5084 45.6049C54.3309 45.5544 54.0453 45.8859 53.8013 45.3405C53.7241 45.1687 53.5416 44.2068 53.3112 44.9736C53.2962 45.0271 52.9405 46.7608 52.8136 45.5646C52.793 45.3677 52.8145 44.1019 52.5395 44.7509C52.487 44.8767 52.5824 45.1591 52.444 45.3354C52.2319 45.6071 51.951 45.2681 51.6903 45.832C51.6448 45.9318 51.4513 46.791 51.296 46.1389C51.2717 46.0367 51.3179 45.6141 51.2359 45.5668C50.8461 45.34 50.4379 45.6227 50.0421 45.3303C49.9019 45.2275 49.9736 44.5444 49.8274 44.3613C49.6813 44.1783 49.3868 44.0022 49.2339 44.3144C49.0809 44.6267 49.248 45.7156 49.0188 45.8027C48.0226 46.1811 47.0357 45.5424 46.0409 45.4489C45.8934 45.435 46.0157 45.8246 45.7983 45.832C44.9966 45.861 43.6126 46.2263 42.917 45.3984C42.3597 44.7353 43.0611 44.2305 42.6352 43.9606C42.4297 43.8319 42.2073 45.0978 42.1577 45.1376C41.6731 45.5425 41.3363 44.9817 40.9 45.1538C40.81 45.1895 40.8983 45.7025 40.8216 45.7272C40.5598 45.8162 40.2846 45.5872 40.0343 45.6291C39.9221 45.6491 39.9428 46.0409 39.8395 46.0107C39.5923 45.9428 39.3737 45.7781 39.1328 45.4108C39.1108 45.3774 39.2589 44.8899 39.076 44.8718C38.7801 44.8438 38.4127 44.4815 38.0722 44.8557C37.9712 44.9682 37.9672 45.8638 37.75 45.2453C37.7045 45.1161 37.7626 44.0407 37.5096 44.9699C37.4671 45.1243 37.0421 46.3777 36.8336 45.5698C36.7785 45.3571 36.6381 44.4771 36.5166 44.6154C36.5001 44.6375 36.5661 45.1186 36.4655 45.1655C36.1107 45.3225 35.7388 45.2712 35.3743 45.4218C35.2769 45.463 35.4219 45.9608 35.2768 46.0063C34.8779 46.1321 34.3798 46.0054 33.9897 45.8496C33.8458 45.7912 33.9452 45.3788 33.9348 45.3339C33.7665 44.604 33.667 45.5892 33.6111 45.6467C33.2637 45.9907 32.9992 45.5279 32.679 45.6503C32.5906 45.6829 32.6533 46.1526 32.6357 46.1945C32.4532 46.6038 32.5891 45.7602 32.4736 45.6672C32.1501 45.4039 31.7895 45.4416 31.4623 45.5017C31.3422 45.5244 31.4772 46.0691 31.3694 46.0832C30.7311 46.1771 30.0675 46.1249 29.4446 45.8247C29.3273 45.7671 29.4011 45.3477 29.3766 45.2519C29.2082 44.5817 28.9612 45.4959 28.9044 45.583C28.6461 45.9806 28.5457 45.6097 28.3176 45.6789C27.203 46.0236 25.8269 45.7779 24.7748 45.6262C23.4039 45.4308 22.3401 45.0318 21.0327 45.1354C20.9497 45.1415 21.0334 45.6995 20.9618 45.7119C20.0371 45.8464 19.1267 45.6283 18.2001 45.7895C18.124 45.8017 18.2336 46.3307 18.1116 46.3681C17.8612 46.4486 17.5441 46.4198 17.291 46.2509C17.1676 46.1695 17.3332 45.7157 17.2089 45.643C16.9196 45.4728 16.6094 45.4352 16.3122 45.52C16.1857 45.5572 16.3766 46.0982 16.2122 46.1044C15.0924 46.1581 13.9926 46.2513 12.8609 45.5507C12.7834 45.5026 12.7153 44.4031 12.5504 44.614C12.5379 44.9191 12.5386 45.278 12.5332 45.6042C10.903 45.7799 9.28948 45.3987 7.65474 45.3398C7.58581 45.3374 7.70493 45.92 7.57149 45.9184C6.79917 45.9098 6.04919 46.0712 5.25919 45.4921C5.18081 45.4355 5.22103 44.4106 4.99004 44.5656C4.9493 44.5939 4.6014 44.7306 4.51145 44.9531C4.49923 44.9866 4.56271 45.465 4.4506 45.479C3.79913 45.5516 3.11642 45.4424 2.46607 45.1501C2.36111 45.102 2.47289 44.5926 2.39813 44.5539C1.86784 44.2835 1.29103 44.6707 0.784303 44.2082C0.445121 43.8968 0.570696 43.0162 0.390459 42.1494C0.364966 42.0271 0.154934 42.0077 0.144073 41.5034C0.116188 40.2352 0.217921 38.8466 0.176177 37.4948C0.167358 37.2037 -0.113929 37.5173 0.0526111 36.8137C0.0642457 36.7666 0.26818 36.5331 0.318409 36.2944C0.353381 36.1294 0.290361 35.6165 0.361713 35.4053C0.43306 35.1942 0.51146 35.6241 0.629752 35.376C0.74799 35.1247 0.696 34.5412 0.932134 34.4722ZM65.6133 42.5778C65.4266 42.0879 65.399 43.8824 65.601 43.4531C65.6108 43.4302 65.6229 42.6019 65.6133 42.5778ZM88.2028 42.2944C87.9587 41.5029 87.7917 42.6667 87.9639 43.278C88.136 43.8887 88.2772 42.5343 88.2028 42.2944ZM90.7338 41.7165C90.4486 41.0924 90.4037 43.6372 90.7092 43.1228C90.727 43.0937 90.7505 41.7528 90.7338 41.7165ZM1.2263 41.9025C1.22373 41.8787 1.07275 41.8555 1.06914 41.8791C0.988746 42.4491 1.29064 42.4951 1.2263 41.9025ZM93.2455 41.0874C93.1564 40.7431 92.9 41.1405 93.0107 41.5686C93.0997 41.9129 93.3564 41.5156 93.2455 41.0874ZM55.874 40.6626C55.871 40.6358 55.7628 40.6117 55.765 40.7629C55.7723 41.2498 55.9229 41.1124 55.874 40.6626ZM97.5143 41.0581C96.8836 40.9623 96.5012 38.8602 97.188 39.0974C97.3124 39.1403 96.92 39.7677 97.0783 39.9572C97.368 40.3025 97.5603 38.9826 97.8559 39.6899C97.9094 39.8194 97.5503 41.0682 97.5132 41.061C97.5136 41.06 97.5139 41.059 97.5143 41.0581ZM65.5058 40.4223C65.502 40.3986 65.3522 40.3761 65.3486 40.3996C65.2675 40.9693 65.5693 41.015 65.5058 40.4223ZM49.5579 39.5529C49.5496 39.5024 49.2019 39.4551 49.1906 39.5017C49.0092 40.4333 49.7122 40.5317 49.5579 39.5529ZM75.5972 39.1091C75.7607 38.536 75.9562 38.4685 76.0866 39.1882C75.9241 39.15 75.7606 39.1444 75.5972 39.1091Z" fill="#66033C"/>
</g>
<defs>
<clipPath id="clip0_22_1298">
<rect width="97.8613" height="89.0005" fill="white"/>
</clipPath>
</defs>
</svg>
