<svg width="141" height="139" viewBox="0 0 141 139" fill="none" xmlns="http://www.w3.org/2000/svg">
<path d="M140.427 73.273C140.381 75.7958 139.899 79.0655 139.319 81.5096C139.139 82.274 139.028 81.85 138.892 82.3728C138.625 83.3892 138.507 84.377 138.184 85.3702C138.076 85.6988 137.889 85.2141 137.782 85.5588C137.195 87.4427 136.757 89.257 136.072 91.1374C132.69 100.369 127.653 108.778 120.924 116.007C118.709 118.4 115.666 120.929 113.137 123.124C112.842 123.382 113.185 123.435 113.141 123.498C112.429 124.487 112.408 123.836 111.765 124.25C109.207 125.891 106.414 127.731 103.946 129.269C102.895 129.921 104.227 129.754 102.997 130.116C102.911 130.141 103.053 129.749 102.742 129.888C102.039 130.207 100.775 130.925 100.23 131.17C99.1826 131.643 99.0136 131.726 98.0292 132.179C96.6777 132.793 95.0043 133.348 93.5384 133.964C93.225 134.097 93.7461 134.202 93.2527 134.436C92.7603 134.674 91.3943 135.124 90.9111 135.21C90.4291 135.298 90.5576 135.023 90.4605 135.002C89.6625 134.817 88.2583 135.85 88.0499 135.919C84.3613 137.212 80.9838 137.522 77.3756 137.96C74.6463 138.29 71.7242 138.564 69.0889 138.547C69.067 138.547 69.0452 138.547 69.0234 138.547C65.8667 138.517 63.2311 138.192 60.1979 137.837C59.8784 137.798 60.2105 138.175 59.819 138.127C55.656 137.613 51.5672 136.65 47.6725 135.156C47.2821 135.005 47.8831 134.896 47.5 134.729C45.1362 133.733 41.6991 131.691 39.8047 132.176C38.2534 131.406 36.4043 130.393 35.1853 129.411C34.4019 128.777 35.3945 128.984 34.2756 128.491C34.024 128.377 34.1915 128.797 33.8239 128.608C32.2736 127.809 30.7265 126.701 29.2349 125.825C28.931 125.648 28.8662 125.905 28.7589 125.884C27.8598 125.693 27.0948 124.373 26.8851 124.154C25.2558 122.49 23.8969 121.507 22.3149 120.054C21.9496 119.716 22.1577 120.36 21.7976 120.041C19.9333 118.38 18.1484 116.493 16.6602 114.554C16.3304 114.122 16.8712 114.313 16.7253 114.097C16.0867 113.149 15.5135 113.296 14.9141 112.37C14.7883 112.175 15.0593 112.125 15.0538 112.075C14.9728 111.304 14.1594 111.218 14.0448 111.089C12.6021 109.487 12.3203 108.006 11.1287 106.335C10.9858 106.134 11.0288 106.769 10.6428 106.19C8.07147 102.331 5.92791 97.8647 4.54172 93.4991C4.32595 92.8196 4.72124 93.2144 4.73187 93.1622C4.89303 92.3267 4.17973 92.0924 4.08071 91.8795C3.3187 90.2037 3.30904 88.4341 2.29692 87.4256C0.831579 81.3653 -0.201129 75.1972 0.0334984 68.9985C0.0914905 67.4659 0.22547 65.9682 0.449549 64.4573C0.463275 64.3606 0.744418 64.5536 0.770603 64.3612C1.10891 62.051 0.626338 62.4754 0.240665 60.8572C0.144792 60.4461 0.969079 59.3533 1.03442 59.2604C1.26825 58.9097 1.6442 59.3618 1.69707 59.241C2.12377 58.2528 0.666788 58.194 0.912258 56.7728C0.922468 56.7291 1.15098 56.9611 1.19801 56.8473C1.34494 56.4944 1.30894 56.1116 1.46827 55.7711C1.83813 54.9939 2.57866 54.8495 2.46159 53.5273C2.44818 53.3592 1.58653 53.4131 1.93007 52.1763C2.05917 51.6846 2.64732 49.4893 2.89116 48.904C3.1265 48.3151 3.2517 48.8078 3.2758 48.7677C4.11655 47.2519 4.0638 47.9108 4.81754 47.2754C5.57416 46.6502 4.34109 46.4695 4.32627 46.097C4.31004 45.7239 5.01223 44.6551 5.21729 44.4096C5.42021 44.1621 5.43986 44.5757 5.59002 44.3449C6.5897 42.8244 5.31427 43.3897 5.35626 42.7663C5.46831 41.2888 6.75233 40.6487 7.37667 39.5461C7.54732 39.2461 7.23846 39.4101 7.35507 39.1241C7.82546 37.9922 8.40846 37.4724 8.84076 36.1313C8.90958 35.9134 8.98357 34.6559 9.70216 34.2295C9.80429 34.1703 9.85141 34.536 10.159 34.1153C10.6166 33.487 11.3957 32.328 11.7903 31.5924C12.0815 31.048 11.3802 31.4308 11.9066 30.848C12.1416 30.5906 11.9676 31.2415 12.3936 30.7499C12.8149 30.2585 13.7544 28.9145 14.1237 28.4113C14.4889 27.9068 14.0589 28.0107 14.0734 27.959C14.1663 27.6469 14.7932 26.608 14.8614 26.5256C18.1691 22.2696 22.0045 19.0781 25.9351 15.6783C26.2456 15.412 25.8463 15.3505 25.8917 15.3075C26.9131 14.3335 26.5406 15.6423 27.469 15.2528C26.9865 14.861 27.5055 14.5897 28.2561 13.9484C28.6181 13.6398 28.2713 13.6047 28.2917 13.5595C28.651 12.8517 29.3249 12.9402 29.4812 12.9448C30.0611 12.9587 30.2449 12.3344 30.6389 12.3469C31.0295 12.3603 30.6206 13.0472 31.3945 12.5206C31.4937 12.1935 30.5948 12.1111 31.1419 11.6361C33.1991 9.79739 37.8824 7.71931 39.8846 6.87777C41.8741 6.00283 42.5163 5.70756 43.7172 5.30527C45.8992 4.60848 44.9702 4.51951 46.2478 3.8541C47.5415 3.20382 47.2135 4.41454 47.4782 4.55863C47.7374 4.70643 47.8717 4.42071 48.1455 4.46049C48.4177 4.50111 47.9573 4.80849 48.5218 4.67509C49.0851 4.5375 50.4828 3.71278 50.6242 3.43567C50.9145 2.84498 50.0745 2.53103 51.633 2.30357C51.7225 2.2914 51.5098 2.62814 51.8488 2.56842C54.5223 2.09108 57.297 1.56398 59.9939 1.39342C60.3645 1.37068 60.0758 1.71415 60.2912 1.7047C62.5352 1.62748 61.6839 1.21972 62.8598 0.533712C62.6545 1.31431 63.366 1.69448 65.0536 1.59531C66.0734 1.54174 65.8751 1.22404 66.5272 0.964786C66.723 0.886356 67.4523 1.09208 67.58 0.935153C68.0047 0.422873 67.3036 -0.144947 69.0889 0.0699739C69.0896 0.0700673 69.0903 0.0701607 69.0911 0.0702543C69.1187 0.074044 69.1056 0.110978 69.0889 0.157957C69.0669 0.219759 69.0389 0.298948 69.0889 0.342903C69.1087 0.360327 69.1408 0.372222 69.1903 0.37538C70.9294 0.498896 71.143 -0.0287797 73.0326 0.00148475C74.5228 0.0244858 77.1074 0.594257 78.7551 0.890356C78.6049 1.72331 80.1735 1.75944 80.9085 1.29844C81.9765 1.50731 83.1303 1.70337 84.1413 2.01309C84.488 2.11938 84.2019 2.30694 84.2406 2.34285C84.8246 2.90238 85.409 2.46067 85.6429 2.49547C88.1663 2.90386 90.013 3.92161 92.4299 4.34037C92.515 4.35548 92.8506 3.8472 93.3125 4.47968C93.3405 4.52227 92.4971 4.49087 93.5575 4.91334C94.6218 5.33561 96.4734 6.44512 98.0149 6.8705C98.3866 6.97 99.4761 6.95943 100.005 7.64728C100.075 7.73939 99.8974 7.83917 99.9879 7.99054C100.28 8.47548 100.789 8.06784 101.052 8.78047C101.314 9.49379 102.148 10.3707 103.674 10.8735C103.722 10.8903 104.285 10.6754 104.707 10.9439C105.381 11.3704 106.277 12.0629 106.965 12.5235C107.295 12.7439 107.248 12.359 107.309 12.3931C109.619 13.772 110.999 15.1356 113.114 17.064C113.501 17.4154 114.907 18.1132 115.438 19.0429C116.011 20.0619 114.214 20.3104 116.245 21.8234C117.046 22.4324 119.297 22.1217 119.829 24.1488C122.387 26.6953 124.004 29.6367 126.225 32.473C126.324 32.6003 127.031 32.7619 127.227 33.0935C127.518 33.5851 127.474 33.9753 127.667 34.331C128.469 35.8257 129.39 37.0937 130.097 38.5758C130.363 39.1388 130.047 39.0525 130.356 39.7242C130.66 40.3947 131.165 40.7071 131.427 41.6908C131.623 42.4368 131.304 43.3843 131.597 44.3336C132.218 44.1283 132.465 44.771 133.046 45.8654C133.157 46.0755 133.286 45.7606 133.35 45.8562C133.614 46.2454 133.575 46.7058 133.835 47.0746C133.898 47.1647 134.111 47.0981 134.174 47.1682C134.724 47.7639 134.605 49.0797 134.578 49.2995C134.486 50.1537 134.865 50.429 134.9 51.0525C134.932 51.673 134.538 50.8398 134.645 51.5438C134.864 52.9957 135.317 54.8188 135.579 56.2741C135.686 56.855 135.905 56.4045 135.927 56.4864C136.227 57.682 136.1 58.9589 136.78 59.5492C135.368 60.5977 137.038 60.2603 136.921 62.0598C136.91 62.2001 136.205 62.4448 136.045 61.932C135.885 61.419 136.019 60.5977 135.756 59.8973C135.695 59.7281 134.881 58.8575 134.818 58.7334C134.337 57.752 135.375 57.4247 135.425 57.3576C135.952 56.6156 134.999 55.5611 134.883 55.2642C134.358 53.8845 134.216 52.6619 133.74 51.5279C133.428 50.789 132.722 50.9107 132.571 50.3155C132.057 48.3512 132.757 47.3261 131.283 45.8026C130.963 45.4784 130.393 46.1381 130.423 44.544C130.426 44.445 130.529 43.2126 129.948 42.765C129.875 42.7093 129.669 42.8016 129.609 42.7129C129.215 42.1184 129.188 41.6172 128.784 40.961C128.382 40.3071 127.86 39.5386 127.527 38.7311C127.327 38.2445 127.379 37.4509 127.346 37.1773C127.262 36.4022 126.455 35.9766 126.542 35.4132C126.625 34.8409 127.553 35.3258 127.143 34.1798C126.616 34.4448 126.047 34.6705 125.505 34.9179C124.2 32.7239 122.929 30.5378 121.332 28.5206C121.133 28.2716 121.083 28.7224 120.864 28.4621C119.941 27.3679 119.309 26.2592 118.252 25.2049C117.431 24.3902 116.324 23.7014 115.422 22.9146C115.386 21.9175 113.935 20.8313 113.007 19.9256C112.682 19.6067 112.824 19.4926 112.618 19.234C111.834 18.2658 111.879 19.0951 111.565 18.9486C110.215 18.3374 110.978 17.215 109.6 16.1864C109.527 16.1286 108.214 16.0384 108.067 15.9889C107.122 15.6591 108.088 15.6928 107.631 15.2967C106.794 14.5785 106.254 13.997 105.057 13.4672C104.706 13.3122 103.711 13.2091 103.267 12.5369C103.209 12.4484 103.377 12.2729 103.318 12.2209C102.23 11.2997 101.817 11.9319 101.003 11.762C100.19 11.593 99.3514 10.5712 99.1916 10.3246C98.7809 9.68274 99.7157 10.4093 99.7633 10.3943C100.344 10.1936 99.5075 9.8373 98.9033 9.4933C99.143 8.79358 98.2404 8.39987 98.274 9.14114C98.279 9.22213 98.7938 9.40028 98.9033 9.4933C98.0342 9.85925 97.0658 9.48691 96.2699 8.39518C95.8939 7.88665 96.5241 7.75055 94.9191 7.21362C94.1906 6.97692 94.272 7.55448 93.6015 7.43271C92.0734 7.15637 90.3743 6.05399 88.8366 5.6567C88.2841 5.51405 88.7331 5.9407 88.3538 5.85355C87.3492 5.62633 86.5268 5.18115 85.4932 5.0255C85.4003 5.0121 85.5497 5.34764 85.2388 5.27251C82.8779 4.71564 80.8305 4.1209 78.3088 3.75758C77.0922 3.57656 74.8894 3.5062 73.6239 3.39639C72.1997 3.26351 70.5941 3.02048 69.0889 2.92067C68.2594 2.86469 67.4766 2.85077 66.805 2.90995C65.5757 3.02193 65.8632 3.30331 65.3461 3.52651C64.3561 3.95661 62.5257 3.43772 62.2684 3.36246C62.2612 3.35793 63.307 3.19029 62.731 3.09602C62.3733 2.82025 62.2801 3.36003 62.2684 3.36246C62.1005 3.30279 59.9824 3.49138 59.5773 3.61518C59.3559 3.67774 59.5217 3.92989 59.4061 3.9575C56.6443 4.61294 53.9239 5.26564 51.1404 5.92258C51.0905 5.93102 51.0799 5.61612 50.9633 5.63984C49.3316 5.96826 48.4243 6.66032 47.2205 7.31926C46.016 7.98225 44.9963 8.3078 44.0494 8.12969C43.1227 8.57896 41.6744 8.971 40.8424 9.21262C40.009 9.45326 40.1641 10.0454 40.1026 10.0877C38.1883 11.4647 36.8557 11.8075 34.7562 13.0212C33.7555 13.5945 31.8998 14.9277 30.9329 15.7133C30.1668 16.3295 29.6091 16.5734 28.9463 17.1987C28.8569 17.2832 29.1171 17.4166 29.0939 17.4476C28.4979 18.3167 28.4778 17.511 28.2417 17.5495C27.3881 17.6939 26.8701 17.819 26.0048 18.819C25.8025 19.0511 25.7623 20.3259 25.4021 20.7277C24.9295 21.2522 24.898 20.8262 24.413 21.3893C24.3717 21.4375 24.5216 21.5781 24.1863 21.8843C22.6329 23.3081 20.955 24.8965 19.5426 26.5793C19.3495 26.8084 19.8469 26.7291 19.5738 27.063C18.2929 28.6298 16.9365 30.3774 15.6855 31.9116C15.3767 32.2891 15.3618 31.9085 15.2456 31.9568C14.5334 32.2619 14.5216 33.3669 14.4506 33.4987C12.7376 36.6864 10.9262 38.8641 9.62714 42.3426C9.55309 42.5349 9.5299 44.1956 8.76958 44.624C8.71854 44.6519 7.93887 45.0814 8.0827 45.7868C8.09229 45.8302 8.51255 45.5362 8.22322 46.219C7.93318 46.9054 7.72086 48.0818 7.10613 48.9553C6.91211 49.2299 6.14054 49.7991 6.30172 50.8546C6.30923 50.9285 6.8894 52.6188 6.08943 52.9555C5.95888 53.0101 5.25694 52.7415 5.35638 53.9553C5.37784 54.1866 5.62806 53.8354 5.59805 54.4225C5.55418 55.3209 5.12151 56.4331 5.2561 57.5609C5.27921 57.7594 5.63714 58.6306 5.16572 59.2099C5.09184 59.3006 4.87636 59.0738 4.7988 59.4069C4.42969 60.994 4.40719 62.7135 4.12178 64.3471C4.02226 64.9293 3.64362 64.6024 3.50027 65.2135C3.35575 65.8266 3.20564 67.061 3.37808 67.7136C3.55012 68.3626 4.19309 67.6694 4.23497 68.6291C4.24079 68.7522 4.24645 68.8754 4.25195 68.9985C4.43332 73.0191 4.44536 77.0263 5.13351 81.0098C5.24051 81.6155 5.36539 81.0738 5.54571 81.9578C6.16904 85.253 8.07148 90.667 8.77319 93.5172C9.31252 95.8192 7.90359 93.2171 8.45572 94.9334C8.73018 95.7684 9.79468 96.3141 9.90273 96.4896C10.9757 98.2229 11.3361 99.6184 12.3244 101.166C12.5293 101.483 12.606 101.014 12.7774 101.285C13.3649 102.204 13.8484 103.252 14.4351 104.118C14.6993 104.505 14.8436 104.307 15.065 104.675C15.599 105.553 16.0394 106.354 16.4584 107.294C16.4972 107.38 15.9008 107.045 16.345 107.671C17.0646 108.681 17.8519 110.036 18.9409 110.993C19.2659 111.276 19.6693 110.95 19.9922 111.871C20.0615 112.063 19.4273 112.3 20.5409 112.732C20.7281 112.812 22.46 113.61 22.7351 114.552C22.8063 114.802 22.859 115.584 23.2828 115.884C23.3413 115.923 23.3393 115.53 23.6606 115.804C24.7899 116.774 25.9229 117.842 27.1453 118.758C27.4718 119.001 27.1957 118.39 27.6756 118.757C28.9934 119.766 30.5908 121.08 31.8705 122.085C32.3419 122.456 31.8652 122.416 31.8857 122.463C32.2226 123.216 32.8952 122.973 33.1055 123.074C34.4196 123.706 35.214 124.517 36.403 125.13C36.731 125.299 36.6427 124.931 36.7183 124.946C37.4931 125.117 36.7587 125.263 37.1502 125.548C38.2506 126.349 39.5952 127.029 40.8431 127.592C41.3003 127.797 40.9309 127.267 41.3383 127.453C43.7531 128.543 46.3 129.595 48.7024 130.572C49.1561 130.756 48.7882 130.893 48.8678 130.978C49.4217 131.572 50.5698 131.361 50.809 131.376C51.9059 131.452 52.2543 131.769 53.1857 131.965C57.7264 132.937 63.3948 133.803 67.7923 133.944C68.2304 133.961 68.6623 133.975 69.0889 133.984C74.2062 134.081 78.4285 133.81 83.3608 132.678C83.6997 132.598 83.2863 132.357 83.5761 132.284C87.3099 131.352 90.9708 130.299 94.4879 128.7C94.7763 128.569 94.2363 128.465 94.6928 128.245C95.6287 127.791 96.8199 127.256 97.8055 126.874C98.2855 126.688 97.7878 127.233 98.2698 127.039C99.3923 126.585 100.545 125.988 101.595 125.323C102.04 125.039 101.195 125.166 101.783 124.819C105.781 122.431 109.414 119.676 113.161 116.779C113.416 116.58 114.066 116.855 114.483 116.284C114.398 116.12 114.251 115.971 114.135 115.818C118.957 111.033 123.249 105.752 126.519 99.7361C126.656 99.4832 126.123 99.7605 126.384 99.2712C127.893 96.4265 129.057 93.5472 130.469 90.5517C130.607 90.2537 131.121 90.611 131.345 89.6588C131.387 89.4919 131.755 88.0697 131.733 87.6724C131.729 87.618 131.387 87.7921 131.511 87.3415C132.239 84.7148 132.924 81.96 133.517 79.2915C133.614 78.8598 133.835 79.3707 133.905 79.0623C134.404 76.8796 134.42 74.44 134.792 72.3126C135.037 70.8939 135.525 71.4415 136.054 70.6832C136.13 70.5758 136.156 69.6702 136.449 69.6248C137.19 69.508 137.995 69.9661 138.786 69.7902C138.958 69.7532 138.778 68.4842 139.187 69.2365C139.216 69.2891 139.343 70.2117 139.476 70.4418C139.569 70.6023 139.874 70.3221 139.99 70.6495C140.106 70.9777 139.845 71.3265 139.969 71.8678C140.092 72.4118 140.448 72.1828 140.427 73.273ZM37.1079 10.4098C36.2664 10.5474 36.6776 11.5172 37.3069 10.883C37.3369 10.8513 37.1509 10.4023 37.1079 10.4098ZM123.539 30.1178C123.3 28.9919 122.32 28.8265 122.474 29.6288C122.621 30.4264 123.609 30.4579 123.539 30.1178ZM129.423 39.2856C129.195 38.0153 127.789 38.5277 128.641 39.5543C128.689 39.6143 129.436 39.3595 129.423 39.2856ZM136.014 74.2847C136.029 74.275 136.09 73.6261 136.077 73.6095C135.77 73.2426 135.65 74.5334 136.014 74.2847ZM133.764 49.2484C133.846 48.8208 133.282 47.826 133.192 48.3613C133.121 48.7892 133.664 49.7787 133.764 49.2484ZM7.85239 39.7358C7.83246 39.7403 7.61789 40.1601 7.70207 40.1892C7.97206 40.2806 8.18039 39.6576 7.85239 39.7358ZM136.695 67.4869C136.677 64.7719 137.757 62.9804 137.792 66.0243C137.792 66.57 137.346 64.868 137.269 65.5672C137.127 66.8329 137.919 67.6624 137.51 68.9746C137.437 69.2065 136.697 67.638 136.693 67.482C136.694 67.4837 136.694 67.4852 136.695 67.4869ZM36.093 9.53366C36.0717 9.52882 35.4946 9.8385 35.4882 9.85882C35.3452 10.3208 36.5015 9.6999 36.093 9.53366ZM0.642906 66.2372C0.608005 66.271 0.537345 67.7992 0.567772 67.8507C1.08941 68.6507 1.23009 65.5866 0.642906 66.2372ZM78.778 0.916449C79.5349 0.684627 80.4109 0.78479 80.9053 1.29745C80.2025 1.15297 79.4852 1.03694 78.778 0.916449Z" fill="white"/>
<path d="M95.0565 85.0244C94.2412 85.6305 93.0329 86.1833 92.0762 86.537C91.7767 86.6483 91.7956 86.362 91.5834 86.4295C91.1686 86.5619 90.8839 86.8614 90.4646 86.9759C90.3251 87.0128 90.2864 86.5989 90.1444 86.6451C89.3676 86.9007 88.7599 87.3627 88.0175 87.6986C84.3602 89.3526 80.889 91.1929 77.3014 93.0654C76.1187 93.6831 74.5437 94.1964 73.4262 95.0148C73.2959 95.1106 73.5447 95.3499 73.5319 95.3889C73.3257 95.9911 73.1291 95.3315 72.8134 95.4111C71.5612 95.7285 70.3488 96.3932 69.3768 97.1022C68.9638 97.4046 69.7351 97.72 69.1064 97.656C69.0631 97.6522 68.9988 97.2826 68.8592 97.3198C68.5428 97.4049 68.0542 97.7597 67.8278 97.8582C67.3906 98.0465 67.3246 98.0887 66.9353 98.3088C66.9139 98.3207 66.8923 98.3325 66.8703 98.3442C66.2666 98.6709 65.4943 98.8742 64.863 99.2077C64.72 99.2838 65.0538 99.5408 64.8319 99.6932C64.6099 99.8489 63.9415 100.043 63.6912 100.024C63.4434 100.008 63.4612 99.707 63.4042 99.6558C62.9528 99.2202 62.3834 100.128 62.2758 100.164C60.4898 100.832 58.8156 100.407 57.1393 100.146C55.8505 99.9481 54.4548 99.6714 53.3177 99.1364C51.9646 98.4947 51.0036 97.6548 49.8856 96.7715C49.7675 96.6761 49.631 97.1167 49.4835 96.9975C47.9193 95.7291 46.6622 94.0491 46.0321 92.1435C45.9705 91.954 46.4161 92.0142 46.3769 91.8184C46.0936 90.5908 46.3312 88.7885 44.6239 88.3946C44.5232 87.5735 44.4894 86.5557 44.8029 85.8373C44.9756 85.4393 45.303 85.7063 45.2824 85.4435C45.2792 85.4031 45.2662 85.349 45.2412 85.276C45.2026 85.162 44.847 85.3103 44.816 85.1393C44.6859 84.4195 44.8015 83.6331 44.6177 82.9211C44.5795 82.7762 44.2609 82.8158 44.2036 82.7747C43.7389 82.4298 44.507 81.8557 44.5628 81.7305C44.979 80.7774 44.8152 80.0814 44.8254 79.1935C44.8279 78.9875 44.4 79.231 44.387 79.0328C44.3257 78.0045 44.3625 76.9393 44.5524 75.9324C44.5956 75.7084 44.9602 75.9144 44.9995 75.8074C45.1685 75.3355 44.48 75.2309 44.6287 74.7783C44.6592 74.6829 44.9713 74.7366 45.0056 74.7192C45.5436 74.4468 44.7812 74.2101 44.7644 74.1401C44.5344 73.2538 45.3303 72.6873 45.2176 71.8311C45.2033 71.7287 44.8084 71.9597 44.7924 71.6718C44.6834 69.7536 44.7919 67.7249 45.1077 65.8262C45.1563 65.531 45.4529 65.7418 45.4895 65.7232C46.0609 65.4204 45.2953 65.2245 45.2665 65.1283C45.059 64.3689 45.7009 63.6595 44.7891 63.1436C45.1056 59.9276 44.5935 56.7263 45.4104 53.5368C45.4199 53.4963 45.7969 53.569 45.8141 53.4881C45.9178 53.011 45.8302 52.8124 45.6296 52.6583C45.4214 52.4858 45.0884 52.3631 44.7381 51.9794C44.5637 51.7826 45.4693 51.2967 45.5385 51.2648C45.7877 51.1194 46.3286 51.3488 46.3792 51.2977C46.7813 50.9015 44.9239 50.7504 45.0333 50.0764C45.0398 50.0568 45.3615 50.2003 45.4043 50.1519C45.5383 50.0037 45.4365 49.8147 45.5858 49.6761C45.9351 49.3533 46.8301 49.4655 46.4747 48.7999C46.4316 48.7125 45.3809 48.5229 45.6148 47.9668C45.7001 47.7461 46.071 46.7588 46.2676 46.524C46.4543 46.2879 46.6742 46.6164 46.6967 46.6029C47.4337 46.1199 47.4748 46.4636 48.2254 46.4673C48.9689 46.4944 47.5561 45.7914 47.4833 45.5675C47.4108 45.3401 48.0241 45.069 48.2046 45.0382C48.3852 45.0025 48.4704 45.2588 48.5955 45.2056C49.4196 44.8697 48.1587 44.4716 48.1163 44.1078C48.045 43.2263 49.2757 43.5967 49.7295 43.294C49.8564 43.2087 49.5802 43.1095 49.658 42.9957C49.9783 42.5447 50.4527 42.6033 50.7112 41.9591C50.7469 41.8576 50.7302 40.978 51.3045 41.2072C51.3847 41.242 51.4479 41.553 51.6717 41.4767C52.0059 41.3615 52.5487 41.0969 52.819 40.8377C53.0198 40.6447 52.5154 40.3723 52.8917 40.3389C53.058 40.3266 52.9413 40.7051 53.2382 40.6646C53.5308 40.6224 54.1678 40.3164 54.417 40.2102C54.6635 40.101 54.394 39.8166 54.4048 39.7857C54.4765 39.6033 54.9293 39.2546 54.9769 39.2417C57.3126 38.428 59.6028 38.8914 61.8644 39.0963C62.0449 39.1142 61.9982 38.7147 62.0264 38.7135C62.6809 38.6815 61.9918 39.5815 62.3211 40.0046C62.4367 39.2321 62.6548 39.4218 63.0917 39.4559C63.3041 39.4733 63.2798 39.1524 63.3065 39.1278C63.7477 38.7791 63.7873 39.4187 63.7958 39.5493C63.843 40.0357 64.2296 39.6172 64.2562 39.9469C64.2757 40.2721 63.8316 40.5677 64.2 40.708C64.4119 40.4931 64.3993 39.6999 64.7399 39.7118C65.2716 39.7325 65.9062 40.0194 66.4879 40.4199C67.249 40.9492 67.9674 41.6094 68.4138 41.9076C69.1708 42.4132 69.4507 42.5153 69.8587 42.8674C70.5956 43.5034 70.5627 42.8596 71.2007 42.9419C71.8402 43.0251 70.9238 44.0335 70.8548 44.3241C70.7845 44.6139 71.0112 44.4047 71.0231 44.5932C71.0347 44.7815 70.7421 44.8372 70.9248 45.0109C71.1076 45.1845 71.9425 45.0789 72.1674 44.8631C72.6435 44.4059 72.7147 43.6786 73.1595 44.2054C73.1849 44.2361 72.905 44.4787 73.011 44.5808C73.8589 45.3815 74.8713 45.9854 75.7336 46.7584C75.8518 46.8652 75.5364 47.1328 75.6031 47.1988C76.2965 47.8868 76.3325 47.1492 77.1455 46.7763C76.5595 47.5589 76.5104 48.2164 77.1284 48.5798C77.4997 48.7986 77.6474 48.3943 78.0382 48.2748C78.1557 48.2386 78.2742 48.6432 78.4217 48.4982C78.9054 48.0248 79.0215 47.2493 79.5163 47.8704C79.5375 47.8986 79.2697 48.156 79.3559 48.2307C79.9124 48.7153 80.3284 48.1682 81.0476 48.4881C81.6115 48.7389 82.3488 49.6446 82.9201 50.0525C82.3616 50.9904 83.0581 51.1039 83.6662 50.5861C84.0435 50.8395 84.489 51.0475 84.8165 51.3568C84.9294 51.4629 84.6856 51.687 84.685 51.7261C84.6698 52.3358 85.2066 51.8003 85.3057 51.8244C86.3639 52.1132 86.8349 53.0259 87.9829 53.0624C88.0237 53.0635 88.4533 52.436 88.4108 53.0507C88.4069 53.0925 87.9449 53.2241 88.344 53.4853C88.7431 53.7466 89.3175 54.5476 90.0659 54.5739C90.2467 54.5807 90.905 54.2501 90.9459 54.8289C90.9507 54.9071 90.801 55.0718 90.7946 55.2078C90.7767 55.6427 91.2554 55.0342 91.1354 55.7166C91.0155 56.3991 91.1993 57.0682 92.0014 57.0127C92.0264 57.012 92.4668 56.5649 92.6436 56.6781C92.9256 56.8592 93.2739 57.2064 93.5786 57.3778C93.7247 57.4596 93.8205 57.0795 93.8491 57.088C94.1053 57.1781 94.3303 57.2857 94.5375 57.4071C95.2312 57.8181 95.6888 58.3942 96.3285 59.0749C96.4739 59.229 97.3187 59.2982 97.3312 59.9012C97.3298 60.5529 95.6803 61.4679 96.6163 61.8852C96.9633 62.0292 99.2306 61.1232 98.622 62.4581C99.6609 63.6018 99.5832 65.1045 100.298 66.4383C100.33 66.4973 101.016 66.5872 101.036 66.7563C101.062 67.0032 100.778 67.1798 100.78 67.3512C100.778 68.0699 101.071 68.7153 101.012 69.42C100.989 69.6853 100.677 69.5802 100.641 69.8869C100.603 70.1893 101.001 70.4421 100.746 70.841C100.549 71.1438 99.658 71.302 99.4795 71.6541C100.297 71.8467 100.226 72.1213 100.3 72.6766C100.314 72.7843 100.625 72.7623 100.645 72.818C100.735 73.0509 100.449 73.1532 100.545 73.3811C100.568 73.4369 100.84 73.5313 100.873 73.5834C101.167 74.039 100.359 74.3167 100.222 74.3466C99.6956 74.4922 99.9689 74.7873 99.702 74.9508C99.4365 75.1062 99.4189 74.6716 99.1953 74.889C98.7348 75.3344 98.3775 76.0042 98.003 76.4887C97.8558 76.682 98.2616 76.7781 98.2477 76.811C98.0121 77.2911 97.3698 77.4078 97.734 78.1378C96.0457 77.047 97.6666 78.5066 96.8256 78.7565C96.7579 78.775 96.082 78.1285 96.1419 77.8863C96.1998 77.6458 96.6302 77.6326 96.6753 77.2709C96.692 77.1821 96.2886 76.32 96.2737 76.2534C96.1982 75.7021 97.3188 76.5258 97.396 76.5536C98.2112 76.8597 97.7469 75.8878 97.7522 75.7588C97.8186 75.1261 98.2205 74.8134 98.2415 74.2966C98.2534 73.9606 97.4333 73.5524 97.5464 73.3675C97.903 72.7681 99.2178 72.8609 98.3442 71.8693C98.1525 71.6611 97.1522 71.5746 98.0287 71.2519C98.0834 71.239 98.8684 70.9727 98.4517 70.6704C98.3992 70.6336 98.1109 70.5924 98.0919 70.5529C97.9687 70.2911 98.2177 70.1557 98.1287 69.8789C98.0391 69.6033 97.8862 69.2885 97.9829 68.991C98.0416 68.8145 98.5745 68.5573 98.7016 68.4549C99.0697 68.1656 98.418 67.9414 98.8594 67.7313C99.3002 67.5029 100.049 67.773 100.283 67.2506C99.5316 67.3382 98.7575 67.4111 98.0014 67.4997C97.8993 66.6295 97.8958 65.7042 97.5101 64.8802C97.4618 64.7799 97.1327 65.0436 97.0723 64.9442C96.8202 64.5325 96.8785 64.0174 96.5111 63.6415C96.2247 63.3519 95.6309 63.2596 95.3088 63.0347C95.8342 62.3016 95.193 62.0182 94.9316 61.6676C94.8374 61.5409 95.0018 61.3786 94.9675 61.2453C94.8275 60.748 94.4777 61.4619 94.3145 61.4795C93.6274 61.5794 94.6681 60.1885 94.1036 59.8475C94.0686 59.8238 93.2371 60.3848 93.1678 60.4118C92.6904 60.5608 93.2886 60.1083 93.1379 59.9397C93.125 59.9255 93.1123 59.9113 93.0999 59.8971C92.7793 59.5663 92.591 59.2398 91.9997 59.1962C91.8183 59.1839 91.1915 59.4864 91.1395 58.9425C91.1325 58.8712 91.305 58.6185 91.2849 58.5862C90.9077 58.0245 90.4145 58.8467 89.9515 58.9543C89.4885 59.0618 89.3549 58.2206 89.3558 58.0008C89.3552 57.4308 89.6507 57.9276 89.6883 57.8934C90.1337 57.4852 89.7454 57.3756 89.5109 57.184C89.9434 56.3483 89.5532 56.1882 89.2659 56.9886C89.2351 57.0764 89.4804 57.1168 89.5109 57.184C88.8226 57.8515 88.3657 57.7241 88.3573 56.7241C88.3536 56.2555 88.7835 55.9599 88.0726 55.7484C87.7501 55.6521 87.5361 56.2758 87.1977 56.2842C86.4247 56.3028 85.9838 55.3511 85.3468 55.0932C85.1157 54.9996 85.1469 55.4267 84.9828 55.3733C84.5468 55.2326 84.3376 54.8049 83.8799 54.6979C83.8382 54.6886 83.739 55.0595 83.6155 54.9937C82.6755 54.5007 81.9945 53.8332 81.0388 53.2738C80.577 53.0037 79.6463 52.7026 79.1869 52.3898C78.3895 51.8497 77.6357 50.7918 76.8595 50.495C76.3541 50.3 76.2703 50.6799 75.9454 50.7841C75.3172 50.9871 75.0775 49.8355 75.0541 49.6651C75.0536 49.6596 75.4961 49.8141 75.3785 49.5264C75.4532 49.1113 75.0595 49.6662 75.0541 49.6651C75.038 49.5544 74.2833 49.0215 74.0897 48.9916C73.9843 48.9755 73.8567 49.3076 73.8051 49.2935C72.5824 48.9507 71.4705 48.4119 70.4721 47.6457C70.4566 47.6286 70.6818 47.3047 70.643 47.2686C70.1048 46.7561 69.4638 46.9413 68.8051 46.8907C68.1465 46.84 67.7852 46.521 67.8172 45.7603C67.3855 45.6091 66.9763 45.0283 66.7454 44.686C66.5146 44.3437 66.0872 44.9805 66.0513 44.9773C65.2273 44.9114 64.8511 44.5317 64.3618 44.1024C64.2273 43.9713 64.0781 43.8388 63.8919 43.7243C63.5588 43.5105 62.801 43.3156 62.3872 43.2774C62.0578 43.243 61.9203 43.0198 61.5993 43.0615C61.5567 43.0674 61.5194 43.4085 61.5046 43.4185C61.1085 43.7479 61.4307 42.9671 61.3936 42.8069C61.2563 42.2284 61.114 41.9057 60.6275 42.103C60.5054 42.1466 60.1071 43.3139 59.9473 43.3765C59.7261 43.4548 59.8245 43.0279 59.5857 43.1266C59.5655 43.135 59.5654 43.3994 59.4252 43.3876C58.7741 43.3362 58.0243 43.2639 57.3443 43.45C57.2524 43.4742 57.465 43.856 57.3389 43.8973C56.7477 44.0916 56.1161 44.3021 55.4752 44.393C55.3165 44.4146 55.2726 44.1086 55.2039 44.0448C54.7708 43.6669 54.8589 44.4956 54.8316 44.5289C54.0523 45.4027 52.92 45.4236 52.3608 46.5409C52.3224 46.6108 52.6736 47.4768 51.9892 47.22C51.9462 47.1986 51.2226 46.9622 51.5225 47.4039C51.5425 47.43 51.9227 47.5298 51.766 47.6977C51.6059 47.8724 51.641 48.2961 51.1349 48.3874C50.9783 48.4095 50.2082 48.3331 50.6092 48.8569C50.6288 48.908 51.6784 49.7807 50.7868 49.6255C50.6404 49.6007 49.7444 49.2692 50.0944 49.7825C50.1645 49.8778 50.4029 49.8175 50.4785 50.0298C50.5991 50.3439 50.2641 50.654 50.624 51.057C50.6865 51.1323 51.2866 51.4552 50.7804 51.5796C50.7008 51.6012 50.3926 51.5051 50.3455 51.6071C50.1947 51.9372 50.2324 52.2964 50.2168 52.6583C50.2091 52.9012 50.1837 53.1436 50.1114 53.3836C50.0344 53.6416 49.522 53.5097 49.3847 53.7787C49.2474 54.0477 49.1154 54.5895 49.3495 54.871C49.5838 55.1525 50.4004 54.845 50.4657 55.2667C50.7495 57.1 50.2705 58.9161 50.2004 60.7467C50.19 61.0182 50.4822 60.7931 50.4877 61.1932C50.5095 62.6684 50.7834 65.2153 50.1625 66.4954C49.6652 67.521 49.2866 66.2303 49.0842 67.014C48.9877 67.3922 49.9371 67.8014 49.967 67.8927C50.2706 68.7846 49.85 69.4044 49.9791 70.2071C50.0058 70.3729 50.3906 70.2103 50.4092 70.3514C50.4759 70.8333 50.3041 71.3397 50.3356 71.8002C50.3505 72.0068 50.6444 71.9687 50.6217 72.1588C50.5709 72.6137 50.4473 73.0159 50.1719 73.4593C50.1468 73.4997 49.7812 73.2272 49.7676 73.5637C49.7466 74.1083 49.4749 74.7844 49.7555 75.411C49.8399 75.5969 50.5116 75.6042 50.0477 76.0039C49.9508 76.0877 49.1443 75.9807 49.8412 76.4463C49.957 76.5246 50.897 77.3066 50.2911 77.6904C50.1316 77.7916 49.4716 78.0501 49.5753 78.2736C49.5919 78.304 49.9526 78.1825 49.9878 78.3678C50.1056 79.0207 50.0671 79.705 50.1801 80.3758C50.211 80.5549 50.5843 80.2881 50.6185 80.5551C50.7128 81.2893 50.6178 82.2059 50.5009 82.9238C50.4571 83.1885 50.1478 83.0055 50.1142 83.0248C49.5668 83.3345 50.3057 83.5176 50.3487 83.6204C50.6067 84.2597 50.2596 84.7465 50.3515 85.3358C50.3759 85.4984 50.7282 85.3831 50.7596 85.4155C50.7686 85.4253 50.7768 85.4347 50.7842 85.4435C51.0311 85.6444 50.4316 85.4894 50.366 85.638C50.1761 86.0677 50.2465 86.5514 50.3593 86.964C50.4015 87.115 50.776 86.8776 50.809 87.0089C51.0137 87.7776 51.2164 88.5373 51.3521 89.3364C51.3775 89.4872 51.055 89.5433 51.0042 89.603C50.6541 90.0326 51.4233 90.0038 51.5126 90.0248C51.9353 90.1542 51.767 90.4042 51.977 90.6167C52.9773 91.6318 54.1879 92.8834 55.3845 93.5868C56.9047 94.4884 58.3308 95.0744 60.07 94.8981C60.179 94.8858 60.0395 94.4764 60.1297 94.4603C61.2751 94.2693 62.4422 94.1034 63.4656 93.4474C63.5476 93.3949 63.2442 93.1053 63.3651 93.0108C63.455 92.9386 63.5592 92.8688 63.6721 92.8048C63.9574 92.6421 64.2729 92.5039 64.5685 92.4259C64.7958 92.3652 64.7021 92.8124 64.9274 92.7452C65.4523 92.5895 65.9607 92.3286 66.4026 92.0001C66.5902 91.8595 66.0832 91.6837 66.3428 91.5284C68.1073 90.4632 69.8251 89.3907 71.8913 88.8045C72.0329 88.7644 72.5537 89.4159 72.7375 89.1272C72.6429 88.9175 72.5072 88.685 72.3936 88.4682C74.9257 86.8541 77.6401 85.6171 80.2674 84.1512C80.3782 84.0893 79.9699 83.8205 80.1831 83.6988C81.4172 82.9938 82.5519 82.1989 84.028 81.8481C84.1742 81.8127 84.4944 82.5154 84.8044 82.2022C84.8588 82.1463 85.3619 81.7375 85.4219 81.5102C85.4288 81.4772 85.1482 81.2248 85.3216 81.1126C86.3326 80.466 87.4616 79.9088 88.6077 79.5002C88.793 79.4349 88.8059 79.8686 88.9395 79.825C89.8861 79.5127 90.6601 78.7304 91.6411 78.5646C92.2984 78.4548 92.4285 79.1423 93.0408 79.5395C93.1273 79.5954 93.4693 79.4148 93.6757 79.7323C94.1957 80.5304 94.5543 81.5259 95.1278 82.3655C95.251 82.5465 95.5817 82.084 95.5801 82.6942C95.5792 82.7355 95.3418 83.0748 95.3513 83.2761C95.3574 83.4154 95.6502 83.6906 95.6157 83.8935C95.5811 84.0962 95.2949 83.8891 95.1995 84.1591C95.1053 84.4311 95.4069 84.7622 95.0565 85.0244ZM65.7031 43.1499C65.5893 42.6599 64.8724 43.8001 65.3553 43.7071C65.3794 43.7012 65.7094 43.1744 65.7031 43.1499ZM98.8253 65.4043C99.2592 64.8237 98.3381 64.872 98.0044 65.2865C97.6606 65.6802 98.6893 65.5705 98.8253 65.4043ZM99.827 69.5193C100.309 69.0305 98.3991 68.9665 98.7745 69.4407C98.7953 69.4679 99.7987 69.5463 99.827 69.5193ZM91.8013 80.4689C91.8144 80.482 92.0637 80.3581 92.0606 80.3395C91.975 79.8953 91.4766 80.1432 91.8013 80.4689ZM99.362 73.8577C99.664 73.8085 99.5449 73.273 99.1755 73.345C98.8834 73.3959 98.9928 73.9105 99.362 73.8577ZM50.2101 43.7422C50.1919 43.7316 50.0423 43.8613 50.1278 43.9365C50.4019 44.1771 50.5115 43.916 50.2101 43.7422ZM94.6003 79.5676C95.5428 79.0359 97.1256 79.7666 95.9287 80.4455C95.7148 80.5593 96.0563 79.7334 95.7251 79.7979C95.141 79.9007 95.3694 80.9335 94.5945 80.7724C94.4675 80.7368 94.556 79.5923 94.6008 79.5647C94.6007 79.5656 94.6005 79.5666 94.6003 79.5676ZM66.3401 41.651C66.343 41.6321 66.1127 41.4796 66.0981 41.4916C65.7552 41.787 66.2191 42.0944 66.3401 41.651ZM45.7784 54.2747C45.7405 54.2899 45.705 54.9298 45.74 54.9507C46.4387 55.2845 46.5125 53.9908 45.7784 54.2747ZM82.915 50.0832C83.3905 49.8614 83.7275 49.9975 83.6653 50.5849C83.4207 50.4106 83.1622 50.2564 82.915 50.0832Z" fill="white"/>
</svg>
