<svg width="98" height="89" viewBox="0 0 98 89" fill="none" xmlns="http://www.w3.org/2000/svg">
<path d="M55.1209 0.847735C55.2772 1.34647 55.11 2.00023 54.8806 2.49708C54.8095 2.65279 54.4914 2.57394 54.428 2.68143C54.3043 2.89166 54.4603 3.08752 54.313 3.29527C54.2626 3.36412 53.7588 3.27841 53.7176 3.35061C53.4949 3.74622 53.6232 4.12048 53.5161 4.52124C52.9878 6.49525 52.7987 8.43566 52.5691 10.4338C52.4939 11.0927 52.0367 11.8936 52.2366 12.5741C52.2604 12.6535 52.7026 12.6062 52.739 12.6213C53.297 12.8583 52.4043 12.7795 52.2857 12.9343C51.8174 13.5486 51.7766 14.2318 51.9473 14.823C52.0212 15.0745 52.8995 14.8223 52.4065 15.0756C52.3732 15.0932 51.9036 15.0294 51.8535 15.0984C51.7409 15.2548 51.8248 15.5516 51.7876 15.6728C51.7135 15.9065 51.7183 15.9451 51.7129 16.1661C51.7015 16.4682 51.4681 16.8276 51.5745 17.1517C51.5986 17.2209 52.08 17.1293 52.1619 17.2396C52.2437 17.3501 52.2029 17.6423 52.0894 17.7408C51.9758 17.8393 51.5975 17.7973 51.5108 17.8148C50.7788 17.9582 51.7926 18.2962 51.8177 18.3397C52.2448 19.1325 51.6673 19.8124 51.669 20.5567C51.6714 21.1217 51.8621 21.7258 51.836 22.2634C51.803 22.9039 51.5421 23.4467 51.5869 24.0689C51.5911 24.1346 52.1571 24.0576 52.1634 24.1378C52.2292 24.9899 52.1675 25.8361 51.7854 26.6845C51.7466 26.7696 51.2497 26.6599 51.1812 26.7449C50.7728 27.2654 49.7917 28.0889 51.9553 28.398C51.8709 28.7506 51.7836 29.1785 51.3474 29.4939C51.0667 29.6973 50.5254 29.4998 50.7564 29.7496C50.8078 29.8059 51.2819 29.7327 51.3233 29.8172C51.4968 30.1729 51.3427 30.5615 51.5877 30.9134C51.6386 30.985 52.0634 30.9655 52.1399 30.9858C52.7594 31.1562 51.7353 31.44 51.6609 31.5018C51.106 31.9728 51.3244 32.3168 51.3108 32.7556C51.3074 32.8575 51.878 32.7371 51.8953 32.8351C51.9771 33.3433 51.928 33.8697 51.6748 34.3673C51.6171 34.478 51.1311 34.3762 51.0786 34.4291C50.8533 34.6623 51.7714 34.714 51.573 34.9377C51.5324 34.9848 51.1163 34.9583 51.0706 34.9669C50.3532 35.1015 51.3697 35.2184 51.3921 35.2531C51.6987 35.6911 50.6376 35.971 50.7879 36.3942C50.8069 36.4448 51.3334 36.3306 51.3548 36.4729C51.5001 37.4209 51.3555 38.4235 50.9344 39.3618C50.8696 39.5077 50.4741 39.4036 50.4253 39.4127C49.6635 39.5624 50.6842 39.6592 50.7227 39.7068C50.9994 40.0821 50.1434 40.4326 51.3592 40.6876C50.9372 42.277 51.62 43.8591 50.5308 45.4353C50.5182 45.4554 50.0155 45.4195 49.9925 45.4594C49.7102 45.9409 50.4915 45.8484 51.447 46.167C51.687 46.2472 50.5333 46.4913 50.4488 46.5129C50.1371 46.5916 49.3892 46.51 49.3289 46.5364C48.855 46.7544 51.3283 46.7189 51.3291 47.013C51.325 47.0222 50.8698 46.9836 50.8245 47.0083C50.6824 47.085 50.8633 47.161 50.7066 47.2361C50.344 47.4079 49.1421 47.4691 49.8416 47.7314C49.9324 47.7646 51.3353 47.7139 51.2691 47.9766C51.2415 48.0813 51.2655 48.5447 51.1746 48.6746C51.0838 48.8043 50.6317 48.7153 50.6121 48.7245C50.0143 49.0741 49.7665 48.9415 48.8814 49.1166C47.9996 49.2917 50.1027 49.2432 50.3374 49.3146C50.5715 49.3861 50.0782 49.6424 49.9068 49.7054C49.7352 49.7683 49.4479 49.6898 49.3509 49.7458C48.7166 50.1169 50.3948 49.9087 50.7285 50.0309C51.5189 50.3192 49.9593 50.5438 49.8064 50.8077C49.7652 50.8792 50.1204 50.8209 50.1536 50.8845C50.2805 51.1363 49.7938 51.2878 50.24 51.5744C50.3127 51.6212 51.2504 51.8529 50.5623 52.0028C50.4631 52.0241 50.0744 51.9637 49.9873 52.0711C49.8567 52.2314 49.7717 52.5203 49.9016 52.6927C49.9978 52.82 50.6382 52.6741 50.4392 52.8343C50.3504 52.9055 49.9758 52.7735 49.8401 52.9073C49.7045 53.0403 49.721 53.3805 49.7339 53.5099C49.7471 53.6391 50.2329 53.5684 50.2657 53.5788C50.4531 53.642 50.6874 53.89 50.6868 53.9119C50.7461 55.0171 49.9273 56.0364 50.1983 57.1125C50.2188 57.1969 50.7311 57.1407 50.7395 57.1535C50.9542 57.4426 49.5922 57.2147 49.1363 57.4167C50.1758 57.3875 49.9876 57.5067 50.1016 57.7103C50.1574 57.8085 50.5599 57.755 50.6011 57.764C51.2125 57.9095 50.4228 58.0109 50.2613 58.0369C49.667 58.1333 50.3692 58.2382 49.972 58.3038C49.5777 58.3693 48.9933 58.2185 49.0008 58.4138C49.3729 58.4686 50.3454 58.3236 50.503 58.4719C51.0991 59.0313 50.3361 60.0757 50.2569 60.5256C50.1777 60.9745 50.2463 61.1195 50.1118 61.3811C49.8687 61.8537 50.5902 61.6805 50.9204 61.9739C51.2507 62.2682 49.4754 62.1251 49.0938 62.1674C48.7123 62.209 49.105 62.2543 48.8953 62.306C48.6857 62.3574 48.4262 62.246 48.3474 62.3671C48.2688 62.4882 48.9474 62.8195 49.3465 62.8624C50.1919 62.9532 51.0791 62.8039 50.7674 63.1245C50.7489 63.1429 50.2821 63.0831 50.2349 63.1537C49.8755 63.7145 49.8533 64.297 49.5354 64.857C49.491 64.9341 48.9717 64.8652 48.94 64.91C48.6078 65.3768 49.4834 65.2099 50.4561 65.4658C49.1617 65.4083 48.3697 65.5498 48.3621 65.9041C48.3571 66.1171 48.9224 66.0804 49.3208 66.2181C49.4409 66.2595 49.0528 66.4102 49.3186 66.4375C50.1877 66.5275 51.1606 66.3856 50.7732 66.7508C50.7548 66.7669 50.2791 66.7158 50.2503 66.7712C50.0617 67.1291 50.9708 67.172 51.0808 67.5589C51.1672 67.8621 50.6129 68.4015 50.5227 68.7468C49.0674 68.7395 49.4007 69.0657 50.4041 69.198C50.363 69.4221 50.4197 69.6642 50.281 69.8808C50.2338 69.9553 49.8124 69.9063 49.7669 69.9157C49.0527 70.0599 50.0289 70.1573 50.0672 70.2057C50.4392 70.73 49.6993 71.1571 50.4224 71.6574C50.4484 71.6752 51.4593 71.7039 50.7212 71.8377C50.6703 71.8464 50.2104 71.6811 50.1748 71.9165C50.1392 72.1519 49.5973 72.5956 50.0657 72.9224C50.1785 73.0015 50.9991 73.2016 50.3579 73.3621C50.2709 73.3835 49.9809 73.3601 49.8196 73.391C49.3055 73.4908 50.3273 73.5453 49.4593 73.6626C48.5913 73.7799 47.9412 74.0239 48.5401 74.3535C48.5575 74.364 49.3673 74.442 49.3545 74.5456C49.3334 74.7111 49.1647 74.946 49.17 75.1187C49.1728 75.2015 49.6757 75.1485 49.6848 75.1629C49.9666 75.7191 49.5183 76.1149 49.3238 76.7107C49.2871 76.8199 49.9728 77.1338 49.4307 77.3453C48.8372 77.5774 46.3684 77.3389 46.9566 77.8725C47.1918 78.0878 50.324 78.3603 48.7012 78.7471C49.1033 79.4973 48.2728 80.1911 48.847 80.9434C48.8724 80.9772 49.7466 81.0842 49.7347 81.1637C49.7153 81.2818 49.3067 81.3466 49.2798 81.4309C49.1568 81.7842 49.5063 82.1075 49.4519 82.4481C49.4322 82.5774 49.0097 82.5322 48.9861 82.6864C48.9629 82.8406 49.5192 82.9434 49.2505 83.1522C49.0457 83.31 47.9087 83.4677 47.7762 83.6771C48.8977 83.6851 48.8746 83.8289 49.1707 84.0845C49.2281 84.1337 49.6185 84.081 49.6658 84.1042C49.867 84.1988 49.5435 84.2864 49.7625 84.3762C49.8151 84.398 50.1981 84.399 50.2627 84.4169C50.8268 84.5688 49.9652 84.819 49.8152 84.862C49.2455 85.0267 49.7437 85.1037 49.5193 85.23C49.295 85.3562 49.0146 85.1676 48.8785 85.3149C48.5969 85.6203 48.6588 86.0127 48.6412 86.3229C48.6365 86.4467 49.1478 86.3623 49.159 86.38C49.2886 86.6359 48.7448 86.8947 49.7632 87.0366C47.13 87.214 50.0186 87.1909 49.4915 87.5567C49.4489 87.5855 48.2036 87.6222 48.0208 87.5116C47.8381 87.4009 48.2274 87.2332 47.9424 87.0797C47.8755 87.0434 46.7087 86.8351 46.638 86.8067C46.0856 86.5842 47.9464 86.5527 48.0486 86.5409C49.1516 86.4074 47.8945 86.153 47.8077 86.086C47.4096 85.7794 47.6713 85.519 47.3872 85.2626C47.2036 85.095 45.9847 85.0786 46.022 84.9469C46.1453 84.5092 47.8458 84.3564 46.3714 83.944C46.0569 83.8555 44.7247 83.9434 45.7723 83.6265C45.8383 83.6066 46.7967 83.3713 46.1905 83.2354C46.114 83.2184 45.7258 83.2189 45.6932 83.1964C45.4822 83.0455 45.7915 82.9449 45.6434 82.7805C45.4952 82.6161 45.2744 82.4185 45.4061 82.2308C45.4848 82.1177 46.2082 81.9726 46.3853 81.9185C46.8955 81.7656 46.059 81.6017 46.6768 81.507C47.2977 81.4115 48.2407 81.5982 48.6419 81.3477C47.6331 81.3385 46.5978 81.3172 45.5833 81.3023C45.6188 80.7534 45.945 80.2134 45.9004 79.6628C45.8939 79.5945 45.3516 79.6643 45.3306 79.5911C45.2445 79.2823 45.6311 79.0126 45.4771 78.6924C45.3559 78.4446 44.7817 78.1728 44.637 77.9136C45.7913 77.7553 45.3994 77.3707 45.5049 77.0913C45.5414 76.9934 45.8497 77 45.9502 76.9304C46.3222 76.6678 45.3022 76.7908 45.1416 76.7189C44.4565 76.41 46.7653 76.3836 46.7083 76.0195C46.7061 76.0002 45.4754 75.7644 45.3987 75.7319C44.899 75.5256 45.8271 75.6977 45.918 75.5686C46.0842 75.3328 46.3781 75.169 46.0176 74.8923C45.9109 74.8116 45.1438 74.6181 45.7371 74.4614C45.8148 74.4408 46.2216 74.4522 46.2454 74.4356C46.6425 74.1354 45.3643 74.1275 44.9314 73.9559C44.4987 73.7843 45.381 73.5193 45.6353 73.4653C46.2932 73.3242 45.9164 73.5735 45.981 73.5811C46.7493 73.6709 46.617 73.4776 46.6819 73.3299C47.9352 73.3085 47.86 73.1019 46.7442 73.1767C46.6223 73.1853 46.7392 73.3002 46.6819 73.3299C45.4523 73.2002 45.2948 72.9732 46.4439 72.7225C46.9824 72.6051 47.6104 72.7161 47.3807 72.3595C47.277 72.1977 46.414 72.2603 46.1788 72.1175C45.642 71.7912 46.4469 71.3673 46.3201 71.031C46.2741 70.909 45.8017 71.0279 45.754 70.9445C45.6258 70.7231 45.9802 70.5278 45.7986 70.3055C45.7816 70.2854 45.2871 70.3346 45.2808 70.2654C45.2234 69.7413 45.5401 69.2849 45.5489 68.7376C45.5529 68.4732 45.2802 68.0005 45.335 67.7266C45.4271 67.2518 46.1462 66.6678 45.9715 66.2623C45.8597 65.9978 45.3651 66.0558 45.0281 65.9425C44.3749 65.7237 45.5449 65.3366 45.7261 65.2845C45.7321 65.2829 45.8487 65.5105 46.1026 65.389C46.6316 65.3184 45.7284 65.287 45.7261 65.2845C45.8432 65.2502 45.9554 64.7956 45.8609 64.7053C45.8092 64.6562 45.3406 64.6837 45.3226 64.6581C44.9032 64.0501 44.7841 63.441 45.0032 62.8244C45.0127 62.8135 45.5368 62.8299 45.5525 62.8044C45.7856 62.4474 45.1444 62.2188 44.7637 61.9243C44.3832 61.63 44.5107 61.3965 45.4104 61.2222C45.2972 61.0001 45.695 60.6814 45.9363 60.4981C46.1777 60.3147 45.1574 60.2891 45.1373 60.273C44.4917 59.7697 45.0757 59.4788 45.1666 58.9567C45.2115 58.7084 45.0635 58.2161 44.952 57.9473C44.8621 57.7349 45.1012 57.6069 44.9483 57.4112C44.9279 57.3848 44.4736 57.4115 44.4561 57.4034C43.9126 57.185 45.0231 57.29 45.2215 57.2449C45.9428 57.0814 46.3269 56.9804 45.9876 56.7006C45.9099 56.6361 44.3109 56.4482 44.2173 56.3306C44.0987 56.1776 44.6718 56.2354 44.533 56.0753C44.5217 56.0615 44.1681 56.0644 44.1836 55.9656C44.2514 55.5069 44.4571 55.0068 44.4217 54.5301C44.4182 54.465 43.8573 54.5485 43.8431 54.4544C43.7766 54.013 43.7973 53.5292 44.0599 53.0991C44.1262 52.9932 44.5189 53.0596 44.6355 53.0366C45.3411 52.8956 44.316 52.6955 44.2964 52.6625C43.8038 51.8751 44.7315 51.2725 44.2898 50.4699C44.2639 50.4263 43.165 50.09 44.1075 49.94C44.1702 49.9297 45.1344 49.7813 44.4751 49.65C44.4339 49.6419 43.9375 49.7343 43.9881 49.5729C44.0386 49.4115 43.7071 49.1518 44.2525 48.9299C44.4243 48.8597 45.3862 48.6937 44.6194 48.4841C44.5659 48.4705 42.8322 48.147 44.0284 48.0316C44.2253 48.0129 45.4911 48.0324 44.8421 47.7824C44.7163 47.7346 44.4339 47.8213 44.2576 47.6954C43.9859 47.5026 44.3249 47.2471 43.761 47.01C43.6612 46.9686 42.802 46.7926 43.4542 46.6515C43.5563 46.6293 43.9789 46.6714 44.0262 46.5968C44.253 46.2423 43.9704 45.871 44.2627 45.511C44.3655 45.3835 45.0487 45.4487 45.2317 45.3158C45.4148 45.1829 45.5908 44.9151 45.2786 44.776C44.9663 44.6369 43.8775 44.7888 43.7903 44.5804C43.4119 43.6744 44.0507 42.7769 44.1441 41.8722C44.158 41.738 43.7684 41.8492 43.761 41.6515C43.7321 40.9224 43.3667 39.6638 44.1946 39.0311C44.8577 38.5243 45.3625 39.1621 45.6324 38.7748C45.7611 38.5879 44.4952 38.3857 44.4554 38.3406C44.0506 37.8998 44.6113 37.5935 44.4393 37.1968C44.4036 37.1148 43.8905 37.1952 43.8658 37.1255C43.7768 36.8873 44.0058 36.637 43.9639 36.4094C43.9439 36.3073 43.5521 36.3262 43.5823 36.2322C43.6502 36.0074 43.8149 35.8086 44.1822 35.5895C44.2156 35.5695 44.7031 35.7042 44.7212 35.5379C44.7492 35.2687 45.1115 34.9346 44.7374 34.625C44.6248 34.5331 43.7292 34.5295 44.3477 34.332C44.4769 34.2905 45.5523 34.3434 44.6231 34.1133C44.4687 34.0746 43.2154 33.6882 44.0232 33.4985C44.2359 33.4484 45.1159 33.3207 44.9776 33.2102C44.9555 33.1952 44.4745 33.2553 44.4275 33.1637C44.2705 32.841 44.3219 32.5028 44.1712 32.1713C44.13 32.0828 43.6322 32.2146 43.5867 32.0827C43.4609 31.7199 43.5876 31.2669 43.7435 30.9121C43.8019 30.7813 44.2142 30.8717 44.2591 30.8622C44.989 30.7091 44.0038 30.6186 43.9463 30.5678C43.6024 30.2519 44.0651 30.0113 43.9427 29.7201C43.9101 29.6397 43.4404 29.6967 43.3985 29.6807C42.9892 29.5148 43.8328 29.6384 43.9258 29.5333C44.1891 29.2391 44.1514 28.9111 44.0914 28.6136C44.0686 28.5043 43.5239 28.6271 43.5098 28.5291C43.416 27.9486 43.4681 27.3451 43.7684 26.7785C43.8259 26.6719 44.2453 26.739 44.3411 26.7167C45.0113 26.5635 44.0971 26.3389 44.0101 26.2873C43.6124 26.0523 43.9833 25.961 43.9141 25.7536C43.5694 24.7399 43.8151 23.4884 43.9668 22.5316C44.1622 21.2848 44.5612 20.3173 44.4576 19.1283C44.4515 19.0528 43.8935 19.129 43.8812 19.0638C43.7466 18.2228 43.9647 17.3948 43.8035 16.5521C43.7913 16.483 43.2623 16.5827 43.2249 16.4717C43.1444 16.244 43.1732 15.9556 43.3421 15.7254C43.4235 15.6132 43.8774 15.7637 43.95 15.6507C44.1202 15.3876 44.1578 15.1055 44.073 14.8352C44.0358 14.7202 43.4948 14.8938 43.4886 14.7442C43.4349 13.7258 43.3417 12.7256 44.0423 11.6965C44.0904 11.6259 45.1899 11.564 44.9791 11.414C44.6739 11.4027 44.315 11.4033 43.9888 11.3984C43.8131 9.9158 44.1943 8.44837 44.2532 6.96164C44.2556 6.89896 43.673 7.00729 43.6746 6.88593C43.6832 6.18354 43.5218 5.50147 44.1009 4.783C44.1575 4.71172 45.1824 4.74829 45.0274 4.53822C44.9991 4.50116 44.8624 4.18477 44.6399 4.10296C44.6064 4.09185 44.128 4.14958 44.1141 4.04762C44.0414 3.45513 44.1506 2.83424 44.4429 2.24278C44.491 2.14733 45.0004 2.24898 45.0391 2.18099C45.3095 1.69871 44.9223 1.17413 45.3848 0.713288C45.6962 0.404817 46.5768 0.519022 47.4436 0.355105C47.5659 0.33192 47.5853 0.140906 48.0896 0.131028C49.3578 0.105668 50.7464 0.198189 52.0982 0.160225C52.3893 0.152205 52.0757 -0.103613 52.7793 0.0478475C52.8264 0.0584286 53.0599 0.243898 53.2986 0.289579C53.4636 0.321384 53.9765 0.26407 54.1878 0.328962C54.3988 0.393849 53.9689 0.46515 54.2171 0.572731C54.4683 0.680264 55.0518 0.632981 55.1209 0.847735ZM47.0152 59.6724C47.5052 59.5026 45.7106 59.4775 46.1399 59.6612C46.1628 59.6701 46.9911 59.6811 47.0152 59.6724ZM47.2986 80.2165C48.0902 79.9945 46.9263 79.8426 46.315 79.9992C45.7043 80.1558 47.0587 80.2841 47.2986 80.2165ZM47.8765 82.5184C48.5006 82.2589 45.9558 82.2181 46.4703 82.496C46.4993 82.5121 47.8403 82.5335 47.8765 82.5184ZM47.6905 1.11527C47.7143 1.11292 47.7375 0.975616 47.7139 0.972335C47.144 0.899221 47.0979 1.17378 47.6905 1.11527ZM48.5057 84.8026C48.8499 84.7216 48.4525 84.4884 48.0245 84.5891C47.6801 84.6701 48.0774 84.9035 48.5057 84.8026ZM48.9305 50.8149C48.9572 50.8122 48.9813 50.7138 48.8301 50.7157C48.3432 50.7224 48.4807 50.8594 48.9305 50.8149ZM48.5349 88.6849C48.6307 88.1113 50.7328 87.7635 50.4956 88.3882C50.4527 88.5013 49.8253 88.1444 49.6358 88.2884C49.2905 88.5518 50.6104 88.7267 49.9031 88.9956C49.7737 89.0442 48.5248 88.7176 48.532 88.6839C48.533 88.6842 48.534 88.6846 48.5349 88.6849ZM49.1707 59.5746C49.1944 59.5712 49.2169 59.4349 49.1934 59.4317C48.6237 59.3579 48.578 59.6324 49.1707 59.5746ZM50.0401 45.0707C50.0906 45.0632 50.1379 44.7469 50.0913 44.7366C49.1597 44.5716 49.0613 45.211 50.0401 45.0707ZM50.4839 68.7522C51.0571 68.9009 51.1245 69.0788 50.4048 69.1973C50.443 69.0496 50.4487 68.9008 50.4839 68.7522Z" fill="#66033C"/>
<path d="M0.932134 34.4722C1.48052 34.3158 2.19937 34.483 2.74568 34.7124C2.9169 34.7835 2.8302 35.1016 2.94839 35.165C3.17955 35.2887 3.39491 35.1327 3.62334 35.28C3.69905 35.3304 3.60481 35.8342 3.68419 35.8755C4.11919 36.0981 4.53071 35.9698 4.97137 36.0769C7.14191 36.6052 9.2755 36.7944 11.4726 37.0239C12.197 37.0992 13.0777 37.5564 13.826 37.3564C13.9133 37.3326 13.8612 36.8904 13.8778 36.854C14.1385 36.296 14.0518 37.1887 14.222 37.3073C14.8975 37.7757 15.6487 37.8164 16.2988 37.6457C16.5753 37.5718 16.298 36.6935 16.5765 37.1865C16.5959 37.2198 16.5257 37.6894 16.6015 37.7395C16.7735 37.8521 17.0999 37.7682 17.2332 37.8054C17.4901 37.8795 17.5326 37.8747 17.7756 37.8801C18.1078 37.8915 18.5029 38.1249 18.8593 38.0185C18.9354 37.9944 18.8347 37.513 18.956 37.4311C19.0775 37.3493 19.3987 37.3902 19.507 37.5036C19.6154 37.6172 19.5692 37.9955 19.5884 38.0822C19.7461 38.8142 20.1178 37.8004 20.1655 37.7754C21.0373 37.3482 21.7849 37.9257 22.6033 37.924C23.2245 37.9216 23.8888 37.7309 24.4799 37.7571C25.1842 37.7901 25.781 38.0509 26.4652 38.0061C26.5374 38.0019 26.4528 37.4359 26.541 37.4297C27.4779 37.3638 28.4083 37.4255 29.3412 37.8076C29.4347 37.8464 29.3142 38.3433 29.4076 38.4118C29.9799 38.8202 30.8854 39.8013 31.2253 37.6377C31.6129 37.7222 32.0835 37.8094 32.4303 38.2456C32.6539 38.5263 32.4368 39.0676 32.7114 38.8366C32.7734 38.7852 32.6928 38.3111 32.7857 38.2697C33.1769 38.0962 33.6042 38.2503 33.9912 38.0053C34.0699 37.9544 34.0484 37.5296 34.0707 37.4531C34.2581 36.8336 34.5701 37.8577 34.6381 37.9321C35.156 38.487 35.5343 38.2686 36.0168 38.2822C36.1287 38.2856 35.9964 37.715 36.1041 37.6977C36.6629 37.6159 37.2417 37.665 37.7889 37.9182C37.9106 37.9759 37.7986 38.4619 37.8568 38.5144C38.1132 38.7397 38.1701 37.8216 38.416 38.02C38.4679 38.0606 38.4387 38.4767 38.4481 38.5224C38.5961 39.2398 38.7248 38.2233 38.7628 38.2009C39.2444 37.8943 39.5523 38.9554 40.0175 38.8051C40.0732 38.7861 39.9477 38.2596 40.1041 38.2383C41.1465 38.0929 42.2489 38.2375 43.2807 38.6587C43.4411 38.7234 43.3266 39.1189 43.3367 39.1677C43.5012 39.9295 43.6076 38.9088 43.6599 38.8703C44.0726 38.5936 44.4581 39.4496 44.7384 38.2339C46.4861 38.6558 48.2257 37.9731 49.9588 39.0622C49.9809 39.0748 49.9414 39.5776 49.9853 39.6006C50.5147 39.8828 50.413 39.1015 50.7633 38.146C50.8516 37.906 51.12 39.0597 51.1437 39.1443C51.2303 39.4559 51.1405 40.2038 51.1695 40.2641C51.4092 40.738 51.3702 38.2647 51.6936 38.2639C51.7037 38.268 51.6613 38.7233 51.6884 38.7685C51.7727 38.9106 51.8563 38.7297 51.9389 38.8864C52.1278 39.2491 52.195 40.4509 52.4835 39.7514C52.5201 39.6607 52.4643 38.2577 52.7531 38.3239C52.8682 38.3516 53.3778 38.3275 53.5206 38.4184C53.6633 38.5092 53.5653 38.9613 53.5755 38.9809C53.9598 39.5788 53.8141 39.8265 54.0067 40.7116C54.1992 41.5934 54.1458 39.4903 54.2243 39.2556C54.3029 39.0215 54.5847 39.5148 54.654 39.6862C54.7232 39.8578 54.6369 40.1451 54.6984 40.2422C55.1065 40.8764 54.8775 39.1983 55.012 38.8645C55.329 38.0741 55.5759 39.6338 55.8661 39.7866C55.9447 39.8279 55.8806 39.4726 55.9505 39.4394C56.2274 39.3126 56.394 39.7992 56.7091 39.353C56.7606 39.2803 57.0153 38.3426 57.1802 39.0307C57.2035 39.13 57.1372 39.5186 57.2552 39.6057C57.4315 39.7363 57.7492 39.8213 57.9388 39.6914C58.0787 39.5953 57.9183 38.9548 58.0944 39.1538C58.1727 39.2426 58.0276 39.6173 58.1747 39.7529C58.321 39.8885 58.695 39.872 58.8373 39.8591C58.9794 39.8459 58.9016 39.3601 58.9131 39.3274C58.9826 39.1399 59.2552 38.9056 59.2793 38.9062C60.4946 38.8469 61.6153 39.6658 62.7985 39.3947C62.8914 39.3742 62.8295 38.8619 62.8437 38.8535C63.1616 38.6389 62.911 40.0009 63.133 40.4568C63.1009 39.4172 63.232 39.6054 63.4559 39.4914C63.5638 39.4356 63.5051 39.0331 63.5149 38.9919C63.6749 38.3805 63.7864 39.1702 63.8151 39.3318C63.921 39.926 64.0364 39.2239 64.1085 39.6211C64.1805 40.0153 64.0147 40.5997 64.2294 40.5922C64.2897 40.2201 64.1302 39.2477 64.2933 39.0901C64.9085 38.4939 66.0568 39.2569 66.5514 39.3361C67.0451 39.4153 67.2045 39.3467 67.4922 39.4812C68.0118 39.7243 67.8214 39.0028 68.144 38.6726C68.4676 38.3424 68.3103 40.1176 68.3568 40.4992C68.4024 40.8807 68.4523 40.488 68.5091 40.6977C68.5657 40.9074 68.4431 41.1668 68.5763 41.2456C68.7095 41.3242 69.0737 40.6456 69.1209 40.2465C69.2208 39.4012 69.0566 38.5139 69.4091 38.8257C69.4294 38.8442 69.3636 39.3109 69.4412 39.3581C70.0578 39.7175 70.6984 39.7398 71.3142 40.0576C71.3988 40.102 71.3231 40.6213 71.3724 40.653C71.8857 40.9852 71.7022 40.1096 71.9835 39.1369C71.9203 40.4313 72.0759 41.2233 72.4654 41.2309C72.6996 41.236 72.6593 40.6706 72.8108 40.2722C72.8562 40.1521 73.0219 40.5402 73.0519 40.2744C73.1509 39.4053 72.9949 38.4324 73.3965 38.8198C73.4141 38.8382 73.358 39.3139 73.4189 39.3427C73.8125 39.5313 73.8595 38.6223 74.285 38.5122C74.6184 38.4258 75.2115 38.9801 75.5912 39.0703C75.5832 40.5256 75.9418 40.1923 76.0873 39.1889C76.3337 39.23 76.5999 39.1733 76.8381 39.312C76.92 39.3593 76.8662 39.7806 76.8765 39.8261C77.035 40.5403 77.1421 39.5641 77.1953 39.5258C77.7718 39.1538 78.2414 39.8937 78.7916 39.1706C78.8111 39.1446 78.8428 38.1337 78.9898 38.8718C78.9993 38.9227 78.8176 39.3826 79.0764 39.4182C79.3353 39.4538 79.8232 39.9957 80.1826 39.5273C80.2695 39.4145 80.4895 38.5939 80.666 39.2351C80.6895 39.3221 80.6638 39.6121 80.6977 39.7734C80.8075 40.2875 80.8674 39.2657 80.9964 40.1338C81.1254 41.0018 81.3937 41.6518 81.7561 41.0529C81.7676 41.0355 81.8534 40.2257 81.9674 40.2385C82.1493 40.2596 82.4076 40.4283 82.5975 40.4231C82.6885 40.4202 82.6302 39.9174 82.646 39.9082C83.2576 39.6264 83.6928 40.0747 84.348 40.2693C84.4681 40.3059 84.8132 39.6202 85.0457 40.1623C85.301 40.7558 85.0387 43.2246 85.6254 42.6364C85.8621 42.4012 86.1618 39.2691 86.5871 40.8918C87.412 40.4897 88.1749 41.3202 89.0021 40.7461C89.0393 40.7206 89.1569 39.8465 89.2443 39.8584C89.3742 39.8777 89.4454 40.2863 89.5381 40.3132C89.9266 40.4363 90.2821 40.0867 90.6566 40.1411C90.7988 40.1608 90.749 40.5833 90.9186 40.6069C91.0881 40.6301 91.2011 40.0738 91.4308 40.3425C91.6043 40.5473 91.7777 41.6843 92.008 41.8169C92.0167 40.6953 92.1749 40.7184 92.4559 40.4223C92.51 40.3649 92.452 39.9745 92.4776 39.9272C92.5816 39.726 92.6779 40.0495 92.7766 39.8305C92.8006 39.7779 92.8018 39.3949 92.8214 39.3303C92.9884 38.7662 93.2636 39.6278 93.3108 39.7778C93.4919 40.3475 93.5766 39.8493 93.7155 40.0737C93.8542 40.298 93.6468 40.5784 93.8088 40.7146C94.1446 40.9961 94.5761 40.9343 94.9172 40.9519C95.0533 40.9565 94.9604 40.4453 94.9799 40.434C95.2613 40.3044 95.5458 40.8482 95.7019 39.8298C95.897 42.4631 95.8716 39.5744 96.2738 40.1015C96.3055 40.1442 96.3458 41.3894 96.2242 41.5722C96.1025 41.7549 95.9181 41.3656 95.7493 41.6506C95.7093 41.7175 95.4804 42.8844 95.4492 42.955C95.2045 43.5075 95.1698 41.6466 95.1569 41.5444C95.01 40.4414 94.7303 41.6985 94.6566 41.7854C94.3196 42.1834 94.0332 41.9217 93.7513 42.2058C93.567 42.3894 93.5489 43.6083 93.4042 43.571C92.9229 43.4477 92.7549 41.7473 92.3014 43.2216C92.2041 43.5361 92.3008 44.8683 91.9523 43.8208C91.9304 43.7547 91.6718 42.7964 91.5223 43.4025C91.5035 43.479 91.5041 43.8672 91.4794 43.8999C91.3134 44.1108 91.2028 43.8015 91.022 43.9497C90.8413 44.0978 90.624 44.3187 90.4177 44.187C90.2933 44.1082 90.1337 43.3848 90.0742 43.2077C89.9061 42.6975 89.7259 43.534 89.6217 42.9162C89.5167 42.2953 89.722 41.3523 89.4467 40.9511C89.4365 41.9599 89.413 42.9953 89.3966 44.0097C88.7932 43.9742 88.1994 43.648 87.5939 43.6926C87.5189 43.6991 87.5956 44.2414 87.5152 44.2624C87.1756 44.3486 86.8791 43.962 86.527 44.1159C86.2545 44.2372 85.9556 44.8113 85.6706 44.956C85.4965 43.8017 85.0736 44.1936 84.7665 44.0881C84.6588 44.0516 84.666 43.7434 84.5895 43.6428C84.3008 43.2708 84.4361 44.2908 84.3569 44.4514C84.0173 45.1365 83.9883 42.8277 83.5879 42.8847C83.5667 42.887 83.3074 44.1177 83.2717 44.1943C83.0448 44.694 83.2342 43.7659 83.0921 43.675C82.8329 43.5088 82.6527 43.2149 82.3485 43.5754C82.2598 43.6822 82.047 44.4492 81.8748 43.8559C81.8521 43.7782 81.8646 43.3714 81.8464 43.3476C81.5163 42.9505 81.5076 44.2287 81.3189 44.6616C81.1302 45.0944 80.8388 44.212 80.7795 43.9577C80.6243 43.2999 80.8984 43.6766 80.9068 43.612C81.0055 42.8437 80.7929 42.976 80.6305 42.9111C80.607 41.6578 80.3799 41.733 80.4622 42.8488C80.4715 42.9707 80.5979 42.8538 80.6305 42.9111C80.488 44.1407 80.2384 44.2982 79.9627 43.1491C79.8336 42.6106 79.9556 41.9827 79.5636 42.2124C79.3857 42.3161 79.4544 43.179 79.2974 43.4143C78.9388 43.951 78.4726 43.1461 78.1028 43.2729C77.9686 43.319 78.0994 43.7913 78.0076 43.8391C77.7642 43.9673 77.5495 43.6128 77.3051 43.7944C77.2829 43.8114 77.337 44.3059 77.261 44.3122C76.6847 44.3696 76.1829 44.0529 75.5811 44.0441C75.2904 44.0401 74.7706 44.3128 74.4694 44.258C73.9474 44.1659 73.3052 43.4469 72.8593 43.6215C72.5685 43.7333 72.6323 44.2279 72.5076 44.5649C72.2671 45.2181 71.8415 44.0481 71.7842 43.8669C71.7824 43.8609 72.0327 43.7443 71.8991 43.4904C71.8215 42.9614 71.787 43.8646 71.7842 43.8669C71.7465 43.7499 71.2466 43.6376 71.1473 43.7321C71.0934 43.7838 71.1235 44.2524 71.0954 44.2705C70.4269 44.6898 69.7572 44.8089 69.0791 44.5898C69.0672 44.5803 69.0852 44.0562 69.0571 44.0405C68.6646 43.8074 68.4132 44.4486 68.0895 44.8293C67.7658 45.2098 67.5091 45.0824 67.3175 44.1826C67.0732 44.2959 66.7228 43.8981 66.5212 43.6567C66.3196 43.4153 66.2914 44.4356 66.2737 44.4558C65.7203 45.1013 65.4005 44.5174 64.8264 44.4265C64.5534 44.3815 64.012 44.5295 63.7165 44.6411C63.483 44.7309 63.3422 44.4918 63.127 44.6447C63.0979 44.6651 63.1273 45.1194 63.1185 45.1369C62.8783 45.6804 62.9937 44.5699 62.9441 44.3715C62.7643 43.6503 62.6533 43.2661 62.3457 43.6054C62.2748 43.6831 62.0681 45.2822 61.9388 45.3757C61.7707 45.4943 61.8341 44.9212 61.6581 45.06C61.643 45.0714 61.6461 45.425 61.5375 45.4094C61.0331 45.3417 60.4832 45.1359 59.9591 45.1713C59.8875 45.1748 59.9793 45.7357 59.8759 45.7499C59.3905 45.8164 58.8585 45.7957 58.3856 45.5332C58.2692 45.4668 58.3422 45.0741 58.3169 44.9575C58.1618 44.252 57.9418 45.277 57.9055 45.2966C57.0397 45.7892 56.3771 44.8615 55.4947 45.3032C55.4467 45.3291 55.0769 46.428 54.9119 45.4855C54.9007 45.4228 54.7374 44.4586 54.5931 45.1179C54.5842 45.1591 54.6859 45.6555 54.5084 45.6049C54.3309 45.5544 54.0453 45.8859 53.8013 45.3405C53.7241 45.1687 53.5416 44.2068 53.3112 44.9736C53.2962 45.0271 52.9405 46.7608 52.8136 45.5646C52.793 45.3677 52.8145 44.1019 52.5395 44.7509C52.487 44.8767 52.5824 45.1591 52.444 45.3354C52.2319 45.6071 51.951 45.2681 51.6903 45.832C51.6448 45.9318 51.4513 46.791 51.296 46.1389C51.2717 46.0367 51.3179 45.6141 51.2359 45.5668C50.8461 45.34 50.4379 45.6227 50.0421 45.3303C49.9019 45.2275 49.9736 44.5444 49.8274 44.3613C49.6813 44.1783 49.3868 44.0022 49.2339 44.3144C49.0809 44.6267 49.248 45.7156 49.0188 45.8027C48.0226 46.1811 47.0357 45.5424 46.0409 45.4489C45.8934 45.435 46.0157 45.8246 45.7983 45.832C44.9966 45.861 43.6126 46.2263 42.917 45.3984C42.3597 44.7353 43.0611 44.2305 42.6352 43.9606C42.4297 43.8319 42.2073 45.0978 42.1577 45.1376C41.6731 45.5425 41.3363 44.9817 40.9 45.1538C40.81 45.1895 40.8983 45.7025 40.8216 45.7272C40.5598 45.8162 40.2846 45.5872 40.0343 45.6291C39.9221 45.6491 39.9428 46.0409 39.8395 46.0107C39.5923 45.9428 39.3737 45.7781 39.1328 45.4108C39.1108 45.3774 39.2589 44.8899 39.076 44.8718C38.7801 44.8438 38.4127 44.4815 38.0722 44.8557C37.9712 44.9682 37.9672 45.8638 37.75 45.2453C37.7045 45.1161 37.7626 44.0407 37.5096 44.9699C37.4671 45.1243 37.0421 46.3777 36.8336 45.5698C36.7785 45.3571 36.6381 44.4771 36.5166 44.6154C36.5001 44.6375 36.5661 45.1186 36.4655 45.1655C36.1107 45.3225 35.7388 45.2712 35.3743 45.4218C35.2769 45.463 35.4219 45.9608 35.2768 46.0063C34.8779 46.1321 34.3798 46.0054 33.9897 45.8496C33.8458 45.7912 33.9452 45.3788 33.9348 45.3339C33.7665 44.604 33.667 45.5892 33.6111 45.6467C33.2637 45.9907 32.9992 45.5279 32.679 45.6503C32.5906 45.6829 32.6533 46.1526 32.6357 46.1945C32.4532 46.6038 32.5891 45.7602 32.4736 45.6672C32.1501 45.4039 31.7895 45.4416 31.4623 45.5017C31.3422 45.5244 31.4772 46.0691 31.3694 46.0832C30.7311 46.1771 30.0675 46.1249 29.4446 45.8247C29.3273 45.7671 29.4011 45.3477 29.3766 45.2519C29.2082 44.5817 28.9612 45.4959 28.9044 45.583C28.6461 45.9806 28.5457 45.6097 28.3176 45.6789C27.203 46.0236 25.8269 45.7779 24.7748 45.6262C23.4039 45.4308 22.3401 45.0318 21.0327 45.1354C20.9497 45.1415 21.0334 45.6995 20.9618 45.7119C20.0371 45.8464 19.1267 45.6283 18.2001 45.7895C18.124 45.8017 18.2336 46.3307 18.1116 46.3681C17.8612 46.4486 17.5441 46.4198 17.291 46.2509C17.1676 46.1695 17.3332 45.7157 17.2089 45.643C16.9196 45.4728 16.6094 45.4352 16.3122 45.52C16.1857 45.5572 16.3766 46.0982 16.2122 46.1044C15.0924 46.1581 13.9926 46.2513 12.8609 45.5507C12.7834 45.5026 12.7153 44.4031 12.5504 44.614C12.5379 44.9191 12.5386 45.278 12.5332 45.6042C10.903 45.7799 9.28948 45.3987 7.65474 45.3398C7.58581 45.3374 7.70493 45.92 7.57149 45.9184C6.79917 45.9098 6.04919 46.0712 5.25919 45.4921C5.18081 45.4355 5.22103 44.4106 4.99004 44.5656C4.9493 44.5939 4.6014 44.7306 4.51145 44.9531C4.49923 44.9866 4.56271 45.465 4.4506 45.479C3.79913 45.5516 3.11642 45.4424 2.46607 45.1501C2.36111 45.102 2.47289 44.5926 2.39813 44.5539C1.86784 44.2835 1.29103 44.6707 0.784303 44.2082C0.445121 43.8968 0.570696 43.0162 0.390459 42.1494C0.364966 42.0271 0.154934 42.0077 0.144073 41.5034C0.116188 40.2352 0.217921 38.8466 0.176177 37.4948C0.167358 37.2037 -0.113929 37.5173 0.0526111 36.8137C0.0642457 36.7666 0.26818 36.5331 0.318409 36.2944C0.353381 36.1294 0.290361 35.6165 0.361713 35.4053C0.43306 35.1942 0.51146 35.6241 0.629752 35.376C0.74799 35.1247 0.696 34.5412 0.932134 34.4722ZM65.6133 42.5778C65.4266 42.0879 65.399 43.8824 65.601 43.4531C65.6108 43.4302 65.6229 42.6019 65.6133 42.5778ZM88.2028 42.2944C87.9587 41.5029 87.7917 42.6667 87.9639 43.278C88.136 43.8887 88.2772 42.5343 88.2028 42.2944ZM90.7338 41.7165C90.4486 41.0924 90.4037 43.6372 90.7092 43.1228C90.727 43.0937 90.7505 41.7528 90.7338 41.7165ZM1.2263 41.9025C1.22373 41.8787 1.07275 41.8555 1.06914 41.8791C0.988746 42.4491 1.29064 42.4951 1.2263 41.9025ZM93.2455 41.0874C93.1564 40.7431 92.9 41.1405 93.0107 41.5686C93.0997 41.9129 93.3564 41.5156 93.2455 41.0874ZM55.874 40.6626C55.871 40.6358 55.7628 40.6117 55.765 40.7629C55.7723 41.2498 55.9229 41.1124 55.874 40.6626ZM97.5143 41.0581C96.8836 40.9623 96.5012 38.8602 97.188 39.0974C97.3124 39.1403 96.92 39.7677 97.0783 39.9572C97.368 40.3025 97.5603 38.9826 97.8559 39.6899C97.9094 39.8194 97.5503 41.0682 97.5132 41.061C97.5136 41.06 97.5139 41.059 97.5143 41.0581ZM65.5058 40.4223C65.502 40.3986 65.3522 40.3761 65.3486 40.3996C65.2675 40.9693 65.5693 41.015 65.5058 40.4223ZM49.5579 39.5529C49.5496 39.5024 49.2019 39.4551 49.1906 39.5017C49.0092 40.4333 49.7122 40.5317 49.5579 39.5529ZM75.5972 39.1091C75.7607 38.536 75.9562 38.4685 76.0866 39.1882C75.9241 39.15 75.7606 39.1444 75.5972 39.1091Z" fill="#66033C"/>
</svg>
