<svg width="43" height="64" viewBox="0 0 43 64" fill="none" xmlns="http://www.w3.org/2000/svg">
<path d="M42.6058 18.369C42.7524 18.7047 42.3829 18.5139 41.9068 18.2345C41.7611 18.1462 41.309 17.5801 41.1842 17.4971C40.9387 17.3374 41.1139 17.6562 40.8243 17.4654C40.7254 17.4 39.9882 16.5208 39.9016 16.4722C39.4335 16.2113 39.4897 16.5567 39.1818 16.5126C37.636 16.3195 36.5181 16.8731 35.3351 17.4402C34.9552 17.6161 33.8238 17.3428 33.9089 17.9567C33.9191 18.0295 34.7159 18.6454 34.774 18.7053C35.6643 19.6225 34.123 18.2974 33.8517 18.2029C32.7735 17.8385 32.4348 18.1149 32.5005 18.6622C32.5324 18.895 34.209 19.9959 33.2266 19.4312C33.1599 19.3935 32.3402 18.7063 32.2234 18.6708C31.9601 18.5917 31.9951 18.8593 31.8803 18.87C31.6545 18.8876 31.6475 18.9145 31.5501 19.0226C31.4084 19.1664 30.843 19.0345 30.9117 19.3481C30.929 19.4168 31.8437 20.023 31.9513 20.1909C32.0588 20.3583 31.8728 20.4538 31.6265 20.3529C31.3802 20.2516 30.7019 19.7202 30.536 19.6126C29.135 18.7053 30.8637 20.2515 30.8942 20.3069C31.3879 21.2821 30.0522 20.8927 29.7769 21.2943C29.5715 21.5989 29.6978 22.1824 29.4522 22.4398C29.1578 22.7415 28.4615 22.7162 28.3158 23.1246C28.3002 23.1657 29.4054 23.8297 29.389 23.8808C29.2159 24.419 28.786 24.8297 27.7575 24.8321C27.6527 24.8329 26.7335 24.1697 26.5712 24.135C25.6023 23.9291 23.3869 23.2669 27.4835 26.0088C27.1987 26.1057 26.8823 26.2446 25.9213 25.9163C25.3024 25.7057 24.3154 24.9557 24.6777 25.3738C24.7583 25.4673 25.7099 25.9787 25.761 26.0765C25.9752 26.4878 25.5383 26.5368 25.9004 27.0207C25.9761 27.1207 26.8162 27.5998 26.9594 27.6996C28.1187 28.5101 26.013 27.493 25.845 27.4449C24.5939 27.0825 24.9034 27.5404 24.7275 27.785C24.6871 27.8401 25.8537 28.4165 25.8556 28.4922C25.8503 28.8759 25.581 29.1248 24.9129 29.138C24.7615 29.1395 23.8302 28.5382 23.7084 28.5115C23.182 28.4019 24.9894 29.4514 24.5205 29.3655C24.4239 29.3488 23.6049 28.8727 23.5111 28.8273C22.0374 28.1176 24.0232 29.3076 24.0567 29.3525C24.5264 29.9453 22.3185 28.9478 22.4782 29.3691C22.4997 29.4204 23.5892 29.9256 23.5854 30.034C23.5626 30.7675 22.9607 31.1957 21.8096 31.3269C21.6321 31.348 20.8681 30.8664 20.7669 30.8204C19.1819 30.1092 21.209 31.2467 21.2715 31.3161C21.7083 31.8406 19.8685 31.1563 22.2483 32.5796C20.8931 33.113 21.8081 34.7579 19.0974 34.664C19.0654 34.6643 18.0472 34.1414 17.9877 34.1441C17.2645 34.1629 18.8923 34.8821 20.7579 36.021C21.2268 36.3062 18.7874 35.3196 18.607 35.2507C17.9437 34.9933 16.4331 34.2063 16.3013 34.1635C15.2617 33.8367 20.3511 36.244 20.2662 36.4261C20.255 36.4278 19.3311 35.9578 19.2307 35.9289C18.9158 35.8378 19.265 36.0624 18.9204 35.9563C18.1239 35.7094 15.6326 34.5781 16.9922 35.4273C17.1691 35.5368 20.0716 36.8691 19.8575 36.9694C19.7688 37.01 19.6837 37.3202 19.4593 37.3119C19.2346 37.3045 18.3278 36.8142 18.2847 36.801C16.9498 36.4437 16.4771 36.123 14.5984 35.3849C12.7257 34.652 17.0822 36.6367 17.5461 36.9063C18.0087 37.1751 16.9151 36.8651 16.542 36.742C16.169 36.6185 15.5984 36.2943 15.3812 36.2376C13.9598 35.8723 17.4912 37.3362 18.1458 37.7312C19.6974 38.6633 16.4051 37.3261 16.01 37.354C15.9035 37.3613 16.6565 37.6588 16.7066 37.7311C16.8955 38.0133 15.8429 37.6521 16.687 38.2507C16.8242 38.349 18.7051 39.3702 17.2343 38.8217C17.0222 38.7426 16.2325 38.3416 16.0211 38.3285C15.7041 38.3083 15.4448 38.4144 15.6656 38.6454C15.8291 38.816 17.2021 39.3162 16.743 39.234C16.538 39.1973 15.7966 38.7658 15.4763 38.7262C15.1562 38.6862 15.0929 38.9216 15.0827 39.0175C15.0732 39.1135 16.1051 39.5142 16.1702 39.5511C16.5426 39.7643 16.9603 40.1386 16.9529 40.1522C16.7696 40.9047 14.7794 40.8117 15.0472 41.7598C15.0669 41.8332 16.156 42.2518 16.17 42.2677C16.5405 42.6456 13.7484 41.2885 12.7375 41.0145C14.9248 41.9176 14.4981 41.8266 14.6823 42.0575C14.7729 42.1695 15.6317 42.4911 15.7157 42.5332C16.9595 43.1654 15.2757 42.5326 14.9295 42.4071C13.6564 41.9453 15.1019 42.631 14.2504 42.3236C13.4049 42.0195 12.2189 41.4074 12.1814 41.5413C12.948 41.9036 15.0291 42.6646 15.3203 42.8981C16.3781 43.7412 14.69 43.783 14.2948 43.9899L14.4299 43.5435C14.415 43.5551 14.4025 43.5666 14.3927 43.5779C14.1535 43.8524 14.2875 43.9808 13.952 44.099C13.3461 44.3118 14.98 44.5143 15.6794 44.8558C16.3789 45.1972 12.4299 44.3348 11.5714 44.1991C10.7132 44.0637 11.5848 44.2645 11.1091 44.2102C10.6336 44.1563 10.0685 43.9667 9.87624 44.018C9.68389 44.0702 11.1576 44.5895 12.0444 44.7888C13.9235 45.2087 15.9273 45.4807 15.189 45.5674C15.1453 45.5722 14.1085 45.3358 13.9939 45.3643C13.1187 45.5945 12.9947 45.9928 12.215 46.2484C12.1058 46.285 10.9503 46.0314 10.8735 46.0507C10.0708 46.2512 12.0547 46.4773 14.2063 47.0283C11.3095 46.4884 9.51597 46.2799 9.45615 46.5288C9.4189 46.6803 10.6924 46.8675 11.5708 47.1137C11.8356 47.1874 10.9465 47.1479 11.5404 47.2658C13.4821 47.6502 15.6826 47.9153 14.7727 48.0156C14.7296 48.0195 13.6664 47.8109 13.5956 47.8376C13.1319 48.0149 15.1698 48.375 15.3771 48.6695C15.5402 48.8972 14.2366 49.0741 13.9997 49.2754C10.7234 48.7852 11.4394 49.1306 13.6876 49.5441C13.5732 49.6823 13.6782 49.8625 13.3449 49.9686C13.2313 50.0049 12.2857 49.8408 12.1822 49.833C10.5578 49.7128 12.7504 50.0806 12.8324 50.1242C13.6239 50.5914 11.9161 50.6689 13.5079 51.2148C13.5652 51.2344 15.8475 51.528 14.1687 51.4166C14.053 51.4092 13.0267 51.1733 12.9274 51.3226C12.8283 51.4683 11.5668 51.6429 12.6031 51.9799C12.8523 52.0639 14.6959 52.3922 13.2332 52.3488C13.0346 52.3429 12.3797 52.2598 12.0122 52.2435C10.841 52.1946 13.1517 52.4611 11.1773 52.3486C9.20305 52.235 7.71177 52.2796 9.04777 52.6416C9.0865 52.6534 10.9173 52.8754 10.8819 52.9451C10.8236 53.0584 10.4275 53.1855 10.4293 53.3123C10.431 53.372 11.5751 53.4254 11.5951 53.4373C12.2043 53.8703 11.1678 54.0591 10.7009 54.459C10.6131 54.5318 12.1602 54.8305 10.9209 54.9159C9.5642 55.0173 3.95697 54.588 5.27759 55.0737C5.80596 55.2789 12.9258 55.6783 9.22749 55.8593C10.1317 56.408 8.24215 56.9347 9.56618 57.4624C9.62486 57.4862 11.616 57.4925 11.591 57.5457C11.5501 57.6264 10.6229 57.7104 10.5644 57.7719C10.2966 58.0402 11.1047 58.2114 11.0002 58.4527C10.9627 58.5444 10.0016 58.5917 9.95829 58.7112C9.93344 58.7808 10.3618 58.7927 10.5977 58.8282C10.7632 58.8427 10.8355 58.8789 10.5949 58.9749C10.1489 59.1468 7.60866 59.66 7.34187 59.8941C9.86113 59.4797 9.82686 59.5977 10.5232 59.6537C10.6581 59.6632 11.5242 59.4615 11.6329 59.4568C12.0939 59.4294 11.3825 59.6277 11.8827 59.5853C12.0028 59.5748 12.8567 59.3985 13.0027 59.3785C14.2751 59.1919 12.3898 59.745 12.0658 59.8587C10.8285 60.262 11.9437 60.0476 11.4684 60.2505C10.9957 60.4621 10.3439 60.4913 10.0711 60.6738C9.50852 61.058 9.73045 61.3193 9.76169 61.5523C9.77973 61.6453 10.8706 61.2346 10.899 61.2399C11.2328 61.318 10.12 61.8934 12.3464 61.2397C6.71673 63.3008 12.9305 61.1527 11.8789 61.7766C11.7938 61.8267 9.13608 62.8128 8.71527 62.8718C8.29375 62.9276 9.08686 62.5121 8.43443 62.609C8.28254 62.6358 5.70899 63.3165 5.54667 63.3378C4.28636 63.5317 8.30822 62.1999 8.52752 62.1224C10.8877 61.2616 8.10083 61.9348 7.89223 61.9272C6.9483 61.9343 7.45812 61.5451 6.77442 61.4834C6.33206 61.4407 3.63356 62.086 3.68131 61.922C3.83656 61.3521 7.60932 60.4792 4.23541 60.6932C3.51587 60.7341 0.541762 61.3399 2.83436 60.5949C2.97768 60.5415 5.09582 59.9737 3.71321 60.054C3.5387 60.0632 2.66445 60.1927 2.5877 60.1811C2.26774 60.1291 2.43674 60.0286 2.50355 59.9367L2.46976 59.6542C2.50825 59.6014 2.51525 59.5491 2.38982 59.5C2.03769 59.3596 1.51945 59.1985 1.80388 58.9787C1.97412 58.8506 3.60783 58.5994 4.00719 58.5255C5.15762 58.3161 3.24874 58.2759 4.6489 58.1159C6.05682 57.9676 8.2074 58.0071 9.11108 57.7786C6.81685 57.8732 4.46152 57.9581 2.15382 58.0423C2.21216 57.51 2.94611 57.0078 2.84494 56.524C2.83014 56.4647 1.59561 56.5244 1.54797 56.459C1.35264 56.177 2.23548 55.949 1.89114 55.6598C1.61977 55.4413 0.320571 55.1545 -4.16694e-05 54.9131C2.63058 54.8693 1.75278 54.5116 2.00506 54.2835C2.09222 54.204 2.79274 54.2463 3.02447 54.1998C3.88153 54.0335 1.55788 54.0037 1.19644 53.9226C-0.344843 53.5652 4.90243 53.8578 4.7914 53.5711C4.78708 53.5581 2.00588 53.1714 1.83414 53.1287C0.712135 52.8736 2.8087 53.1703 3.02279 53.0814C3.41412 52.9207 4.09135 52.8414 3.29188 52.5544C3.05483 52.4722 1.32876 52.1634 2.68557 52.154C2.86322 52.1529 3.78467 52.2446 3.83986 52.2362C4.76159 52.0797 1.86479 51.8111 0.897359 51.575C-0.069773 51.3383 1.95117 51.3134 2.53103 51.3335C4.03205 51.3745 3.15918 51.4823 3.30486 51.5029C5.03808 51.7462 4.75319 51.5682 4.91184 51.4704C7.75129 51.7458 7.59679 51.5767 5.06499 51.3676C4.78837 51.3454 5.04379 51.4612 4.91184 51.4704C2.13751 51.0872 1.80187 50.8506 4.42296 50.944C5.65142 50.9886 7.06232 51.231 6.57276 50.9064C6.35213 50.7579 4.39522 50.5814 3.87622 50.4078C2.69164 50.0154 4.55192 49.8972 4.29721 49.6127C4.20507 49.5066 3.12691 49.4613 3.02731 49.3833C2.75976 49.1753 3.58031 49.1229 3.19307 48.9011C3.15668 48.8804 2.03602 48.7688 2.02898 48.7135C1.95466 48.286 2.71806 48.0354 2.80029 47.6148C2.83869 47.4163 2.28001 46.9603 2.43662 46.7668C2.69982 46.4384 4.38761 46.2552 4.04535 45.8911C3.82755 45.6503 2.71017 45.507 1.9685 45.2922C0.531106 44.8742 3.20634 45.0326 3.61932 45.0652C3.6329 45.0666 3.86509 45.2816 4.45018 45.2894C5.64573 45.4423 3.6241 45.0682 3.61932 45.0652C3.88595 45.086 4.1982 44.7845 3.99764 44.6839C3.88825 44.6272 2.83446 44.461 2.79731 44.4348C1.93847 43.8121 1.75693 43.2993 2.33514 42.9255C2.35787 42.9213 3.52784 43.1553 3.56662 43.1427C4.13784 42.9773 2.73611 42.538 1.92883 42.1494C1.12218 41.7598 1.44144 41.6404 3.47596 41.9103C3.25543 41.6963 4.19085 41.6369 4.75687 41.61C4.79008 41.6084 4.81352 41.6053 4.82821 41.6007L5.22762 40.2813C5.47208 40.2559 3.57225 39.4583 3.53663 39.4313C2.32126 38.5221 3.63465 38.8242 3.97451 38.5454C4.13991 38.414 3.96983 37.9475 3.81289 37.6657C3.6853 37.4414 4.22344 37.566 3.95899 37.2978C3.92378 37.2617 2.96373 36.8771 2.92938 36.8561C1.85312 36.2248 4.15084 37.2816 4.57962 37.4269C6.13955 37.9537 6.97317 38.2275 6.34424 37.7332C6.20008 37.6203 2.90809 36.0611 2.74786 35.8945C2.54527 35.6815 3.72721 36.2357 3.48436 36.0002C3.46468 35.9805 2.72421 35.6649 2.78635 35.6102C3.06509 35.352 3.64378 35.1944 3.71176 34.8372C3.72392 34.7896 2.52903 34.3356 2.5275 34.2581C2.52014 33.897 2.71743 33.5663 3.39561 33.5114C3.56639 33.4992 4.36283 33.9082 4.61246 34C6.12302 34.5553 4.05238 33.4694 4.02222 33.4279C3.24321 32.4223 5.34845 32.8911 4.69072 31.9117C4.65041 31.8579 2.48504 30.5787 4.48201 31.3712C4.61515 31.4233 6.65519 32.2406 5.33413 31.522C5.25154 31.4769 4.19619 31.067 4.35223 31.0038C4.5078 30.9412 3.90677 30.4436 5.1029 30.816C5.48006 30.9326 7.51579 31.7476 6.001 30.8669C5.89389 30.8083 2.42667 28.9072 4.92937 29.9837C5.34111 30.1614 7.94124 31.4029 6.68625 30.6007C6.44287 30.4454 5.83332 30.231 5.51173 29.9723C5.01606 29.5735 5.79682 29.7282 4.7161 29.0124C4.52436 28.8866 2.81837 27.9206 4.20436 28.4631C4.42136 28.5482 5.27518 28.9924 5.39679 28.9877C5.97877 28.968 5.52118 28.4355 6.23823 28.4824C6.49069 28.4978 7.86829 29.2209 8.28726 29.3122C8.70635 29.403 9.15508 29.3972 8.56313 28.9902C7.9712 28.5825 5.69436 27.5964 5.58718 27.3646C5.12507 26.3514 6.72712 26.3971 7.23616 25.8641C7.31136 25.7862 6.48174 25.4611 6.53619 25.3169C6.73106 24.787 6.44183 23.5381 8.34118 23.9772C9.85757 24.3374 10.647 25.3038 11.327 25.3312C11.6511 25.3449 9.17706 23.8601 9.11349 23.7864C8.45885 23.0548 9.69105 23.4577 9.49434 22.9973C9.45313 22.9026 8.39556 22.4031 8.37202 22.3283C8.2828 22.0672 8.83432 22.1438 8.83507 21.9433C8.8331 21.8519 8.04318 21.4374 8.13876 21.406C8.35837 21.3262 8.7616 21.3709 9.57486 21.6273C9.64886 21.6509 10.5713 22.276 10.6684 22.1854C10.8225 22.0376 11.6666 22.2161 11.0407 21.5902C10.8516 21.4033 9.07439 20.4045 10.378 20.9582C10.6504 21.0737 12.7646 22.3082 11.0077 21.1173C10.7149 20.9206 8.37999 19.2531 10.0529 20.0313C10.4932 20.236 12.2829 21.1411 12.0506 20.9129C12.0126 20.8781 11.0384 20.3759 10.9804 20.2621C10.7915 19.8719 11.0246 19.7004 10.8586 19.3023C10.8124 19.1949 9.77932 18.7179 9.74217 18.5754C9.63888 18.182 10.0691 18.0175 10.5149 17.9595C10.6812 17.9391 11.454 18.4765 11.5458 18.5219C13.0367 19.2645 11.1407 18.065 11.0485 17.9641C10.4994 17.3545 11.5067 17.722 11.3849 17.3829C11.3542 17.2901 10.4139 16.7789 10.3387 16.719C9.60824 16.1257 11.2039 17.1987 11.4281 17.2364C12.0616 17.3458 12.1201 17.0832 12.124 16.8143C12.1241 16.7146 11.0156 16.1511 11.0283 16.0686C11.0815 15.571 11.448 15.2041 12.2635 15.1903C12.4192 15.1885 13.1997 15.7409 13.3937 15.842C14.7488 16.5527 13.0802 15.2975 12.9348 15.1565C12.2673 14.5187 13.0218 14.9055 12.9783 14.6804C12.7551 13.5697 13.7767 13.0303 14.4909 12.5886C15.4225 12.0016 16.6002 11.8971 16.9695 10.9739C16.9936 10.9165 15.925 10.2273 15.9329 10.1679C16.075 9.4435 16.8945 9.16496 17.0096 8.40205C17.0227 8.33836 16.0094 7.6823 15.9987 7.55493C15.9702 7.28843 16.1721 7.13077 16.5954 7.21049C16.7998 7.24826 17.5434 7.97652 17.7317 8.00257C18.1726 8.06423 18.3764 7.94085 18.3646 7.64209C18.3581 7.51271 17.2961 6.87193 17.3641 6.7618C17.8005 6.00516 18.1893 5.18701 19.973 5.54264C20.0969 5.56544 22.0451 7.13722 21.7588 6.73244C21.2346 6.27663 20.6106 5.74924 20.0466 5.26644C20.5608 4.04004 22.0751 3.64632 23.0921 2.78363C23.1349 2.74695 22.1121 1.89729 22.1913 1.8204C22.6508 1.37277 22.8519 0.651457 24.2686 1.11966C24.4063 1.16637 25.9935 2.87605 25.8857 2.49194C25.8634 2.42401 25.8609 1.99924 25.5762 1.57285C25.5323 1.50941 24.7492 0.750619 24.8012 0.659037C25.1079 0.148783 25.75 -0.0902424 26.6376 0.0310588C26.7844 0.0504446 27.4516 1.00469 27.5612 1.02747C28.3127 1.19868 28.1922 0.164594 29.2111 0.712952C29.9062 1.07626 31.0099 2.75503 32.3032 4.25217C32.485 4.46382 32.6447 4.40204 33.3215 5.32949C35.022 7.66216 36.8304 10.2552 38.6514 12.7355C39.0436 13.2696 38.6992 12.6384 39.5892 13.9709C39.6486 14.0601 39.9128 14.525 40.2237 14.9708C40.4389 15.2787 41.1397 16.2126 41.4129 16.6085C41.6878 17.0027 41.0917 16.2263 41.4082 16.6951C41.7314 17.1677 42.5396 18.2216 42.6058 18.369ZM7.65981 40.6443C8.73799 40.9553 4.96997 39.3777 5.82129 39.8767C5.86692 39.9027 7.60678 40.6293 7.65981 40.6443ZM6.03025 56.9772C7.82968 56.7808 5.18025 56.6776 3.78952 56.8171C2.40057 56.9655 5.48494 57.0437 6.03025 56.9772ZM7.43079 58.8022C8.83026 58.4865 3.05054 58.8761 4.23942 59.0509C4.3067 59.0614 7.34966 58.8217 7.43079 58.8022ZM32.1266 5.09242C32.1617 5.1337 32.2832 5.10597 32.2523 5.06199C31.5073 3.99781 31.2541 4.06229 32.1266 5.09242ZM9.15293 60.4934C9.90237 60.258 8.98059 60.2758 8.04553 60.5612C7.29509 60.8005 8.22289 60.7978 9.15293 60.4934ZM14.1935 36.5318C14.2497 36.5553 14.3289 36.5137 14.0152 36.3722C13.005 35.9165 13.2484 36.1367 14.1935 36.5318ZM10.1211 63.2938C10.1666 62.8044 14.5808 60.9421 14.2151 61.5051C14.1506 61.6105 12.7308 61.8938 12.3611 62.1357C11.6929 62.5906 14.5366 61.6149 13.1031 62.3691C12.8418 62.5104 10.1097 63.3289 10.1146 63.2955C10.1167 63.2949 10.1189 63.2944 10.1211 63.2938ZM12.2221 42.4511C12.2729 42.4695 12.3573 42.3993 12.3087 42.3767C11.1306 41.832 10.9593 41.9744 12.2221 42.4511ZM18.2058 33.9436C18.3116 33.9891 18.5062 33.8361 18.4141 33.7831C16.5616 32.744 16.1593 33.0569 18.2058 33.9436ZM13.9117 49.2663C15.1872 49.5591 15.3224 49.6968 13.6893 49.5439C13.7898 49.4562 13.8172 49.3567 13.9117 49.2663Z" fill="#FFF0E1"/>
</svg>
