<svg width="125" height="59" viewBox="0 0 125 59" fill="none" xmlns="http://www.w3.org/2000/svg">
<path d="M124.28 37.55C123.98 37.25 123.62 37.07 123.21 37.07C122.85 37.07 122.37 37.19 121.95 37.43C121.47 37.67 121.05 38.03 120.58 38.57C119.32 39.95 118.01 41.22 116.64 42.36C115.27 43.44 113.83 44.4 112.4 45.13C110.97 45.91 109.47 46.51 107.98 46.93C106.49 47.35 105.05 47.53 103.56 47.53C102.6 47.53 101.77 47.41 101.11 47.05C100.39 46.75 99.86 46.39 99.38 45.91C98.96 45.43 98.6 44.89 98.42 44.41C98.18 43.87 98.06 43.33 98.06 42.85C98.06 42.85 98.18 42.73 98.42 42.55C98.66 42.37 98.84 42.31 98.96 42.25C101.35 40.81 103.5 39.36 105.47 37.98C107.44 36.6 109.17 35.15 110.55 33.71C111.98 32.27 113.06 30.76 113.84 29.2C114.62 27.58 115.03 25.89 115.03 24.03C115.03 23.31 114.85 22.47 114.49 21.69C114.19 20.91 113.71 20.19 113.12 19.53C112.52 18.93 111.75 18.39 110.91 17.97C110.01 17.61 109 17.37 107.92 17.37C106.55 17.37 105.23 17.55 104.04 17.97C102.91 18.33 101.83 18.87 100.82 19.47C99.86 20.07 98.97 20.73 98.13 21.51C97.35 22.29 96.64 23.01 95.98 23.79C95.02 24.99 94.13 26.26 93.35 27.58C92.63 28.96 91.98 30.35 91.44 31.79C90.96 33.23 90.54 34.68 90.3 36.12C90.06 37.32 89.94 38.4 89.94 39.55C89.7 39.73 89.52 39.91 89.28 40.03C88.09 40.99 86.83 41.77 85.58 42.37C84.39 43.03 83.19 43.51 82.06 43.93C80.86 44.35 79.79 44.59 78.77 44.77C77.75 44.95 76.86 45.07 76.02 45.07C75.18 45.07 74.53 44.77 74.05 44.23C73.57 43.69 73.21 43.03 72.91 42.25C72.67 41.47 72.49 40.69 72.43 39.85C72.37 39.01 72.31 38.35 72.31 37.75C72.31 36.97 72.37 36.19 72.49 35.35C72.49 34.45 72.67 33.61 72.79 32.82C72.91 31.98 73.03 31.2 73.09 30.48C73.21 29.76 73.27 29.22 73.27 28.74C73.27 27.12 72.97 25.79 72.43 24.77C71.89 23.69 71.18 23.21 70.28 23.21C69.03 23.21 67.83 23.51 66.64 24.11C65.44 24.77 64.31 25.55 63.24 26.45C62.1 27.35 61.15 28.37 60.19 29.46C59.29 30.6 58.46 31.56 57.8 32.53C57.62 32.83 57.26 33.31 56.78 33.97C56.36 34.63 55.82 35.41 55.23 36.31C54.69 37.21 54.04 38.11 53.38 39.14C52.72 40.16 52.06 41.06 51.41 42.03C50.81 42.93 50.22 43.77 49.68 44.56C49.2 45.28 48.78 45.88 48.49 46.3C48.61 44.86 48.85 43.17 49.15 41.13C49.39 39.09 49.75 36.92 50.17 34.52C50.53 32.12 51.01 29.59 51.48 26.94C52.02 24.29 52.55 21.65 53.09 19C53.21 18.34 53.39 17.62 53.57 16.72C53.69 15.88 53.87 14.98 54.05 14.01C54.23 13.11 54.41 12.15 54.53 11.18C54.71 10.22 54.83 9.38 54.95 8.53C55.13 7.69 55.19 6.97 55.25 6.31C55.37 5.71 55.37 5.23 55.37 4.87C55.37 3.37 55.07 2.22 54.47 1.32C53.93 0.48 53.1 0 52.02 0C51.66 0 51.18 -1.49012e-08 50.71 0.18C50.23 0.36 49.81 0.48 49.34 0.78C48.86 1.08 48.44 1.5 48.08 2.04C47.72 2.58 47.42 3.3 47.24 4.14C46.88 7.93 46.4 11.6 45.87 15.02C45.81 15.5 45.69 16.04 45.63 16.52H45.39C44.91 16.64 44.43 16.88 43.9 17.12C43.3 17.36 42.7 17.66 42.05 18.02C41.39 18.38 40.62 18.74 39.78 19.1C39.12 19.4 38.29 19.7 37.39 19.94C36.43 20.24 35.48 20.48 34.52 20.72C33.5 20.9 32.49 21.14 31.47 21.32C30.46 21.5 29.5 21.62 28.6 21.8C27.64 21.92 26.81 22.04 26.09 22.1C25.37 22.22 24.78 22.28 24.3 22.34C24.3 22.28 24.24 22.28 24.18 22.22C24.12 22.16 24.12 22.1 24.06 21.98C24 21.86 24 21.8 24 21.68C24 21.5 24 21.32 24.06 21.14C24.12 20.9 24.18 20.54 24.24 20C24.36 19.52 24.48 18.8 24.72 17.84C24.9 16.94 25.14 15.68 25.5 14.11C25.56 13.87 25.62 13.51 25.68 13.03C25.8 12.49 25.92 11.95 26.04 11.29C26.16 10.63 26.28 9.97 26.4 9.25C26.52 8.53 26.64 7.87 26.76 7.27C26.82 6.67 26.94 6.13 27 5.71C27.06 5.23 27.12 4.99 27.12 4.87C27.12 4.69 27 4.39 26.76 3.97C26.52 3.61 26.28 3.25 25.86 2.83C25.5 2.47 25.08 2.17 24.61 1.87C24.13 1.63 23.59 1.45 23.06 1.45C22.82 1.45 22.52 1.57 22.04 1.81C21.62 2.05 21.14 2.35 20.73 2.71C20.31 3.07 19.89 3.43 19.54 3.91C19.24 4.33 19.06 4.75 19 5.11C19 5.41 18.94 5.89 18.88 6.55C18.76 7.21 18.64 7.93 18.52 8.77C18.4 9.61 18.22 10.51 18.1 11.48C17.92 12.38 17.8 13.34 17.62 14.19C17.44 15.09 17.32 15.87 17.14 16.66C17.02 17.38 16.9 17.98 16.78 18.4C16.48 19.84 16.24 20.93 16 21.65C15.82 22.43 15.58 22.85 15.34 22.91C15.16 22.97 14.8 23.09 14.27 23.15C13.73 23.21 13.08 23.27 12.36 23.33C11.58 23.33 10.81 23.39 9.97 23.45C9.19 23.51 8.36 23.57 7.58 23.57C6.8 23.63 6.15 23.63 5.49 23.69H4.06C3.58 23.69 3.1 23.75 2.63 23.93C2.15 24.05 1.73 24.29 1.32 24.53C0.96 24.83 0.6 25.25 0.36 25.67C0.12 26.09 0 26.63 0 27.29C0 27.59 0.12 27.95 0.36 28.43C0.6 28.85 0.96 29.27 1.32 29.69C1.74 30.11 2.22 30.47 2.69 30.77C3.17 31.07 3.71 31.19 4.24 31.19H5.14C5.62 31.19 6.16 31.13 6.75 31.13C7.35 31.07 8 31.01 8.72 30.95C9.44 30.89 10.09 30.89 10.69 30.83C11.35 30.77 11.88 30.77 12.3 30.71H13.25C13.25 30.71 13.67 30.71 13.91 30.83C14.15 30.83 14.27 31.01 14.27 31.25C14.15 32.21 14.03 33.05 13.91 33.84C13.79 34.62 13.67 35.4 13.55 36.12C13.43 36.78 13.31 37.5 13.13 38.16C13.01 38.88 12.89 39.54 12.71 40.32C12.29 42.36 11.93 44.53 11.57 46.63C11.27 48.79 11.09 50.96 11.09 53.06C11.09 53.24 11.15 53.6 11.27 54.14C11.27 54.62 11.57 55.16 11.87 55.7C12.17 56.24 12.59 56.72 13.13 57.14C13.61 57.56 14.32 57.74 15.16 57.74C15.34 57.74 15.7 57.62 16.17 57.44C16.65 57.26 17.13 57.02 17.6 56.72C18.08 56.42 18.5 56.18 18.85 55.88C19.21 55.58 19.45 55.34 19.45 55.16V53.72C19.51 53.42 19.51 52.94 19.51 52.46V50.48C19.51 49.64 19.51 48.8 19.57 47.95C19.69 47.17 19.75 46.33 19.87 45.48C20.05 44.64 20.17 43.68 20.29 42.71C20.47 41.69 20.65 40.55 20.77 39.28C20.83 38.98 20.89 38.5 21.01 37.84C21.07 37.24 21.19 36.52 21.25 35.74C21.37 34.96 21.49 34.18 21.61 33.4C21.73 32.56 21.79 31.9 21.91 31.3C21.97 30.82 22.09 30.46 22.27 30.22C22.45 30.04 22.75 29.86 23.17 29.86C25.08 29.62 26.93 29.38 28.61 29.08C30.28 28.84 31.84 28.48 33.27 28.12C34.7 27.76 36.08 27.28 37.39 26.8C38.7 26.32 39.96 25.84 41.21 25.24C42.17 24.82 43.06 24.28 43.9 23.68C44.08 23.5 44.32 23.38 44.5 23.14C44.5 23.8 44.32 24.46 44.2 25.12C43.48 29.39 42.83 33.48 42.29 37.26C41.75 41.11 41.45 44.72 41.45 48.14V49.82C41.45 50.6 41.45 51.44 41.57 52.35C41.63 53.31 41.75 54.27 41.87 55.24C41.99 56.26 42.23 57.16 42.41 58.07C42.65 58.25 42.83 58.43 42.95 58.55C43.13 58.67 43.25 58.73 43.49 58.79C43.67 58.85 43.91 58.85 44.27 58.91H45.58C46.3 58.91 47.13 58.43 48.09 57.47C49.11 56.51 50.12 55.31 51.2 53.8C52.28 52.3 53.41 50.67 54.49 48.93C55.56 47.13 56.58 45.44 57.54 43.82C59.09 41.17 60.53 38.89 61.9 36.97C63.21 35.05 64.35 33.6 65.25 32.64C65.43 32.64 65.55 32.76 65.61 33V33.66C65.61 33.66 65.61 34.2 65.55 34.74C65.49 35.28 65.43 35.94 65.37 36.6L65.19 38.76C65.13 39.48 65.13 40.08 65.13 40.62C65.13 42.12 65.25 43.57 65.55 44.95C65.85 46.33 66.39 47.6 67.16 48.68C67.88 49.76 68.89 50.6 70.15 51.27C71.41 51.93 72.96 52.29 74.81 52.29C76.12 52.29 77.44 52.05 78.87 51.69C80.3 51.27 81.8 50.73 83.23 49.95C84.72 49.23 86.22 48.33 87.71 47.24C88.61 46.58 89.5 45.92 90.4 45.14C90.4 45.68 90.58 46.22 90.7 46.7C91.24 48.5 92.07 50.01 93.15 51.21C94.16 52.41 95.48 53.31 97.03 53.98C98.52 54.58 100.25 54.88 102.23 54.88C103.84 54.88 105.46 54.64 107.13 54.22C108.8 53.74 110.47 53.14 112.09 52.3C113.7 51.52 115.32 50.56 116.81 49.41C118.3 48.27 119.68 47.07 120.93 45.8C122.07 44.6 123.02 43.46 123.68 42.37C124.34 41.23 124.69 40.27 124.69 39.36C124.69 38.52 124.51 37.92 124.27 37.56H124.33L124.28 37.55ZM99.01 32.5C99.55 31 100.14 29.55 100.86 28.29C101.58 27.03 102.35 26.01 103.25 25.16C104.15 24.38 105.1 23.96 106.12 23.96C106.18 23.96 106.36 24.02 106.48 24.08C106.66 24.14 106.84 24.2 107.02 24.38C107.2 24.5 107.38 24.68 107.5 24.92C107.68 25.16 107.74 25.52 107.74 25.88C107.74 26.84 107.44 27.8 106.9 28.65C106.42 29.55 105.71 30.39 104.81 31.3C103.91 32.14 102.84 33.04 101.64 33.95C100.38 34.85 99.13 35.87 97.7 36.96C98.06 35.52 98.48 34.01 99.02 32.51L99.01 32.5Z" fill="#66033C"/>
</svg>
