<svg width="16" height="16" viewBox="0 0 16 16" fill="none" xmlns="http://www.w3.org/2000/svg">
<path d="M7.52929 2.49797C7.54407 2.48809 7.55008 2.5203 7.55893 2.56138C7.56154 2.57403 7.53466 2.599 7.53581 2.60928C7.53792 2.62917 7.56047 2.62426 7.5627 2.64726C7.5635 2.65515 7.52289 2.69654 7.52464 2.70385C7.53347 2.74277 7.56869 2.75069 7.5884 2.78016C7.69147 2.92942 7.83083 3.04803 7.97243 3.17179C8.01881 3.2123 8.05446 3.29751 8.11983 3.31227C8.12753 3.31397 8.15109 3.26904 8.15452 3.2663C8.20758 3.22456 8.14635 3.3065 8.15141 3.32583C8.17115 3.40199 8.22437 3.44134 8.28038 3.45371C8.30486 3.45921 8.33846 3.36169 8.32854 3.42207C8.32791 3.42618 8.29412 3.46831 8.29659 3.47664C8.30205 3.49533 8.33209 3.50295 8.33874 3.51217C8.35249 3.53084 8.35584 3.53231 8.3731 3.5439C8.3884 3.55453 8.40013 3.5757 8.41582 3.59099C8.42362 3.59876 8.43253 3.60488 8.44364 3.60687C8.45057 3.60796 8.47254 3.5568 8.48624 3.55434C8.4999 3.55187 8.52082 3.57046 8.52194 3.58646C8.52304 3.60245 8.49672 3.63699 8.49288 3.64628C8.46031 3.72458 8.54897 3.64334 8.5537 3.64291C8.64231 3.64066 8.66264 3.73102 8.72245 3.76789C8.76943 3.79669 8.82729 3.80686 8.86996 3.83673C8.91993 3.87203 8.94689 3.92367 9.00074 3.9508C9.00635 3.95368 9.03405 3.89478 9.04082 3.89811C9.11237 3.9333 9.17813 3.98195 9.22324 4.06081C9.22781 4.06882 9.18926 4.1118 9.19205 4.12269C9.21024 4.18858 9.21768 4.32458 9.37181 4.12898C9.39528 4.15465 9.42516 4.18459 9.42432 4.24247C9.42397 4.27984 9.37582 4.32294 9.40972 4.3127C9.41733 4.31045 9.43964 4.26059 9.44892 4.26072C9.48794 4.26129 9.51047 4.29566 9.55363 4.28918C9.5624 4.28771 9.5861 4.24529 9.59228 4.23882C9.64279 4.18669 9.60476 4.30057 9.60535 4.31088C9.61036 4.38818 9.65153 4.38402 9.68625 4.40695C9.69425 4.41226 9.71844 4.35065 9.72735 4.35376C9.77311 4.37065 9.81285 4.40135 9.83839 4.45071C9.844 4.46182 9.80687 4.50427 9.80808 4.51201C9.81355 4.54545 9.87212 4.45827 9.87844 4.48862C9.87984 4.4949 9.85303 4.53425 9.85101 4.53914C9.81937 4.61584 9.8891 4.52226 9.89323 4.52177C9.94685 4.5133 9.90688 4.63089 9.9501 4.637C9.95531 4.63761 9.97727 4.58056 9.99003 4.58544C10.0752 4.61763 10.1483 4.68112 10.1994 4.76827C10.2075 4.78176 10.1756 4.81534 10.1735 4.82056C10.1406 4.90243 10.2088 4.80734 10.215 4.80591C10.2619 4.79732 10.2396 4.89815 10.3321 4.79169C10.4364 4.91092 10.605 4.92138 10.669 5.10507C10.6699 5.10728 10.6374 5.15477 10.6392 5.15897C10.6618 5.21015 10.7003 5.12911 10.7824 5.05106C10.8031 5.03147 10.755 5.15642 10.7518 5.16576C10.7399 5.20014 10.6892 5.26943 10.6878 5.27663C10.6777 5.33371 10.8203 5.08964 10.8442 5.1039C10.8447 5.10476 10.8148 5.14748 10.8142 5.15312C10.812 5.17079 10.8289 5.15677 10.8257 5.17578C10.8184 5.21969 10.7526 5.34043 10.8152 5.28473C10.8232 5.27745 10.9016 5.13748 10.9191 5.15681C10.926 5.16463 10.9651 5.18488 10.9703 5.20011C10.9755 5.21533 10.9417 5.25531 10.9413 5.25768C10.9346 5.33331 10.9092 5.35114 10.8715 5.44643C10.8339 5.54139 10.9535 5.33286 10.9731 5.31332C10.9926 5.29384 10.9846 5.35475 10.9796 5.37463C10.9747 5.39453 10.9514 5.41886 10.9503 5.43111C10.9433 5.51143 11.0249 5.33672 11.0544 5.30996C11.1243 5.24652 11.051 5.41038 11.0635 5.4382C11.0669 5.44572 11.083 5.40805 11.0901 5.40788C11.1179 5.40766 11.1017 5.46277 11.1513 5.43302C11.1594 5.42818 11.2333 5.3475 11.2052 5.4223C11.2011 5.43307 11.1734 5.46826 11.177 5.48202C11.1824 5.50265 11.2009 5.52503 11.2225 5.52064C11.2385 5.51738 11.2642 5.44748 11.2655 5.47476C11.2661 5.48692 11.2334 5.51729 11.2363 5.53708C11.2391 5.55675 11.268 5.57186 11.2793 5.57688C11.2906 5.58188 11.3133 5.53077 11.3161 5.52806C11.3322 5.51275 11.3662 5.50184 11.3679 5.50296C11.461 5.55061 11.4965 5.68071 11.6001 5.70632C11.6082 5.70842 11.6335 5.65537 11.6351 5.65517C11.6712 5.64816 11.573 5.77083 11.5629 5.82542C11.6212 5.72191 11.62 5.74619 11.6432 5.74486C11.6544 5.74413 11.6736 5.702 11.6768 5.69839C11.7243 5.64538 11.6864 5.72783 11.6791 5.74495C11.6522 5.80797 11.7017 5.74405 11.6838 5.78622C11.666 5.8281 11.6197 5.87826 11.6359 5.88691C11.6621 5.853 11.7071 5.75044 11.7284 5.74217C11.8097 5.71122 11.8489 5.83593 11.8818 5.86595C11.914 5.89558 11.9297 5.8958 11.9431 5.92161C11.9673 5.96826 11.9949 5.88875 12.0384 5.87065C12.0819 5.85254 11.9667 6.02012 11.948 6.05971C11.9292 6.09925 11.9558 6.06284 11.9478 6.08598C11.9398 6.1091 11.9156 6.1292 11.9209 6.14283C11.9263 6.15646 11.9929 6.10573 12.0196 6.06854C12.0761 5.98975 12.1157 5.89533 12.1235 5.94136C12.1239 5.94407 12.0919 5.98712 12.0949 5.99514C12.1191 6.05717 12.1668 6.0883 12.1932 6.14611C12.1969 6.15415 12.1612 6.20198 12.1629 6.20723C12.1816 6.26233 12.2192 6.16831 12.2966 6.08494C12.2167 6.20955 12.1825 6.29446 12.211 6.31228C12.2281 6.32302 12.2579 6.26559 12.2922 6.23294C12.3025 6.22309 12.2922 6.26848 12.3098 6.24359C12.3676 6.16236 12.412 6.05948 12.4198 6.11543C12.42 6.11802 12.3882 6.16238 12.3911 6.16792C12.4098 6.20394 12.466 6.11648 12.5039 6.12415C12.5332 6.12992 12.5456 6.21067 12.5687 6.23621C12.484 6.37932 12.5299 6.36211 12.5986 6.26941C12.614 6.28392 12.6374 6.29013 12.6474 6.31432C12.6508 6.3226 12.6224 6.36178 12.6206 6.36673C12.5913 6.44414 12.6556 6.35252 12.6618 6.35105C12.6899 6.34597 12.704 6.3608 12.7177 6.37507C12.7365 6.39414 12.7547 6.41223 12.801 6.38537C12.804 6.38364 12.8645 6.2852 12.8328 6.36436C12.8306 6.36979 12.7908 6.40746 12.8077 6.42201C12.8236 6.43599 12.831 6.51197 12.884 6.48082C12.897 6.47344 12.96 6.40154 12.9362 6.47246C12.933 6.48211 12.9144 6.50964 12.9078 6.5271C12.8867 6.58281 12.9498 6.48439 12.9099 6.5759C12.8699 6.6674 12.8531 6.7435 12.9138 6.69949C12.9158 6.69833 12.9678 6.62145 12.976 6.62789C12.9888 6.63804 12.9987 6.66598 13.0131 6.67355C13.02 6.67714 13.0443 6.62481 13.046 6.62457C13.1062 6.62193 13.1152 6.68609 13.1527 6.73289C13.16 6.74181 13.2245 6.68823 13.2111 6.75176C13.1966 6.82142 13.0389 7.0565 13.1172 7.02324C13.1488 7.01012 13.3438 6.709 13.2872 6.88949C13.3708 6.88306 13.3854 6.99878 13.4796 6.97372C13.4839 6.97266 13.5387 6.88856 13.5446 6.89308C13.5532 6.90002 13.5371 6.9442 13.5432 6.95075C13.5672 6.9787 13.6122 6.95643 13.638 6.97564C13.6476 6.98272 13.6233 7.02464 13.6357 7.03347C13.6483 7.04234 13.6829 6.98833 13.6884 7.02451C13.6927 7.05212 13.6534 7.17684 13.6681 7.19955C13.7191 7.08192 13.731 7.08997 13.766 7.06755C13.7729 7.06321 13.7847 7.01989 13.7887 7.01568C13.8053 6.99756 13.7994 7.03491 13.8158 7.01436C13.8198 7.00942 13.8353 6.9685 13.8393 6.96211C13.8739 6.90631 13.8601 7.00578 13.8587 7.02335C13.8526 7.08999 13.8769 7.03794 13.8799 7.06561C13.8841 7.09361 13.8574 7.11913 13.867 7.13818C13.8866 7.17755 13.9293 7.18037 13.9606 7.18693C13.9734 7.18934 13.9728 7.1302 13.9749 7.12921C13.9992 7.1179 14.0228 7.1816 14.0392 7.06559C14.0496 7.36672 14.0539 7.0372 14.0845 7.09604C14.087 7.10077 14.1003 7.2426 14.0885 7.26413C14.0761 7.28563 14.0564 7.24162 14.0379 7.27372C14.0347 7.28143 14.001 7.41335 13.9949 7.42091C13.9563 7.48125 13.9748 7.26881 13.9754 7.25722C13.9766 7.13063 13.93 7.2685 13.9187 7.2764C13.8733 7.31406 13.8509 7.27729 13.8135 7.30009C13.7893 7.31473 13.7454 7.44691 13.7303 7.43752C13.6811 7.406 13.7381 7.21947 13.6327 7.35873C13.6102 7.38829 13.5607 7.5328 13.5732 7.40807C13.5731 7.39985 13.5947 7.28985 13.553 7.34706C13.5477 7.35427 13.5296 7.3948 13.5258 7.39716C13.4999 7.41195 13.5057 7.37573 13.4824 7.38354C13.4589 7.39125 13.429 7.40497 13.4177 7.38278C13.4109 7.36946 13.433 7.28821 13.4375 7.26783C13.45 7.20896 13.3924 7.28697 13.4155 7.21953C13.4389 7.15186 13.5042 7.06414 13.5028 7.01202C13.4496 7.1143 13.3941 7.21881 13.34 7.32138C13.2928 7.29267 13.2613 7.23388 13.2118 7.21298C13.2056 7.21045 13.1822 7.26826 13.1747 7.26693C13.1426 7.26077 13.1408 7.20947 13.1049 7.20975C13.0763 7.20986 13.0218 7.25464 12.9915 7.25671C13.0422 7.13394 12.9873 7.1545 12.9701 7.13099C12.9639 7.12272 12.9818 7.09234 12.9816 7.07901C12.9802 7.02941 12.9332 7.13677 12.918 7.14926C12.8523 7.20203 12.9818 6.97211 12.9481 6.96042C12.9464 6.95976 12.8568 7.0706 12.8496 7.07658C12.8036 7.11608 12.871 7.03242 12.8651 7.01706C12.8552 6.98949 12.8587 6.95281 12.815 6.97523C12.8022 6.98197 12.7421 7.0485 12.7626 6.98206C12.7654 6.97341 12.7895 6.93365 12.7895 6.93053C12.7879 6.87722 12.7142 7.00332 12.6753 7.03798C12.6363 7.07261 12.6644 6.97237 12.6744 6.94456C12.7001 6.87257 12.6997 6.92206 12.704 6.91603C12.7555 6.84441 12.7317 6.84808 12.7229 6.83441C12.793 6.7095 12.7721 6.70731 12.7141 6.82112C12.7078 6.83357 12.7238 6.82738 12.7229 6.83441C12.6421 6.94999 12.6146 6.95487 12.6598 6.82928C12.681 6.7704 12.7264 6.71379 12.6834 6.71918C12.6639 6.72153 12.6195 6.80978 12.594 6.82605C12.537 6.86388 12.5486 6.76413 12.513 6.76014C12.5001 6.75869 12.4829 6.81115 12.4731 6.81176C12.4694 6.812 12.4663 6.81131 12.4636 6.80996C12.4482 6.80231 12.4482 6.77066 12.4236 6.7769C12.421 6.77762 12.3965 6.82876 12.3904 6.82607C12.3438 6.8064 12.3244 6.75309 12.2803 6.72604C12.2589 6.71294 12.2033 6.71643 12.1847 6.69824C12.1519 6.66673 12.1436 6.56651 12.1015 6.56484C12.0735 6.56319 12.0495 6.61465 12.0207 6.64237C11.9649 6.69616 12.0008 6.56209 12.007 6.5417C12.0072 6.54103 12.0328 6.54067 12.0375 6.50975C12.0624 6.45423 12.0073 6.54159 12.007 6.5417C12.0107 6.52838 11.9802 6.49547 11.9675 6.50048C11.9605 6.50322 11.9355 6.55065 11.9324 6.5512C11.8587 6.56336 11.8006 6.54485 11.7637 6.49388C11.7633 6.49243 11.7952 6.44166 11.794 6.43889C11.7784 6.39871 11.7223 6.45062 11.6757 6.4736C11.6294 6.49669 11.6181 6.47307 11.6562 6.37615C11.6315 6.37656 11.6286 6.32196 11.6276 6.28927C11.6265 6.25658 11.5649 6.35559 11.5624 6.35679C11.4836 6.3958 11.4943 6.32454 11.4567 6.29013C11.4389 6.27357 11.3899 6.26411 11.3616 6.26213C11.3391 6.26068 11.3426 6.23098 11.3176 6.23647C11.3143 6.23718 11.2899 6.2831 11.2882 6.28442C11.2386 6.32716 11.3121 6.22321 11.32 6.20153C11.3487 6.12271 11.3629 6.08007 11.3201 6.09967C11.3102 6.10414 11.2015 6.25211 11.1865 6.25559C11.1671 6.25983 11.2053 6.20635 11.1841 6.21221C11.1824 6.21266 11.1619 6.24752 11.1548 6.24119C11.1215 6.21233 11.0919 6.16731 11.0513 6.14784C11.0458 6.14502 11.0198 6.20412 11.0113 6.20095C10.9715 6.18604 10.9331 6.16037 10.9132 6.11351C10.9084 6.10182 10.9368 6.06654 10.9418 6.05398C10.9717 5.97792 10.8953 6.06877 10.8915 6.06908C10.7986 6.07913 10.8033 5.95842 10.7122 5.96272C10.7071 5.96313 10.6152 6.05445 10.6582 5.9547C10.6611 5.94805 10.7056 5.84625 10.6561 5.90445C10.653 5.9081 10.6314 5.9613 10.6212 5.94843C10.6109 5.93554 10.5703 5.95539 10.5843 5.89109C10.5887 5.87082 10.6317 5.76843 10.5695 5.83335C10.5653 5.83793 10.437 5.99203 10.4979 5.86913C10.5079 5.84892 10.5839 5.72582 10.5254 5.77718C10.5141 5.78717 10.5046 5.81909 10.4839 5.8302C10.4521 5.84735 10.4513 5.80167 10.3988 5.84532C10.3896 5.85309 10.3247 5.92865 10.3515 5.85785C10.3558 5.84676 10.384 5.80741 10.3807 5.79913C10.3652 5.75955 10.3182 5.76903 10.3061 5.72275C10.3018 5.70644 10.3473 5.64271 10.3473 5.61827C10.3472 5.59384 10.3358 5.56349 10.3061 5.58725C10.2763 5.61102 10.2246 5.72511 10.2025 5.72342C10.1063 5.71606 10.0707 5.60942 10.0026 5.55591C9.99252 5.54794 9.9786 5.59155 9.96204 5.58255C9.90084 5.54952 9.77685 5.52344 9.77418 5.41127C9.77215 5.32149 9.85387 5.30347 9.83833 5.25804C9.83075 5.23627 9.73949 5.35015 9.73346 5.35183C9.67375 5.36978 9.68174 5.29972 9.63932 5.29702C9.63054 5.29648 9.60671 5.3506 9.59958 5.34958C9.57493 5.34655 9.56816 5.31185 9.54724 5.30477C9.53777 5.3017 9.51614 5.34096 9.51024 5.33334C9.49587 5.31557 9.4894 5.28963 9.49331 5.24292C9.49366 5.23866 9.53351 5.19767 9.52104 5.18769C9.50078 5.17166 9.49513 5.11981 9.44789 5.14115C9.43374 5.14762 9.3805 5.23504 9.40097 5.16477C9.40524 5.15009 9.47334 5.04765 9.39943 5.12702C9.38711 5.14018 9.28121 5.24345 9.31374 5.15518C9.32229 5.13194 9.36414 5.03968 9.34698 5.04775C9.34445 5.04916 9.32077 5.0991 9.31056 5.09917C9.27512 5.09863 9.25073 5.07694 9.21463 5.07513C9.20496 5.07475 9.18615 5.1299 9.17268 5.12779C9.13559 5.12205 9.10636 5.08729 9.08702 5.05465C9.07992 5.04251 9.11176 5.00673 9.11366 5.00188C9.14453 4.92301 9.07852 5.01463 9.07095 5.0177C9.02464 5.03551 9.03259 4.97841 9.00169 4.97595C8.99324 4.97515 8.96989 5.0238 8.9661 5.02709C8.92829 5.05881 8.98853 4.98263 8.98557 4.96837C8.97757 4.92823 8.94855 4.91556 8.92062 4.90653C8.91034 4.9033 8.88791 4.96254 8.87906 4.95902C8.82602 4.93918 8.78088 4.90457 8.75216 4.84672C8.7469 4.83579 8.77741 4.79827 8.78132 4.78782C8.80886 4.71487 8.73607 4.79279 8.72669 4.79871C8.68394 4.8258 8.69875 4.78516 8.67796 4.78168C8.57425 4.76426 8.48706 4.67764 8.41945 4.61551C8.32873 4.53326 8.27515 4.44642 8.17217 4.39628C8.16562 4.39301 8.13816 4.45103 8.13207 4.44891C8.06381 4.4227 8.01163 4.36797 7.94677 4.33847C7.93914 4.33493 7.93136 4.33172 7.92337 4.32888C7.91691 4.32648 7.89298 4.38284 7.88154 4.3807C7.85786 4.37668 7.8362 4.35916 7.82815 4.33127C7.82417 4.31777 7.86382 4.28144 7.85926 4.26876C7.84855 4.23901 7.82689 4.22024 7.80004 4.21471C7.78848 4.21243 7.76942 4.27354 7.75697 4.2665C7.67079 4.21918 7.58368 4.17625 7.54296 4.05472C7.54019 4.04639 7.6033 3.93757 7.57826 3.95007C7.55843 3.97878 7.53621 4.01326 7.51558 4.04431C7.38481 3.98365 7.28735 3.86761 7.16957 3.77925C7.16444 3.77543 7.13607 3.83666 7.12594 3.82953C7.06891 3.78941 7.00046 3.76434 6.97812 3.66674C6.9761 3.6573 7.04753 3.56443 7.01932 3.56585C7.01408 3.56607 6.97918 3.5599 6.95642 3.57465C6.95317 3.57701 6.92569 3.6247 6.91584 3.61938C6.85947 3.58785 6.81207 3.53586 6.77642 3.462C6.77081 3.45004 6.81818 3.41388 6.81468 3.4051C6.79175 3.34517 6.70537 3.32557 6.69778 3.23736C6.69498 3.18018 6.78269 3.12739 6.84628 3.04909C6.85529 3.03812 6.8442 3.02087 6.88878 2.9843C7.0005 2.89195 7.12946 2.79908 7.24783 2.69976C7.27377 2.67895 7.23118 2.68302 7.30271 2.64374C7.3078 2.64151 7.33772 2.63617 7.36025 2.6206C7.37598 2.61004 7.4195 2.57067 7.44023 2.55788C7.46071 2.54482 7.42489 2.57859 7.44862 2.56268C7.47221 2.54604 7.52176 2.50142 7.52929 2.49797ZM11.623 6.14321C11.6378 6.08687 11.5311 6.26199 11.5711 6.22868C11.5731 6.22686 11.6224 6.146 11.623 6.14321ZM13.3352 7.09775C13.3584 7.00763 13.2824 7.11778 13.2631 7.18672C13.2444 7.25585 13.3282 7.12511 13.3352 7.09775ZM13.5663 7.14095C13.5749 7.06599 13.4441 7.3258 13.4952 7.28508C13.4981 7.28279 13.5659 7.14532 13.5663 7.14095ZM6.92611 3.09581C6.92776 3.09365 6.91876 3.08051 6.91664 3.08214C6.86322 3.12059 6.8827 3.14837 6.92611 3.09581ZM13.8052 7.16324C13.8108 7.12363 13.7734 7.15837 13.7663 7.20785C13.7613 7.24796 13.7992 7.21291 13.8052 7.16324ZM11.0126 5.52445C11.014 5.5217 11.0074 5.51455 10.9987 5.52947C10.9707 5.57754 10.9899 5.57073 11.0126 5.52445ZM14.2053 7.19109C14.143 7.19051 14.0894 6.95413 14.142 6.97444C14.1525 6.97784 14.1326 7.05328 14.148 7.07291C14.1785 7.10827 14.1675 6.95701 14.2063 7.03197C14.2138 7.04565 14.2092 7.19165 14.2053 7.19144C14.2053 7.19132 14.2053 7.19121 14.2053 7.19109ZM11.7409 5.92668C11.742 5.92418 11.7322 5.91539 11.7306 5.91754C11.6913 5.96995 11.711 5.98771 11.7409 5.92668ZM10.6105 5.13532C10.6128 5.13 10.5899 5.10991 10.5863 5.11397C10.518 5.19715 10.5642 5.23804 10.6105 5.13532ZM12.5669 6.24029C12.6123 6.19094 12.6306 6.19274 12.5985 6.26931C12.5888 6.25855 12.5771 6.2509 12.5669 6.24029Z" fill="#66033C"/>
<path d="M14.4635 8.43287C14.4656 8.4503 14.4033 8.45486 14.351 8.45018C14.3344 8.44882 14.326 8.41268 14.3134 8.41052C14.289 8.40618 14.2776 8.43125 14.2521 8.42474C14.2433 8.42256 14.2264 8.36681 14.2177 8.36576C14.1687 8.36098 14.1404 8.39117 14.0954 8.39989C13.8777 8.44091 13.6733 8.52412 13.4636 8.60598C13.3946 8.633 13.2907 8.62935 13.2336 8.68606C13.2268 8.69278 13.2555 8.7347 13.256 8.73919C13.262 8.80836 13.2219 8.7141 13.2004 8.71029C13.1152 8.69538 13.0443 8.72843 12.9952 8.77724C12.974 8.79838 13.0472 8.87282 12.9948 8.83718C12.9912 8.8348 12.9721 8.78412 12.9623 8.78289C12.9398 8.78048 12.9166 8.804 12.9024 8.80689C12.8753 8.81194 12.8717 8.81451 12.8493 8.82601C12.8369 8.83219 12.8214 8.83532 12.8056 8.83877C12.7832 8.84327 12.7599 8.84844 12.7442 8.86525C12.7387 8.8714 12.7741 8.91475 12.7677 8.92892C12.7613 8.94306 12.7299 8.95492 12.7137 8.94899C12.6975 8.94304 12.681 8.90278 12.6745 8.89504C12.6192 8.82993 12.6428 8.94909 12.6396 8.95405C12.5849 9.03963 12.4857 9.01876 12.412 9.05942C12.3542 9.09146 12.308 9.14177 12.2521 9.16907C12.1853 9.20156 12.12 9.2035 12.0596 9.24266C12.0532 9.24671 12.0922 9.2991 12.0845 9.30416C12.0046 9.35684 11.9157 9.39785 11.812 9.40533C11.8015 9.40607 11.7847 9.35042 11.7726 9.34818C11.6993 9.33541 11.5613 9.2836 11.6518 9.51617C11.6126 9.52683 11.5654 9.54156 11.5098 9.51541C11.4739 9.49862 11.4637 9.43355 11.4514 9.4705C11.4486 9.47878 11.4823 9.5221 11.4761 9.53092C11.4505 9.5678 11.4043 9.57328 11.3829 9.61712C11.3787 9.62614 11.4042 9.66752 11.4064 9.67628C11.4239 9.74754 11.3389 9.66087 11.3286 9.65687C11.2502 9.62784 11.2297 9.66776 11.1854 9.69056C11.1752 9.69581 11.2187 9.74622 11.21 9.75331C11.1646 9.78921 11.1083 9.81413 11.0461 9.81557C11.0321 9.81584 11.0151 9.76174 11.007 9.75939C10.9715 9.74962 11.0174 9.84415 10.9843 9.83661C10.9774 9.83514 10.9569 9.79212 10.9535 9.78803C10.9004 9.72378 10.9453 9.83175 10.9431 9.8359C10.9168 9.89063 10.8292 9.80057 10.7965 9.83843C10.7926 9.84309 10.833 9.88944 10.8203 9.89934C10.7353 9.96564 10.6272 10.0069 10.5117 10.0162C10.4936 10.0178 10.4819 9.97256 10.4783 9.9682C10.4211 9.9004 10.4683 10.0077 10.4657 10.0141C10.4438 10.0625 10.3611 9.99664 10.404 10.1318C10.224 10.177 10.1055 10.3325 9.88908 10.3107C9.88641 10.3106 9.86192 10.2585 9.85671 10.2584C9.79362 10.2566 9.84624 10.3295 9.86806 10.4424C9.87351 10.4708 9.78504 10.3692 9.77818 10.362C9.753 10.3352 9.7194 10.2561 9.71343 10.2515C9.66538 10.2163 9.8068 10.4611 9.7776 10.4775C9.77645 10.4776 9.75491 10.4301 9.74994 10.4269C9.73438 10.417 9.73689 10.4393 9.72068 10.4278C9.68365 10.4011 9.61065 10.2845 9.62388 10.3687C9.62568 10.3796 9.70891 10.5167 9.67939 10.5246C9.66757 10.5276 9.6232 10.5555 9.60526 10.5536C9.58736 10.5518 9.57095 10.5017 9.56895 10.5003C9.501 10.46 9.50029 10.428 9.43356 10.3494C9.36699 10.2711 9.48911 10.4782 9.49512 10.5056C9.50111 10.5329 9.44793 10.4981 9.43235 10.4843C9.41661 10.4707 9.40828 10.4377 9.39738 10.4311C9.3256 10.3882 9.43964 10.5441 9.44626 10.5841C9.46205 10.6788 9.35292 10.5356 9.31834 10.5349C9.30899 10.5348 9.33457 10.567 9.33014 10.5738C9.31234 10.6004 9.27019 10.5602 9.26668 10.6206C9.26609 10.6305 9.29542 10.7369 9.2421 10.6766C9.23446 10.6679 9.21871 10.6258 9.20326 10.623C9.18026 10.6188 9.14716 10.6262 9.13745 10.6486C9.1303 10.6652 9.1804 10.7211 9.15353 10.71C9.14156 10.7051 9.13364 10.6605 9.1129 10.6543C9.09224 10.6481 9.05959 10.6686 9.04751 10.677C9.03547 10.6855 9.06959 10.73 9.07038 10.7339C9.0746 10.7561 9.06313 10.7932 9.06093 10.7943C8.95453 10.8617 8.80934 10.8357 8.71751 10.9227C8.71038 10.9294 8.74451 10.9773 8.74372 10.9789C8.72734 11.0162 8.67362 10.8679 8.62832 10.8335C8.68926 10.9356 8.66704 10.9233 8.65337 10.9459C8.64683 10.9569 8.67458 10.9941 8.676 10.9987C8.69584 11.0677 8.64173 10.9946 8.63013 10.9799C8.58743 10.926 8.61631 11.0018 8.58765 10.9658C8.55915 10.9301 8.54139 10.8635 8.52252 10.8751C8.5379 10.9152 8.60656 11.0041 8.60072 11.028C8.57864 11.1185 8.43292 11.1002 8.3843 11.1171C8.33562 11.134 8.32511 11.1489 8.29172 11.15C8.23136 11.152 8.28883 11.2143 8.27821 11.2636C8.26749 11.3128 8.18249 11.1279 8.15695 11.0922C8.13155 11.0565 8.14905 11.0981 8.13226 11.0801C8.11548 11.062 8.11192 11.03 8.09562 11.0288C8.07933 11.0277 8.08469 11.1136 8.10277 11.1557C8.1411 11.245 8.20541 11.3252 8.1564 11.3118C8.15355 11.311 8.13335 11.2612 8.12375 11.2604C8.04845 11.2555 7.98936 11.2858 7.91633 11.2851C7.90628 11.2849 7.884 11.2294 7.87783 11.2287C7.81337 11.2213 7.87874 11.2994 7.90797 11.4104C7.84122 11.2783 7.78302 11.2071 7.74765 11.226C7.72636 11.2373 7.7616 11.2916 7.7703 11.3389C7.77294 11.3532 7.73634 11.3229 7.74851 11.3509C7.78823 11.4425 7.85669 11.5316 7.7989 11.5132C7.79629 11.5123 7.77472 11.462 7.76763 11.4622C7.72174 11.4633 7.76804 11.5564 7.73629 11.5887C7.71134 11.614 7.62722 11.5886 7.58809 11.5988C7.50738 11.4533 7.49383 11.5046 7.5369 11.6119C7.51246 11.6203 7.49169 11.6394 7.46247 11.6376C7.45244 11.6371 7.43371 11.5923 7.43023 11.5883C7.37601 11.5252 7.42113 11.6278 7.4185 11.6343C7.38779 11.7003 7.30428 11.6502 7.29537 11.75C7.29507 11.7536 7.34882 11.8559 7.29429 11.7898C7.29059 11.7852 7.28117 11.7302 7.25592 11.7397C7.23073 11.7492 7.15625 11.72 7.15049 11.7847C7.14903 11.8003 7.17529 11.8931 7.12359 11.8381C7.11661 11.8306 7.10268 11.8004 7.09061 11.786C7.052 11.7404 7.10384 11.8452 7.04368 11.7652C6.98352 11.6852 6.92307 11.6339 6.92406 11.7119C6.924 11.7142 6.96165 11.7992 6.95069 11.8037C6.93317 11.8108 6.90051 11.807 6.88372 11.8172C6.87569 11.822 6.90909 11.8692 6.90819 11.8709C6.86908 11.9298 6.80517 11.907 6.73548 11.9207C6.72266 11.9231 6.7301 12.0088 6.67885 11.9665C6.62267 11.9203 6.50797 11.6611 6.48816 11.7493C6.47997 11.7848 6.62876 12.1118 6.49973 11.9716C6.4484 12.0532 6.33327 12.009 6.29123 12.108C6.28933 12.1124 6.32778 12.2054 6.31929 12.2086C6.30658 12.2132 6.2773 12.1761 6.26749 12.1781C6.2258 12.1854 6.21352 12.2381 6.17687 12.2516C6.16301 12.2568 6.1438 12.2123 6.12725 12.2185C6.11074 12.2247 6.13177 12.2858 6.09609 12.2707C6.06904 12.259 5.98968 12.1546 5.96167 12.153C6.02375 12.2651 6.0083 12.2708 5.99972 12.3144C5.99809 12.3229 6.02516 12.3588 6.02553 12.3648C6.02749 12.3901 6.00073 12.3627 6.00416 12.3895C6.00495 12.396 6.02632 12.4342 6.02818 12.4416C6.04483 12.5062 5.97187 12.4343 5.95923 12.4217C5.91106 12.3741 5.93139 12.428 5.90635 12.4127C5.88134 12.3974 5.88422 12.359 5.86206 12.3536C5.81615 12.3425 5.78085 12.3705 5.74928 12.3859C5.73683 12.3923 5.77381 12.4386 5.77269 12.4407C5.75477 12.4678 5.69878 12.4279 5.74189 12.5372C5.57679 12.2848 5.74101 12.5712 5.6754 12.539C5.67017 12.5364 5.59674 12.4144 5.5974 12.3901C5.59807 12.3657 5.63642 12.3952 5.63557 12.3583C5.6354 12.3496 5.5905 12.2219 5.58934 12.2132C5.58029 12.1459 5.68771 12.3295 5.6946 12.339C5.76958 12.4414 5.72417 12.3021 5.72594 12.2898C5.73389 12.2331 5.77426 12.2447 5.78363 12.2022C5.78988 12.1746 5.72317 12.0522 5.73825 12.0487C5.78832 12.0366 5.89868 12.1975 5.85667 12.0278C5.84775 11.9916 5.76443 11.8638 5.85435 11.9506C5.85999 11.9561 5.93692 12.0384 5.91638 11.9705C5.91378 11.9619 5.89197 11.9233 5.89237 11.9188C5.89545 11.8894 5.92272 11.9146 5.93064 11.8907C5.93857 11.8669 5.94569 11.8339 5.97158 11.8366C5.98715 11.8382 6.042 11.9022 6.05726 11.9168C6.10092 11.9591 6.07019 11.8667 6.11414 11.923C6.15834 11.9796 6.19279 12.0838 6.23994 12.1099C6.18433 12.0089 6.12841 11.9046 6.07304 11.8028C6.12896 11.7759 6.20075 11.7783 6.25256 11.7434C6.25893 11.7389 6.22166 11.6888 6.22771 11.6826C6.25334 11.6569 6.30159 11.6805 6.3245 11.6474C6.34215 11.6216 6.33663 11.5494 6.35417 11.5206C6.43448 11.6267 6.45055 11.5663 6.48404 11.5613C6.49574 11.5595 6.51236 11.5906 6.52486 11.5968C6.5716 11.6193 6.50233 11.5245 6.50044 11.5045C6.49253 11.4191 6.62445 11.6476 6.65712 11.6218C6.65889 11.6205 6.61319 11.4848 6.61209 11.4754C6.60441 11.4142 6.63944 11.5162 6.65724 11.5181C6.68969 11.5217 6.72243 11.5418 6.72959 11.4905C6.73158 11.4754 6.70776 11.3882 6.75645 11.4386C6.76284 11.4452 6.78449 11.4864 6.78746 11.4878C6.83935 11.5107 6.76855 11.383 6.76124 11.3303C6.75394 11.2777 6.82946 11.3509 6.84901 11.3733C6.89974 11.431 6.8541 11.4073 6.85696 11.4141C6.89113 11.4956 6.90277 11.4718 6.92095 11.4701C6.99323 11.5937 7.00934 11.5748 6.93951 11.4678C6.93185 11.4561 6.92708 11.4741 6.92095 11.4701C6.86487 11.3404 6.87841 11.3121 6.96738 11.4128C7.00908 11.4599 7.03328 11.5286 7.0557 11.4859C7.0659 11.4666 7.01141 11.3841 7.01236 11.3527C7.01457 11.2811 7.10149 11.3378 7.12753 11.3066C7.13699 11.2952 7.09883 11.2547 7.10438 11.2453C7.11902 11.2203 7.15808 11.2448 7.16979 11.2145C7.17081 11.2117 7.1383 11.1651 7.14475 11.1607C7.193 11.126 7.25624 11.132 7.31067 11.1026C7.337 11.0883 7.36832 11.035 7.39832 11.0254C7.44991 11.0085 7.5484 11.0474 7.57857 11.0076C7.59844 10.9818 7.56504 10.9357 7.55737 10.8958C7.54242 10.8186 7.64599 10.9138 7.66125 10.929C7.66174 10.9295 7.64586 10.9537 7.67201 10.9723C7.70855 11.0211 7.66112 10.9294 7.66125 10.929C7.67117 10.9388 7.72216 10.9249 7.72572 10.9105C7.72769 10.9026 7.69877 10.8574 7.70029 10.8542C7.73715 10.7786 7.7907 10.7329 7.86366 10.7207C7.86526 10.7211 7.89296 10.7742 7.89635 10.7744C7.94459 10.7778 7.93089 10.7015 7.93893 10.6471C7.94686 10.5928 7.97709 10.5926 8.04462 10.6726C8.06026 10.649 8.11395 10.671 8.14551 10.6849C8.17707 10.6988 8.12256 10.5957 8.12302 10.5928C8.13646 10.5007 8.19763 10.5429 8.25457 10.5229C8.28169 10.5136 8.32208 10.4716 8.34232 10.4456C8.35823 10.4249 8.38418 10.4417 8.39488 10.4157C8.39635 10.4122 8.36834 10.3684 8.36815 10.3662C8.35925 10.3 8.41098 10.4165 8.42649 10.4338C8.48282 10.4967 8.51421 10.5294 8.52307 10.48C8.52513 10.4687 8.45445 10.2988 8.46088 10.283C8.46939 10.2626 8.49569 10.323 8.50378 10.3003C8.5045 10.2984 8.48447 10.2633 8.49511 10.2594C8.54425 10.2407 8.60499 10.2336 8.64975 10.2039C8.65597 10.2 8.61639 10.1487 8.62494 10.142C8.66515 10.1108 8.71424 10.086 8.77132 10.0885C8.78547 10.0892 8.80085 10.1321 8.80962 10.1424C8.86292 10.205 8.82539 10.0918 8.82755 10.088C8.87693 9.99583 8.98963 10.0543 9.04386 9.96608C9.04672 9.96109 9.01852 9.83296 9.08582 9.91873C9.09033 9.92442 9.15869 10.0125 9.13477 9.9395C9.1333 9.93492 9.09643 9.89054 9.11523 9.88665C9.13413 9.88269 9.14148 9.83518 9.1939 9.87728C9.21045 9.89052 9.28055 9.97727 9.2585 9.88921C9.25687 9.88311 9.19213 9.6923 9.2702 9.80528C9.28302 9.82389 9.3517 9.95124 9.34011 9.87274C9.33779 9.85756 9.31352 9.83416 9.31606 9.80966C9.31993 9.77192 9.36359 9.7919 9.35597 9.72234C9.35453 9.71008 9.32415 9.61457 9.37452 9.6718C9.38241 9.68076 9.4018 9.72525 9.41183 9.72584C9.45967 9.72881 9.48061 9.68011 9.53232 9.6895C9.55059 9.69274 9.58225 9.76449 9.60551 9.77546C9.62885 9.78638 9.66457 9.78948 9.66126 9.75046C9.65772 9.71155 9.58191 9.61136 9.59782 9.59108C9.66737 9.50271 9.78949 9.51815 9.88554 9.4768C9.89963 9.47077 9.86691 9.43803 9.8861 9.42636C9.95638 9.38336 10.0607 9.27739 10.1694 9.32516C10.2562 9.36352 10.2215 9.44894 10.2746 9.45462C10.3002 9.45723 10.2496 9.31981 10.2518 9.31337C10.2726 9.24884 10.3349 9.28748 10.3645 9.24849C10.3706 9.24041 10.3342 9.1936 10.3397 9.18729C10.3583 9.16528 10.3957 9.17441 10.4158 9.1578C10.4247 9.15023 10.401 9.11212 10.4119 9.11002C10.4375 9.10467 10.4669 9.10987 10.5091 9.13443C10.5129 9.13666 10.5266 9.19282 10.5442 9.1854C10.5726 9.17326 10.6258 9.19102 10.6355 9.13669C10.6383 9.12041 10.589 9.03075 10.6427 9.08174C10.654 9.09239 10.7085 9.20268 10.6795 9.09734C10.6745 9.07993 10.6434 8.9333 10.7073 9.00345C10.7241 9.02191 10.7856 9.10275 10.789 9.08284C10.7892 9.0798 10.7566 9.03506 10.7631 9.02532C10.7864 8.99181 10.8226 8.9784 10.8468 8.94531C10.8532 8.93638 10.8126 8.89381 10.823 8.88209C10.8515 8.84986 10.9046 8.83693 10.9482 8.83311C10.9644 8.83176 10.9783 8.87794 10.9817 8.8819C11.0373 8.94644 10.9916 8.84304 10.9935 8.83452C11.0057 8.78276 11.054 8.81645 11.0769 8.78778C11.0832 8.78006 11.0514 8.73627 11.0507 8.7312C11.0447 8.68106 11.079 8.77226 11.0947 8.77572C11.1387 8.78572 11.1692 8.7639 11.1952 8.74166C11.2047 8.73343 11.1624 8.68567 11.1713 8.67891C11.2223 8.63844 11.2872 8.60931 11.3593 8.60863C11.373 8.60857 11.3896 8.65418 11.3971 8.66255C11.4493 8.72123 11.4207 8.61764 11.4209 8.60615C11.4217 8.55377 11.4521 8.58542 11.469 8.56708C11.5506 8.47697 11.6892 8.43259 11.7915 8.39607C11.9273 8.34677 12.0449 8.33423 12.1574 8.25909C12.1647 8.25431 12.1264 8.20259 12.1323 8.19775C12.2084 8.13851 12.3046 8.11438 12.3778 8.05352C12.3778 8.05351 12.3778 8.0535 12.3778 8.05349C12.3843 8.04839 12.3451 8.00088 12.3545 7.99091C12.3735 7.9701 12.4042 7.95714 12.4362 7.96169C12.4518 7.9638 12.4616 8.01749 12.4768 8.0187C12.5119 8.02174 12.5419 8.01036 12.565 7.9868C12.5746 7.97675 12.5276 7.93191 12.5424 7.92309C12.6391 7.8637 12.7382 7.79811 12.8776 7.81422C12.8872 7.8153 12.9532 7.92248 12.9572 7.89305C12.9419 7.86168 12.9224 7.82555 12.9053 7.79242C13.0457 7.69451 13.2139 7.65464 13.37 7.58128C13.3767 7.57812 13.3347 7.52487 13.3475 7.51846C13.4192 7.48246 13.4834 7.42885 13.589 7.45002C13.5994 7.45207 13.6477 7.55881 13.6616 7.5321C13.6645 7.52707 13.6913 7.49633 13.6884 7.46948C13.6878 7.46547 13.6577 7.41935 13.6676 7.41272C13.7281 7.37382 13.8025 7.35195 13.8877 7.35057C13.9014 7.35052 13.9129 7.40911 13.9227 7.4096C13.9916 7.41324 14.0425 7.34273 14.1442 7.36695C14.2126 7.38453 14.2179 7.48794 14.266 7.57834C14.2728 7.591 14.3019 7.58786 14.312 7.64473C14.3382 7.78729 14.3563 7.94519 14.3859 8.09686C14.3896 8.12991 14.4089 8.09057 14.4065 8.17236C14.4046 8.17809 14.4002 8.20594 14.4069 8.23247C14.4107 8.25094 14.4215 8.30857 14.4276 8.33197C14.4344 8.35518 14.4254 8.30683 14.4334 8.33403C14.4415 8.3616 14.4613 8.42527 14.4635 8.43287ZM8.28702 10.7469C8.33107 10.7864 8.23324 10.6061 8.23921 10.6591C8.23962 10.6618 8.28482 10.745 8.28702 10.7469ZM6.27623 11.9134C6.3425 11.9799 6.29229 11.8555 6.24258 11.8033C6.19291 11.7512 6.25611 11.8932 6.27623 11.9134ZM6.08166 12.0986C6.14222 12.1464 6.00365 11.8906 6.00506 11.9573C6.0051 11.9611 6.07813 12.0958 6.08166 12.0986ZM14.1672 7.63692C14.1685 7.63929 14.1868 7.63566 14.1862 7.63304C14.1747 7.56801 14.1363 7.576 14.1672 7.63692ZM5.89168 12.288C5.91896 12.3178 5.91967 12.2653 5.88576 12.2282C5.85848 12.1984 5.85774 12.251 5.89168 12.288ZM9.26876 10.448C9.27052 10.4505 9.28158 10.4475 9.27295 10.4325C9.24512 10.3843 9.23927 10.4056 9.26876 10.448ZM5.5105 12.5064C5.57247 12.4841 5.72461 12.6741 5.64971 12.6852C5.63614 12.6872 5.63617 12.6049 5.61134 12.594C5.566 12.5743 5.62274 12.7154 5.55655 12.6599C5.54449 12.6497 5.5067 12.5072 5.51044 12.5061C5.51046 12.5062 5.51048 12.5063 5.5105 12.5064ZM8.41708 10.9564C8.4187 10.9586 8.4335 10.9533 8.43251 10.9508C8.40798 10.8899 8.37822 10.9006 8.41708 10.9564ZM9.8975 10.2418C9.90099 10.2465 9.93483 10.2338 9.93335 10.2285C9.89773 10.1264 9.82908 10.1519 9.8975 10.2418ZM7.58538 11.5952C7.60278 11.6605 7.589 11.6771 7.53701 11.612C7.55375 11.6076 7.56875 11.5999 7.58538 11.5952Z" fill="#66033C"/>
<path d="M1.74083 6.88829C1.80921 6.87747 1.89839 6.89163 1.96605 6.9102C1.98725 6.91596 1.97608 6.94001 1.9907 6.94508C2.0193 6.95496 2.04627 6.94351 2.07449 6.95519C2.08385 6.95917 2.07151 6.99737 2.08133 7.00067C2.13516 7.0185 2.18648 7.00954 2.24115 7.01857C2.51041 7.06314 2.77549 7.0818 3.04842 7.10366C3.13842 7.11083 3.24737 7.14741 3.34066 7.13367C3.35155 7.13203 3.34561 7.09824 3.34772 7.0955C3.38082 7.05351 3.36895 7.12135 3.38997 7.13072C3.4734 7.16774 3.56676 7.17234 3.6478 7.16063C3.68228 7.15555 3.64887 7.08809 3.6829 7.1262C3.68526 7.12877 3.67596 7.16441 3.68533 7.16837C3.70659 7.1773 3.74727 7.17155 3.7638 7.17465C3.79566 7.18081 3.80095 7.18053 3.83116 7.18142C3.87245 7.18295 3.9213 7.20152 3.96575 7.19413C3.97524 7.19244 3.9633 7.15557 3.97849 7.14957C3.99369 7.14358 4.03359 7.14733 4.04692 7.15619C4.06025 7.16505 4.05405 7.19379 4.05633 7.20043C4.07505 7.25651 4.1225 7.18002 4.12848 7.1782C4.2374 7.14739 4.32966 7.19288 4.43143 7.19438C4.50868 7.19543 4.59152 7.18222 4.66499 7.18539C4.75252 7.18931 4.82642 7.21037 4.91155 7.20831C4.92054 7.20814 4.91071 7.16485 4.92168 7.16455C5.03827 7.1614 5.15389 7.16795 5.26943 7.19891C5.28101 7.20206 5.26541 7.23968 5.27695 7.24508C5.34762 7.27733 5.45902 7.35387 5.50392 7.18972C5.55202 7.19693 5.61044 7.20451 5.65303 7.23843C5.68049 7.26026 5.65283 7.30107 5.68726 7.28402C5.69503 7.28022 5.68559 7.24394 5.69719 7.24098C5.74604 7.22853 5.79899 7.24112 5.84741 7.22323C5.85726 7.21951 5.8551 7.1871 5.85797 7.18132C5.88203 7.1345 5.91958 7.21314 5.92795 7.21894C5.99167 7.26225 6.03897 7.24636 6.09895 7.24835C6.11287 7.24884 6.09711 7.2051 6.11053 7.204C6.18011 7.19888 6.25203 7.20377 6.31976 7.22415C6.33482 7.22879 6.32031 7.26559 6.32748 7.2697C6.3591 7.28738 6.36728 7.21755 6.39762 7.23315C6.40402 7.23635 6.39988 7.26799 6.401 7.27149C6.41854 7.32644 6.43577 7.24926 6.44053 7.24763C6.50079 7.22522 6.53778 7.30668 6.59581 7.29615C6.60276 7.29481 6.58779 7.25446 6.60728 7.25314C6.73707 7.24414 6.87398 7.25735 7.00176 7.29149C7.02163 7.29674 7.00691 7.32664 7.0081 7.33038C7.02763 7.38874 7.04212 7.31119 7.04867 7.30837C7.10032 7.28811 7.14721 7.35409 7.18356 7.26203C7.40036 7.29765 7.61751 7.2491 7.8317 7.33552C7.83443 7.33653 7.82891 7.37474 7.83434 7.37658C7.89982 7.39914 7.88814 7.33942 7.93286 7.26732C7.94412 7.24922 7.97609 7.33764 7.97894 7.34413C7.98932 7.36804 7.97725 7.42484 7.98078 7.42949C8.01002 7.46607 8.00817 7.27757 8.0484 7.27816C8.04965 7.27849 8.04381 7.31309 8.04713 7.31659C8.05744 7.32758 8.06806 7.31397 8.07814 7.32607C8.10118 7.35407 8.10808 7.44576 8.14481 7.39305C8.14946 7.38621 8.14424 7.27922 8.18007 7.28484C8.19435 7.28717 8.25774 7.28635 8.27539 7.29356C8.29302 7.30077 8.28029 7.33501 8.28153 7.33652C8.3286 7.38283 8.31017 7.40142 8.33304 7.46923C8.35591 7.53679 8.35183 7.37647 8.36188 7.35874C8.37194 7.34106 8.40638 7.3792 8.41478 7.3924C8.42318 7.40561 8.41209 7.42732 8.41963 7.43484C8.4696 7.48397 8.44318 7.35567 8.4603 7.33051C8.50069 7.27093 8.52949 7.39024 8.56539 7.40246C8.5751 7.40576 8.56757 7.37857 8.5763 7.37618C8.6109 7.36707 8.63102 7.40447 8.67074 7.3711C8.67723 7.36567 8.71005 7.29474 8.72972 7.34749C8.7325 7.3551 8.72377 7.38457 8.73835 7.39144C8.76011 7.40175 8.79951 7.40885 8.82324 7.39933C8.84075 7.39229 8.82159 7.34318 8.84325 7.35869C8.85288 7.36561 8.83438 7.39386 8.8525 7.40449C8.87053 7.41511 8.91706 7.4146 8.93477 7.4139C8.95245 7.41317 8.94337 7.37601 8.94484 7.37354C8.95371 7.35939 8.9879 7.34209 8.99089 7.34218C9.14209 7.34008 9.28045 7.40469 9.42791 7.3864C9.43948 7.38502 9.43242 7.34587 9.43419 7.34526C9.47398 7.32954 9.44115 7.4328 9.46821 7.46797C9.46549 7.38872 9.48156 7.40332 9.50954 7.39508C9.52303 7.39104 9.51621 7.36026 9.51749 7.35714C9.53813 7.31088 9.55102 7.37126 9.55439 7.38363C9.56685 7.42911 9.58205 7.37585 9.59053 7.40625C9.59901 7.43643 9.57767 7.48062 9.60439 7.48048C9.61233 7.45225 9.59369 7.37785 9.61416 7.36617C9.69138 7.32197 9.83325 7.38239 9.89466 7.38941C9.95594 7.39642 9.97586 7.39151 10.0115 7.40233C10.0758 7.42189 10.053 7.36654 10.0935 7.34202C10.1341 7.31751 10.1124 7.45244 10.1177 7.4816C10.1229 7.51075 10.1296 7.48094 10.1364 7.49703C10.1432 7.51311 10.1277 7.53264 10.1441 7.5389C10.1606 7.54515 10.2067 7.49418 10.2131 7.46388C10.2265 7.39967 10.2072 7.33175 10.2506 7.3562C10.2531 7.35765 10.2444 7.39308 10.254 7.39683C10.3302 7.42543 10.4098 7.42841 10.486 7.45384C10.4965 7.4574 10.4864 7.49681 10.4925 7.49932C10.556 7.52565 10.5342 7.45858 10.5704 7.38504C10.5609 7.48352 10.5793 7.54416 10.6278 7.54552C10.6569 7.54637 10.6525 7.50322 10.6719 7.47317C10.6777 7.46411 10.6978 7.49401 10.7018 7.47382C10.7152 7.40781 10.697 7.33338 10.7465 7.36369C10.7486 7.36513 10.7411 7.40126 10.7486 7.40358C10.7973 7.41872 10.8043 7.34957 10.8573 7.34203C10.8989 7.33611 10.972 7.37952 11.0191 7.38714C11.0163 7.49799 11.0613 7.47332 11.0806 7.39717C11.1112 7.40079 11.1444 7.397 11.1738 7.40804C11.184 7.4118 11.1768 7.44379 11.178 7.44728C11.1968 7.502 11.2113 7.42785 11.218 7.42504C11.2901 7.39784 11.3476 7.45514 11.4169 7.40115C11.4194 7.39921 11.4245 7.32226 11.4419 7.37878C11.4431 7.38268 11.4199 7.41736 11.452 7.42058C11.4842 7.42381 11.5442 7.46607 11.5895 7.43109C11.6004 7.42268 11.6288 7.3606 11.6499 7.40979C11.6527 7.41647 11.6492 7.43851 11.6532 7.45087C11.6662 7.49025 11.6749 7.41253 11.6899 7.47891C11.7049 7.5453 11.7375 7.59535 11.7833 7.55045C11.7847 7.54915 11.7964 7.48762 11.8105 7.48882C11.8331 7.4908 11.865 7.50416 11.8887 7.50414C11.9 7.50411 11.8934 7.46568 11.8953 7.46501C11.9717 7.44476 12.0253 7.47978 12.1065 7.49591C12.1214 7.49894 12.1652 7.44738 12.1934 7.48915C12.2244 7.53487 12.1888 7.72242 12.2625 7.67878C12.2922 7.66133 12.3333 7.42332 12.3842 7.54779C12.4873 7.5188 12.5811 7.58358 12.6847 7.54149C12.6893 7.53963 12.705 7.47327 12.7159 7.47435C12.732 7.47608 12.7404 7.50735 12.7519 7.50958C12.8 7.51973 12.8446 7.49381 12.8912 7.49869C12.9088 7.50048 12.9021 7.53257 12.9232 7.5347C12.9442 7.53681 12.9589 7.49465 12.9872 7.51558C13.0085 7.53153 13.0287 7.61849 13.0572 7.62905C13.0596 7.54362 13.0792 7.5457 13.1146 7.5237C13.1213 7.51943 13.1146 7.48958 13.1179 7.48603C13.131 7.47091 13.1426 7.49574 13.1552 7.47926C13.1582 7.4753 13.1588 7.44612 13.1613 7.44124C13.1828 7.3986 13.216 7.46478 13.2216 7.4763C13.2435 7.52006 13.2546 7.48228 13.2716 7.49965C13.2886 7.51701 13.2625 7.53796 13.2824 7.54866C13.3238 7.57077 13.3776 7.56692 13.42 7.56894C13.4369 7.56956 13.426 7.53043 13.4284 7.52962C13.4635 7.5203 13.4983 7.56229 13.5189 7.48502C13.54 7.68601 13.5403 7.4659 13.5897 7.50686C13.5936 7.51017 13.5971 7.60511 13.5817 7.6188C13.5664 7.63247 13.5439 7.60245 13.5226 7.62382C13.5175 7.62884 13.4876 7.71728 13.4837 7.7226C13.4526 7.7642 13.4505 7.62237 13.449 7.61456C13.4321 7.53024 13.3958 7.62545 13.3866 7.63192C13.3442 7.66157 13.3089 7.64106 13.2735 7.66214C13.2503 7.67576 13.2466 7.76859 13.2286 7.76546C13.1689 7.7551 13.1501 7.62523 13.0919 7.73665C13.0795 7.76041 13.0898 7.86209 13.0478 7.78159C13.0451 7.77652 13.0142 7.703 12.9948 7.74888C12.9924 7.75466 12.992 7.78424 12.9889 7.78668C12.968 7.80242 12.9546 7.77864 12.932 7.78956C12.9093 7.80049 12.882 7.81688 12.8565 7.80644C12.8411 7.80019 12.8222 7.74476 12.815 7.73115C12.7947 7.69195 12.7713 7.75532 12.7591 7.70805C12.7468 7.66054 12.7735 7.58911 12.7397 7.558C12.7372 7.63482 12.733 7.71365 12.7298 7.7909C12.6548 7.787 12.5813 7.76097 12.506 7.76316C12.4966 7.7635 12.5055 7.80497 12.4955 7.80641C12.4532 7.8123 12.4168 7.78226 12.3728 7.79328C12.3388 7.80198 12.3009 7.84512 12.2653 7.85558C12.245 7.7673 12.192 7.79631 12.1539 7.78766C12.1406 7.78467 12.1418 7.7612 12.1324 7.75338C12.097 7.72447 12.1126 7.80245 12.1025 7.81452C12.0595 7.86604 12.0587 7.69009 12.0088 7.69364C12.0062 7.69377 11.9724 7.78701 11.9679 7.79278C11.9391 7.8304 11.9638 7.76007 11.9462 7.75286C11.9142 7.73968 11.8921 7.71694 11.8539 7.74379C11.8427 7.75175 11.8153 7.80976 11.7946 7.76422C11.7919 7.75825 11.7939 7.72729 11.7917 7.72544C11.7511 7.69453 11.7485 7.79189 11.7245 7.82449C11.7005 7.85708 11.6653 7.78929 11.6583 7.76979C11.6398 7.71937 11.6734 7.74861 11.6745 7.74371C11.6877 7.68538 11.6612 7.69503 11.641 7.68976C11.6396 7.59424 11.6113 7.59952 11.6202 7.68469C11.6212 7.69399 11.637 7.68534 11.641 7.68976C11.6218 7.78316 11.5906 7.79466 11.5577 7.70657C11.5423 7.66529 11.5582 7.61769 11.5092 7.63441C11.487 7.64196 11.4945 7.70783 11.4747 7.72544C11.4294 7.76562 11.3724 7.70337 11.3263 7.7123C11.3095 7.71554 11.3252 7.75178 11.3137 7.75524C11.2833 7.76452 11.2571 7.73709 11.2264 7.75044C11.2237 7.75169 11.2298 7.78947 11.2203 7.7898C11.1486 7.79303 11.0866 7.7679 11.0118 7.76603C10.9756 7.76515 10.9106 7.78489 10.8733 7.78011C10.8085 7.77206 10.7295 7.716 10.6738 7.72842C10.6375 7.73636 10.6448 7.77417 10.6289 7.79959C10.5982 7.84887 10.5467 7.75889 10.5398 7.74498C10.5396 7.74452 10.5709 7.73613 10.5546 7.71652C10.5456 7.67607 10.5402 7.74481 10.5398 7.74498C10.5353 7.73598 10.4733 7.72644 10.4608 7.73344C10.454 7.73727 10.4572 7.77303 10.4537 7.77435C10.37 7.80496 10.2866 7.8127 10.2026 7.79466C10.2011 7.79392 10.204 7.75403 10.2005 7.75277C10.152 7.73424 10.1199 7.78258 10.0792 7.81094C10.0385 7.83928 10.0067 7.82906 9.98401 7.76014C9.9535 7.76828 9.91041 7.73728 9.88563 7.71849C9.86085 7.6997 9.85611 7.77737 9.85388 7.77887C9.78428 7.82695 9.74522 7.78182 9.67394 7.77376C9.64005 7.76979 9.57255 7.77999 9.53567 7.7879C9.50652 7.79428 9.48931 7.77579 9.46236 7.787C9.45872 7.7885 9.46182 7.82317 9.4607 7.82448C9.43017 7.86541 9.44587 7.78104 9.43995 7.76583C9.41847 7.71052 9.40513 7.68104 9.36647 7.70627C9.35756 7.71205 9.32991 7.83346 9.31371 7.84032C9.29266 7.84903 9.30125 7.80549 9.27919 7.81572C9.2773 7.81655 9.27726 7.8435 9.26377 7.84209C9.20114 7.83593 9.13301 7.81916 9.06779 7.82082C9.05888 7.82094 9.06961 7.86385 9.05673 7.86473C8.99629 7.86883 8.93016 7.86619 8.87168 7.84525C8.85729 7.83996 8.86684 7.81019 8.86384 7.80126C8.84541 7.7472 8.81681 7.82486 8.81227 7.82627C8.70401 7.86208 8.62275 7.79009 8.51248 7.82198C8.50647 7.82386 8.45915 7.90684 8.43979 7.83471C8.43846 7.82991 8.41934 7.75613 8.40059 7.80607C8.39943 7.80919 8.41147 7.84721 8.38946 7.843C8.36746 7.8388 8.33153 7.86349 8.30186 7.82145C8.29247 7.80821 8.27094 7.73457 8.24136 7.79252C8.23943 7.79657 8.19309 7.92794 8.17876 7.83656C8.17644 7.82152 8.18066 7.72513 8.14568 7.77403C8.13899 7.78351 8.15051 7.80521 8.13308 7.81836C8.10638 7.83864 8.07186 7.81225 8.03875 7.85469C8.03298 7.86221 8.00786 7.92727 7.98936 7.87729C7.98646 7.86946 7.99272 7.83736 7.98258 7.83359C7.93438 7.81553 7.88328 7.83625 7.83441 7.81319C7.8171 7.80509 7.82685 7.75318 7.8089 7.73895C7.79095 7.72471 7.75455 7.71071 7.73515 7.73419C7.71575 7.75768 7.7352 7.84096 7.7066 7.84714C7.58225 7.87399 7.46031 7.82337 7.33672 7.81427C7.31839 7.81291 7.33313 7.84284 7.30608 7.84297C7.20637 7.84358 7.03382 7.86865 6.94833 7.8042C6.87984 7.75258 6.96767 7.71552 6.91504 7.69411C6.88964 7.6839 6.86045 7.77989 6.85423 7.78283C6.79347 7.8127 6.75227 7.76931 6.69782 7.78155C6.68657 7.78409 6.69693 7.82335 6.68737 7.82508C6.6547 7.83134 6.62075 7.81335 6.58958 7.81604C6.5756 7.81734 6.57769 7.84723 6.56489 7.84472C6.53423 7.83906 6.50726 7.82608 6.47774 7.79762C6.47505 7.79503 6.49406 7.75819 6.47134 7.75644C6.43458 7.75372 6.38934 7.72539 6.34654 7.75322C6.33384 7.76159 6.33225 7.82981 6.306 7.78226C6.30049 7.77233 6.30903 7.69052 6.27644 7.7608C6.27096 7.77248 6.21659 7.86711 6.19164 7.80515C6.18506 7.78885 6.16867 7.72153 6.15339 7.73182C6.15132 7.73347 6.15894 7.77025 6.14636 7.77362C6.10205 7.78488 6.05587 7.78023 6.01036 7.79098C5.9982 7.79392 6.01563 7.83213 5.99753 7.83531C5.94777 7.8441 5.88598 7.83345 5.83766 7.82081C5.81985 7.81607 5.83271 7.78486 5.83147 7.78142C5.81143 7.72548 5.79785 7.80033 5.79084 7.8046C5.74722 7.83011 5.71489 7.79433 5.67492 7.80302C5.66389 7.80533 5.67111 7.84124 5.66887 7.84439C5.64569 7.87521 5.66361 7.81121 5.64937 7.8039C5.60946 7.7832 5.56457 7.78535 5.52381 7.78928C5.50884 7.79077 5.52497 7.83253 5.51155 7.83339C5.43206 7.83927 5.34961 7.83398 5.27251 7.80987C5.258 7.80525 5.26768 7.77345 5.26476 7.7661C5.24463 7.7147 5.21281 7.78386 5.20563 7.79038C5.17302 7.82016 5.161 7.7917 5.13254 7.79652C4.99353 7.82056 4.82271 7.79911 4.69207 7.78545C4.52183 7.76785 4.39003 7.73533 4.22734 7.74062C4.217 7.74092 4.22674 7.78359 4.21782 7.78439C4.10266 7.7928 3.98972 7.77438 3.8743 7.78481C3.86483 7.78559 3.87781 7.82611 3.86259 7.82872C3.83136 7.83435 3.79197 7.83153 3.7607 7.81816C3.74545 7.81171 3.76659 7.77746 3.75123 7.77168C3.71545 7.75814 3.67693 7.75465 3.63987 7.76052C3.6241 7.76311 3.64717 7.8047 3.62672 7.80485C3.4874 7.80671 3.35053 7.81162 3.21067 7.756C3.20108 7.75218 3.19396 7.66828 3.17319 7.68402C3.17127 7.70724 3.17092 7.73458 3.16985 7.75942C2.96692 7.76956 2.76674 7.73731 2.56353 7.72957C2.55497 7.72925 2.56907 7.77387 2.55248 7.77348C2.45645 7.77129 2.36299 7.78209 2.26546 7.73641C2.25579 7.73194 2.26204 7.65394 2.23312 7.66529C2.22802 7.66736 2.18459 7.67708 2.17314 7.69385C2.17158 7.69639 2.17889 7.73296 2.16493 7.73379C2.08383 7.73803 1.99907 7.72835 1.91856 7.70479C1.90556 7.70092 1.92008 7.66233 1.91083 7.65924C1.84522 7.63758 1.77302 7.66594 1.71058 7.62969C1.66878 7.60529 1.68547 7.53846 1.66411 7.47207C1.66109 7.4627 1.635 7.4608 1.63426 7.42236C1.63234 7.3257 1.64668 7.22011 1.64314 7.11705C1.6424 7.09486 1.60704 7.11819 1.6286 7.06492C1.63011 7.06135 1.65575 7.04397 1.66229 7.02589C1.66684 7.01338 1.65963 6.97419 1.66876 6.95824C1.67789 6.9423 1.68711 6.97521 1.70212 6.95654C1.71713 6.93763 1.71138 6.89308 1.74083 6.88829ZM9.77405 7.63449C9.75143 7.5968 9.74581 7.73345 9.77145 7.70115C9.77269 7.69942 9.77522 7.63634 9.77405 7.63449ZM12.5834 7.65785C12.554 7.59707 12.5318 7.6854 12.5525 7.73231C12.5732 7.77917 12.5924 7.67628 12.5834 7.65785ZM12.8988 7.61887C12.8641 7.57076 12.8554 7.76453 12.8941 7.72595C12.8963 7.72377 12.9009 7.62166 12.8988 7.61887ZM1.76835 7.45493C1.76806 7.4531 1.74931 7.45103 1.74883 7.45283C1.73814 7.49609 1.77563 7.5002 1.76835 7.45493ZM13.2119 7.57594C13.2013 7.54953 13.1689 7.5793 13.1821 7.61213C13.1928 7.63854 13.2252 7.60878 13.2119 7.57594ZM8.5653 7.46921C8.56496 7.46716 8.55153 7.46511 8.55162 7.47663C8.55194 7.51374 8.57084 7.50357 8.5653 7.46921ZM13.7428 7.5822C13.6645 7.57365 13.6195 7.41275 13.7046 7.43218C13.72 7.4357 13.6705 7.48272 13.6899 7.49747C13.7255 7.52435 13.751 7.42418 13.7869 7.47865C13.7934 7.48862 13.7473 7.58304 13.7426 7.58242C13.7427 7.58235 13.7427 7.58227 13.7428 7.5822ZM9.76331 7.47007C9.76287 7.46826 9.74427 7.46624 9.74379 7.46803C9.73301 7.51127 9.77049 7.51535 9.76331 7.47007ZM7.78125 7.37211C7.78028 7.36824 7.7371 7.36394 7.73563 7.36747C7.71194 7.43808 7.79924 7.44698 7.78125 7.37211ZM11.0198 7.39011C11.0408 7.34677 11.0652 7.34202 11.0805 7.39711C11.0604 7.39388 11.04 7.39312 11.0198 7.39011Z" fill="#66033C"/>
</svg>
