<svg width="24" height="24" viewBox="0 0 24 24" fill="none" xmlns="http://www.w3.org/2000/svg">
<path d="M3.4729 11.8377C3.51424 11.8168 3.55559 11.7971 3.5959 11.7783C4.29655 11.4516 5.00651 11.1456 5.71543 10.8397C5.75367 10.8397 5.81773 10.795 5.8539 10.7804C5.90867 10.7565 5.96345 10.7336 6.01822 10.7096L6.33342 10.5733C6.54423 10.4828 6.754 10.3922 6.96482 10.3017C7.38542 10.1206 7.80602 9.93956 8.22662 9.75746C9.06782 9.39532 9.91007 9.03214 10.7513 8.67001C11.5925 8.30787 12.4347 7.94469 13.2759 7.58256C14.1171 7.22042 14.9593 6.85724 15.8005 6.49511C16.6417 6.13297 17.484 5.76979 18.3252 5.40766C18.5122 5.32649 18.7148 5.20578 18.9153 5.1704C19.0837 5.14022 19.248 5.08194 19.4175 5.04968C19.7389 4.98829 20.0933 4.96331 20.4013 5.09755C20.5077 5.14438 20.6059 5.20994 20.6876 5.29215C21.0782 5.68134 21.0234 6.32028 20.9407 6.86765C20.3651 10.6826 19.7895 14.4985 19.2129 18.3134C19.1343 18.8369 19.0269 19.4113 18.6166 19.7422C18.2694 20.0221 17.7754 20.0534 17.3465 19.9347C16.9176 19.8151 16.5394 19.5643 16.1684 19.3176C14.6297 18.2916 13.0899 17.2655 11.5511 16.2395C11.1853 15.996 10.7781 15.6776 10.7823 15.2353C10.7843 14.9689 10.9424 14.7316 11.1037 14.5204C12.4409 12.7638 14.3703 11.5567 15.8057 9.88129C16.0083 9.64507 16.1674 9.21841 15.8894 9.08209C15.7241 9.00092 15.5339 9.11123 15.383 9.21633C13.4857 10.5431 11.5894 11.871 9.69202 13.1978C9.073 13.6306 8.42402 14.076 7.67789 14.1822C7.0103 14.2779 6.33859 14.0906 5.6927 13.8991C5.15119 13.7389 4.6107 13.5745 4.07229 13.4048C3.78603 13.3153 3.49047 13.2186 3.26932 13.0156C3.04817 12.8127 2.92108 12.4714 3.05439 12.2008C3.13809 12.0312 3.30034 11.924 3.47086 11.8366L3.4729 11.8377Z" fill="#FFF0E1"/>
</svg>
