<svg width="24" height="24" viewBox="0 0 24 24" fill="none" xmlns="http://www.w3.org/2000/svg">
<path d="M16.9949 3H7.00509C4.24522 3 2 5.2277 2 7.96604V17.034C2 19.7723 4.24522 22 7.00509 22H16.9949C19.7548 22 22 19.7723 22 17.034V7.96604C22 5.2277 19.7548 3 16.9949 3ZM3.76564 7.96604C3.76564 6.19398 5.21909 4.75186 7.00509 4.75186H16.9949C18.7809 4.75186 20.2344 6.19398 20.2344 7.96604V17.034C20.2344 18.806 18.7809 20.2481 16.9949 20.2481H7.00509C5.21909 20.2481 3.76564 18.806 3.76564 17.034V7.96604Z" fill="#FFF0E1"/>
<path d="M12 17.1181C14.5665 17.1181 16.6556 15.0464 16.6556 12.4989C16.6556 9.95132 14.5676 7.87962 12 7.87962C9.43244 7.87962 7.34444 9.95132 7.34444 12.4989C7.34444 15.0464 9.43244 17.1181 12 17.1181ZM12 9.6326C13.5937 9.6326 14.89 10.9187 14.89 12.5C14.89 14.0813 13.5937 15.3674 12 15.3674C10.4063 15.3674 9.11008 14.0813 9.11008 12.5C9.11008 10.9187 10.4063 9.6326 12 9.6326Z" fill="#FFF0E1"/>
<path d="M17.0866 8.62593C17.7777 8.62593 18.3409 8.06816 18.3409 7.38133C18.3409 6.6945 17.7788 6.13673 17.0866 6.13673C16.3943 6.13673 15.8322 6.6945 15.8322 7.38133C15.8322 8.06816 16.3943 8.62593 17.0866 8.62593Z" fill="#FFF0E1"/>
</svg>
