<svg width="18" height="15" viewBox="0 0 18 15" fill="none" xmlns="http://www.w3.org/2000/svg">
<path d="M0.4729 6.83766C0.514237 6.81685 0.555593 6.79707 0.595896 6.77834C1.29655 6.45159 2.00651 6.14564 2.71543 5.8397C2.75367 5.8397 2.81773 5.79496 2.8539 5.78039C2.90867 5.75645 2.96345 5.73356 3.01822 5.70962L3.33342 5.5733C3.54423 5.48277 3.754 5.39223 3.96482 5.3017C4.38542 5.12063 4.80602 4.93956 5.22662 4.75746C6.06782 4.39532 6.91007 4.03214 7.75127 3.67001C8.59247 3.30787 9.4347 2.94469 10.2759 2.58256C11.1171 2.22042 11.9593 1.85724 12.8005 1.49511C13.6417 1.13297 14.484 0.769793 15.3252 0.407657C15.5122 0.326489 15.7148 0.205777 15.9153 0.170396C16.0837 0.140218 16.248 0.0819432 16.4175 0.0496839C16.7389 -0.0117128 17.0933 -0.0366878 17.4013 0.0975524C17.5077 0.14438 17.6059 0.209939 17.6876 0.292148C18.0782 0.681341 18.0234 1.32028 17.9407 1.86765C17.3651 5.68257 16.7895 9.49853 16.2129 13.3134C16.1343 13.8369 16.0269 14.4113 15.6166 14.7422C15.2694 15.0221 14.7754 15.0534 14.3465 14.9347C13.9176 14.8151 13.5394 14.5643 13.1684 14.3176C11.6297 13.2916 10.0899 12.2655 8.55113 11.2395C8.1853 10.996 7.77814 10.6776 7.78228 10.2353C7.78435 9.96889 7.94244 9.73163 8.10366 9.52038C9.4409 7.76381 11.3703 6.55669 12.8057 4.88129C13.0083 4.64507 13.1674 4.21841 12.8894 4.08209C12.7241 4.00092 12.5339 4.11123 12.383 4.21633C10.4857 5.54313 8.58937 6.87096 6.69202 8.19775C6.073 8.63065 5.42402 9.07604 4.67789 9.18218C4.0103 9.27792 3.33859 9.0906 2.6927 8.89913C2.15119 8.73887 1.6107 8.57446 1.07229 8.40483C0.78603 8.31534 0.490471 8.21856 0.26932 8.01564C0.048169 7.81272 -0.0789241 7.4714 0.0543866 7.20083C0.138093 7.03121 0.300343 6.92403 0.470856 6.83662L0.4729 6.83766Z" fill="#66033C"/>
</svg>
