<svg width="105" height="50" viewBox="0 0 105 50" fill="none" xmlns="http://www.w3.org/2000/svg">
<path d="M104.309 31.516C104.057 31.2642 103.755 31.1131 103.411 31.1131C103.109 31.1131 102.706 31.2138 102.353 31.4152C101.951 31.6167 101.598 31.9188 101.204 32.3721C100.146 33.5303 99.0466 34.5962 97.8967 35.553C96.7469 36.4595 95.5383 37.2652 94.3381 37.8779C93.1379 38.5326 91.8789 39.0361 90.6283 39.3887C89.3778 39.7412 88.1692 39.8922 86.9186 39.8922C86.1129 39.8922 85.4162 39.7915 84.8623 39.4894C84.258 39.2376 83.8132 38.9354 83.4103 38.5326C83.0578 38.1297 82.7556 37.6765 82.6046 37.2736C82.4031 36.8204 82.3024 36.3671 82.3024 35.9643C82.3024 35.9643 82.4031 35.8636 82.6046 35.7125C82.806 35.5614 82.9571 35.5111 83.0578 35.4607C85.0637 34.2521 86.8682 33.0351 88.5217 31.8769C90.1751 30.7186 91.6271 29.5016 92.7853 28.293C93.9855 27.0844 94.892 25.8171 95.5467 24.5077C96.2013 23.1481 96.5454 21.7296 96.5454 20.1685C96.5454 19.5642 96.3944 18.8592 96.0922 18.2046C95.8404 17.5499 95.4375 16.9456 94.9424 16.3917C94.4388 15.8881 93.7925 15.4348 93.0875 15.0823C92.3321 14.7802 91.4844 14.5787 90.578 14.5787C89.4281 14.5787 88.3202 14.7298 87.3214 15.0823C86.373 15.3845 85.4666 15.8377 84.6189 16.3413C83.8131 16.8449 83.0662 17.3988 82.3612 18.0535C81.7065 18.7081 81.1106 19.3124 80.5566 19.9671C79.7509 20.9743 79.0039 22.0402 78.3493 23.1481C77.745 24.3063 77.1994 25.473 76.7462 26.6816C76.3433 27.8902 75.9908 29.1071 75.7894 30.3157C75.588 31.3229 75.4872 32.2294 75.4872 33.1946C75.2858 33.3456 75.1347 33.4967 74.9333 33.5974C73.9345 34.4032 72.877 35.0578 71.8279 35.5614C70.8291 36.1154 69.8219 36.5182 68.8735 36.8707C67.8663 37.2232 66.9683 37.4247 66.1122 37.5757C65.2561 37.7268 64.5091 37.8275 63.8041 37.8275C63.0991 37.8275 62.5535 37.5757 62.1507 37.1225C61.7478 36.6693 61.4456 36.1154 61.1938 35.4607C60.9924 34.806 60.8413 34.1514 60.791 33.4464C60.7406 32.7413 60.6903 32.1874 60.6903 31.6838C60.6903 31.0292 60.7406 30.3745 60.8413 29.6695C60.8413 28.9141 60.9924 28.2091 61.0931 27.546C61.1938 26.841 61.2946 26.1864 61.3449 25.5821C61.4456 24.9778 61.496 24.5245 61.496 24.1217C61.496 22.762 61.2442 21.6457 60.791 20.7896C60.3377 19.8832 59.7418 19.4803 58.9865 19.4803C57.9373 19.4803 56.9302 19.7321 55.9314 20.2357C54.9242 20.7896 53.9758 21.4443 53.0778 22.1997C52.1209 22.955 51.3236 23.8111 50.5179 24.726C49.7625 25.6828 49.0659 26.4885 48.5119 27.3026C48.3608 27.5544 48.0587 27.9573 47.6558 28.5112C47.3033 29.0652 46.8501 29.7198 46.3549 30.4752C45.9017 31.2306 45.3561 31.986 44.8022 32.8505C44.2482 33.7065 43.6943 34.4619 43.1488 35.2761C42.6452 36.0314 42.15 36.7364 41.6968 37.3995C41.2939 38.0038 40.9414 38.5074 40.698 38.8599C40.7987 37.6513 41.0001 36.2329 41.2519 34.5207C41.4534 32.8085 41.7555 30.9872 42.108 28.9729C42.4102 26.9585 42.813 24.8351 43.2075 22.6109C43.6607 20.3867 44.1056 18.171 44.5588 15.9468C44.6595 15.3929 44.8106 14.7886 44.9617 14.0332C45.0624 13.3282 45.2134 12.5728 45.3645 11.7587C45.5156 11.0033 45.6667 10.1976 45.7674 9.38345C45.9185 8.57771 46.0192 7.87269 46.1199 7.15928C46.271 6.45427 46.3213 5.84996 46.3717 5.29602C46.4724 4.79244 46.4724 4.38957 46.4724 4.08742C46.4724 2.82846 46.2206 1.86326 45.717 1.10788C45.2638 0.402867 44.5672 0 43.6607 0C43.3586 0 42.9557 2.50133e-07 42.5612 0.151075C42.1584 0.302151 41.8059 0.402866 41.4114 0.654658C41.0085 0.90645 40.656 1.25896 40.3539 1.71218C40.0517 2.16541 39.7999 2.76971 39.6488 3.47473C39.3467 6.6557 38.9438 9.73595 38.499 12.6064C38.4486 13.0092 38.3479 13.4625 38.2976 13.8653H38.0961C37.6933 13.9661 37.2904 14.1675 36.8456 14.3689C36.342 14.5704 35.8384 14.8221 35.2928 15.1243C34.7389 15.4264 34.0926 15.7286 33.3876 16.0308C32.8337 16.2825 32.137 16.5343 31.3817 16.7358C30.5759 16.9876 29.7786 17.189 28.9729 17.3904C28.1168 17.5415 27.2691 17.7429 26.413 17.894C25.5653 18.0451 24.7595 18.1458 24.0042 18.2969C23.1984 18.3976 22.5018 18.4983 21.8975 18.5487C21.2932 18.6494 20.798 18.6997 20.3951 18.7501C20.3951 18.6997 20.3448 18.6997 20.2944 18.6494C20.2441 18.599 20.2441 18.5487 20.1937 18.448C20.1434 18.3472 20.1434 18.2969 20.1434 18.1962C20.1434 18.0451 20.1434 17.894 20.1937 17.7429C20.2441 17.5415 20.2944 17.2394 20.3448 16.7861C20.4455 16.3833 20.5462 15.779 20.7477 14.9732C20.8987 14.2178 21.1002 13.1603 21.4023 11.8426C21.4527 11.6412 21.503 11.339 21.5534 10.9362C21.6541 10.4829 21.7548 10.0297 21.8555 9.47577C21.9563 8.92183 22.057 8.36789 22.1577 7.76359C22.2584 7.15928 22.3591 6.60534 22.4598 6.10176C22.5102 5.59817 22.6109 5.14495 22.6613 4.79244C22.7116 4.38957 22.762 4.18814 22.762 4.08742C22.762 3.93635 22.6613 3.68455 22.4598 3.33204C22.2584 3.02989 22.057 2.72774 21.7045 2.37524C21.4023 2.07309 21.0498 1.82129 20.6553 1.5695C20.2525 1.36807 19.7992 1.21699 19.3544 1.21699C19.153 1.21699 18.9012 1.31771 18.4983 1.51914C18.1458 1.72058 17.7429 1.97237 17.3988 2.27452C17.0463 2.57667 16.6938 2.87882 16.4 3.28169C16.1483 3.6342 15.9972 3.9867 15.9468 4.28885C15.9468 4.54065 15.8965 4.94351 15.8461 5.49746C15.7454 6.0514 15.6447 6.6557 15.544 7.36071C15.4432 8.06573 15.2922 8.82111 15.1914 9.63524C15.0404 10.3906 14.9397 11.1963 14.7886 11.9098C14.6375 12.6651 14.5368 13.3198 14.3857 13.9828C14.285 14.5871 14.1843 15.0907 14.0836 15.4432C13.8318 16.6518 13.6303 17.5667 13.4289 18.171C13.2778 18.8256 13.0764 19.1782 12.875 19.2285C12.7239 19.2789 12.4217 19.3796 11.9769 19.4299C11.5237 19.4803 10.9781 19.5307 10.3738 19.581C9.71917 19.581 9.0729 19.6314 8.36789 19.6817C7.71323 19.7321 7.0166 19.7825 6.36194 19.7825C5.70728 19.8328 5.16174 19.8328 4.60779 19.8832H3.40759C3.00472 19.8832 2.60185 19.9335 2.20738 20.0846C1.80451 20.1853 1.452 20.3868 1.10788 20.5882C0.805734 20.84 0.503584 21.1925 0.302151 21.545C0.100717 21.8975 0 22.3507 0 22.9047C0 23.1565 0.100717 23.4586 0.302151 23.8615C0.503584 24.214 0.805734 24.5665 1.10788 24.919C1.46039 25.2715 1.86326 25.5737 2.25774 25.8255C2.6606 26.0772 3.11383 26.178 3.55866 26.178H4.31404C4.7169 26.178 5.17013 26.1276 5.66532 26.1276C6.1689 26.0772 6.71445 26.0269 7.31875 25.9765C7.92305 25.9262 8.4686 25.9262 8.97219 25.8758C9.52613 25.8255 9.97096 25.8255 10.3235 25.7751H11.1208C11.1208 25.7751 11.4733 25.7751 11.6748 25.8758C11.8762 25.8758 11.9769 26.0269 11.9769 26.2283C11.8762 27.0341 11.7755 27.7391 11.6748 28.4021C11.574 29.0568 11.4733 29.7114 11.3726 30.3157C11.2719 30.8697 11.1712 31.474 11.0201 32.0279C10.9194 32.6322 10.8187 33.1862 10.6676 33.8408C10.3151 35.553 10.0129 37.3743 9.71078 39.1369C9.45898 40.9498 9.30791 42.7711 9.30791 44.5336C9.30791 44.6847 9.35827 44.9868 9.45899 45.4401C9.45899 45.8429 9.71078 46.2961 9.96257 46.7494C10.2144 47.2026 10.5669 47.6055 11.0201 47.958C11.423 48.3105 12.0189 48.4616 12.7239 48.4616C12.875 48.4616 13.1771 48.3608 13.5716 48.2098C13.9745 48.0587 14.3773 47.8573 14.7718 47.6055C15.1747 47.3537 15.5272 47.1522 15.8209 46.9004C16.1231 46.6487 16.3245 46.4472 16.3245 46.2961V45.0875C16.3749 44.8358 16.3749 44.4329 16.3749 44.03V42.3682C16.3749 41.6632 16.3749 40.9582 16.4252 40.2447C16.5259 39.5901 16.5763 38.8851 16.677 38.1717C16.8281 37.4666 16.9288 36.6609 17.0295 35.8468C17.1806 34.9907 17.3317 34.0339 17.4324 32.968C17.4828 32.7162 17.5331 32.3133 17.6338 31.7594C17.6842 31.2558 17.7849 30.6515 17.8353 29.9968C17.936 29.3422 18.0367 28.6875 18.1374 28.0328C18.2381 27.3278 18.2885 26.7739 18.3892 26.2703C18.4396 25.8674 18.5403 25.5653 18.6914 25.3638C18.8424 25.2128 19.0942 25.0617 19.4467 25.0617C21.0498 24.8603 22.6025 24.6588 24.0126 24.407C25.4142 24.2056 26.7235 23.9034 27.9237 23.6013C29.1239 23.2991 30.2822 22.8963 31.3817 22.4934C32.4812 22.0905 33.5387 21.6877 34.5878 21.1841C35.3936 20.8316 36.1405 20.3784 36.8456 19.8748C36.9966 19.7237 37.1981 19.623 37.3491 19.4216C37.3491 19.9755 37.1981 20.5294 37.0973 21.0834C36.493 24.6672 35.9475 28.1 35.4943 31.2726C35.041 34.5039 34.7893 37.5338 34.7893 40.4042V41.8142C34.7893 42.4689 34.7893 43.1739 34.89 43.9377C34.9403 44.7434 35.041 45.5492 35.1418 46.3633C35.2425 47.2194 35.4439 47.9748 35.595 48.7385C35.7964 48.8896 35.9475 49.0407 36.0482 49.1414C36.1993 49.2421 36.3 49.2925 36.5014 49.3428C36.6525 49.3932 36.854 49.3932 37.1561 49.4435H38.2556C38.8599 49.4435 39.5565 49.0407 40.3623 48.2349C41.2183 47.4292 42.066 46.422 42.9725 45.1547C43.8789 43.8957 44.8274 42.5277 45.7338 41.0673C46.6319 39.5565 47.488 38.1381 48.2937 36.7784C49.5946 34.5542 50.8032 32.6406 51.9531 31.0292C53.0526 29.4177 54.0094 28.2007 54.7648 27.395C54.9158 27.395 55.0165 27.4957 55.0669 27.6971V28.2511C55.0669 28.2511 55.0669 28.7043 55.0165 29.1575C54.9662 29.6107 54.9158 30.1647 54.8655 30.7186L54.7144 32.5315C54.664 33.1358 54.664 33.6394 54.664 34.0926C54.664 35.3516 54.7648 36.5686 55.0165 37.7268C55.2683 38.8851 55.7216 39.951 56.3678 40.8574C56.9721 41.7639 57.8198 42.4689 58.8774 43.0312C59.9349 43.5852 61.2358 43.8873 62.7885 43.8873C63.888 43.8873 64.9959 43.6859 66.1961 43.3837C67.3963 43.0312 68.6553 42.578 69.8555 41.9234C71.106 41.3191 72.365 40.5637 73.6156 39.6488C74.3709 39.0949 75.1179 38.541 75.8733 37.8863C75.8733 38.3395 76.0244 38.7927 76.1251 39.1956C76.5783 40.7064 77.275 41.9737 78.1814 42.9809C79.0291 43.9881 80.137 44.7434 81.4379 45.3058C82.6885 45.8093 84.1405 46.0611 85.8023 46.0611C87.1536 46.0611 88.5133 45.8597 89.9149 45.5072C91.3166 45.1043 92.7182 44.6007 94.0779 43.8957C95.4292 43.2411 96.7888 42.4353 98.0394 41.4701C99.29 40.5133 100.448 39.5062 101.497 38.4402C102.454 37.4331 103.251 36.4763 103.805 35.5614C104.359 34.6046 104.653 33.7989 104.653 33.0351C104.653 32.3301 104.502 31.8265 104.301 31.5243H104.351L104.309 31.516ZM83.0997 27.2775C83.553 26.0185 84.0482 24.8015 84.6525 23.744C85.2568 22.6865 85.903 21.8304 86.6584 21.1169C87.4138 20.4623 88.2111 20.1098 89.0672 20.1098C89.1176 20.1098 89.2686 20.1601 89.3694 20.2105C89.5204 20.2609 89.6715 20.3112 89.8226 20.4623C89.9737 20.563 90.1247 20.7141 90.2254 20.9155C90.3765 21.1169 90.4269 21.4191 90.4269 21.7212C90.4269 22.527 90.1751 23.3327 89.7219 24.0461C89.319 24.8015 88.7231 25.5065 87.9677 26.2703C87.2123 26.9753 86.3143 27.7307 85.3071 28.4945C84.2496 29.2498 83.2005 30.1059 82.0003 31.0208C82.3024 29.8122 82.6549 28.5448 83.1081 27.2859L83.0997 27.2775Z" fill="#FFF0E1"/>
</svg>
