<svg width="634" height="38" viewBox="0 0 634 38" fill="none" xmlns="http://www.w3.org/2000/svg">
<path d="M14.31 16.38H9.03V30H5.88V16.38H0.63V13.83H14.31V16.38ZM31.4177 21.9C31.4177 23.24 31.2377 24.43 30.8777 25.47C30.5177 26.51 30.0077 27.39 29.3477 28.11C28.6877 28.83 27.8877 29.38 26.9477 29.76C26.0077 30.12 24.9477 30.3 23.7677 30.3C22.6877 30.3 21.6877 30.12 20.7677 29.76C19.8477 29.38 19.0477 28.83 18.3677 28.11C17.7077 27.39 17.1877 26.51 16.8077 25.47C16.4277 24.43 16.2377 23.23 16.2377 21.87C16.2377 20.09 16.5377 18.58 17.1377 17.34C17.7577 16.1 18.6377 15.16 19.7777 14.52C20.9377 13.86 22.2977 13.53 23.8577 13.53C25.3377 13.53 26.6377 13.86 27.7577 14.52C28.8977 15.16 29.7877 16.1 30.4277 17.34C31.0877 18.58 31.4177 20.1 31.4177 21.9ZM19.5077 21.9C19.5077 23.1 19.6577 24.14 19.9577 25.02C20.2577 25.88 20.7277 26.54 21.3677 27C22.0077 27.46 22.8277 27.69 23.8277 27.69C24.8277 27.69 25.6477 27.46 26.2877 27C26.9277 26.54 27.3977 25.88 27.6977 25.02C27.9977 24.14 28.1477 23.1 28.1477 21.9C28.1477 20.66 27.9877 19.62 27.6677 18.78C27.3677 17.94 26.8977 17.3 26.2577 16.86C25.6377 16.4 24.8177 16.17 23.7977 16.17C22.2977 16.17 21.2077 16.67 20.5277 17.67C19.8477 18.67 19.5077 20.08 19.5077 21.9ZM55.7048 21.9C55.7048 23.24 55.5248 24.43 55.1648 25.47C54.8048 26.51 54.2948 27.39 53.6348 28.11C52.9748 28.83 52.1748 29.38 51.2348 29.76C50.2948 30.12 49.2348 30.3 48.0548 30.3C46.9748 30.3 45.9748 30.12 45.0548 29.76C44.1348 29.38 43.3348 28.83 42.6548 28.11C41.9948 27.39 41.4748 26.51 41.0948 25.47C40.7148 24.43 40.5248 23.23 40.5248 21.87C40.5248 20.09 40.8248 18.58 41.4248 17.34C42.0448 16.1 42.9248 15.16 44.0648 14.52C45.2248 13.86 46.5848 13.53 48.1448 13.53C49.6248 13.53 50.9248 13.86 52.0448 14.52C53.1848 15.16 54.0748 16.1 54.7148 17.34C55.3748 18.58 55.7048 20.1 55.7048 21.9ZM43.7948 21.9C43.7948 23.1 43.9448 24.14 44.2448 25.02C44.5448 25.88 45.0148 26.54 45.6548 27C46.2948 27.46 47.1148 27.69 48.1148 27.69C49.1148 27.69 49.9348 27.46 50.5748 27C51.2148 26.54 51.6848 25.88 51.9848 25.02C52.2848 24.14 52.4348 23.1 52.4348 21.9C52.4348 20.66 52.2748 19.62 51.9548 18.78C51.6548 17.94 51.1848 17.3 50.5448 16.86C49.9248 16.4 49.1048 16.17 48.0848 16.17C46.5848 16.17 45.4948 16.67 44.8148 17.67C44.1348 18.67 43.7948 20.08 43.7948 21.9ZM66.2461 30.3C64.7661 30.3 63.4661 30.01 62.3461 29.43C61.2261 28.85 60.3561 27.95 59.7361 26.73C59.1161 25.49 58.8061 23.92 58.8061 22.02C58.8061 20.02 59.1361 18.4 59.7961 17.16C60.4761 15.92 61.3861 15.01 62.5261 14.43C63.6861 13.83 65.0061 13.53 66.4861 13.53C67.3861 13.53 68.2261 13.63 69.0061 13.83C69.8061 14.01 70.4661 14.22 70.9861 14.46L70.0261 17.04C69.4661 16.82 68.8661 16.63 68.2261 16.47C67.6061 16.31 67.0161 16.23 66.4561 16.23C65.4561 16.23 64.6261 16.45 63.9661 16.89C63.3261 17.31 62.8461 17.95 62.5261 18.81C62.2261 19.65 62.0761 20.71 62.0761 21.99C62.0761 23.21 62.2361 24.24 62.5561 25.08C62.8761 25.92 63.3461 26.56 63.9661 27C64.6061 27.42 65.3961 27.63 66.3361 27.63C67.2361 27.63 68.0261 27.53 68.7061 27.33C69.3861 27.13 70.0261 26.87 70.6261 26.55V29.31C70.0461 29.65 69.4161 29.9 68.7361 30.06C68.0561 30.22 67.2261 30.3 66.2461 30.3ZM81.9131 20.34C83.3931 20.34 84.6131 20.52 85.5731 20.88C86.5531 21.22 87.2831 21.73 87.7631 22.41C88.2631 23.09 88.5131 23.95 88.5131 24.99C88.5131 26.01 88.2831 26.9 87.8231 27.66C87.3631 28.4 86.6431 28.98 85.6631 29.4C84.6831 29.8 83.4231 30 81.8831 30H74.4431V13.83H77.6231V20.34H81.9131ZM85.3331 25.11C85.3331 24.23 85.0131 23.63 84.3731 23.31C83.7531 22.97 82.8531 22.8 81.6731 22.8H77.6231V27.6H81.7331C82.7931 27.6 83.6531 27.41 84.3131 27.03C84.9931 26.65 85.3331 26.01 85.3331 25.11ZM347.858 13.83V20.4H355.838V13.83H359.018V30H355.838V22.95H347.858V30H344.678V13.83H347.858ZM370.254 13.53C372.294 13.53 373.814 13.98 374.814 14.88C375.814 15.76 376.314 17.15 376.314 19.05V30H374.064L373.434 27.75H373.314C372.854 28.33 372.374 28.81 371.874 29.19C371.394 29.57 370.834 29.85 370.194 30.03C369.574 30.21 368.814 30.3 367.914 30.3C366.954 30.3 366.084 30.13 365.304 29.79C364.544 29.43 363.944 28.89 363.504 28.17C363.064 27.43 362.844 26.51 362.844 25.41C362.844 23.77 363.464 22.52 364.704 21.66C365.964 20.8 367.874 20.33 370.434 20.25L373.194 20.16V19.26C373.194 18.06 372.924 17.22 372.384 16.74C371.844 16.26 371.084 16.02 370.104 16.02C369.264 16.02 368.464 16.14 367.704 16.38C366.944 16.62 366.224 16.91 365.544 17.25L364.524 14.94C365.284 14.54 366.154 14.21 367.134 13.95C368.134 13.67 369.174 13.53 370.254 13.53ZM371.004 22.29C369.164 22.37 367.884 22.68 367.164 23.22C366.464 23.74 366.114 24.48 366.114 25.44C366.114 26.28 366.364 26.89 366.864 27.27C367.384 27.65 368.034 27.84 368.814 27.84C370.074 27.84 371.114 27.49 371.934 26.79C372.754 26.09 373.164 25.04 373.164 23.64V22.23L371.004 22.29ZM390.397 13.83V20.4H398.377V13.83H401.557V30H398.377V22.95H390.397V30H387.217V13.83H390.397ZM412.793 13.53C414.833 13.53 416.353 13.98 417.353 14.88C418.353 15.76 418.853 17.15 418.853 19.05V30H416.603L415.973 27.75H415.853C415.393 28.33 414.913 28.81 414.413 29.19C413.933 29.57 413.373 29.85 412.733 30.03C412.113 30.21 411.353 30.3 410.453 30.3C409.493 30.3 408.623 30.13 407.843 29.79C407.083 29.43 406.483 28.89 406.043 28.17C405.603 27.43 405.383 26.51 405.383 25.41C405.383 23.77 406.003 22.52 407.243 21.66C408.503 20.8 410.413 20.33 412.973 20.25L415.733 20.16V19.26C415.733 18.06 415.463 17.22 414.923 16.74C414.383 16.26 413.623 16.02 412.643 16.02C411.803 16.02 411.003 16.14 410.243 16.38C409.483 16.62 408.763 16.91 408.083 17.25L407.063 14.94C407.823 14.54 408.693 14.21 409.673 13.95C410.673 13.67 411.713 13.53 412.793 13.53ZM413.543 22.29C411.703 22.37 410.423 22.68 409.703 23.22C409.003 23.74 408.653 24.48 408.653 25.44C408.653 26.28 408.903 26.89 409.403 27.27C409.923 27.65 410.573 27.84 411.353 27.84C412.613 27.84 413.653 27.49 414.473 26.79C415.293 26.09 415.703 25.04 415.703 23.64V22.23L413.543 22.29ZM437.55 7.05C437.47 8.07 437.21 8.94 436.77 9.66C436.35 10.36 435.7 10.9 434.82 11.28C433.96 11.64 432.83 11.82 431.43 11.82C429.99 11.82 428.84 11.64 427.98 11.28C427.14 10.9 426.53 10.36 426.15 9.66C425.77 8.96 425.54 8.09 425.46 7.05H428.37C428.47 8.15 428.75 8.88 429.21 9.24C429.69 9.6 430.45 9.78 431.49 9.78C432.39 9.78 433.11 9.59 433.65 9.21C434.19 8.81 434.51 8.09 434.61 7.05H437.55ZM426.78 22.65C426.78 22.89 426.77 23.2 426.75 23.58C426.73 23.96 426.71 24.36 426.69 24.78C426.67 25.18 426.64 25.56 426.6 25.92C426.58 26.26 426.56 26.53 426.54 26.73L434.85 13.83H438.72V30H435.72V21.39C435.72 21.01 435.73 20.54 435.75 19.98C435.77 19.42 435.79 18.88 435.81 18.36C435.85 17.82 435.88 17.41 435.9 17.13L427.65 30H423.75V13.83H426.78V22.65ZM446.52 19.74C446.52 20.6 446.76 21.24 447.24 21.66C447.72 22.08 448.4 22.29 449.28 22.29C450.24 22.29 451.12 22.16 451.92 21.9C452.72 21.62 453.53 21.25 454.35 20.79V13.83H457.53V30H454.35V23.01C453.51 23.55 452.65 23.98 451.77 24.3C450.89 24.62 449.85 24.78 448.65 24.78C446.99 24.78 445.69 24.35 444.75 23.49C443.81 22.61 443.34 21.41 443.34 19.89V13.83H446.52V19.74ZM468.78 13.53C470.82 13.53 472.34 13.98 473.34 14.88C474.34 15.76 474.84 17.15 474.84 19.05V30H472.59L471.96 27.75H471.84C471.38 28.33 470.9 28.81 470.4 29.19C469.92 29.57 469.36 29.85 468.72 30.03C468.1 30.21 467.34 30.3 466.44 30.3C465.48 30.3 464.61 30.13 463.83 29.79C463.07 29.43 462.47 28.89 462.03 28.17C461.59 27.43 461.37 26.51 461.37 25.41C461.37 23.77 461.99 22.52 463.23 21.66C464.49 20.8 466.4 20.33 468.96 20.25L471.72 20.16V19.26C471.72 18.06 471.45 17.22 470.91 16.74C470.37 16.26 469.61 16.02 468.63 16.02C467.79 16.02 466.99 16.14 466.23 16.38C465.47 16.62 464.75 16.91 464.07 17.25L463.05 14.94C463.81 14.54 464.68 14.21 465.66 13.95C466.66 13.67 467.7 13.53 468.78 13.53ZM469.53 22.29C467.69 22.37 466.41 22.68 465.69 23.22C464.99 23.74 464.64 24.48 464.64 25.44C464.64 26.28 464.89 26.89 465.39 27.27C465.91 27.65 466.56 27.84 467.34 27.84C468.6 27.84 469.64 27.49 470.46 26.79C471.28 26.09 471.69 25.04 471.69 23.64V22.23L469.53 22.29ZM486.246 30.3C484.766 30.3 483.466 30.01 482.346 29.43C481.226 28.85 480.356 27.95 479.736 26.73C479.116 25.49 478.806 23.92 478.806 22.02C478.806 20.02 479.136 18.4 479.796 17.16C480.476 15.92 481.386 15.01 482.526 14.43C483.686 13.83 485.006 13.53 486.486 13.53C487.386 13.53 488.226 13.63 489.006 13.83C489.806 14.01 490.466 14.22 490.986 14.46L490.026 17.04C489.466 16.82 488.866 16.63 488.226 16.47C487.606 16.31 487.016 16.23 486.456 16.23C485.456 16.23 484.626 16.45 483.966 16.89C483.326 17.31 482.846 17.95 482.526 18.81C482.226 19.65 482.076 20.71 482.076 21.99C482.076 23.21 482.236 24.24 482.556 25.08C482.876 25.92 483.346 26.56 483.966 27C484.606 27.42 485.396 27.63 486.336 27.63C487.236 27.63 488.026 27.53 488.706 27.33C489.386 27.13 490.026 26.87 490.626 26.55V29.31C490.046 29.65 489.416 29.9 488.736 30.06C488.056 30.22 487.226 30.3 486.246 30.3ZM506.263 16.38H500.983V30H497.833V16.38H492.583V13.83H506.263V16.38ZM512.594 13.83V30H509.414V13.83H512.594ZM511.034 7.68C511.514 7.68 511.934 7.82 512.294 8.1C512.654 8.38 512.834 8.85 512.834 9.51C512.834 10.15 512.654 10.62 512.294 10.92C511.934 11.2 511.514 11.34 511.034 11.34C510.514 11.34 510.074 11.2 509.714 10.92C509.374 10.62 509.204 10.15 509.204 9.51C509.204 8.85 509.374 8.38 509.714 8.1C510.074 7.82 510.514 7.68 511.034 7.68ZM540.148 13.83V30H517.588V13.83H520.768V27.45H527.278V13.83H530.458V27.45H536.968V13.83H540.148ZM548.336 13.83V30H545.156V13.83H548.336ZM546.776 7.68C547.256 7.68 547.676 7.82 548.036 8.1C548.396 8.38 548.576 8.85 548.576 9.51C548.576 10.15 548.396 10.62 548.036 10.92C547.676 11.2 547.256 11.34 546.776 11.34C546.256 11.34 545.816 11.2 545.456 10.92C545.116 10.62 544.946 10.15 544.946 9.51C544.946 8.85 545.116 8.38 545.456 8.1C545.816 7.82 546.256 7.68 546.776 7.68ZM564.076 13.53C565.276 13.53 566.346 13.69 567.286 14.01C568.226 14.33 568.966 14.81 569.506 15.45C570.046 16.09 570.316 16.87 570.316 17.79C570.316 18.77 570.036 19.55 569.476 20.13C568.936 20.71 568.186 21.13 567.226 21.39V21.51C567.886 21.69 568.486 21.94 569.026 22.26C569.566 22.56 569.996 22.97 570.316 23.49C570.656 23.99 570.826 24.65 570.826 25.47C570.826 26.35 570.566 27.16 570.046 27.9C569.546 28.64 568.766 29.23 567.706 29.67C566.646 30.09 565.276 30.3 563.596 30.3C562.816 30.3 562.066 30.26 561.346 30.18C560.626 30.1 559.976 29.98 559.396 29.82C558.816 29.66 558.306 29.47 557.866 29.25V26.49C558.546 26.81 559.356 27.1 560.296 27.36C561.256 27.62 562.296 27.75 563.416 27.75C564.216 27.75 564.936 27.67 565.576 27.51C566.236 27.35 566.756 27.09 567.136 26.73C567.516 26.37 567.706 25.89 567.706 25.29C567.706 24.71 567.536 24.24 567.196 23.88C566.856 23.52 566.346 23.25 565.666 23.07C565.006 22.89 564.156 22.8 563.116 22.8H561.076V20.37H562.786C564.186 20.37 565.296 20.21 566.116 19.89C566.956 19.55 567.376 18.96 567.376 18.12C567.376 17.44 567.076 16.93 566.476 16.59C565.876 16.23 564.986 16.05 563.806 16.05C562.946 16.05 562.146 16.14 561.406 16.32C560.666 16.48 559.896 16.73 559.096 17.07L558.046 14.67C558.926 14.31 559.856 14.03 560.836 13.83C561.836 13.63 562.916 13.53 564.076 13.53ZM583.785 13.83V20.4H591.765V13.83H594.945V30H591.765V22.95H583.785V30H580.605V13.83H583.785ZM602.942 22.65C602.942 22.89 602.932 23.2 602.912 23.58C602.892 23.96 602.872 24.36 602.852 24.78C602.832 25.18 602.802 25.56 602.762 25.92C602.742 26.26 602.722 26.53 602.702 26.73L611.012 13.83H614.882V30H611.882V21.39C611.882 21.01 611.892 20.54 611.912 19.98C611.932 19.42 611.952 18.88 611.972 18.36C612.012 17.82 612.042 17.41 612.062 17.13L603.812 30H599.912V13.83H602.942V22.65ZM623.582 21.75L618.092 13.83H621.722L625.562 19.65L629.402 13.83H633.002L627.512 21.75L633.272 30H629.672L625.562 23.82L621.422 30H617.822L623.582 21.75Z" fill="#66033C"/>
<path d="M177.851 23.2102C177.713 23.0727 177.549 22.9902 177.361 22.9902C177.196 22.9902 176.977 23.0452 176.785 23.1552C176.565 23.2652 176.373 23.4301 176.158 23.6776C175.582 24.3101 174.982 24.8922 174.356 25.4147C173.729 25.9097 173.07 26.3497 172.416 26.6843C171.762 27.0418 171.076 27.3168 170.394 27.5093C169.713 27.7017 169.054 27.7843 168.372 27.7843C167.933 27.7843 167.554 27.7292 167.252 27.5643C166.922 27.4268 166.68 27.2618 166.46 27.0418C166.268 26.8218 166.104 26.5743 166.021 26.3543C165.911 26.1068 165.857 25.8593 165.857 25.6393C165.857 25.6393 165.911 25.5843 166.021 25.5018C166.131 25.4193 166.213 25.3918 166.268 25.3643C167.362 24.7043 168.345 24.0397 169.246 23.4072C170.147 22.7747 170.939 22.1102 171.57 21.4502C172.224 20.7902 172.718 20.0981 173.075 19.3831C173.432 18.6406 173.619 17.8661 173.619 17.0136C173.619 16.6836 173.537 16.2986 173.372 15.9411C173.235 15.5836 173.015 15.2536 172.746 14.9511C172.471 14.6761 172.119 14.4286 171.735 14.2361C171.323 14.0711 170.861 13.9611 170.367 13.9611C169.74 13.9611 169.136 14.0436 168.592 14.2361C168.075 14.4011 167.581 14.6486 167.119 14.9236C166.68 15.1986 166.273 15.5011 165.889 15.8586C165.532 16.2161 165.207 16.5461 164.905 16.9036C164.466 17.4536 164.059 18.0356 163.702 18.6406C163.373 19.2731 163.075 19.9102 162.828 20.5702C162.609 21.2302 162.417 21.8948 162.307 22.5547C162.197 23.1047 162.142 23.5997 162.142 24.1268C162.032 24.2093 161.95 24.2918 161.84 24.3468C161.296 24.7868 160.719 25.1443 160.148 25.4193C159.603 25.7218 159.054 25.9418 158.538 26.1343C157.989 26.3268 157.499 26.4368 157.033 26.5193C156.566 26.6018 156.159 26.6568 155.775 26.6568C155.39 26.6568 155.093 26.5193 154.873 26.2718C154.654 26.0243 154.489 25.7218 154.352 25.3643C154.242 25.0068 154.16 24.6493 154.132 24.2643C154.105 23.8793 154.077 23.5768 154.077 23.3018C154.077 22.9443 154.105 22.5868 154.16 22.2018C154.16 21.7893 154.242 21.4043 154.297 21.0423C154.352 20.6573 154.407 20.2998 154.434 19.9698C154.489 19.6398 154.517 19.3923 154.517 19.1723C154.517 18.4298 154.379 17.8202 154.132 17.3527C153.885 16.8577 153.561 16.6378 153.149 16.6378C152.577 16.6378 152.028 16.7753 151.484 17.0502C150.935 17.3527 150.418 17.7102 149.928 18.1227C149.407 18.5352 148.972 19.0027 148.533 19.5023C148.122 20.0248 147.742 20.4648 147.44 20.9094C147.358 21.0469 147.193 21.2668 146.973 21.5693C146.781 21.8718 146.534 22.2293 146.264 22.6418C146.017 23.0543 145.72 23.4668 145.418 23.9389C145.116 24.4064 144.814 24.8189 144.517 25.2635C144.243 25.6759 143.973 26.0609 143.726 26.423C143.506 26.753 143.314 27.028 143.181 27.2205C143.236 26.5605 143.346 25.7859 143.483 24.851C143.593 23.916 143.758 22.9214 143.95 21.8214C144.114 20.7214 144.334 19.5619 144.549 18.3473C144.796 17.1327 145.038 15.9228 145.285 14.7082C145.34 14.4057 145.423 14.0757 145.505 13.6632C145.56 13.2782 145.642 12.8657 145.725 12.4212C145.807 12.0087 145.889 11.5687 145.944 11.1241C146.027 10.6841 146.081 10.2991 146.136 9.90952C146.219 9.52453 146.246 9.19453 146.274 8.89204C146.328 8.61704 146.328 8.39705 146.328 8.23205C146.328 7.54456 146.191 7.01748 145.917 6.60499C145.67 6.22 145.29 6 144.796 6C144.631 6 144.412 6 144.197 6.0825C143.977 6.165 143.785 6.22 143.57 6.35749C143.351 6.49499 143.158 6.68749 142.994 6.93499C142.829 7.18248 142.692 7.51248 142.609 7.89747C142.445 9.63453 142.225 11.3166 141.983 12.8841C141.955 13.1041 141.9 13.3516 141.873 13.5715H141.763C141.544 13.6265 141.324 13.7365 141.082 13.8465C140.807 13.9565 140.533 14.094 140.235 14.259C139.933 14.424 139.581 14.589 139.197 14.754C138.895 14.8915 138.515 15.029 138.104 15.139C137.665 15.2765 137.23 15.3865 136.791 15.4965C136.324 15.579 135.862 15.689 135.396 15.7715C134.934 15.854 134.494 15.909 134.083 15.9915C133.644 16.0465 133.264 16.1015 132.935 16.129C132.605 16.184 132.335 16.2115 132.116 16.239C132.116 16.2115 132.088 16.2115 132.061 16.184C132.033 16.1565 132.033 16.129 132.006 16.074C131.979 16.019 131.979 15.9915 131.979 15.9365C131.979 15.854 131.979 15.7715 132.006 15.689C132.033 15.579 132.061 15.414 132.088 15.1665C132.143 14.9465 132.198 14.6165 132.308 14.1765C132.39 13.764 132.5 13.1866 132.665 12.467C132.692 12.357 132.72 12.192 132.747 11.972C132.802 11.7245 132.857 11.477 132.912 11.1745C132.967 10.872 133.022 10.5695 133.076 10.2395C133.131 9.90952 133.186 9.60703 133.241 9.33203C133.269 9.05704 133.323 8.80954 133.351 8.61704C133.378 8.39705 133.406 8.28705 133.406 8.23205C133.406 8.14955 133.351 8.01205 133.241 7.81956C133.131 7.65456 133.022 7.48956 132.829 7.29706C132.665 7.13207 132.473 6.99457 132.258 6.85707C132.038 6.74707 131.791 6.66457 131.549 6.66457C131.439 6.66457 131.302 6.71957 131.082 6.82957C130.89 6.93957 130.67 7.07707 130.483 7.24206C130.291 7.40706 130.098 7.57206 129.938 7.79206C129.801 7.98455 129.719 8.17705 129.691 8.34205C129.691 8.47955 129.664 8.69954 129.636 9.00204C129.582 9.30453 129.527 9.63453 129.472 10.0195C129.417 10.4045 129.335 10.817 129.28 11.2616C129.197 11.6741 129.142 12.1141 129.06 12.5037C128.978 12.9161 128.923 13.2736 128.841 13.6357C128.786 13.9657 128.731 14.2407 128.676 14.4332C128.539 15.0932 128.429 15.5928 128.319 15.9228C128.237 16.2803 128.127 16.4728 128.017 16.5003C127.935 16.5278 127.77 16.5828 127.528 16.6103C127.281 16.6378 126.983 16.6653 126.654 16.6928C126.297 16.6928 125.945 16.7203 125.561 16.7478C125.204 16.7753 124.824 16.8027 124.467 16.8027C124.111 16.8302 123.813 16.8302 123.511 16.8577H122.857C122.638 16.8577 122.418 16.8852 122.203 16.9677C121.983 17.0227 121.791 17.1327 121.604 17.2427C121.439 17.3802 121.274 17.5727 121.165 17.7652C121.055 17.9577 121 18.2052 121 18.5077C121 18.6452 121.055 18.8102 121.165 19.0302C121.274 19.2227 121.439 19.4152 121.604 19.6077C121.796 19.8002 122.016 19.9652 122.231 20.1027C122.45 20.2402 122.697 20.2952 122.94 20.2952H123.351C123.571 20.2952 123.818 20.2677 124.088 20.2677C124.362 20.2402 124.66 20.2127 124.989 20.1852C125.318 20.1577 125.616 20.1577 125.89 20.1302C126.192 20.1027 126.434 20.1027 126.627 20.0752H127.061C127.061 20.0752 127.253 20.0752 127.363 20.1302C127.473 20.1302 127.528 20.2127 127.528 20.3227C127.473 20.7627 127.418 21.1477 127.363 21.5098C127.308 21.8673 127.253 22.2248 127.198 22.5547C127.143 22.8572 127.089 23.1872 127.006 23.4897C126.951 23.8197 126.896 24.1222 126.814 24.4797C126.622 25.4147 126.457 26.4093 126.293 27.3718C126.155 28.3617 126.073 29.3563 126.073 30.3188C126.073 30.4013 126.1 30.5663 126.155 30.8138C126.155 31.0338 126.293 31.2813 126.43 31.5288C126.567 31.7763 126.759 31.9963 127.006 32.1888C127.226 32.3813 127.551 32.4638 127.935 32.4638C128.017 32.4638 128.182 32.4088 128.397 32.3263C128.616 32.2438 128.836 32.1338 129.051 31.9963C129.271 31.8588 129.463 31.7488 129.623 31.6113C129.787 31.4738 129.897 31.3638 129.897 31.2813V30.6213C129.925 30.4838 129.925 30.2638 129.925 30.0438V29.1363C129.925 28.7513 129.925 28.3663 129.952 27.9767C130.007 27.6193 130.034 27.2343 130.089 26.8447C130.172 26.4597 130.227 26.0197 130.281 25.5751C130.364 25.1076 130.446 24.5851 130.501 24.0031C130.528 23.8656 130.556 23.6456 130.611 23.3431C130.638 23.0681 130.693 22.7381 130.721 22.3806C130.775 22.0231 130.83 21.6656 130.885 21.3081C130.94 20.9231 130.968 20.6206 131.023 20.3456C131.05 20.1256 131.105 19.9606 131.187 19.8506C131.27 19.7681 131.407 19.6856 131.599 19.6856C132.473 19.5756 133.319 19.4656 134.087 19.3281C134.851 19.2181 135.565 19.0531 136.219 18.8881C136.873 18.7231 137.504 18.5031 138.104 18.2831C138.703 18.0631 139.279 17.8432 139.851 17.5682C140.29 17.3757 140.697 17.1282 141.082 16.8532C141.164 16.7707 141.274 16.7157 141.356 16.6057C141.356 16.9082 141.274 17.2107 141.219 17.5132C140.889 19.4702 140.592 21.3448 140.345 23.0772C140.098 24.8418 139.961 26.4963 139.961 28.0638V28.8338C139.961 29.1913 139.961 29.5763 140.016 29.9934C140.043 30.4334 140.098 30.8734 140.153 31.3179C140.208 31.7854 140.318 32.1979 140.4 32.615C140.51 32.6975 140.592 32.78 140.647 32.835C140.729 32.89 140.784 32.9175 140.894 32.945C140.976 32.9725 141.086 32.9725 141.251 33H141.85C142.179 33 142.559 32.78 142.998 32.34C143.465 31.9 143.927 31.35 144.421 30.658C144.915 29.9705 145.432 29.2234 145.926 28.4259C146.415 27.6009 146.882 26.8263 147.321 26.0839C148.03 24.8693 148.689 23.8243 149.316 22.9443C149.915 22.0643 150.436 21.3998 150.848 20.9598C150.93 20.9598 150.985 21.0148 151.013 21.1248V21.4273C151.013 21.4273 151.013 21.6748 150.985 21.9223C150.958 22.1698 150.93 22.4722 150.903 22.7747L150.82 23.7647C150.793 24.0947 150.793 24.3697 150.793 24.6172C150.793 25.3047 150.848 25.9693 150.985 26.6018C151.122 27.2343 151.369 27.8163 151.722 28.3113C152.051 28.8063 152.513 29.1913 153.089 29.4984C153.666 29.8009 154.375 29.9659 155.221 29.9659C155.82 29.9659 156.424 29.8559 157.078 29.6909C157.732 29.4984 158.419 29.2509 159.073 28.8934C159.754 28.5634 160.44 28.1509 161.122 27.6513C161.534 27.3488 161.941 27.0463 162.353 26.6888C162.353 26.9363 162.435 27.1838 162.49 27.4038C162.737 28.2288 163.116 28.9209 163.611 29.4709C164.073 30.0209 164.676 30.4334 165.385 30.7405C166.067 31.0154 166.858 31.1529 167.764 31.1529C168.501 31.1529 169.242 31.0429 170.006 30.8505C170.769 30.6305 171.533 30.3555 172.274 29.9705C173.011 29.613 173.752 29.173 174.434 28.6459C175.115 28.1234 175.746 27.5734 176.318 26.9913C176.84 26.4414 177.274 25.9189 177.576 25.4193C177.878 24.8968 178.038 24.4568 178.038 24.0397C178.038 23.6547 177.956 23.3797 177.846 23.2147H177.873L177.851 23.2102ZM166.291 20.8956C166.538 20.2081 166.808 19.5435 167.137 18.966C167.467 18.3886 167.819 17.9211 168.231 17.5315C168.642 17.174 169.077 16.9815 169.544 16.9815C169.571 16.9815 169.653 17.009 169.708 17.0365C169.791 17.064 169.873 17.0915 169.955 17.174C170.038 17.229 170.12 17.3115 170.175 17.4215C170.257 17.5315 170.285 17.6965 170.285 17.8615C170.285 18.3015 170.147 18.7415 169.9 19.131C169.681 19.5435 169.356 19.9285 168.944 20.3456C168.533 20.7306 168.043 21.1431 167.494 21.5602C166.918 21.9727 166.346 22.4402 165.692 22.9397C165.857 22.2798 166.049 21.5877 166.296 20.9002L166.291 20.8956Z" fill="#66033C"/>
<path d="M312.34 31.0714C311.249 31.0714 310.351 30.9322 309.645 30.6536C308.94 30.3751 308.416 30.0216 308.074 29.5931C307.753 29.1646 307.592 28.704 307.592 28.2112C307.592 27.847 307.699 27.547 307.913 27.3113C308.148 27.0756 308.48 26.9578 308.908 26.9578C309.143 26.9578 309.346 27.0007 309.517 27.0864C309.709 27.1721 309.913 27.2685 310.126 27.3756C310.362 27.4827 310.64 27.5791 310.96 27.6648C311.302 27.7505 311.741 27.7934 312.275 27.7934C313.601 27.7934 314.724 27.6434 315.643 27.3435C316.584 27.0221 317.236 26.5293 317.6 25.8651C317.429 25.4366 317.087 25.1045 316.574 24.8689C316.06 24.6332 315.451 24.4296 314.745 24.2582C314.04 24.0868 313.302 23.9047 312.532 23.7119C311.784 23.4976 311.078 23.2405 310.415 22.9406C309.774 22.6192 309.25 22.2014 308.843 21.6872C308.437 21.173 308.234 20.5088 308.234 19.6947C308.234 18.8591 308.48 18.1092 308.972 17.445C309.464 16.7809 310.116 16.2238 310.928 15.7739C311.741 15.324 312.639 14.9812 313.623 14.7455C314.606 14.5098 315.59 14.4027 316.574 14.4241C317.236 14.4241 317.792 14.5312 318.242 14.7455C318.691 14.9597 319.022 15.2383 319.236 15.5811C319.471 15.9239 319.589 16.2774 319.589 16.6416C319.589 17.0273 319.482 17.3379 319.268 17.5736C319.075 17.8093 318.776 17.9271 318.37 17.9271C318.177 17.9271 317.996 17.9164 317.825 17.895C317.675 17.8735 317.504 17.8628 317.311 17.8628C317.119 17.8414 316.862 17.8307 316.541 17.8307C315.344 17.8307 314.307 18.0021 313.43 18.3449C312.553 18.6663 311.901 19.1591 311.474 19.8232C311.602 20.2089 311.923 20.5196 312.436 20.7552C312.949 20.9909 313.558 21.1944 314.264 21.3658C314.991 21.5372 315.74 21.7194 316.509 21.9122C317.301 22.105 318.028 22.3621 318.691 22.6835C319.375 22.9834 319.931 23.3905 320.358 23.9047C320.786 24.4189 321 25.0724 321 25.8651C321 27.0649 320.604 28.0505 319.813 28.8218C319.022 29.5931 317.974 30.1609 316.67 30.5251C315.365 30.8893 313.922 31.0714 312.34 31.0714Z" fill="#66033C"/>
<path d="M296.689 31.1358C296.304 31.1358 295.962 31.018 295.662 30.7823C295.384 30.5466 295.16 30.2252 294.989 29.8182C294.839 29.3897 294.764 28.9076 294.764 28.372C294.764 26.9365 294.732 25.576 294.668 24.2905C294.625 23.005 294.54 21.8266 294.411 20.7553C294.283 19.6841 294.112 18.7842 293.898 18.0558C293.727 17.5416 293.609 17.1559 293.545 16.8988C293.503 16.6203 293.481 16.331 293.481 16.0311C293.481 15.6454 293.599 15.3241 293.834 15.067C294.069 14.8099 294.443 14.6813 294.957 14.6813C295.406 14.6813 295.812 14.842 296.176 15.1634C296.539 15.4847 296.849 16.0418 297.106 16.8345C297.362 17.6058 297.555 18.6771 297.683 20.0483C297.833 21.4195 297.897 23.1657 297.876 25.2867L296.56 24.7404C296.796 22.8978 297.191 21.3231 297.747 20.0162C298.325 18.7092 298.987 17.6487 299.736 16.8345C300.506 16.0204 301.308 15.4205 302.142 15.0348C302.976 14.6492 303.799 14.4563 304.611 14.4563C305.274 14.4563 305.734 14.6277 305.991 14.9705C306.269 15.2919 306.408 15.699 306.408 16.1918C306.408 16.5774 306.279 16.9309 306.023 17.2523C305.788 17.5523 305.371 17.8094 304.772 18.0236C303.66 18.3664 302.73 18.8592 301.981 19.502C301.233 20.1447 300.623 20.916 300.153 21.8159C299.704 22.7157 299.351 23.7227 299.094 24.8368C298.859 25.9509 298.688 27.1614 298.581 28.4684C298.517 29.1754 298.41 29.7217 298.26 30.1074C298.111 30.493 297.908 30.7609 297.651 30.9108C297.394 31.0608 297.074 31.1358 296.689 31.1358Z" fill="#66033C"/>
<path d="M282.556 31.0715C281.294 31.0715 280.204 30.9001 279.284 30.5573C278.365 30.2145 277.605 29.7217 277.007 29.079C276.408 28.4362 275.959 27.6864 275.66 26.8294C275.382 25.9723 275.243 25.0296 275.243 24.0012C275.243 22.8871 275.446 21.773 275.852 20.6589C276.28 19.5234 276.878 18.495 277.648 17.5737C278.418 16.631 279.337 15.8811 280.407 15.3241C281.497 14.7456 282.705 14.4563 284.031 14.4563C285.122 14.4563 286.063 14.6492 286.854 15.0348C287.666 15.399 288.297 15.9561 288.746 16.706C289.195 17.4559 289.42 18.3986 289.42 19.5341C289.42 20.4125 289.217 21.1945 288.81 21.8801C288.404 22.5443 287.827 23.1014 287.078 23.5513C286.351 24.0012 285.507 24.344 284.544 24.5797C283.582 24.794 282.534 24.9011 281.401 24.9011C280.161 24.9011 279.263 24.719 278.707 24.3547C278.172 23.9691 277.905 23.5406 277.905 23.0692C277.905 22.8121 277.969 22.6193 278.097 22.4908C278.226 22.3408 278.45 22.2658 278.771 22.2658C279.006 22.2658 279.295 22.3087 279.637 22.3944C279.979 22.4586 280.46 22.4908 281.08 22.4908C282.043 22.4908 282.898 22.3729 283.646 22.1372C284.395 21.8801 284.993 21.5373 285.443 21.1088C285.892 20.6589 286.116 20.1554 286.116 19.5984C286.116 18.9556 285.956 18.4735 285.635 18.1522C285.314 17.8308 284.78 17.6701 284.031 17.6701C283.24 17.6701 282.524 17.8629 281.882 18.2486C281.241 18.6128 280.674 19.1163 280.182 19.7591C279.712 20.4018 279.348 21.1303 279.092 21.9444C278.835 22.7586 278.707 23.6049 278.707 24.4833C278.707 25.1475 278.824 25.7474 279.059 26.283C279.295 26.8186 279.669 27.2364 280.182 27.5364C280.717 27.8363 281.433 27.9863 282.331 27.9863C283.529 27.9863 284.523 27.8578 285.314 27.6007C286.105 27.3436 286.768 27.0543 287.303 26.7329C287.838 26.3901 288.287 26.0902 288.65 25.8331C289.035 25.576 289.399 25.4474 289.741 25.4474C290.061 25.4474 290.286 25.5546 290.414 25.7688C290.564 25.9616 290.639 26.2723 290.639 26.7008C290.639 27.1722 290.425 27.6649 289.997 28.1791C289.591 28.6933 289.014 29.1647 288.265 29.5932C287.538 30.0217 286.683 30.3752 285.699 30.6537C284.737 30.9323 283.689 31.0715 282.556 31.0715Z" fill="#66033C"/>
<path d="M253.11 31.232C252.319 31.232 251.635 30.8785 251.058 30.1715C250.502 29.4645 249.999 28.2539 249.55 26.5399C249.272 25.383 249.005 24.2367 248.748 23.1012C248.492 21.9442 248.203 20.8623 247.882 19.8553C247.583 18.8269 247.198 17.927 246.727 17.1557C246.385 16.5772 246.225 16.0845 246.246 15.6774C246.268 15.2703 246.417 14.9596 246.695 14.7454C246.995 14.5097 247.369 14.3919 247.818 14.3919C248.331 14.3919 248.78 14.5311 249.165 14.8097C249.55 15.0668 249.956 15.6345 250.384 16.513C250.79 17.3271 251.111 18.2377 251.346 19.2447C251.603 20.2302 251.827 21.2479 252.02 22.2978C252.234 23.3262 252.469 24.301 252.725 25.2223C252.982 26.1436 253.324 26.947 253.752 27.6326L252.565 27.6969C252.886 27.1827 253.175 26.5828 253.431 25.8972C253.688 25.1902 253.923 24.4403 254.137 23.6475C254.372 22.8334 254.618 22.0085 254.875 21.1729C255.131 20.3374 255.398 19.5339 255.676 18.7626C256.232 17.3057 256.767 16.2344 257.28 15.5488C257.793 14.8418 258.424 14.4883 259.173 14.4883C259.814 14.4883 260.37 14.6811 260.841 15.0668C261.332 15.431 261.781 15.9881 262.188 16.7379C262.615 17.4664 263.054 18.3984 263.503 19.5339C263.802 20.3052 264.07 21.0765 264.305 21.8478C264.54 22.6191 264.775 23.3583 265.01 24.0653C265.267 24.7509 265.545 25.383 265.844 25.9615C266.165 26.5399 266.539 27.0113 266.967 27.3755L266.005 27.6005C266.39 26.9791 266.689 26.24 266.903 25.383C267.138 24.526 267.32 23.6368 267.448 22.7155C267.598 21.7943 267.748 20.8837 267.897 19.9838C268.068 19.084 268.282 18.2484 268.539 17.4771C268.753 16.8986 269.009 16.3844 269.309 15.9345C269.608 15.4631 269.95 15.0989 270.335 14.8418C270.741 14.5633 271.169 14.424 271.618 14.424C271.917 14.424 272.185 14.4883 272.42 14.6168C272.655 14.7454 272.837 14.9382 272.965 15.1953C273.093 15.4524 273.158 15.7524 273.158 16.0952C273.158 16.438 273.072 16.7701 272.901 17.0914C272.751 17.3914 272.559 17.6806 272.324 17.9592C271.982 18.3662 271.704 18.8697 271.49 19.4696C271.297 20.0481 271.126 20.6909 270.976 21.3979C270.827 22.1049 270.688 22.8334 270.559 23.5833C270.431 24.3331 270.292 25.0402 270.143 25.7044C269.822 27.2041 269.501 28.3504 269.18 29.1431C268.859 29.9144 268.507 30.45 268.122 30.75C267.758 31.0285 267.341 31.1678 266.871 31.1678C266.229 31.1678 265.663 30.9749 265.171 30.5893C264.679 30.1822 264.102 29.4645 263.439 28.4361C262.968 27.6005 262.541 26.6899 262.156 25.7044C261.771 24.7188 261.418 23.7332 261.097 22.7477C260.776 21.7621 260.445 20.873 260.103 20.0803C259.782 19.2875 259.419 18.6662 259.012 18.2163L259.814 18.0556C259.408 18.5698 259.044 19.2233 258.724 20.016C258.424 20.7873 258.136 21.655 257.858 22.6191C257.58 23.5833 257.28 24.5902 256.959 25.6401C256.66 26.6685 256.297 27.6862 255.869 28.6932C255.634 29.3145 255.377 29.818 255.099 30.2036C254.821 30.5679 254.522 30.825 254.201 30.9749C253.88 31.1463 253.517 31.232 253.11 31.232Z" fill="#66033C"/>
<path d="M235.878 31.0714C234.788 31.0714 233.89 30.9322 233.184 30.6536C232.478 30.3751 231.954 30.0216 231.612 29.5931C231.292 29.1646 231.131 28.704 231.131 28.2112C231.131 27.847 231.238 27.547 231.452 27.3113C231.687 27.0756 232.019 26.9578 232.446 26.9578C232.681 26.9578 232.885 27.0007 233.056 27.0864C233.248 27.1721 233.451 27.2685 233.665 27.3756C233.9 27.4827 234.178 27.5791 234.499 27.6648C234.841 27.7505 235.28 27.7934 235.814 27.7934C237.14 27.7934 238.263 27.6434 239.182 27.3435C240.123 27.0221 240.775 26.5293 241.139 25.8651C240.968 25.4366 240.625 25.1045 240.112 24.8689C239.599 24.6332 238.99 24.4296 238.284 24.2582C237.578 24.0868 236.841 23.9047 236.071 23.7119C235.322 23.4976 234.617 23.2405 233.954 22.9406C233.312 22.6192 232.788 22.2014 232.382 21.6872C231.976 21.173 231.773 20.5088 231.773 19.6947C231.773 18.8591 232.019 18.1092 232.51 17.445C233.002 16.7809 233.654 16.2238 234.467 15.7739C235.28 15.324 236.178 14.9812 237.161 14.7455C238.145 14.5098 239.129 14.4027 240.112 14.4241C241.117 14.4455 241.866 14.6812 242.358 15.1311C242.871 15.5811 243.127 16.0845 243.127 16.6416C243.127 17.0273 243.02 17.3379 242.807 17.5736C242.614 17.8093 242.315 17.9271 241.909 17.9271C241.716 17.9271 241.534 17.9164 241.363 17.895C241.214 17.8735 241.042 17.8628 240.85 17.8628C240.658 17.8414 240.401 17.8307 240.08 17.8307C238.883 17.8307 237.846 18.0021 236.969 18.3449C236.092 18.6663 235.44 19.1591 235.012 19.8232C235.141 20.2089 235.461 20.5196 235.975 20.7552C236.488 20.9909 237.097 21.1944 237.803 21.3658C238.53 21.5372 239.278 21.7194 240.048 21.9122C240.839 22.105 241.566 22.3621 242.229 22.6835C242.914 22.9834 243.47 23.3905 243.897 23.9047C244.325 24.4189 244.539 25.0724 244.539 25.8651C244.539 27.0649 244.143 28.0505 243.352 28.8218C242.561 29.5931 241.513 30.1609 240.209 30.5251C238.904 30.8893 237.461 31.0714 235.878 31.0714Z" fill="#66033C"/>
<path d="M227.155 31.0394C226.428 31.0394 225.787 30.7287 225.231 30.1074C224.696 29.4646 224.279 28.4684 223.98 27.1186C223.68 25.7474 223.531 23.9691 223.531 21.7837C223.531 20.9267 223.509 20.2411 223.467 19.7269C223.445 19.1913 223.381 18.7628 223.274 18.4414C223.189 18.12 223.06 17.8629 222.889 17.6701C222.74 17.4559 222.536 17.2416 222.28 17.0274C222.75 17.0059 223.146 17.0595 223.467 17.188C223.787 17.2952 224.033 17.4987 224.204 17.7987C224.375 18.0772 224.45 18.495 224.429 19.052C224.108 18.5807 223.841 18.27 223.627 18.12C223.413 17.9701 223.157 17.8951 222.857 17.8951C222.429 17.8951 221.938 18.1522 221.382 18.6664C220.847 19.1806 220.28 19.9197 219.682 20.8839C219.104 21.8266 218.538 22.9621 217.982 24.2905C217.426 25.5974 216.923 27.0329 216.474 28.5969C216.239 29.5182 215.972 30.161 215.672 30.5252C215.373 30.868 214.967 31.0394 214.453 31.0394C213.577 31.0394 212.924 30.5573 212.497 29.5932C212.069 28.6291 211.855 27.3971 211.855 25.8974C211.855 24.8261 211.898 23.8941 211.984 23.1014C212.09 22.2872 212.197 21.5373 212.304 20.8517C212.433 20.1447 212.539 19.427 212.625 18.6985C212.732 17.9486 212.785 17.1023 212.785 16.1596C212.785 15.6454 212.903 15.2598 213.138 15.0027C213.395 14.7241 213.769 14.5849 214.261 14.5849C214.817 14.5849 215.245 14.7777 215.544 15.1634C215.865 15.549 216.025 16.1811 216.025 17.0595C216.025 17.7237 215.972 18.3664 215.865 18.9878C215.758 19.5877 215.64 20.2411 215.512 20.9482C215.405 21.6338 215.309 22.4479 215.223 23.3906C215.138 24.3333 215.116 25.4689 215.159 26.7972L214.389 26.2187C215.116 23.6477 215.961 21.4945 216.923 19.7591C217.885 18.0022 218.901 16.6845 219.97 15.8061C221.04 14.9063 222.087 14.4563 223.114 14.4563C223.948 14.4563 224.632 14.6599 225.167 15.067C225.723 15.4526 226.14 16.0204 226.418 16.7703C226.696 17.4987 226.835 18.3771 226.835 19.4055C226.835 21.0124 226.856 22.3944 226.899 23.5513C226.941 24.6868 227.059 25.6188 227.251 26.3473C227.465 27.0757 227.786 27.6328 228.214 28.0184C228.47 28.2327 228.652 28.4577 228.759 28.6933C228.866 28.929 228.919 29.2183 228.919 29.5611C228.919 29.9467 228.77 30.2895 228.47 30.5895C228.192 30.8894 227.754 31.0394 227.155 31.0394Z" fill="#66033C"/>
<path d="M195.67 31.0715C194.665 31.0715 193.777 30.8573 193.008 30.4288C192.259 29.9789 191.682 29.3575 191.276 28.5648C190.869 27.7721 190.666 26.8401 190.666 25.7688C190.666 24.719 190.826 23.6584 191.147 22.5872C191.489 21.4945 191.96 20.4661 192.559 19.502C193.157 18.5378 193.863 17.6808 194.676 16.9309C195.488 16.1596 196.376 15.5597 197.338 15.1312C198.3 14.6813 199.316 14.4563 200.385 14.4563C200.962 14.4563 201.454 14.6277 201.86 14.9705C202.267 15.3133 202.47 15.8168 202.47 16.481C202.47 16.7595 202.384 16.9952 202.213 17.188C202.042 17.3809 201.796 17.4987 201.476 17.5416C200.021 17.7344 198.738 18.2593 197.626 19.1163C196.536 19.9733 195.681 21.0017 195.06 22.2015C194.462 23.4013 194.162 24.6547 194.162 25.9616C194.162 26.4973 194.205 26.99 194.291 27.44C194.376 27.8685 194.569 28.4255 194.868 29.1111L193.04 26.5401C193.531 27.0115 193.948 27.3221 194.291 27.4721C194.654 27.6007 195.125 27.6649 195.702 27.6649C196.964 27.6649 198.108 26.9043 199.134 25.3832C200.182 23.8405 200.941 21.5909 201.411 18.6342C201.476 18.1843 201.647 17.8415 201.925 17.6058C202.203 17.3487 202.545 17.2202 202.951 17.2202C203.571 17.2202 204.095 17.4344 204.523 17.8629C204.95 18.27 205.239 18.7949 205.389 19.4377C205.624 20.5946 205.87 21.6445 206.126 22.5872C206.383 23.5085 206.725 24.3976 207.153 25.2546C207.581 26.0902 208.169 26.9686 208.917 27.8899C209.131 28.1256 209.249 28.4255 209.27 28.7898C209.291 29.1326 209.238 29.4754 209.11 29.8182C208.981 30.1395 208.778 30.4181 208.5 30.6537C208.243 30.868 207.933 30.9751 207.57 30.9751C207.249 30.9751 206.982 30.9108 206.768 30.7823C206.576 30.6537 206.394 30.4823 206.223 30.2681C205.795 29.711 205.399 29.154 205.036 28.5969C204.672 28.0184 204.33 27.3864 204.01 26.7008C203.71 25.9938 203.443 25.1796 203.208 24.2583C202.994 23.3156 202.812 22.2122 202.662 20.9482L203.913 20.8839C203.593 22.7693 203.133 24.3655 202.534 25.6724C201.957 26.9793 201.294 28.0292 200.545 28.8219C199.797 29.6146 199.006 30.1931 198.172 30.5573C197.338 30.9001 196.504 31.0715 195.67 31.0715Z" fill="#66033C"/>
</svg>
