<svg width="120" height="32" viewBox="0 0 120 32" fill="none" xmlns="http://www.w3.org/2000/svg">
<path d="M0.528477 29.9236C0.864758 29.2247 1.39451 28.3404 1.84569 27.7121C1.98806 27.5131 1.94944 27.6387 2.04764 27.5083C2.24153 27.2545 2.41044 26.9845 2.61406 26.7419C2.68364 26.6607 2.65683 26.8209 2.72961 26.7355C3.1294 26.2721 3.47625 25.8093 3.89313 25.344C5.94398 23.0845 8.13259 21.0552 10.4765 19.0733C11.2424 18.4213 12.3177 17.7895 13.0542 17.0483C13.141 16.9601 12.9528 16.8252 12.9598 16.7953C13.0709 16.3264 13.249 16.7729 13.4666 16.6721C14.3277 16.2714 15.1723 15.6451 15.8238 15.0064C16.1014 14.7337 15.5052 14.5525 15.9741 14.5465C16.0066 14.5459 16.0867 14.8327 16.1871 14.7917C16.4159 14.6977 16.7472 14.3796 16.9052 14.2864C17.2134 14.1067 17.2592 14.0688 17.5327 13.8655C17.9063 13.5901 18.4225 13.3899 18.7894 13.0345C18.8662 12.9579 18.5801 12.7818 18.6839 12.6366C18.787 12.4916 19.1574 12.245 19.321 12.2175C19.4842 12.19 19.5728 12.4391 19.6264 12.4714C20.0773 12.7508 20.1193 11.8799 20.1606 11.8249C20.4269 11.5113 20.7222 11.267 21.0342 11.0587C21.6845 10.6234 22.3737 10.3732 23.0293 9.93707C23.7578 9.45032 24.4858 8.8132 25.2063 8.39497C26.0796 7.89032 26.9072 7.65465 27.7419 7.15443C27.8299 7.1021 27.5142 6.74405 27.6214 6.6784C28.7703 5.97679 29.9773 5.40381 31.3177 5.14143C31.4521 5.11592 31.4697 5.58831 31.614 5.58769C32.491 5.56695 33.9791 5.91739 33.7195 3.9029C34.2619 3.757 34.9093 3.58042 35.5108 3.78254C35.895 3.91451 35.775 4.49559 36.066 4.15913C36.1319 4.08381 35.8797 3.70759 35.9901 3.62538C36.4545 3.27877 37.0819 3.20816 37.5267 2.81072C37.6194 2.72794 37.468 2.35461 37.4767 2.27494C37.558 1.62365 38.2747 2.40859 38.3855 2.4487C39.238 2.72838 39.6957 2.37253 40.3591 2.1925C40.5144 2.15103 40.1869 1.66902 40.3319 1.60929C41.0819 1.30751 41.9051 1.1335 42.7205 1.19087C42.904 1.20469 42.8537 1.71221 42.9464 1.74318C43.3508 1.87661 43.2339 0.968026 43.6177 1.08141C43.6979 1.10452 43.7436 1.51906 43.7661 1.56058C44.1149 2.21479 44.0911 1.18327 44.1402 1.14909C44.7569 0.699854 45.3874 1.65938 46.0045 1.39281C46.0785 1.35964 45.8126 0.868532 46.0273 0.806896C47.4698 0.390792 49.0716 0.308129 50.5748 0.598853C50.8072 0.643481 50.6816 1.06485 50.7001 1.11346C51.0031 1.8735 51.0618 0.812943 51.1342 0.76662C51.6945 0.430823 52.3019 1.27922 52.6267 3.00407e-05C54.6602 0.237448 56.6767 -0.143493 58.6822 0.456194C58.6845 0.456885 58.6869 0.457578 58.6892 0.458272C59.1923 0.608368 59.6788 0.823229 60.139 1.12238C60.1685 1.14033 60.0317 1.64968 60.0901 1.68314C60.7871 2.09668 60.7719 1.26971 61.4832 0.394788C61.6682 0.176724 61.806 1.43736 61.8157 1.53036C61.8658 1.87453 61.569 2.60586 61.5954 2.67629C61.8054 3.23097 62.3416 0.709973 62.8148 0.829396C62.8281 0.837247 62.651 1.28071 62.678 1.33627C62.7606 1.51009 62.9261 1.3592 63.0006 1.54811C63.1714 1.98581 62.9178 3.20965 63.5084 2.62621C63.585 2.55121 63.9193 1.12868 64.3081 1.32164C64.4619 1.39749 65.1838 1.61086 65.3476 1.77049C65.5131 1.92843 65.2245 2.32244 65.2322 2.34663C65.5452 3.11391 65.2622 3.28554 65.1999 4.23501C65.1307 5.17882 65.8176 3.11959 66.0079 2.93269C66.1982 2.74629 66.3895 3.36645 66.4137 3.56626C66.439 3.76626 66.2186 3.99697 66.2614 4.12135C66.5428 4.93601 66.8927 3.21803 67.1988 2.97256C67.9304 2.39804 67.6354 4.01418 67.9399 4.318C68.0236 4.40113 68.0874 4.03216 68.1911 4.04117C68.6005 4.08279 68.605 4.6297 69.1962 4.40534C69.2916 4.36766 70.0252 3.66323 69.9337 4.3958C69.9197 4.50083 69.6663 4.81594 69.7763 4.96733C69.9402 5.19382 70.3 5.4666 70.5932 5.46769C70.8101 5.46855 70.8988 4.79006 71.0288 5.08107C71.086 5.21061 70.7369 5.45632 70.8579 5.67085C70.9777 5.88416 71.4478 6.10709 71.6283 6.187C71.8086 6.26608 71.9367 5.785 71.9658 5.76321C72.1375 5.64122 72.5818 5.6133 72.6113 5.63008C74.1364 6.38724 75.1011 7.8522 76.6498 8.42003C76.7707 8.46552 76.9339 7.99345 76.9548 7.99595C77.4345 8.03238 76.504 9.00487 76.5613 9.53503C77.0023 8.6433 77.0731 8.88912 77.3946 8.94497C77.5495 8.97105 77.6635 8.59617 77.6942 8.56844C78.1648 8.16802 77.9367 8.90069 77.8979 9.05375C77.7546 9.61806 78.212 9.11311 78.1186 9.49044C78.0272 9.86455 77.5621 10.2385 77.8258 10.374C78.0662 10.1066 78.3135 9.19608 78.5798 9.17537C79.5799 9.1007 80.6115 10.4869 81.1804 10.8626C81.743 11.2421 81.9642 11.2863 82.2593 11.5733C82.7953 12.0888 82.8483 11.3949 83.3631 11.3309C83.8771 11.2666 83.0149 12.5787 82.9268 12.9097C82.8394 13.2393 83.0501 12.9574 83.0422 13.157C83.0348 13.3563 82.7827 13.4902 82.9217 13.6302C83.0624 13.7701 83.7728 13.4435 83.9737 13.1565C84.4015 12.5483 84.5185 11.7556 84.8355 12.2052C84.8538 12.2313 84.6084 12.5602 84.6872 12.6417C85.3211 13.276 86.1153 13.6396 86.8035 14.193C86.8983 14.2695 86.6473 14.6312 86.7014 14.68C87.2702 15.1854 87.2898 14.4226 87.9147 13.8163C87.475 14.7741 87.4555 15.4552 87.9748 15.6321C88.2856 15.7382 88.377 15.2922 88.6744 15.0573C88.7629 14.9867 88.8853 15.3498 88.9889 15.1621C89.3261 14.5499 89.3585 13.7537 89.7733 14.2157C89.7916 14.2368 89.611 14.5695 89.6823 14.6164C90.1467 14.9177 90.4053 14.2602 90.9608 14.3439C91.3952 14.4106 92.0529 15.0219 92.5379 15.1975C92.3064 16.243 92.8498 16.0982 93.1688 15.4243C93.4861 15.5199 93.8421 15.5463 94.1438 15.6962C94.2472 15.7471 94.1335 16.0284 94.1424 16.0624C94.2847 16.591 94.5241 15.9338 94.5965 15.9188C95.3918 15.7795 95.9789 16.3384 96.75 15.9147C96.7583 15.9101 96.7711 15.8451 96.7896 15.7716L96.529 15.7949C96.5245 15.6229 96.5346 15.4035 96.7447 15.7003C96.7654 15.729 96.5943 16.0729 96.9415 16.0204C97.2858 15.9721 98.0219 16.1382 98.4135 15.7274C98.5097 15.6271 98.6501 15.0735 98.994 15.3809C99.0402 15.4224 99.0585 15.5995 99.1318 15.6795C99.3679 15.9311 99.2621 15.3243 99.588 15.7657C99.9144 16.2072 100.393 16.4374 100.753 15.9372C100.765 15.9217 100.723 15.4443 100.873 15.4001C101.113 15.3288 101.48 15.2951 101.724 15.1993C101.841 15.1535 101.668 14.9241 101.687 14.9117C102.418 14.4804 103.062 14.4907 103.931 14.2237C104.09 14.1728 104.392 13.6849 104.79 13.7926C105.226 13.9025 105.381 15.1214 105.995 14.4876C106.241 14.2199 106.017 12.804 106.851 13.176C107.716 12.5701 108.695 12.3387 109.535 11.7144C109.612 11.6587 109.687 11.6004 109.761 11.5392C109.801 11.5052 109.796 11.1668 109.903 11.1133C110.063 11.0333 110.215 11.1017 110.33 11.0451C110.814 10.8106 111.18 10.469 111.631 10.2183C111.802 10.1218 111.805 10.2588 112.007 10.1402C112.208 10.0197 112.262 9.81335 112.567 9.7043C112.798 9.62278 113.15 9.72582 113.426 9.56548C113.292 9.33742 113.477 9.22058 113.763 8.9518C113.819 8.90031 113.705 8.87356 113.729 8.84576C113.825 8.73258 113.975 8.71733 114.063 8.60533C114.085 8.57833 114.043 8.51243 114.058 8.48714C114.19 8.27239 114.605 8.2104 114.673 8.19453C114.94 8.1426 114.985 8.00246 115.166 7.92788C115.345 7.85059 115.137 8.05258 115.333 7.94269C115.737 7.71266 116.211 7.35073 116.591 7.07318C116.742 6.9618 116.603 6.98859 116.624 6.97146C116.932 6.7358 117.278 6.54339 117.398 6.34362C117.751 6.37164 117.575 6.18885 118.053 5.90382C118.091 5.88143 118.181 5.91096 118.057 6.02523C117.934 6.14045 117.715 6.27276 117.546 6.43575C117.505 6.47238 117.324 6.76154 117.297 6.79746C117.074 7.06548 116.916 6.92937 116.895 6.92996C116.66 6.94967 116.436 7.30062 116.365 7.37649C116.029 7.7068 115.694 7.91866 115.411 8.19428C115.226 8.37446 115.329 8.56772 115.17 8.69132C114.645 9.10802 114.254 8.94118 113.93 9.59231C113.861 9.73282 114.136 9.90714 113.621 10.0079C113.59 10.0166 113.176 10.0373 113.09 10.2894C113.079 10.3215 113.133 10.4041 113.109 10.4324C112.955 10.6207 112.788 10.6475 112.607 10.834C112.426 11.0214 112.216 11.2615 111.963 11.4028C111.811 11.4896 111.518 11.4333 111.421 11.4335C111.147 11.4311 111.071 11.801 110.851 11.712C110.628 11.6175 110.718 11.2059 110.325 11.2893C110.478 11.5832 110.62 11.896 110.768 12.1995C110.535 12.3582 110.297 12.505 110.054 12.6467C109.568 12.9314 109.071 13.1915 108.593 13.5044C108.504 13.5631 108.694 13.694 108.602 13.7629C108.213 14.0551 107.785 14.1347 107.385 14.4502C107.077 14.695 106.822 15.1428 106.499 15.4141C106.063 15.0656 105.614 15.5189 105.208 15.6841C105.066 15.7412 105.014 15.5989 104.898 15.6044C104.462 15.6257 104.832 15.9992 104.764 16.1259C104.47 16.6749 103.979 15.6212 103.479 15.8848C103.452 15.8964 103.361 16.6551 103.33 16.718C103.135 17.109 103.198 16.5306 102.997 16.5729C102.629 16.6497 102.339 16.602 102.01 16.9661C101.915 17.0714 101.782 17.6067 101.441 17.3882C101.396 17.3593 101.335 17.1332 101.307 17.1305C100.795 17.0957 101.024 17.7973 100.851 18.1483C100.677 18.5011 100.119 18.1664 99.9928 18.0487C99.6643 17.7515 100.103 17.8259 100.103 17.784C100.096 17.2961 99.8339 17.48 99.6039 17.5212C99.3487 16.8083 99.0584 16.951 99.3653 17.5664C99.3994 17.6332 99.5501 17.5039 99.6039 17.5212C99.6319 18.3005 99.3105 18.5404 98.7378 17.9793C98.4694 17.714 98.5328 17.2827 98.0361 17.5852C97.8097 17.7216 98.0432 18.2255 97.8607 18.4403C97.6902 18.6413 97.4546 18.7106 97.205 18.7321L96.645 18.7822C96.2835 18.7154 95.9236 18.5425 95.599 18.5809C95.3986 18.6047 95.5642 18.9285 95.425 18.9564C95.0552 19.0324 94.7553 18.7746 94.3776 18.8739C94.3429 18.8835 94.3821 19.2285 94.2668 19.2258C93.3925 19.2115 92.67 18.909 91.7808 18.7688C91.3504 18.7023 90.5348 18.767 90.0991 18.6366C89.3412 18.4198 88.5787 17.6528 87.9089 17.6053C87.4684 17.5737 87.433 17.9729 87.1662 18.1783C86.6434 18.5795 86.3493 17.5057 86.3258 17.3391C86.3253 17.3339 86.7088 17.3554 86.5926 17.1024C86.6331 16.6633 86.3309 17.3384 86.3258 17.3391C86.3046 17.2343 85.6424 16.918 85.4774 16.9422C85.3871 16.9563 85.2864 17.3321 85.2416 17.3328C84.1777 17.3403 83.1952 17.0946 82.3525 16.554C82.3398 16.5401 82.5534 16.137 82.5213 16.1092C82.0799 15.7097 81.5091 16.074 80.9265 16.1937C80.3455 16.3126 80.047 16.0645 80.158 15.2307C79.7914 15.178 79.4979 14.6489 79.341 14.331C79.184 14.0131 78.7186 14.821 78.6868 14.8267C77.6964 15.0149 77.5332 14.3463 76.8483 13.9145C76.5229 13.7084 75.7761 13.4921 75.3568 13.401C75.0245 13.3306 74.9591 13.043 74.6219 13.0366C74.5764 13.0355 74.4033 13.4341 74.3842 13.4432C73.8346 13.7505 74.4915 12.8907 74.5219 12.6934C74.6337 11.9759 74.6779 11.5806 74.1431 11.6723C74.0204 11.6921 73.0205 12.9178 72.8183 12.9197C72.5572 12.9183 72.903 12.4691 72.6236 12.4799C72.5999 12.4804 72.4382 12.7839 72.3131 12.7048C71.7294 12.3412 71.1641 11.8335 70.5209 11.5565C70.4339 11.5177 70.2815 12.0612 70.1517 12.014C69.5415 11.7911 68.9276 11.4771 68.4913 10.9826C68.3851 10.8595 68.6488 10.5472 68.6721 10.4287C68.8084 9.70837 68.0872 10.5102 68.0372 10.5097C66.8104 10.497 66.4464 9.30834 65.2513 9.31361C65.1819 9.31315 64.34 10.1963 64.5192 9.23C64.5322 9.16634 64.7112 8.17298 64.2981 8.74364C64.2729 8.77972 64.2001 9.297 64.0208 9.17617C63.8398 9.05459 63.4066 9.2649 63.3257 8.64345C63.3022 8.44859 63.4166 7.43648 62.901 8.10458C62.8587 8.14784 61.9218 9.73882 62.1593 8.51739C62.1985 8.31649 62.6087 7.06716 62.1016 7.62165C62.0058 7.73024 62.0273 8.04069 61.8233 8.17352C61.5135 8.37991 61.2961 7.95795 60.8711 8.45874C60.794 8.54664 60.3845 9.36878 60.3806 8.67308C60.3791 8.56386 60.5279 8.14611 60.4512 8.07878C60.0822 7.75579 59.5927 7.96288 59.2235 7.59696C59.0904 7.46812 59.278 6.7756 59.1422 6.56258C59.0077 6.34948 58.6913 6.12365 58.4829 6.42919C58.2785 6.73513 58.3361 7.88332 58.0908 7.95C58.0595 7.95867 58.0284 7.9665 57.9975 7.97354C57.9958 7.97392 57.9941 7.9743 57.9925 7.97468C56.899 8.19583 55.7872 7.52423 54.6054 7.43312C54.4282 7.41929 54.5815 7.82345 54.3208 7.83282C53.3477 7.8655 51.7014 8.31715 50.7566 7.54386C49.9842 6.92547 50.8204 6.33291 50.2451 6.1061C49.966 5.99989 49.8368 7.31604 49.7807 7.36211C49.2193 7.83324 48.7339 7.31209 48.2076 7.55456C48.1014 7.60441 48.2896 8.10565 48.1989 8.1421C47.8932 8.27036 47.5035 8.08854 47.2064 8.17308C47.0713 8.21252 47.1654 8.59802 47.0331 8.58592C46.7168 8.56187 46.4124 8.43996 46.0458 8.12622C46.0118 8.09794 46.1034 7.5881 45.871 7.60802C45.4954 7.64117 44.9531 7.37192 44.6065 7.81514C44.5028 7.94858 44.6944 8.81384 44.2861 8.26835C44.2014 8.15437 44.0306 7.10564 43.9248 8.06153C43.9039 8.22235 43.6725 9.52064 43.221 8.80513C43.1004 8.61708 42.7157 7.81954 42.5963 7.98481C42.5813 8.01011 42.781 8.44706 42.6675 8.51849C42.2655 8.76215 41.7875 8.81979 41.3779 9.06609C41.2684 9.13264 41.5797 9.55159 41.4132 9.6352C40.9501 9.86683 40.3181 9.89464 39.7868 9.8814C39.5942 9.87447 39.5963 9.47182 39.5706 9.43462C39.1522 8.83387 39.3161 9.75251 39.2653 9.82129C38.9424 10.2418 38.4736 9.92309 38.122 10.1431C38.0241 10.2026 38.2456 10.5917 38.2371 10.6345C38.142 11.0545 38.0462 10.2706 37.876 10.2305C37.3957 10.1173 36.9655 10.2861 36.5856 10.4622C36.446 10.5276 36.788 10.9392 36.6612 10.9916C35.9138 11.3105 35.093 11.5242 34.2395 11.5427C34.0775 11.546 34.0207 11.1772 33.9577 11.1105C33.5183 10.6466 33.5358 11.4908 33.4982 11.5833C33.3291 12.0103 33.077 11.7611 32.826 11.9187C31.6074 12.6824 29.8667 13.1599 28.5643 13.6156C26.8644 14.2039 25.4565 14.5786 23.9735 15.4553C23.902 15.4972 24.0609 15.6634 24.1108 15.7655C24.1271 15.7994 24.1313 15.8264 24.1107 15.8397C23.0363 16.5087 21.8742 16.9586 20.809 17.6471C20.7222 17.7017 21.0412 17.9091 20.9079 18.0048C20.6406 18.1992 20.235 18.3896 19.8746 18.4636C19.6984 18.5012 19.7408 18.1688 19.5674 18.2125C19.1683 18.3113 18.7762 18.5051 18.4518 18.7389C18.3134 18.8388 18.7205 18.9725 18.526 19.0806C17.1984 19.8315 15.8944 20.5603 14.3517 21.0538C14.2457 21.087 13.8556 20.7173 13.7245 20.9127C13.7953 21.0354 13.8962 21.169 13.9808 21.2945C12.09 22.4632 10.1002 23.4565 8.21223 24.6593C8.13232 24.7094 8.38296 24.7565 8.22808 24.8524C7.33319 25.413 6.48763 25.9815 5.51226 26.5018C5.41597 26.554 5.3125 26.3651 5.08328 26.5745C5.047 26.6072 4.67526 26.9192 4.60784 27.0186C4.59867 27.0326 4.7293 27.0461 4.60791 27.136C3.89301 27.6662 3.12938 28.2104 2.4252 28.7601C2.31034 28.8508 2.3904 28.7155 2.30863 28.7813C1.74596 29.2437 1.18411 29.8018 0.695945 30.3038C0.380578 30.6391 0.471964 30.5066 0.308532 30.6917C0.286622 30.7158 0.1161 30.9539 0.106654 30.9654C0.0809192 30.995 0.14335 30.8675 0.105895 30.9126C0.0988602 30.921 -0.0012381 31.1295 0 31.1287C0 31.1287 0 31.1287 0 31.1287C2.56693e-05 31.1287 0.0081033 31.111 0.0291069 31.0641C0.0334835 31.0521 0.156881 30.7901 0.184294 30.7268C0.202764 30.6824 0.160602 30.7569 0.198687 30.6661C0.23564 30.5751 0.292609 30.4763 0.361381 30.3247C0.428954 30.1737 0.378982 30.2305 0.528477 29.9236ZM78.6495 12.8946C78.6295 12.3773 77.8132 13.8246 78.2552 13.5998C78.2775 13.5872 78.6511 12.9202 78.6495 12.8946ZM109.071 12.5861C108.638 12.4968 108.644 13.0064 108.96 13.0864C109.273 13.1588 109.202 12.6091 109.071 12.5861ZM111.955 10.5416C111.529 10.6033 111.864 11.2765 112.134 10.8994C112.15 10.8775 111.979 10.5374 111.955 10.5416ZM1.02212 29.7888C1.01811 29.7911 0.882173 29.9507 0.880504 29.9548C0.827773 30.0543 1.10459 29.7406 1.02212 29.7888ZM114.737 8.44689C114.599 8.46396 114.353 8.73066 114.525 8.71257C114.662 8.69541 114.906 8.42246 114.737 8.44689ZM67.5903 5.14283C67.5976 5.11613 67.4709 5.03408 67.412 5.17721C67.2227 5.63804 67.4667 5.59057 67.5903 5.14283ZM119.446 4.91196C118.767 5.45584 118.265 5.66339 119.057 5.142C119.198 5.04463 118.766 5.37011 118.949 5.25003C119.275 5.02014 119.481 4.85276 119.819 4.62359C119.876 4.5775 119.483 4.87779 119.445 4.91294C119.446 4.91261 119.446 4.91228 119.446 4.91196ZM79.4512 11.0693C79.4569 11.0476 79.2847 10.932 79.27 10.9488C78.9219 11.3618 79.2716 11.5935 79.4512 11.0693ZM59.4924 1.54657C59.4883 1.49152 58.9973 1.3828 58.9755 1.43065C58.6229 2.3677 59.5706 2.58376 59.4924 1.54657ZM92.5399 15.2272C92.8388 14.8647 93.0918 14.8775 93.1679 15.4236C92.961 15.3526 92.7477 15.3017 92.5399 15.2272Z" fill="#66033C"/>
</svg>
